<?xml version="1.0" encoding="utf-8"?>
<!-- Generator: Adobe Illustrator 27.0.0, SVG Export Plug-In . SVG Version: 6.00 Build 0)  -->
<svg version="1.1" id="Capa_1" xmlns="http://www.w3.org/2000/svg" xmlns:xlink="http://www.w3.org/1999/xlink" x="0px" y="0px"
	 viewBox="0 0 60 60" style="enable-background:new 0 0 60 60;" xml:space="preserve">
<style type="text/css">
	.st0{fill:#2D3B2B;}
</style>
<g>
	<g>
		<g>
			<path class="st0" d="M39.1,8.18c9,3.69,14.88,12.59,14.95,22.27c0.01,1.48,2.31,1.48,2.3,0c-0.07-10.8-6.67-20.4-16.63-24.49
				C38.34,5.41,37.75,7.63,39.1,8.18L39.1,8.18z"/>
		</g>
	</g>
	<g>
		<g>
			<path class="st0" d="M5.96,30.46C6.02,20.8,11.79,12.18,20.61,8.3c1.35-0.59,0.18-2.57-1.16-1.98
				C9.92,10.51,3.73,20.07,3.66,30.46C3.65,31.93,5.95,31.94,5.96,30.46L5.96,30.46z"/>
		</g>
	</g>
	<g>
		<g>
			<g>
				<g>
					<path class="st0" d="M31.97,23.69c3.2,0.9,6.41,1.8,9.61,2.7c-0.11-0.43-0.23-0.85-0.34-1.28c-2.44,2.42-4.89,4.85-7.33,7.27
						c0.25-0.07,0.5-0.13,0.74-0.2c-3.12-0.9-6.23-1.8-9.35-2.7c0.11,0.43,0.23,0.85,0.34,1.28c2.36-2.42,4.71-4.84,7.07-7.26
						c0.69-0.71-0.39-1.79-1.08-1.08c-2.36,2.42-4.71,4.84-7.07,7.26c-0.4,0.41-0.22,1.12,0.34,1.28c3.12,0.9,6.23,1.8,9.35,2.7
						c0.26,0.08,0.55-0.01,0.74-0.2c2.44-2.42,4.89-4.85,7.33-7.27c0.41-0.41,0.21-1.12-0.34-1.28c-3.2-0.9-6.41-1.8-9.61-2.7
						C31.42,21.95,31.02,23.43,31.97,23.69z"/>
				</g>
			</g>
			<g>
				<g>
					<path class="st0" d="M34.26,33.77c3.2,0.9,6.41,1.8,9.61,2.7c-0.11-0.43-0.23-0.85-0.34-1.28c-2.44,2.42-4.89,4.85-7.33,7.27
						c0.25-0.07,0.5-0.13,0.74-0.2c-3.12-0.9-6.23-1.8-9.35-2.7c0.11,0.43,0.23,0.85,0.34,1.28c2.36-2.42,4.71-4.84,7.07-7.26
						c0.69-0.71-0.39-1.79-1.08-1.08c-2.36,2.42-4.71,4.84-7.07,7.26c-0.4,0.41-0.22,1.12,0.34,1.28c3.12,0.9,6.23,1.8,9.35,2.7
						c0.26,0.08,0.55-0.01,0.74-0.2c2.44-2.42,4.89-4.85,7.33-7.27c0.41-0.41,0.21-1.12-0.34-1.28c-3.2-0.9-6.41-1.8-9.61-2.7
						C33.71,32.03,33.31,33.5,34.26,33.77z"/>
				</g>
			</g>
			<g>
				<g>
					<path class="st0" d="M41.04,25.86c0.67,2.94,1.34,5.88,2.01,8.82c0.1,0.42,0.19,0.84,0.29,1.26c0.22,0.96,1.69,0.55,1.48-0.41
						c-0.67-2.94-1.34-5.88-2.01-8.82c-0.1-0.42-0.19-0.84-0.29-1.26C42.3,24.49,40.82,24.9,41.04,25.86L41.04,25.86z"/>
				</g>
			</g>
			<g>
				<g>
					<path class="st0" d="M33.85,33.18c0.64,2.8,1.27,5.6,1.91,8.4c0.09,0.4,0.18,0.8,0.27,1.2c0.22,0.96,1.69,0.55,1.48-0.41
						c-0.64-2.8-1.27-5.6-1.91-8.4c-0.09-0.4-0.18-0.8-0.27-1.2C35.1,31.81,33.63,32.22,33.85,33.18L33.85,33.18z"/>
				</g>
			</g>
			<g>
				<g>
					<path class="st0" d="M24.36,30.42c0.67,2.94,1.34,5.88,2.01,8.82c0.1,0.42,0.19,0.84,0.29,1.26c0.22,0.96,1.69,0.55,1.48-0.41
						c-0.67-2.94-1.34-5.88-2.01-8.82c-0.1-0.42-0.19-0.84-0.29-1.26C25.62,29.05,24.14,29.46,24.36,30.42L24.36,30.42z"/>
				</g>
			</g>
		</g>
		<g>
			<g>
				<g>
					<path class="st0" d="M33.5,22.63c-1.71-1.75-3.41-3.5-5.12-5.26c-0.19-0.19-0.48-0.27-0.74-0.2c-3.2,0.9-6.41,1.8-9.61,2.7
						c-0.55,0.15-0.75,0.87-0.34,1.28c2.44,2.42,4.89,4.84,7.33,7.26c0.19,0.19,0.48,0.27,0.74,0.2c0.85-0.24,1.69-0.49,2.54-0.73
						c0.94-0.27,0.54-1.75-0.41-1.48c-0.85,0.24-1.69,0.49-2.54,0.73c0.25,0.07,0.5,0.13,0.74,0.2c-2.44-2.42-4.89-4.84-7.33-7.26
						c-0.11,0.43-0.23,0.85-0.34,1.28c3.2-0.9,6.41-1.8,9.61-2.7c-0.25-0.07-0.5-0.13-0.74-0.2c1.71,1.75,3.41,3.5,5.12,5.26
						C33.1,24.42,34.19,23.34,33.5,22.63L33.5,22.63z"/>
				</g>
			</g>
			<g>
				<g>
					<path class="st0" d="M32.18,34.62C32.18,34.62,32.17,34.62,32.18,34.62c-0.11,0-0.21,0.02-0.3,0.07
						c-0.09,0.03-0.18,0.08-0.25,0.16c-0.07,0.07-0.13,0.15-0.16,0.25c-0.05,0.09-0.07,0.19-0.07,0.29c0.01,0.07,0.02,0.14,0.03,0.2
						c0.04,0.13,0.1,0.24,0.2,0.34c0.05,0.04,0.1,0.08,0.15,0.12c0.12,0.07,0.25,0.1,0.39,0.1c0,0,0,0,0.01,0
						c0.11,0,0.2-0.02,0.29-0.07c0.09-0.03,0.18-0.08,0.25-0.16c0.07-0.07,0.13-0.15,0.16-0.25c0.05-0.09,0.07-0.19,0.07-0.29
						c-0.01-0.07-0.02-0.14-0.03-0.2c-0.04-0.13-0.1-0.24-0.2-0.34c-0.05-0.04-0.1-0.08-0.15-0.12
						C32.44,34.65,32.32,34.62,32.18,34.62L32.18,34.62z"/>
				</g>
			</g>
			<g>
				<g>
					<path class="st0" d="M26.43,36.24c-1.12,0.33-2.25,0.65-3.37,0.98c0.25,0.07,0.5,0.13,0.74,0.2c-2.14-2.12-4.28-4.24-6.42-6.36
						c-0.3-0.3-0.61-0.6-0.91-0.91c-0.11,0.43-0.23,0.85-0.34,1.28c2.82-0.79,5.64-1.58,8.45-2.38c0.38-0.11,0.77-0.22,1.15-0.32
						c-0.25-0.07-0.5-0.13-0.74-0.2c0.29,0.3,0.57,0.59,0.86,0.89c0.69,0.71,1.77-0.37,1.08-1.08c-0.29-0.3-0.57-0.59-0.86-0.89
						c-0.19-0.2-0.48-0.27-0.74-0.2c-2.8,0.76-5.59,1.57-8.39,2.36c-0.41,0.11-0.81,0.23-1.22,0.34c-0.55,0.15-0.75,0.87-0.34,1.28
						c2.14,2.12,4.28,4.24,6.42,6.36c0.3,0.3,0.61,0.6,0.91,0.91c0.19,0.19,0.48,0.27,0.74,0.2c1.12-0.33,2.25-0.65,3.37-0.98
						C27.78,37.45,27.38,35.97,26.43,36.24L26.43,36.24z"/>
				</g>
			</g>
			<g>
				<g>
					<path class="st0" d="M17.49,20.41c-0.67,2.94-1.34,5.88-2.01,8.82c-0.1,0.42-0.19,0.84-0.29,1.26
						c-0.22,0.96,1.26,1.37,1.48,0.41c0.67-2.94,1.34-5.88,2.01-8.82c0.1-0.42,0.19-0.84,0.29-1.26
						C19.18,19.86,17.7,19.45,17.49,20.41L17.49,20.41z"/>
				</g>
			</g>
			<g>
				<g>
					<path class="st0" d="M24.68,27.73c-0.64,2.8-1.27,5.6-1.91,8.4c-0.09,0.4-0.18,0.8-0.27,1.2c-0.22,0.96,1.26,1.37,1.48,0.41
						c0.64-2.8,1.27-5.6,1.91-8.4c0.09-0.4,0.18-0.8,0.27-1.2C26.37,27.18,24.9,26.77,24.68,27.73L24.68,27.73z"/>
				</g>
			</g>
		</g>
	</g>
	<g>
		<g>
			<path class="st0" d="M24.25,7.05c0.05-0.07,0.12-0.11,0.21-0.12c0.06-0.01,0.14,0,0.26,0.04c0.11,0.04,0.23,0.08,0.35,0.13
				c0.12,0.05,0.29,0.08,0.49,0.1c0.2,0.02,0.41,0.02,0.63-0.02c0.31-0.05,0.54-0.17,0.71-0.34c0.16-0.18,0.23-0.38,0.18-0.62
				C27.05,6.09,27,5.97,26.91,5.88c-0.08-0.09-0.19-0.16-0.31-0.21c-0.12-0.05-0.26-0.09-0.42-0.12s-0.32-0.06-0.49-0.08
				c-0.17-0.02-0.34-0.05-0.51-0.08c-0.17-0.03-0.33-0.07-0.49-0.12c-0.16-0.05-0.3-0.12-0.43-0.2c-0.13-0.08-0.24-0.19-0.33-0.33
				c-0.09-0.14-0.15-0.3-0.19-0.49c-0.07-0.42,0.04-0.78,0.32-1.09c0.28-0.31,0.69-0.52,1.23-0.61c0.47-0.08,0.88-0.07,1.25,0.04
				c0.37,0.11,0.57,0.26,0.6,0.47c0.01,0.09,0,0.16-0.05,0.22c-0.05,0.06-0.12,0.1-0.21,0.12c-0.06,0.01-0.15,0-0.25-0.02
				c-0.11-0.03-0.21-0.06-0.32-0.09c-0.11-0.03-0.25-0.06-0.43-0.07c-0.18-0.01-0.37,0-0.56,0.03c-0.28,0.05-0.5,0.15-0.65,0.3
				c-0.15,0.16-0.21,0.33-0.17,0.54c0.02,0.12,0.07,0.22,0.16,0.31c0.08,0.08,0.19,0.15,0.31,0.19c0.12,0.04,0.26,0.08,0.41,0.11
				c0.15,0.03,0.32,0.06,0.48,0.08c0.17,0.02,0.34,0.05,0.51,0.08c0.17,0.03,0.34,0.07,0.49,0.13c0.16,0.06,0.3,0.13,0.43,0.21
				c0.13,0.08,0.24,0.2,0.33,0.34c0.09,0.15,0.16,0.32,0.19,0.51c0.08,0.46-0.02,0.85-0.31,1.19c-0.28,0.33-0.71,0.55-1.27,0.64
				c-0.32,0.05-0.64,0.06-0.95,0.02c-0.31-0.04-0.56-0.12-0.76-0.23c-0.2-0.11-0.31-0.24-0.33-0.39C24.18,7.19,24.2,7.12,24.25,7.05
				z"/>
		</g>
		<g>
			<path class="st0" d="M29.02,2.34c0.07-0.07,0.16-0.11,0.26-0.11c0.11,0,0.2,0.03,0.27,0.1c0.07,0.07,0.11,0.15,0.11,0.26
				l0.11,4.53c0,0.11-0.03,0.2-0.1,0.27c-0.07,0.07-0.16,0.11-0.27,0.11c-0.11,0-0.2-0.03-0.27-0.1c-0.07-0.07-0.11-0.15-0.11-0.26
				L28.92,2.6C28.92,2.5,28.96,2.41,29.02,2.34z"/>
		</g>
		<g>
			<path class="st0" d="M36.06,2.91c0.06,0.08,0.08,0.17,0.06,0.27L35.5,7.57c-0.02,0.14-0.07,0.25-0.15,0.32s-0.18,0.1-0.3,0.08
				c-0.13-0.02-0.23-0.06-0.31-0.14c-0.08-0.07-0.16-0.19-0.24-0.34l-2.15-3.92l-0.51,3.56c-0.01,0.11-0.06,0.19-0.14,0.25
				c-0.08,0.06-0.17,0.08-0.28,0.06c-0.11-0.01-0.19-0.06-0.25-0.14c-0.06-0.08-0.08-0.17-0.07-0.27l0.62-4.38
				c0.02-0.15,0.07-0.26,0.16-0.33c0.09-0.07,0.19-0.1,0.33-0.08c0.12,0.02,0.21,0.06,0.28,0.13c0.07,0.07,0.14,0.18,0.21,0.32
				l2.17,3.99l0.51-3.61c0.01-0.1,0.06-0.19,0.14-0.25c0.08-0.06,0.17-0.08,0.27-0.07C35.92,2.78,36,2.83,36.06,2.91z"/>
		</g>
	</g>
	<g>
		<g>
			<path class="st0" d="M5.03,39.6c-0.21-0.06-0.35-0.22-0.41-0.48c-0.08-0.35,0.08-0.66,0.49-0.93l0.3-0.21l-0.47-2.04l-0.36-0.05
				C4.32,35.85,4.13,35.79,4,35.71c-0.13-0.08-0.22-0.22-0.26-0.41c-0.06-0.25-0.01-0.45,0.16-0.59c0.16-0.14,0.4-0.19,0.72-0.15
				l3.66,0.6c0.33,0.05,0.58,0.14,0.74,0.27c0.16,0.13,0.28,0.32,0.34,0.59c0.06,0.26,0.05,0.48-0.04,0.67s-0.27,0.37-0.55,0.57
				l-3.02,2.15C5.48,39.6,5.24,39.66,5.03,39.6z M6.47,37.26l1.38-0.92L6.2,36.11L6.47,37.26z"/>
		</g>
		<g>
			<path class="st0" d="M9.11,39.7c-0.08-0.17-0.09-0.33-0.04-0.48s0.17-0.28,0.34-0.36c0.16-0.08,0.33-0.09,0.48-0.04
				s0.28,0.16,0.36,0.33l1.16,2.38c0.12,0.25,0.16,0.48,0.11,0.67c-0.05,0.19-0.18,0.34-0.39,0.44c-0.06,0.03-0.11,0.05-0.18,0.06
				c-0.06,0.01-0.12,0.02-0.16,0.03c-0.05,0-0.11,0-0.19-0.01s-0.14-0.02-0.18-0.03c-0.04-0.01-0.11-0.02-0.21-0.05
				c-0.1-0.02-0.18-0.04-0.22-0.05l-2.78-0.62l0.77,1.58c0.08,0.16,0.09,0.33,0.04,0.48c-0.06,0.16-0.17,0.28-0.33,0.36
				c-0.16,0.08-0.33,0.09-0.48,0.04c-0.16-0.05-0.28-0.16-0.36-0.33l-1.25-2.57c-0.1-0.21-0.13-0.41-0.07-0.61
				c0.05-0.19,0.18-0.33,0.38-0.43c0.07-0.03,0.14-0.06,0.21-0.07c0.07-0.01,0.14-0.02,0.23-0.01c0.08,0.01,0.15,0.02,0.2,0.02
				c0.05,0.01,0.13,0.03,0.26,0.06c0.12,0.03,0.21,0.05,0.26,0.06l2.78,0.61L9.11,39.7z"/>
		</g>
		<g>
			<path class="st0" d="M11.9,42.76c0.18,0.02,0.33,0.11,0.45,0.26c0.12,0.16,0.17,0.32,0.15,0.5c-0.02,0.18-0.11,0.33-0.27,0.45
				l-1.84,1.44c-0.25,0.2-0.4,0.42-0.45,0.66c-0.05,0.25,0.01,0.48,0.18,0.69c0.16,0.21,0.37,0.32,0.62,0.33
				c0.25,0.01,0.5-0.08,0.74-0.27l1.84-1.44c0.16-0.12,0.32-0.17,0.5-0.15c0.18,0.02,0.33,0.11,0.45,0.26
				c0.12,0.16,0.17,0.32,0.15,0.5c-0.02,0.18-0.11,0.33-0.27,0.45l-1.86,1.46c-0.56,0.44-1.14,0.63-1.73,0.57
				c-0.59-0.06-1.1-0.35-1.52-0.89c-0.41-0.53-0.58-1.09-0.49-1.67c0.09-0.59,0.41-1.1,0.97-1.54l1.86-1.46
				C11.56,42.79,11.73,42.74,11.9,42.76z M15.47,44.12c0,0.14-0.05,0.25-0.15,0.33c-0.1,0.08-0.24,0.11-0.43,0.11l-0.7-0.07
				c-0.22-0.02-0.4-0.12-0.54-0.29c-0.12-0.15-0.15-0.3-0.09-0.45s0.19-0.23,0.38-0.26l0.6-0.08c0.17-0.02,0.32-0.01,0.44,0.04
				c0.12,0.05,0.24,0.14,0.34,0.27C15.42,43.84,15.47,43.98,15.47,44.12z"/>
		</g>
		<g>
			<path class="st0" d="M13.75,47.58c0.23-0.16,0.48-0.28,0.75-0.36c0.26-0.08,0.54-0.11,0.81-0.1c0.28,0.01,0.56,0.08,0.85,0.2
				c0.29,0.12,0.58,0.29,0.85,0.52c0.26,0.21,0.47,0.44,0.64,0.7c0.17,0.25,0.27,0.5,0.3,0.74c0.03,0.24-0.02,0.44-0.15,0.6
				c-0.13,0.15-0.27,0.23-0.42,0.23c-0.16,0-0.31-0.05-0.45-0.17c-0.1-0.08-0.18-0.18-0.25-0.31c-0.07-0.12-0.14-0.26-0.23-0.4
				c-0.09-0.14-0.2-0.27-0.35-0.39c-0.33-0.27-0.66-0.37-0.99-0.31c-0.34,0.06-0.63,0.25-0.89,0.56c-0.26,0.31-0.39,0.64-0.38,0.98
				c0,0.34,0.17,0.64,0.5,0.91c0.15,0.12,0.3,0.21,0.45,0.27c0.15,0.06,0.3,0.11,0.44,0.15c0.14,0.04,0.25,0.1,0.35,0.18
				c0.14,0.11,0.22,0.25,0.25,0.41c0.03,0.16-0.02,0.31-0.15,0.46c-0.13,0.16-0.32,0.25-0.56,0.26s-0.5-0.04-0.79-0.15
				c-0.28-0.11-0.55-0.28-0.81-0.49c-0.27-0.23-0.5-0.47-0.67-0.74c-0.17-0.26-0.29-0.53-0.36-0.8s-0.09-0.54-0.06-0.81
				c0.02-0.27,0.09-0.54,0.21-0.8c0.11-0.26,0.27-0.51,0.46-0.74C13.3,47.94,13.51,47.74,13.75,47.58z"/>
		</g>
		<g>
			<path class="st0" d="M20.52,55.79c-0.18,0.12-0.39,0.12-0.63,0c-0.32-0.16-0.46-0.49-0.41-0.97l0.04-0.37l-1.87-0.94l-0.27,0.25
				c-0.19,0.17-0.36,0.29-0.5,0.33c-0.14,0.05-0.3,0.03-0.48-0.06c-0.23-0.12-0.35-0.28-0.35-0.5c-0.01-0.22,0.11-0.43,0.35-0.65
				l2.81-2.44c0.25-0.22,0.48-0.35,0.69-0.4c0.2-0.04,0.43,0,0.67,0.12c0.24,0.12,0.4,0.27,0.48,0.46c0.08,0.19,0.11,0.45,0.09,0.78
				l-0.28,3.71C20.81,55.44,20.7,55.67,20.52,55.79z M19.64,53.18l0.18-1.66l-1.23,1.12L19.64,53.18z"/>
		</g>
		<g>
			<path class="st0" d="M25.76,56.25c0.07,0.23,0.09,0.44,0.04,0.63c-0.04,0.16-0.13,0.28-0.26,0.35c-0.13,0.07-0.29,0.09-0.48,0.04
				c-0.16-0.04-0.29-0.11-0.38-0.22c-0.09-0.11-0.17-0.26-0.22-0.46l-0.37-1.4l-0.52-0.13l-0.26,1.08c-0.05,0.19-0.15,0.34-0.3,0.43
				c-0.15,0.09-0.32,0.12-0.51,0.07c-0.19-0.05-0.34-0.15-0.43-0.3c-0.09-0.15-0.12-0.33-0.07-0.52l0.93-3.86
				c0.04-0.18,0.14-0.31,0.28-0.4c0.14-0.09,0.3-0.11,0.48-0.07l1.24,0.3c0.65,0.16,1.13,0.44,1.45,0.84
				c0.32,0.4,0.42,0.86,0.29,1.36c-0.08,0.31-0.22,0.58-0.43,0.78c-0.21,0.21-0.47,0.35-0.78,0.43L25.76,56.25z M23.84,53.93
				l0.64,0.15c0.2,0.05,0.37,0.03,0.51-0.04s0.24-0.19,0.28-0.36c0.04-0.16,0.01-0.3-0.09-0.43c-0.1-0.13-0.25-0.21-0.44-0.26
				l-0.64-0.16L23.84,53.93z"/>
		</g>
		<g>
			<path class="st0" d="M34.03,57.22c-0.1,0.2-0.28,0.3-0.54,0.32c-0.36,0.02-0.64-0.19-0.84-0.64l-0.15-0.33l-2.1,0.12l-0.11,0.35
				c-0.08,0.25-0.17,0.43-0.27,0.54c-0.1,0.11-0.25,0.18-0.45,0.19c-0.26,0.01-0.44-0.07-0.56-0.26c-0.11-0.19-0.12-0.43-0.02-0.73
				l1.21-3.52c0.11-0.32,0.24-0.55,0.4-0.69c0.15-0.14,0.37-0.22,0.64-0.23c0.27-0.02,0.49,0.04,0.65,0.16
				c0.17,0.12,0.32,0.33,0.47,0.64l1.62,3.35C34.1,56.78,34.12,57.02,34.03,57.22z M31.96,55.4l-0.68-1.52l-0.51,1.59L31.96,55.4z"
				/>
		</g>
		<g>
			<path class="st0" d="M38.38,51c0.16,0.08,0.27,0.22,0.32,0.41l1.11,3.63c0.08,0.25,0.07,0.46-0.02,0.65s-0.24,0.31-0.46,0.38
				c-0.16,0.05-0.31,0.06-0.45,0.04c-0.14-0.02-0.27-0.06-0.39-0.13c-0.11-0.07-0.25-0.16-0.41-0.29l-2.11-1.68l0.66,2.17
				c0.06,0.19,0.05,0.36-0.04,0.52c-0.08,0.16-0.22,0.26-0.41,0.32c-0.19,0.06-0.37,0.05-0.52-0.04c-0.16-0.08-0.27-0.22-0.32-0.41
				l-1.11-3.63c-0.08-0.26-0.07-0.48,0.02-0.66c0.09-0.18,0.26-0.31,0.49-0.38c0.21-0.06,0.4-0.06,0.58,0
				c0.18,0.07,0.38,0.2,0.62,0.39l2.15,1.76l-0.69-2.26c-0.06-0.19-0.05-0.36,0.04-0.52s0.22-0.26,0.41-0.32
				C38.05,50.91,38.22,50.92,38.38,51z M34.76,51.36c-0.09-0.06-0.15-0.14-0.19-0.26c-0.06-0.19-0.03-0.39,0.07-0.59
				c0.11-0.2,0.27-0.33,0.49-0.4c0.15-0.05,0.38-0.06,0.66-0.05c0.28,0.02,0.48,0.01,0.6-0.03c0.07-0.02,0.14-0.09,0.23-0.21
				c0.08-0.12,0.17-0.19,0.26-0.22c0.11-0.03,0.21-0.02,0.3,0.03c0.09,0.06,0.15,0.14,0.19,0.25c0.06,0.19,0.03,0.39-0.08,0.59
				s-0.28,0.33-0.5,0.4c-0.16,0.05-0.38,0.06-0.66,0.04c-0.28-0.02-0.48-0.01-0.59,0.02c-0.08,0.02-0.15,0.09-0.24,0.21
				c-0.08,0.12-0.16,0.19-0.24,0.22C34.96,51.43,34.85,51.42,34.76,51.36z"/>
		</g>
		<g>
			<path class="st0" d="M45.63,52.39c0.01,0.22-0.1,0.4-0.33,0.53c-0.31,0.19-0.66,0.13-1.04-0.17l-0.29-0.23l-1.79,1.08l0.06,0.36
				c0.05,0.25,0.05,0.46,0.01,0.6c-0.04,0.15-0.14,0.27-0.31,0.37c-0.22,0.13-0.42,0.14-0.61,0.03c-0.19-0.11-0.31-0.32-0.36-0.64
				l-0.56-3.67c-0.05-0.33-0.04-0.59,0.03-0.79c0.07-0.2,0.22-0.36,0.45-0.5c0.23-0.14,0.45-0.19,0.65-0.16
				c0.2,0.03,0.44,0.14,0.71,0.34l2.98,2.21C45.49,51.97,45.62,52.17,45.63,52.39z M42.96,51.75l-1.3-1.03l0.29,1.64L42.96,51.75z"
				/>
		</g>
		<g>
			<path class="st0" d="M43.53,47.93c0-0.17,0.07-0.32,0.2-0.44l0.9-0.89c0.4-0.39,0.84-0.67,1.32-0.83
				c0.48-0.16,0.95-0.18,1.41-0.08c0.46,0.11,0.87,0.34,1.22,0.69c0.35,0.35,0.57,0.76,0.67,1.22c0.1,0.46,0.07,0.93-0.1,1.41
				c-0.16,0.48-0.45,0.91-0.84,1.31l-0.9,0.89c-0.13,0.13-0.28,0.19-0.45,0.19c-0.17,0-0.31-0.07-0.44-0.2l-2.79-2.82
				C43.59,48.25,43.53,48.1,43.53,47.93z M47.06,49.78l0.35-0.35c0.33-0.32,0.5-0.67,0.53-1.04c0.03-0.37-0.1-0.71-0.39-1
				c-0.28-0.29-0.61-0.42-0.99-0.4c-0.37,0.02-0.73,0.2-1.06,0.52l-0.35,0.34L47.06,49.78z"/>
		</g>
		<g>
			<path class="st0" d="M47.05,44.13c-0.03-0.18,0.01-0.34,0.13-0.5c0.12-0.16,0.26-0.26,0.44-0.28c0.18-0.03,0.34,0.02,0.51,0.13
				l3.2,2.32c0.16,0.12,0.26,0.26,0.28,0.44c0.03,0.18-0.01,0.34-0.13,0.5c-0.12,0.16-0.26,0.26-0.44,0.28
				c-0.18,0.03-0.34-0.02-0.51-0.13l-3.2-2.32C47.17,44.45,47.08,44.31,47.05,44.13z"/>
		</g>
		<g>
			<path class="st0" d="M48.24,42.62c-0.05-0.16-0.04-0.32,0.04-0.48L48.85,41c0.25-0.5,0.58-0.9,0.98-1.21
				c0.4-0.3,0.84-0.48,1.31-0.53c0.47-0.05,0.93,0.04,1.38,0.26c0.44,0.22,0.78,0.53,1.03,0.94c0.24,0.4,0.36,0.86,0.36,1.36
				c0,0.5-0.13,1.01-0.38,1.51l-0.57,1.14c-0.08,0.16-0.2,0.27-0.36,0.32c-0.16,0.05-0.32,0.04-0.48-0.04l-3.55-1.77
				C48.4,42.9,48.3,42.78,48.24,42.62z M52.17,43.23l0.22-0.45c0.2-0.41,0.26-0.8,0.16-1.16c-0.1-0.36-0.33-0.63-0.69-0.82
				c-0.36-0.18-0.71-0.2-1.06-0.06c-0.35,0.14-0.62,0.42-0.83,0.84l-0.22,0.44L52.17,43.23z"/>
		</g>
		<g>
			<path class="st0" d="M56.08,34.85c0.16,0.15,0.21,0.35,0.15,0.61c-0.08,0.35-0.37,0.56-0.85,0.62l-0.36,0.05l-0.48,2.04l0.3,0.21
				c0.21,0.15,0.36,0.28,0.44,0.41c0.08,0.13,0.1,0.29,0.05,0.48c-0.06,0.25-0.19,0.4-0.4,0.46c-0.21,0.05-0.45-0.01-0.71-0.19
				l-3.01-2.17c-0.27-0.2-0.45-0.39-0.54-0.57c-0.09-0.19-0.1-0.41-0.04-0.68c0.06-0.26,0.17-0.45,0.34-0.58
				c0.16-0.12,0.41-0.21,0.74-0.26l3.67-0.58C55.68,34.65,55.92,34.7,56.08,34.85z M53.75,36.3l-1.65,0.21l1.38,0.94L53.75,36.3z"/>
		</g>
	</g>
</g>
</svg>
