<?xml version="1.0" encoding="utf-8"?>
<!-- Generator: Adobe Illustrator 27.0.0, SVG Export Plug-In . SVG Version: 6.00 Build 0)  -->
<svg version="1.1" id="Capa_1" xmlns="http://www.w3.org/2000/svg" xmlns:xlink="http://www.w3.org/1999/xlink" x="0px" y="0px"
	 viewBox="0 0 60 60" style="enable-background:new 0 0 60 60;" xml:space="preserve">
<style type="text/css">
	.st0{fill:#3879B7;}
	.st1{fill:#FFFFFF;}
	.st2{fill:#2D6234;}
	.st3{fill:#6C9240;}
</style>
<g>
	<path class="st0" d="M52.43,40.81c0.46,0,0.82,0.36,0.82,0.81c0,0.46-0.36,0.81-0.82,0.81c-0.46,0-0.83-0.36-0.83-0.81
		C51.6,41.17,51.96,40.81,52.43,40.81L52.43,40.81z M52.42,40.97c-0.35,0-0.62,0.29-0.62,0.65c0,0.36,0.27,0.64,0.63,0.64
		c0.35,0,0.61-0.29,0.61-0.64C53.05,41.26,52.79,40.97,52.42,40.97L52.42,40.97z M52.3,42.03h-0.18v-0.8
		c0.08-0.01,0.18-0.02,0.31-0.02c0.15,0,0.22,0.02,0.28,0.06c0.04,0.04,0.08,0.1,0.08,0.17c0,0.09-0.07,0.16-0.16,0.19v0.01
		c0.08,0.03,0.12,0.09,0.14,0.2c0.03,0.12,0.04,0.17,0.06,0.19h-0.2c-0.02-0.02-0.04-0.1-0.06-0.19c-0.02-0.09-0.07-0.13-0.17-0.13
		H52.3V42.03z M52.3,41.59h0.09c0.11,0,0.19-0.04,0.19-0.12c0-0.07-0.06-0.12-0.17-0.12c-0.05,0-0.08,0-0.11,0.01V41.59z"/>
	<path class="st1" d="M51.6,40.93c0,0.83-0.59,1.5-1.31,1.5l-42.22,0c-0.73,0-1.31-0.67-1.31-1.5l0-28.01c0-0.83,0.59-1.5,1.31-1.5
		l42.22,0c0.72,0,1.31,0.67,1.31,1.5L51.6,40.93z"/>
	<path class="st2" d="M7.18,31.86c0,0,0.32-0.27,5.31-0.99c8.56-1.23,6.72,2.04,13.78,0.55c3.45-0.73,4.32-0.35,9.84,0.99
		c5.52,1.35,4.81,1.16,7.65,0.99c2.85-0.17,3.13-0.83,5.15-0.66c2,0.17,2.18-0.22,2.18-0.22l-0.11,8.68l-0.84,0.97L8.01,42.14
		l-0.8-0.82L7.18,31.86z"/>
	<path class="st3" d="M7.17,32.03c0,0,1.74-0.47,5.25-0.91c8.61-1.08,6.74,2.04,13.82,0.55c3.46-0.73,4.33-0.36,9.87,0.99
		c5.54,1.35,4.83,1.16,7.68,0.99c2.86-0.17,3.14-0.83,5.15-0.66c2.02,0.17,2.2-0.22,2.2-0.22l0,8.45l-1.03,0.99L7.89,42.07
		l-0.72-1.12L7.17,32.03z"/>
	<path class="st0" d="M14.27,15.07v1.12c-0.69-0.49-1.26-0.69-2-0.69c-1.5,0-2.69,1.04-2.69,2.35c0,1.29,1.18,2.3,2.7,2.3
		c0.72,0,1.25-0.18,1.98-0.7v1.12c-0.66,0.32-1.29,0.46-2,0.46c-2.11,0-3.79-1.42-3.79-3.18c0-1.79,1.71-3.22,3.88-3.22
		C13.07,14.63,13.6,14.75,14.27,15.07"/>
	<polygon class="st0" points="19.05,15.62 16.11,15.62 16.11,17.1 18.96,17.1 18.96,17.98 16.11,17.98 16.11,20.04 19.05,20.04 
		19.05,20.91 15,20.91 15,14.75 19.05,14.75 	"/>
	<path class="st0" d="M22.55,18.29l2.27,2.63h-1.36l-2.09-2.52h-0.2v2.52h-1.11l0-6.17h1.3c0.96,0,1.49,0.1,1.94,0.36
		c0.54,0.32,0.87,0.87,0.87,1.45C24.17,17.42,23.52,18.11,22.55,18.29 M21.18,17.57h0.35c1.01,0,1.56-0.35,1.56-1.01
		c0-0.62-0.52-0.94-1.53-0.94h-0.38L21.18,17.57z"/>
	<polygon class="st0" points="27.2,15.62 27.2,20.91 26.09,20.91 26.09,15.62 24.4,15.62 24.4,14.75 28.89,14.75 28.89,15.62 	"/>
	<rect x="29.89" y="14.74" class="st0" width="1.11" height="6.17"/>
	<polygon class="st0" points="35.77,15.62 33.21,15.62 33.21,17.1 35.67,17.1 35.67,17.98 33.21,17.98 33.21,20.91 32.09,20.91 
		32.09,14.75 35.77,14.75 	"/>
	<rect x="36.82" y="14.74" class="st0" width="1.11" height="6.17"/>
	<polygon class="st0" points="43.1,15.62 40.15,15.62 40.15,17.1 43,17.1 43,17.98 40.15,17.98 40.15,20.04 43.1,20.04 43.1,20.91 
		39.04,20.91 39.04,14.75 43.1,14.75 	"/>
	<path class="st0" d="M44.11,20.91v-6.17l1.54,0c1.28,0,1.99,0.16,2.71,0.6c0.92,0.57,1.42,1.44,1.42,2.49c0,1.06-0.5,1.9-1.47,2.49
		c-0.76,0.46-1.37,0.59-2.69,0.59L44.11,20.91z M45.22,20.04l0.5,0c0.9,0,1.43-0.12,1.95-0.44c0.64-0.4,1-1.04,1-1.76
		c0-0.73-0.37-1.39-0.99-1.78c-0.5-0.3-1.07-0.43-1.96-0.43l-0.5,0V20.04z"/>
	<polygon class="st0" points="49.01,15.38 49.45,15.2 49.01,15.02 49.17,14.82 49.57,15.04 49.55,14.66 49.86,14.66 49.83,15.03 
		50.22,14.82 50.38,15.02 49.95,15.2 50.37,15.37 50.22,15.57 49.83,15.36 49.86,15.72 49.55,15.72 49.58,15.36 49.17,15.58 	"/>
	<polygon class="st0" points="10.93,25.33 14.09,25.33 14.09,22.92 15.21,22.92 15.21,29.09 14.09,29.09 14.09,26.21 10.93,26.21 
		10.93,29.09 9.82,29.09 9.82,22.92 10.93,22.92 	"/>
	<path class="st0" d="M16.98,22.92l0,3.72c0,0.56,0.06,0.8,0.23,1.07c0.27,0.39,0.8,0.63,1.38,0.63c0.57,0,1.1-0.24,1.38-0.63
		c0.18-0.26,0.23-0.51,0.23-1.07l0-3.72h1.1l0,3.97c0,1.33-1.15,2.32-2.71,2.32c-1.57,0-2.72-0.99-2.72-2.32l0-3.97L16.98,22.92z"/>
	<polygon class="st0" points="21.49,29.09 23.03,22.45 25.56,27.25 28.16,22.45 29.55,29.09 28.42,29.09 27.7,25.37 25.53,29.37 
		23.41,25.36 22.63,29.09 	"/>
	<path class="st0" d="M34.75,27.59h-3.14l-0.82,1.5h-1.2l3.63-6.56l3.51,6.56h-1.22L34.75,27.59z M34.3,26.71l-1.09-2.09l-1.14,2.09
		H34.3z"/>
	<polygon class="st0" points="37.22,29.09 37.22,22.5 42.58,27.21 42.58,22.92 43.69,22.92 43.69,29.46 38.33,24.77 38.33,29.09 	
		"/>
	<polygon class="st0" points="48.63,23.8 45.69,23.8 45.69,25.28 48.54,25.28 48.54,26.16 45.69,26.16 45.69,28.21 48.63,28.21 
		48.63,29.09 44.57,29.09 44.57,22.92 48.63,22.92 	"/>
	<path class="st0" d="M50.28,12.07c0.35,0,0.65,0.39,0.65,0.85l0,28.01c0,0.46-0.3,0.84-0.65,0.84l-42.22,0
		c-0.35,0-0.65-0.39-0.65-0.84l0-28.01c0-0.46,0.3-0.85,0.65-0.85L50.28,12.07 M50.28,11.41l-42.22,0c-0.73,0-1.31,0.67-1.31,1.5
		l0,28.01c0,0.83,0.59,1.5,1.31,1.5l42.22,0c0.72,0,1.31-0.67,1.31-1.5l0-28.01C51.6,12.09,51.01,11.41,50.28,11.41"/>
	<path class="st1" d="M9.18,36.02h0.89c0.33,0,0.58,0.06,0.74,0.17c0.24,0.17,0.36,0.41,0.36,0.73c0,0.2-0.04,0.38-0.13,0.52
		c-0.09,0.14-0.23,0.27-0.44,0.4c0.27,0.14,0.41,0.39,0.41,0.73c0,0.19-0.05,0.37-0.15,0.55c-0.1,0.17-0.24,0.31-0.42,0.42
		c-0.24,0.14-0.54,0.21-0.89,0.21H8.65L9.18,36.02z M9.58,39.11c0.18,0,0.33-0.05,0.44-0.15c0.11-0.1,0.17-0.24,0.17-0.41
		c0-0.28-0.16-0.42-0.47-0.42L9.58,39.11z M9.8,37.55c0.19-0.01,0.33-0.06,0.43-0.16c0.1-0.09,0.15-0.22,0.15-0.39
		c0-0.25-0.15-0.37-0.44-0.37L9.8,37.55z"/>
	<polygon class="st1" points="11.94,36.02 12.78,36.02 12.25,39.75 11.41,39.75 	"/>
	<polygon class="st1" points="13.43,36.02 15.12,36.02 15.02,36.71 14.17,36.71 14.06,37.52 14.8,37.52 14.7,38.22 13.96,38.22 
		13.84,39.06 14.69,39.06 14.6,39.75 12.9,39.75 	"/>
	<path class="st1" d="M15.69,36.02h0.79l0.72,2.25c0-0.04-0.01-0.08-0.01-0.11c0-0.03,0-0.06,0-0.09c0-0.06,0-0.12,0-0.17
		c0-0.05,0.01-0.1,0.02-0.14l0.25-1.74h0.86l-0.53,3.73H17l-0.73-2.25l0,0.1c0,0.14-0.01,0.26-0.03,0.38L16,39.75h-0.84L15.69,36.02
		z"/>
	<polygon class="st1" points="18.98,36.02 20.66,36.02 20.56,36.71 19.72,36.71 19.6,37.52 20.35,37.52 20.25,38.22 19.5,38.22 
		19.38,39.06 20.24,39.06 20.14,39.75 18.45,39.75 	"/>
	<path class="st1" d="M22.97,36.14l-0.1,0.71c-0.2-0.16-0.39-0.24-0.57-0.24c-0.14,0-0.25,0.04-0.34,0.12
		c-0.09,0.08-0.13,0.18-0.13,0.31c0,0.09,0.03,0.17,0.08,0.24c0.03,0.04,0.06,0.07,0.11,0.12c0.05,0.04,0.11,0.09,0.18,0.14
		c0.28,0.21,0.47,0.37,0.55,0.49c0.09,0.12,0.13,0.27,0.13,0.45c0,0.34-0.12,0.64-0.36,0.91c-0.12,0.13-0.27,0.22-0.45,0.3
		c-0.18,0.07-0.37,0.11-0.57,0.11c-0.28,0-0.51-0.06-0.7-0.19l0.1-0.7c0.2,0.13,0.4,0.2,0.59,0.2c0.17,0,0.3-0.04,0.4-0.13
		c0.11-0.09,0.16-0.2,0.16-0.35c0-0.08-0.02-0.15-0.07-0.2c-0.02-0.03-0.07-0.06-0.12-0.11c-0.06-0.04-0.14-0.1-0.23-0.16
		c-0.23-0.15-0.4-0.3-0.5-0.44c-0.09-0.14-0.14-0.31-0.14-0.49c0-0.2,0.05-0.39,0.14-0.58c0.09-0.19,0.22-0.34,0.38-0.46
		c0.21-0.15,0.46-0.23,0.75-0.23C22.5,35.96,22.74,36.02,22.97,36.14"/>
	<polygon class="st1" points="23.39,36.02 25.54,36.02 25.45,36.7 24.79,36.7 24.36,39.75 23.52,39.75 23.95,36.7 23.29,36.7 	"/>
	<path class="st1" d="M26.48,36.02l0.88,0l0.48,3.73h-0.89l-0.07-0.62h-0.85l-0.24,0.62h-0.83L26.48,36.02z M26.85,38.55l-0.06-0.58
		c-0.01-0.13-0.02-0.26-0.03-0.38c-0.01-0.12-0.01-0.24-0.01-0.35l0-0.26c-0.09,0.39-0.19,0.75-0.31,1.05l-0.2,0.51H26.85z"/>
	<path class="st1" d="M28.73,36.02h0.91c0.46,0,0.79,0.08,0.99,0.24c0.19,0.17,0.29,0.4,0.29,0.68c0,0.49-0.25,0.85-0.75,1.1
		l0.5,1.7h-0.88l-0.5-1.72l-0.24,1.72H28.2L28.73,36.02z M29.34,37.62c0.06,0.01,0.1,0.01,0.13,0.01c0.19,0,0.34-0.06,0.46-0.17
		c0.11-0.11,0.17-0.26,0.17-0.45c0-0.17-0.06-0.29-0.17-0.35c-0.07-0.04-0.21-0.06-0.45-0.06L29.34,37.62z"/>
	<path class="st1" d="M33.81,36.02h0.88l0.48,3.73h-0.89l-0.07-0.62h-0.85l-0.24,0.62h-0.83L33.81,36.02z M34.17,38.55l-0.06-0.58
		c-0.01-0.13-0.02-0.26-0.03-0.38c-0.01-0.12-0.01-0.24-0.01-0.35l0-0.26c-0.09,0.39-0.19,0.75-0.31,1.05l-0.2,0.51H34.17z"/>
	<path class="st1" d="M36.05,36.02h0.79l0.72,2.25c0-0.04-0.01-0.08-0.01-0.11c0-0.03,0-0.06,0-0.09c0-0.06,0-0.12,0-0.17
		c0-0.05,0.01-0.1,0.02-0.14l0.24-1.74h0.86l-0.53,3.73h-0.79l-0.73-2.25l0,0.1c0,0.14-0.01,0.26-0.03,0.38l-0.25,1.77h-0.84
		L36.05,36.02z"/>
	<polygon class="st1" points="39.34,36.02 40.17,36.02 39.64,39.75 38.81,39.75 	"/>
	<path class="st1" d="M41.04,36.02h1.1l0.11,2.2l0.65-2.2h1.12l-0.08,3.73h-0.86l0.17-2.68c-0.06,0.28-0.15,0.57-0.25,0.86
		l-0.63,1.82h-0.64l-0.15-1.69c-0.01-0.11-0.02-0.22-0.02-0.32c-0.01-0.11-0.01-0.21-0.01-0.31l0-0.24l0-0.12l-0.51,2.68h-0.9
		L41.04,36.02z"/>
	<path class="st1" d="M45.61,36.02h0.88l0.48,3.73h-0.89l-0.07-0.62h-0.85l-0.24,0.62H44.1L45.61,36.02z M45.97,38.55l-0.06-0.58
		c-0.01-0.13-0.02-0.26-0.03-0.38c-0.01-0.12-0.01-0.24-0.01-0.35l0-0.26c-0.09,0.39-0.19,0.75-0.31,1.05l-0.2,0.51H45.97z"/>
	<polygon class="st1" points="47.85,36.02 48.69,36.02 48.26,39.06 49.14,39.06 49.04,39.75 47.32,39.75 	"/>
	<polygon class="st2" points="22.16,32.05 27.74,34.61 19.81,31.44 	"/>
	<polygon class="st2" points="40.19,33.49 43.91,35.09 37.73,33 	"/>
	<polygon class="st2" points="49.39,33.03 50.75,33.59 48.78,32.95 	"/>
	<polygon points="13.39,44.99 11.77,44.99 11.77,45.93 13.33,45.93 13.33,46.49 11.77,46.49 11.77,48.35 11.07,48.35 11.07,44.44 
		13.39,44.44 	"/>
	<path d="M15.69,46.68l1.44,1.67h-0.86l-1.33-1.6h-0.13v1.6h-0.7l0-3.91h0.82c0.62,0,1.06,0.1,1.33,0.29
		c0.3,0.22,0.45,0.5,0.45,0.86c0,0.28-0.09,0.52-0.28,0.71C16.25,46.5,16,46.63,15.69,46.68 M14.81,46.23h0.22c0.66,0,1-0.21,1-0.64
		c0-0.4-0.32-0.6-0.97-0.6h-0.25L14.81,46.23z"/>
	<polygon points="20.39,44.99 18.53,44.99 18.53,45.93 20.34,45.93 20.34,46.49 18.53,46.49 18.53,47.8 20.39,47.8 20.39,48.35 
		17.83,48.35 17.83,44.44 20.39,44.44 	"/>
	<polygon points="23.88,44.99 22.02,44.99 22.02,45.93 23.83,45.93 23.83,46.49 22.02,46.49 22.02,47.8 23.88,47.8 23.88,48.35 
		21.31,48.35 21.31,44.44 23.88,44.44 	"/>
	<path d="M28.56,46.68L30,48.35l-0.86,0l-1.33-1.6h-0.13v1.6h-0.7l0-3.91h0.82c0.61,0,1.06,0.1,1.33,0.29
		c0.3,0.22,0.45,0.5,0.45,0.86c0,0.28-0.09,0.52-0.28,0.71C29.12,46.5,28.87,46.63,28.56,46.68 M27.68,46.23h0.22
		c0.66,0,1-0.21,1-0.64c0-0.4-0.32-0.6-0.97-0.6h-0.25V46.23z"/>
	<path d="M33.43,47.4h-1.99l-0.52,0.95h-0.76l2.3-4.16l2.22,4.16h-0.77L33.43,47.4z M33.14,46.85l-0.69-1.33l-0.72,1.33H33.14z"/>
	<polygon points="35.08,48.35 35.08,44.17 38.47,47.16 38.47,44.44 39.18,44.44 39.18,48.59 35.78,45.61 35.78,48.35 	"/>
	<path d="M42.55,46.31h1.92v0.13c0,0.29-0.04,0.55-0.12,0.78c-0.08,0.21-0.22,0.41-0.41,0.59c-0.43,0.41-0.98,0.61-1.65,0.61
		c-0.65,0-1.21-0.2-1.67-0.59c-0.46-0.4-0.7-0.87-0.7-1.43c0-0.57,0.24-1.05,0.71-1.44c0.47-0.4,1.05-0.6,1.72-0.6
		c0.36,0,0.7,0.06,1.02,0.19c0.3,0.12,0.6,0.33,0.89,0.61l-0.5,0.4c-0.38-0.43-0.85-0.64-1.39-0.64c-0.49,0-0.9,0.14-1.24,0.43
		c-0.33,0.28-0.5,0.63-0.5,1.05c0,0.44,0.19,0.79,0.56,1.08c0.35,0.26,0.72,0.39,1.13,0.39c0.35,0,0.66-0.1,0.93-0.29
		c0.27-0.2,0.43-0.43,0.46-0.71l-1.16,0V46.31z"/>
	<polygon points="47.83,44.99 45.96,44.99 45.96,45.93 47.77,45.93 47.77,46.49 45.96,46.49 45.96,47.8 47.83,47.8 47.83,48.35 
		45.26,48.35 45.26,44.44 47.83,44.44 	"/>
</g>
</svg>
