<?xml version="1.0" encoding="utf-8"?>
<!-- Generator: Adobe Illustrator 27.0.0, SVG Export Plug-In . SVG Version: 6.00 Build 0)  -->
<svg version="1.1" id="Capa_1" xmlns="http://www.w3.org/2000/svg" xmlns:xlink="http://www.w3.org/1999/xlink" x="0px" y="0px"
	 viewBox="0 0 60 60" style="enable-background:new 0 0 60 60;" xml:space="preserve">
<style type="text/css">
	.st0{fill:#2D3B2B;}
</style>
<g>
	<g>
		<g>
			<path class="st0" d="M18.77,26.24c0.19-0.68,0.48-1.31,0.87-1.88c0.39-0.57,0.86-1.06,1.41-1.47c0.55-0.41,1.2-0.74,1.96-0.97
				c0.75-0.23,1.58-0.35,2.47-0.35c0.83,0,1.61,0.11,2.33,0.33c0.72,0.22,1.31,0.54,1.75,0.95c0.45,0.41,0.67,0.87,0.67,1.38
				c0,0.49-0.15,0.87-0.45,1.12c-0.3,0.26-0.67,0.38-1.13,0.38c-0.32,0-0.64-0.07-0.97-0.2c-0.33-0.14-0.68-0.27-1.07-0.41
				c-0.39-0.14-0.82-0.2-1.3-0.2c-1.06,0-1.86,0.33-2.41,0.98c-0.55,0.65-0.82,1.48-0.82,2.5s0.27,1.85,0.82,2.5
				s1.35,0.97,2.41,0.97c0.48,0,0.91-0.07,1.3-0.2c0.39-0.14,0.75-0.27,1.07-0.41c0.33-0.14,0.65-0.2,0.97-0.2
				c0.45,0,0.83,0.13,1.13,0.38c0.3,0.26,0.45,0.63,0.45,1.12c0,0.51-0.22,0.97-0.67,1.38c-0.45,0.41-1.03,0.73-1.75,0.96
				c-0.72,0.23-1.5,0.34-2.33,0.34c-0.89,0-1.71-0.12-2.47-0.35c-0.75-0.23-1.41-0.56-1.96-0.97c-0.55-0.41-1.02-0.91-1.41-1.47
				c-0.39-0.57-0.68-1.19-0.87-1.88c-0.19-0.68-0.29-1.4-0.29-2.16C18.48,27.65,18.57,26.93,18.77,26.24z"/>
		</g>
		<g>
			<path class="st0" d="M40.63,25.54c0.31,0.31,0.46,0.71,0.46,1.19v6.66c0,0.49-0.15,0.89-0.46,1.2c-0.31,0.31-0.7,0.46-1.2,0.46
				c-0.35,0-0.65-0.08-0.91-0.24c-0.26-0.16-0.46-0.37-0.58-0.64c-0.67,0.72-1.55,1.09-2.65,1.09c-0.83,0-1.6-0.21-2.3-0.63
				c-0.7-0.42-1.27-1.03-1.69-1.83c-0.43-0.8-0.64-1.7-0.64-2.72c0-1.5,0.44-2.74,1.31-3.73c0.88-0.99,1.98-1.48,3.32-1.48
				c1.13,0,2.02,0.34,2.67,1.03c0.31-0.54,0.8-0.82,1.47-0.82C39.93,25.08,40.32,25.23,40.63,25.54z M37.24,31.57
				c0.36-0.4,0.54-0.9,0.54-1.49c0-0.6-0.18-1.11-0.54-1.51c-0.36-0.4-0.82-0.61-1.37-0.61c-0.55,0-1.01,0.2-1.37,0.61
				c-0.37,0.41-0.55,0.91-0.55,1.51c0,0.6,0.18,1.1,0.55,1.49s0.82,0.6,1.37,0.6C36.42,32.17,36.88,31.97,37.24,31.57z"/>
		</g>
	</g>
	<g>
		<g>
			<path class="st0" d="M1.95,27.98c-0.06-0.07-0.08-0.16-0.06-0.26l0.37-2.66c0.01-0.1,0.06-0.18,0.13-0.24s0.16-0.08,0.26-0.06
				c0.1,0.01,0.18,0.06,0.23,0.13c0.05,0.07,0.07,0.16,0.06,0.26l-0.31,2.27l1.56,0.21l0.27-1.95c0.01-0.1,0.06-0.18,0.13-0.24
				c0.07-0.06,0.16-0.08,0.26-0.06c0.1,0.01,0.18,0.06,0.24,0.13s0.08,0.16,0.06,0.26l-0.27,1.95l1.57,0.22l0.31-2.27
				c0.01-0.1,0.06-0.18,0.13-0.24c0.07-0.06,0.16-0.08,0.26-0.06c0.1,0.01,0.18,0.06,0.23,0.13c0.05,0.07,0.07,0.16,0.06,0.26
				l-0.37,2.66c-0.01,0.1-0.06,0.18-0.13,0.24c-0.07,0.06-0.16,0.08-0.26,0.06l-4.5-0.62C2.08,28.09,2,28.05,1.95,27.98z"/>
		</g>
		<g>
			<path class="st0" d="M8.81,20.88c0.11,0.1,0.13,0.22,0.09,0.36c-0.03,0.08-0.07,0.14-0.13,0.19c-0.06,0.05-0.15,0.1-0.27,0.14
				l-2.24,0.74l1.36,2.02c0.08,0.14,0.11,0.26,0.07,0.38c-0.05,0.14-0.14,0.22-0.27,0.23c-0.13,0.02-0.24-0.04-0.33-0.18l-1.52-2.22
				L3.25,23.3c-0.13,0.04-0.24,0.04-0.32,0c-0.09-0.04-0.14-0.1-0.18-0.19c-0.03-0.09-0.03-0.18,0-0.27
				c0.03-0.08,0.07-0.14,0.13-0.18c0.06-0.04,0.15-0.09,0.27-0.13l2.08-0.68l-1.28-1.89c-0.1-0.14-0.11-0.28-0.04-0.42
				c0.06-0.12,0.14-0.19,0.26-0.19c0.12,0,0.22,0.06,0.31,0.18l1.44,2.09l2.47-0.81C8.56,20.76,8.7,20.78,8.81,20.88z"/>
		</g>
		<g>
			<path class="st0" d="M6.01,18.7c-0.22-0.28-0.37-0.59-0.47-0.92c-0.09-0.33-0.11-0.68-0.06-1.05c0.05-0.37,0.18-0.73,0.39-1.08
				c0.16-0.27,0.34-0.5,0.56-0.7c0.22-0.2,0.42-0.33,0.62-0.4c0.2-0.07,0.34-0.08,0.45-0.01c0.09,0.05,0.14,0.12,0.15,0.2
				c0.01,0.08,0,0.16-0.05,0.25c-0.03,0.05-0.09,0.11-0.18,0.17c-0.09,0.06-0.18,0.12-0.27,0.18c-0.1,0.06-0.21,0.15-0.33,0.27
				c-0.13,0.13-0.24,0.27-0.34,0.44c-0.29,0.49-0.36,0.99-0.21,1.5c0.15,0.51,0.46,0.9,0.95,1.19c0.48,0.28,0.97,0.36,1.49,0.25
				c0.51-0.12,0.91-0.42,1.2-0.91c0.1-0.17,0.17-0.33,0.22-0.51s0.08-0.31,0.08-0.42c0-0.11,0.01-0.22,0.02-0.33
				c0.01-0.11,0.03-0.19,0.06-0.24c0.05-0.08,0.11-0.14,0.19-0.16c0.08-0.03,0.17-0.01,0.25,0.04c0.11,0.06,0.18,0.2,0.21,0.4
				c0.03,0.21,0.01,0.45-0.05,0.74c-0.07,0.29-0.18,0.56-0.33,0.83c-0.27,0.47-0.62,0.82-1.05,1.06c-0.42,0.24-0.87,0.35-1.34,0.34
				c-0.47-0.01-0.92-0.15-1.34-0.4C6.49,19.21,6.22,18.98,6.01,18.7z"/>
		</g>
		<g>
			<path class="st0" d="M8.16,12.74c-0.01-0.09,0.03-0.18,0.09-0.25l1.79-1.99c0.07-0.08,0.15-0.12,0.24-0.12s0.18,0.03,0.25,0.1
				c0.07,0.07,0.11,0.15,0.12,0.24c0,0.09-0.03,0.18-0.1,0.25l-1.53,1.7l1.17,1.05l1.31-1.46c0.07-0.07,0.15-0.12,0.24-0.12
				c0.09-0.01,0.18,0.02,0.25,0.09c0.08,0.07,0.12,0.15,0.12,0.24c0,0.09-0.03,0.18-0.09,0.25l-1.31,1.46l1.17,1.06l1.53-1.7
				c0.07-0.08,0.15-0.12,0.24-0.12c0.09,0,0.18,0.03,0.25,0.1c0.08,0.07,0.11,0.15,0.12,0.24c0,0.09-0.03,0.18-0.1,0.25l-1.79,1.99
				c-0.07,0.08-0.15,0.12-0.24,0.12s-0.18-0.03-0.25-0.09l-3.36-3.03C8.21,12.91,8.17,12.83,8.16,12.74z"/>
		</g>
		<g>
			<path class="st0" d="M11.81,9.05c0.01-0.1,0.06-0.18,0.15-0.25c0.09-0.07,0.18-0.09,0.28-0.08c0.1,0.01,0.18,0.06,0.25,0.15
				L15,12.16l1.84-1.42c0.08-0.06,0.17-0.09,0.26-0.07c0.09,0.01,0.17,0.06,0.23,0.14c0.06,0.08,0.09,0.17,0.07,0.25
				c-0.01,0.09-0.06,0.17-0.14,0.23l-2.15,1.66c-0.08,0.06-0.17,0.09-0.26,0.07c-0.09-0.01-0.17-0.06-0.23-0.14l-2.73-3.55
				C11.82,9.25,11.8,9.15,11.81,9.05z"/>
		</g>
		<g>
			<path class="st0" d="M15.94,6.1c0.03-0.09,0.09-0.16,0.18-0.2l2.39-1.23c0.09-0.05,0.18-0.06,0.27-0.03
				c0.09,0.03,0.16,0.09,0.2,0.18c0.05,0.09,0.05,0.18,0.02,0.26c-0.03,0.09-0.09,0.15-0.18,0.2l-2.04,1.05l0.72,1.4l1.75-0.9
				c0.09-0.05,0.18-0.06,0.27-0.03c0.09,0.03,0.16,0.08,0.2,0.17c0.05,0.09,0.05,0.18,0.03,0.27c-0.03,0.09-0.09,0.16-0.18,0.2
				l-1.75,0.9l0.72,1.41l2.04-1.05c0.09-0.05,0.18-0.06,0.27-0.03c0.09,0.03,0.16,0.09,0.2,0.18c0.05,0.09,0.05,0.18,0.02,0.27
				s-0.09,0.15-0.18,0.2l-2.39,1.23c-0.09,0.05-0.18,0.05-0.27,0.03c-0.09-0.03-0.16-0.09-0.2-0.18l-2.07-4.03
				C15.92,6.27,15.91,6.18,15.94,6.1z"/>
		</g>
		<g>
			<path class="st0" d="M24.79,2.76c0.08,0.05,0.14,0.13,0.17,0.23l1.15,4.28c0.04,0.14,0.03,0.26-0.01,0.36s-0.13,0.16-0.24,0.2
				c-0.13,0.03-0.24,0.03-0.34,0c-0.1-0.04-0.22-0.11-0.36-0.22l-3.51-2.76l0.93,3.48c0.03,0.1,0.01,0.2-0.04,0.28
				c-0.05,0.09-0.13,0.14-0.23,0.17c-0.1,0.03-0.2,0.02-0.28-0.03c-0.08-0.05-0.14-0.12-0.17-0.23l-1.14-4.28
				c-0.04-0.14-0.03-0.26,0.02-0.37c0.05-0.1,0.14-0.17,0.27-0.2c0.11-0.03,0.22-0.03,0.31,0.01c0.09,0.04,0.2,0.11,0.32,0.21
				l3.56,2.82l-0.94-3.53c-0.03-0.1-0.02-0.2,0.03-0.28c0.05-0.08,0.13-0.14,0.23-0.17C24.61,2.71,24.71,2.72,24.79,2.76z"/>
		</g>
		<g>
			<path class="st0" d="M29.25,7.17c0,0.11-0.03,0.2-0.09,0.27C29.09,7.51,29,7.55,28.9,7.55c-0.11,0-0.2-0.03-0.27-0.09
				c-0.07-0.07-0.11-0.15-0.12-0.26l-0.2-4.19L27,3.08c-0.1,0-0.18-0.02-0.25-0.08c-0.07-0.06-0.1-0.14-0.11-0.25
				c0-0.1,0.02-0.18,0.08-0.25c0.06-0.07,0.14-0.1,0.24-0.11l3.37-0.16c0.1,0,0.19,0.02,0.25,0.08s0.1,0.14,0.11,0.25
				c0,0.1-0.02,0.19-0.08,0.25c-0.06,0.07-0.14,0.1-0.24,0.11l-1.31,0.06L29.25,7.17z"/>
		</g>
		<g>
			<path class="st0" d="M32.4,2.44c0.07-0.06,0.16-0.08,0.26-0.07l2.67,0.36c0.1,0.01,0.18,0.06,0.24,0.13
				c0.06,0.07,0.08,0.16,0.06,0.26c-0.01,0.1-0.06,0.18-0.13,0.23c-0.07,0.05-0.16,0.07-0.26,0.06l-2.27-0.3l-0.21,1.56l1.95,0.26
				c0.1,0.01,0.18,0.06,0.24,0.13c0.06,0.07,0.08,0.16,0.07,0.26c-0.01,0.1-0.06,0.18-0.13,0.24c-0.07,0.06-0.16,0.08-0.26,0.07
				l-1.95-0.26l-0.21,1.57l2.27,0.3c0.1,0.01,0.18,0.06,0.24,0.13c0.06,0.07,0.08,0.16,0.06,0.26c-0.01,0.1-0.06,0.18-0.13,0.23
				c-0.07,0.05-0.16,0.07-0.26,0.06l-2.66-0.36c-0.1-0.01-0.18-0.06-0.24-0.13c-0.06-0.07-0.08-0.16-0.07-0.26l0.6-4.49
				C32.28,2.57,32.32,2.49,32.4,2.44z"/>
		</g>
		<g>
			<path class="st0" d="M38.28,8.74c-0.04,0.1-0.11,0.17-0.2,0.21c-0.09,0.04-0.19,0.04-0.29,0c-0.1-0.04-0.17-0.11-0.21-0.2
				c-0.04-0.09-0.04-0.19,0-0.29l1.77-4.27c0.04-0.09,0.1-0.15,0.19-0.19c0.09-0.03,0.18-0.03,0.27,0.01l2.41,1
				c0.09,0.04,0.16,0.1,0.2,0.18c0.04,0.08,0.04,0.17,0,0.27c-0.04,0.09-0.1,0.16-0.19,0.19c-0.09,0.04-0.18,0.03-0.27,0L39.91,4.8
				l-0.63,1.52l1.74,0.72c0.09,0.04,0.16,0.1,0.2,0.19c0.04,0.09,0.03,0.18,0,0.27c-0.04,0.09-0.1,0.16-0.19,0.19
				c-0.09,0.03-0.18,0.03-0.27-0.01l-1.75-0.72L38.28,8.74z"/>
		</g>
		<g>
			<path class="st0" d="M44.2,6.12c0.1-0.02,0.19,0,0.28,0.06c0.09,0.06,0.14,0.14,0.16,0.24c0.02,0.1,0,0.19-0.06,0.28l-1.6,2.35
				c-0.24,0.35-0.33,0.7-0.28,1.05c0.05,0.35,0.24,0.63,0.57,0.85c0.33,0.22,0.66,0.29,1,0.22c0.34-0.08,0.63-0.3,0.87-0.65
				l1.6-2.35c0.06-0.09,0.14-0.14,0.23-0.16c0.1-0.02,0.19,0,0.28,0.06c0.09,0.06,0.14,0.14,0.16,0.24c0.02,0.1,0,0.19-0.06,0.28
				l-1.6,2.35c-0.36,0.53-0.81,0.86-1.34,0.97c-0.53,0.11-1.05-0.01-1.56-0.35c-0.51-0.35-0.81-0.79-0.9-1.32
				c-0.09-0.53,0.05-1.07,0.41-1.6l1.6-2.35C44.03,6.19,44.1,6.14,44.2,6.12z"/>
		</g>
		<g>
			<path class="st0" d="M49.26,9.96c0.09,0,0.18,0.04,0.25,0.11L51.37,12c0.07,0.07,0.11,0.16,0.11,0.25c0,0.09-0.04,0.17-0.11,0.25
				c-0.07,0.07-0.15,0.1-0.25,0.1c-0.09,0-0.17-0.04-0.24-0.11l-1.59-1.65l-1.13,1.09l1.37,1.41c0.07,0.07,0.11,0.15,0.11,0.25
				c0,0.09-0.04,0.17-0.11,0.24c-0.07,0.07-0.16,0.1-0.25,0.1c-0.09,0-0.18-0.04-0.25-0.11l-1.37-1.41l-1.14,1.1l1.59,1.65
				c0.07,0.07,0.11,0.16,0.11,0.25c0,0.09-0.04,0.17-0.11,0.25c-0.07,0.07-0.16,0.1-0.25,0.1c-0.09,0-0.17-0.04-0.24-0.11
				l-1.87-1.93c-0.07-0.07-0.11-0.16-0.1-0.25c0-0.09,0.04-0.18,0.11-0.25l3.26-3.15C49.08,9.99,49.17,9.96,49.26,9.96z"/>
		</g>
		<g>
			<path class="st0" d="M55.01,17.45c-0.02,0.09-0.08,0.17-0.17,0.22l-3.76,2.34c-0.12,0.08-0.24,0.11-0.34,0.09
				c-0.11-0.01-0.19-0.07-0.26-0.18c-0.07-0.11-0.1-0.22-0.09-0.33c0.01-0.1,0.04-0.24,0.11-0.4l1.62-4.16l-3.06,1.9
				c-0.09,0.06-0.18,0.07-0.28,0.05c-0.1-0.02-0.17-0.08-0.23-0.18c-0.06-0.09-0.07-0.18-0.05-0.28c0.02-0.1,0.08-0.17,0.17-0.23
				l3.76-2.34c0.13-0.08,0.24-0.11,0.35-0.09c0.11,0.02,0.2,0.09,0.27,0.2c0.06,0.1,0.09,0.2,0.08,0.3
				c-0.01,0.1-0.05,0.22-0.11,0.37l-1.66,4.23l3.1-1.93c0.09-0.06,0.18-0.07,0.28-0.05c0.09,0.02,0.17,0.08,0.23,0.17
				C55.02,17.26,55.03,17.35,55.01,17.45z"/>
		</g>
		<g>
			<path class="st0" d="M52.11,23c-0.1,0.04-0.19,0.03-0.28-0.01c-0.09-0.04-0.15-0.12-0.19-0.22c-0.04-0.1-0.03-0.19,0.01-0.28
				c0.04-0.09,0.11-0.15,0.21-0.19l3.94-1.41l-0.44-1.24c-0.03-0.09-0.03-0.18,0.01-0.26c0.04-0.08,0.11-0.14,0.21-0.18
				c0.09-0.03,0.18-0.03,0.26,0.01c0.08,0.04,0.14,0.11,0.17,0.2l1.13,3.17c0.03,0.1,0.03,0.18-0.01,0.26
				c-0.04,0.08-0.11,0.14-0.21,0.18c-0.09,0.03-0.18,0.03-0.26-0.01c-0.08-0.04-0.14-0.11-0.17-0.2l-0.44-1.24L52.11,23z"/>
		</g>
		<g>
			<path class="st0" d="M57.55,24.61c0.08,0.05,0.12,0.13,0.14,0.23l0.43,2.65c0.02,0.1,0,0.19-0.06,0.26
				c-0.05,0.07-0.13,0.12-0.23,0.14c-0.1,0.02-0.19,0-0.26-0.06c-0.07-0.06-0.12-0.13-0.14-0.23l-0.37-2.26l-1.55,0.25l0.31,1.94
				c0.02,0.1,0,0.19-0.05,0.26c-0.05,0.08-0.13,0.12-0.23,0.14c-0.1,0.02-0.19,0-0.26-0.06c-0.08-0.05-0.12-0.13-0.14-0.23
				l-0.31-1.94l-1.56,0.25l0.37,2.26c0.02,0.1,0,0.19-0.06,0.27c-0.05,0.07-0.13,0.12-0.24,0.14c-0.1,0.02-0.19,0-0.26-0.06
				c-0.07-0.05-0.12-0.13-0.13-0.23l-0.43-2.65c-0.02-0.1,0-0.19,0.06-0.26c0.06-0.08,0.13-0.12,0.23-0.14l4.48-0.73
				C57.38,24.54,57.47,24.56,57.55,24.61z"/>
		</g>
	</g>
	<g>
		<g>
			<path class="st0" d="M14.36,46.02c0.17-0.01,0.32,0.04,0.46,0.16l0.96,0.83c0.42,0.37,0.73,0.79,0.92,1.25
				c0.19,0.47,0.25,0.93,0.18,1.4c-0.07,0.47-0.27,0.89-0.6,1.27c-0.32,0.37-0.71,0.62-1.17,0.76c-0.45,0.13-0.92,0.13-1.41,0.01
				c-0.49-0.13-0.94-0.38-1.36-0.74l-0.96-0.83c-0.14-0.12-0.21-0.26-0.22-0.43c-0.01-0.17,0.04-0.32,0.16-0.46l2.61-2.99
				C14.05,46.11,14.2,46.03,14.36,46.02z M12.79,49.67L13.16,50c0.35,0.3,0.71,0.45,1.08,0.45c0.37,0,0.7-0.16,0.96-0.46
				c0.26-0.3,0.37-0.64,0.32-1.01c-0.05-0.37-0.25-0.71-0.6-1.01l-0.37-0.32L12.79,49.67z"/>
		</g>
		<g>
			<path class="st0" d="M18.32,49.26c0.16-0.04,0.32-0.02,0.48,0.07l1.97,1.1c0.16,0.09,0.26,0.22,0.31,0.38
				c0.04,0.16,0.02,0.32-0.07,0.49c-0.09,0.16-0.22,0.26-0.38,0.31c-0.16,0.04-0.32,0.02-0.48-0.07l-1.34-0.75l-0.33,0.6l1.06,0.59
				c0.16,0.09,0.26,0.22,0.31,0.38c0.04,0.16,0.02,0.32-0.07,0.48c-0.09,0.16-0.21,0.26-0.38,0.31c-0.16,0.04-0.32,0.02-0.48-0.07
				l-1.06-0.59l-0.37,0.66l1.34,0.75c0.16,0.09,0.26,0.21,0.31,0.37c0.04,0.16,0.02,0.32-0.07,0.48c-0.09,0.16-0.21,0.26-0.37,0.31
				c-0.16,0.04-0.32,0.02-0.48-0.07l-1.97-1.1c-0.16-0.09-0.26-0.22-0.31-0.38c-0.04-0.16-0.02-0.32,0.07-0.48l1.94-3.46
				C18.03,49.4,18.16,49.3,18.32,49.26z"/>
		</g>
		<g>
			<path class="st0" d="M22.29,53.01c0.14-0.25,0.31-0.46,0.52-0.64c0.21-0.18,0.43-0.33,0.69-0.44c0.25-0.11,0.54-0.17,0.85-0.19
				s0.64,0.02,0.99,0.1c0.32,0.08,0.61,0.2,0.87,0.35s0.46,0.34,0.59,0.54s0.17,0.4,0.12,0.6c-0.05,0.19-0.14,0.32-0.28,0.39
				c-0.14,0.07-0.3,0.08-0.47,0.04c-0.12-0.03-0.24-0.09-0.35-0.17c-0.11-0.08-0.24-0.17-0.37-0.26s-0.3-0.16-0.48-0.21
				c-0.41-0.1-0.75-0.05-1.03,0.15c-0.28,0.2-0.46,0.5-0.56,0.89c-0.1,0.39-0.07,0.74,0.08,1.05c0.15,0.3,0.43,0.51,0.84,0.61
				c0.19,0.05,0.36,0.06,0.52,0.05s0.31-0.03,0.45-0.05c0.14-0.02,0.27-0.02,0.39,0.01c0.18,0.04,0.31,0.13,0.4,0.26
				c0.09,0.13,0.11,0.29,0.07,0.48c-0.05,0.2-0.18,0.36-0.39,0.47c-0.21,0.12-0.47,0.18-0.77,0.2c-0.3,0.02-0.61-0.01-0.94-0.09
				c-0.35-0.09-0.65-0.21-0.92-0.37c-0.27-0.16-0.49-0.35-0.66-0.57c-0.17-0.21-0.31-0.45-0.4-0.71c-0.1-0.26-0.15-0.53-0.16-0.81
				c-0.01-0.28,0.02-0.57,0.1-0.87C22.05,53.53,22.15,53.26,22.29,53.01z"/>
		</g>
		<g>
			<path class="st0" d="M31.96,57.5c-0.11,0.19-0.3,0.28-0.57,0.28c-0.36-0.01-0.62-0.24-0.79-0.7l-0.12-0.35l-2.1-0.04l-0.14,0.34
				c-0.1,0.24-0.2,0.41-0.31,0.52c-0.11,0.11-0.26,0.16-0.46,0.15c-0.26,0-0.44-0.1-0.53-0.3c-0.1-0.19-0.09-0.44,0.04-0.73
				l1.48-3.41c0.13-0.31,0.28-0.53,0.45-0.65c0.16-0.13,0.38-0.19,0.65-0.18c0.27,0.01,0.48,0.07,0.64,0.21
				c0.16,0.13,0.29,0.36,0.42,0.67l1.35,3.46C32.07,57.07,32.07,57.31,31.96,57.5z M30.04,55.53l-0.55-1.57l-0.63,1.55L30.04,55.53z
				"/>
		</g>
		<g>
			<path class="st0" d="M32.61,52.53c0.1-0.15,0.24-0.24,0.44-0.28c0.2-0.04,0.37-0.01,0.51,0.09c0.15,0.1,0.24,0.25,0.28,0.44
				l0.63,3.27l1.63-0.31c0.18-0.03,0.34,0,0.48,0.09c0.14,0.09,0.22,0.23,0.26,0.41c0.03,0.18,0.01,0.34-0.09,0.48
				c-0.09,0.14-0.23,0.22-0.41,0.26L34,57.43c-0.18,0.03-0.34,0-0.48-0.09c-0.14-0.09-0.22-0.23-0.26-0.41l-0.74-3.89
				C32.49,52.85,32.52,52.68,32.61,52.53z"/>
		</g>
		<g>
			<path class="st0" d="M36.38,53.44c-0.03-0.28-0.01-0.56,0.05-0.83c0.06-0.27,0.16-0.52,0.31-0.76c0.14-0.24,0.34-0.45,0.59-0.65
				c0.25-0.2,0.53-0.36,0.87-0.49c0.31-0.12,0.61-0.2,0.92-0.22c0.3-0.02,0.57,0.01,0.79,0.1c0.23,0.09,0.38,0.23,0.45,0.42
				c0.07,0.18,0.07,0.34,0,0.48c-0.07,0.14-0.19,0.24-0.36,0.31c-0.12,0.05-0.25,0.07-0.39,0.07c-0.14,0-0.29,0-0.46,0
				c-0.17,0.01-0.34,0.04-0.51,0.11c-0.39,0.16-0.64,0.39-0.75,0.72c-0.11,0.32-0.09,0.67,0.06,1.05c0.15,0.38,0.37,0.65,0.67,0.81
				c0.3,0.16,0.64,0.16,1.04,0.01c0.18-0.07,0.33-0.16,0.45-0.27c0.12-0.11,0.24-0.21,0.34-0.31s0.21-0.17,0.33-0.22
				c0.17-0.07,0.33-0.07,0.47-0.02c0.15,0.05,0.26,0.17,0.33,0.35c0.07,0.19,0.06,0.39-0.04,0.61c-0.11,0.22-0.27,0.42-0.51,0.61
				c-0.24,0.19-0.51,0.35-0.82,0.47c-0.33,0.13-0.65,0.21-0.97,0.23c-0.31,0.02-0.6,0-0.87-0.07c-0.26-0.07-0.51-0.19-0.74-0.34
				c-0.23-0.15-0.43-0.34-0.6-0.57c-0.17-0.23-0.31-0.48-0.42-0.76C36.47,54,36.4,53.72,36.38,53.44z"/>
		</g>
		<g>
			<path class="st0" d="M40.37,49.96c0.04-0.17,0.15-0.31,0.32-0.41c0.17-0.1,0.34-0.13,0.52-0.08c0.17,0.05,0.31,0.15,0.41,0.33
				l1.99,3.42c0.1,0.17,0.13,0.34,0.08,0.52c-0.04,0.17-0.15,0.31-0.32,0.41c-0.17,0.1-0.34,0.13-0.52,0.08
				c-0.17-0.05-0.31-0.15-0.41-0.33l-1.99-3.42C40.35,50.3,40.32,50.13,40.37,49.96z"/>
		</g>
		<g>
			<path class="st0" d="M48.02,48.65c0.11,0.35,0.15,0.7,0.11,1.04c-0.03,0.34-0.13,0.68-0.29,1.01c-0.16,0.33-0.39,0.61-0.67,0.85
				c-0.38,0.32-0.8,0.52-1.28,0.6c-0.48,0.09-0.95,0.05-1.41-0.12c-0.46-0.16-0.85-0.43-1.17-0.81c-0.24-0.28-0.41-0.6-0.52-0.95
				c-0.11-0.35-0.14-0.7-0.11-1.04c0.03-0.34,0.13-0.68,0.29-1.01c0.17-0.33,0.39-0.61,0.67-0.85c0.38-0.32,0.8-0.52,1.28-0.6
				c0.48-0.08,0.95-0.04,1.41,0.12c0.46,0.16,0.85,0.43,1.17,0.81C47.74,47.98,47.91,48.3,48.02,48.65z M45.47,48.12
				c-0.37-0.05-0.69,0.05-0.96,0.28s-0.42,0.53-0.44,0.9c-0.02,0.37,0.1,0.7,0.34,1c0.25,0.29,0.56,0.46,0.93,0.51
				c0.37,0.04,0.69-0.05,0.96-0.28c0.27-0.23,0.42-0.53,0.44-0.9c0.02-0.37-0.1-0.7-0.35-0.99C46.15,48.34,45.84,48.17,45.47,48.12z
				"/>
		</g>
	</g>
	<g>
		<g>
			<path class="st0" d="M3.33,32.02c0.27,4.38,1.56,8.62,3.84,12.37c1.02,1.68,3.67,0.15,2.64-1.54c-1.99-3.29-3.19-6.99-3.42-10.83
				c-0.05-0.82-0.67-1.53-1.53-1.53C4.07,30.49,3.28,31.19,3.33,32.02L3.33,32.02z"/>
		</g>
	</g>
	<g>
		<g>
			<path class="st0" d="M52.83,44.39c2.28-3.75,3.57-7.99,3.84-12.37c0.05-0.83-0.74-1.53-1.53-1.53c-0.87,0-1.48,0.7-1.53,1.53
				c-0.24,3.83-1.43,7.54-3.42,10.83C49.17,44.53,51.81,46.07,52.83,44.39L52.83,44.39z"/>
		</g>
	</g>
</g>
</svg>
