<?xml version="1.0" encoding="utf-8"?>
<!-- Generator: Adobe Illustrator 27.0.0, SVG Export Plug-In . SVG Version: 6.00 Build 0)  -->
<svg version="1.1" id="Capa_1" xmlns="http://www.w3.org/2000/svg" xmlns:xlink="http://www.w3.org/1999/xlink" x="0px" y="0px"
	 viewBox="0 0 60 60" style="enable-background:new 0 0 60 60;" xml:space="preserve">
<style type="text/css">
	.st0{fill:#2D3B2B;}
</style>
<g>
	<g>
		<g>
			<path class="st0" d="M24.04,7.17c0.05-0.07,0.12-0.11,0.21-0.12c0.06-0.01,0.14,0,0.25,0.04c0.11,0.04,0.23,0.08,0.36,0.12
				c0.12,0.05,0.29,0.08,0.49,0.1c0.2,0.02,0.41,0.01,0.63-0.02c0.31-0.05,0.54-0.17,0.71-0.35c0.16-0.18,0.22-0.38,0.18-0.63
				c-0.02-0.13-0.08-0.25-0.16-0.33c-0.09-0.09-0.19-0.16-0.31-0.21c-0.13-0.05-0.26-0.09-0.42-0.12c-0.16-0.03-0.32-0.06-0.49-0.08
				c-0.17-0.02-0.34-0.05-0.51-0.07c-0.17-0.03-0.34-0.07-0.5-0.12c-0.16-0.05-0.3-0.12-0.43-0.2c-0.13-0.08-0.24-0.19-0.34-0.33
				c-0.09-0.14-0.16-0.3-0.19-0.49c-0.07-0.42,0.03-0.78,0.31-1.1s0.69-0.52,1.23-0.62c0.47-0.08,0.88-0.07,1.25,0.03
				c0.37,0.1,0.57,0.26,0.61,0.46c0.02,0.09,0,0.16-0.05,0.23s-0.12,0.1-0.21,0.12c-0.06,0.01-0.15,0-0.25-0.02
				c-0.11-0.03-0.21-0.05-0.32-0.09s-0.25-0.05-0.43-0.07c-0.18-0.01-0.37,0-0.56,0.03c-0.28,0.05-0.5,0.15-0.65,0.31
				c-0.15,0.16-0.21,0.34-0.17,0.54c0.02,0.12,0.07,0.22,0.16,0.31s0.19,0.15,0.31,0.19c0.12,0.04,0.26,0.08,0.41,0.11
				c0.16,0.03,0.32,0.05,0.49,0.08c0.17,0.02,0.34,0.05,0.51,0.08c0.17,0.03,0.34,0.07,0.5,0.13c0.16,0.05,0.3,0.12,0.43,0.21
				c0.13,0.08,0.24,0.2,0.34,0.34c0.09,0.15,0.16,0.32,0.2,0.51c0.08,0.46-0.02,0.85-0.3,1.19c-0.28,0.34-0.71,0.55-1.27,0.66
				C25.72,8.03,25.4,8.03,25.09,8c-0.31-0.04-0.56-0.11-0.76-0.22c-0.2-0.11-0.31-0.24-0.34-0.39C23.98,7.31,24,7.23,24.04,7.17z"/>
		</g>
		<g>
			<path class="st0" d="M28.72,2.4c0.07-0.07,0.15-0.11,0.26-0.11c0.11,0,0.2,0.03,0.27,0.09c0.07,0.07,0.11,0.15,0.12,0.26
				l0.18,4.53c0,0.11-0.03,0.2-0.09,0.27s-0.16,0.11-0.26,0.11c-0.11,0-0.2-0.03-0.27-0.09C28.84,7.39,28.8,7.3,28.8,7.19
				l-0.18-4.53C28.62,2.56,28.65,2.47,28.72,2.4z"/>
		</g>
		<g>
			<path class="st0" d="M35.81,2.88c0.06,0.08,0.08,0.17,0.07,0.27l-0.57,4.4c-0.02,0.14-0.07,0.25-0.15,0.32
				c-0.08,0.07-0.18,0.1-0.3,0.09c-0.13-0.02-0.24-0.06-0.31-0.13c-0.08-0.07-0.16-0.19-0.25-0.34l-2.2-3.9l-0.46,3.58
				c-0.01,0.11-0.06,0.19-0.14,0.25c-0.08,0.06-0.17,0.08-0.28,0.07c-0.11-0.01-0.19-0.06-0.25-0.14c-0.06-0.08-0.08-0.17-0.07-0.27
				l0.57-4.4c0.02-0.15,0.07-0.26,0.16-0.33c0.08-0.07,0.19-0.1,0.33-0.08c0.12,0.02,0.21,0.06,0.28,0.13
				c0.07,0.07,0.15,0.18,0.22,0.32l2.23,3.97l0.47-3.63c0.01-0.11,0.06-0.19,0.14-0.25c0.08-0.06,0.17-0.08,0.27-0.07
				C35.67,2.75,35.75,2.8,35.81,2.88z"/>
		</g>
	</g>
	<g>
		<g>
			<path class="st0" d="M7.54,24.51c0.22,0.12,0.41,0.26,0.58,0.44c0.17,0.17,0.3,0.37,0.4,0.59c0.1,0.22,0.16,0.47,0.19,0.74
				c0.02,0.27,0,0.56-0.06,0.87c-0.06,0.28-0.16,0.54-0.29,0.77c-0.13,0.23-0.28,0.41-0.45,0.53c-0.17,0.12-0.35,0.16-0.52,0.13
				c-0.17-0.04-0.28-0.11-0.35-0.24c-0.07-0.12-0.08-0.26-0.05-0.41c0.02-0.11,0.07-0.21,0.14-0.32c0.07-0.1,0.14-0.21,0.22-0.34
				c0.07-0.12,0.13-0.27,0.17-0.43c0.08-0.36,0.02-0.66-0.16-0.9c-0.18-0.24-0.45-0.39-0.79-0.46c-0.35-0.07-0.65-0.04-0.91,0.1
				c-0.26,0.14-0.43,0.39-0.51,0.75C5.1,26.5,5.09,26.65,5.11,26.8c0.02,0.14,0.04,0.27,0.06,0.4c0.02,0.12,0.02,0.24,0,0.34
				c-0.03,0.16-0.1,0.27-0.21,0.36C4.84,27.98,4.71,28,4.54,27.96c-0.17-0.04-0.32-0.15-0.42-0.33s-0.17-0.41-0.2-0.67
				c-0.02-0.26-0.01-0.54,0.05-0.82c0.07-0.3,0.17-0.58,0.3-0.82c0.13-0.24,0.29-0.44,0.48-0.6c0.18-0.16,0.38-0.28,0.61-0.37
				c0.22-0.09,0.46-0.14,0.71-0.16c0.25-0.02,0.5,0,0.76,0.06C7.08,24.31,7.32,24.39,7.54,24.51z"/>
		</g>
		<g>
			<path class="st0" d="M4.9,33.02c-0.29-0.13-0.54-0.31-0.75-0.53c-0.21-0.22-0.37-0.48-0.5-0.77c-0.12-0.3-0.18-0.61-0.17-0.93
				c0.01-0.43,0.12-0.83,0.34-1.2c0.22-0.37,0.52-0.65,0.89-0.86c0.37-0.21,0.77-0.31,1.21-0.3c0.33,0.01,0.63,0.08,0.93,0.21
				c0.29,0.13,0.54,0.31,0.75,0.53c0.21,0.22,0.37,0.48,0.5,0.77c0.12,0.3,0.18,0.61,0.17,0.94c-0.01,0.43-0.12,0.83-0.34,1.2
				c-0.22,0.36-0.52,0.65-0.89,0.86c-0.37,0.21-0.77,0.31-1.21,0.3C5.5,33.22,5.2,33.15,4.9,33.02z M6.72,31.64
				c0.24-0.22,0.37-0.48,0.37-0.79c0.01-0.31-0.11-0.58-0.34-0.81c-0.23-0.23-0.52-0.34-0.85-0.35c-0.34-0.01-0.63,0.1-0.87,0.32
				c-0.24,0.22-0.37,0.48-0.37,0.8C4.65,31.12,4.77,31.39,5,31.61c0.23,0.22,0.52,0.34,0.85,0.35C6.19,31.97,6.48,31.86,6.72,31.64z
				"/>
		</g>
		<g>
			<path class="st0" d="M8.14,33.72c0.13,0.09,0.21,0.22,0.24,0.39c0.03,0.17,0,0.32-0.09,0.45c-0.09,0.13-0.22,0.21-0.39,0.24
				l-2.87,0.5l0.25,1.44c0.03,0.16,0,0.3-0.09,0.42c-0.09,0.12-0.21,0.19-0.37,0.22c-0.16,0.03-0.3,0-0.42-0.08
				c-0.12-0.08-0.19-0.2-0.22-0.36l-0.35-2.06c-0.03-0.16,0-0.3,0.09-0.42c0.09-0.12,0.21-0.19,0.36-0.22l3.42-0.59
				C7.86,33.6,8.01,33.63,8.14,33.72z"/>
		</g>
		<g>
			<path class="st0" d="M7.17,41.87c-0.32-0.02-0.62-0.09-0.89-0.22s-0.52-0.31-0.74-0.55c-0.22-0.24-0.38-0.51-0.49-0.81
				c-0.15-0.41-0.18-0.82-0.11-1.24c0.08-0.42,0.25-0.79,0.53-1.12c0.27-0.33,0.61-0.56,1.02-0.71c0.31-0.11,0.62-0.16,0.94-0.14
				c0.32,0.02,0.62,0.1,0.89,0.22c0.27,0.13,0.52,0.31,0.74,0.55c0.22,0.24,0.38,0.51,0.5,0.81c0.15,0.41,0.18,0.82,0.1,1.24
				c-0.08,0.42-0.25,0.79-0.53,1.12s-0.61,0.56-1.02,0.71C7.81,41.84,7.5,41.89,7.17,41.87z M8.39,39.93
				c0.15-0.29,0.17-0.58,0.07-0.88c-0.11-0.3-0.31-0.51-0.61-0.64c-0.3-0.13-0.61-0.14-0.92-0.02c-0.32,0.11-0.55,0.32-0.7,0.61
				s-0.17,0.58-0.06,0.88c0.11,0.3,0.31,0.51,0.61,0.64c0.3,0.13,0.6,0.13,0.92,0.02C8,40.42,8.24,40.22,8.39,39.93z"/>
		</g>
		<g>
			<path class="st0" d="M9.08,45.81c-0.1,0.19-0.22,0.33-0.37,0.42c-0.12,0.07-0.25,0.09-0.38,0.06c-0.13-0.04-0.24-0.13-0.32-0.27
				c-0.08-0.12-0.11-0.25-0.1-0.37c0.01-0.12,0.06-0.26,0.15-0.42l0.63-1.09l-0.25-0.4l-0.83,0.51c-0.15,0.09-0.3,0.12-0.45,0.08
				c-0.15-0.04-0.27-0.13-0.36-0.27c-0.09-0.15-0.12-0.3-0.08-0.45c0.04-0.15,0.13-0.27,0.28-0.36l2.96-1.81
				c0.14-0.08,0.28-0.11,0.42-0.07c0.14,0.03,0.25,0.12,0.34,0.26l0.58,0.95c0.3,0.5,0.43,0.97,0.38,1.42
				c-0.05,0.45-0.27,0.79-0.66,1.02c-0.24,0.15-0.49,0.22-0.75,0.22c-0.26,0-0.51-0.08-0.75-0.22L9.08,45.81z M9.33,43.18l0.3,0.49
				c0.09,0.15,0.21,0.25,0.34,0.29c0.14,0.05,0.27,0.03,0.4-0.05c0.12-0.08,0.19-0.18,0.21-0.32c0.02-0.14-0.02-0.28-0.11-0.43
				l-0.3-0.49L9.33,43.18z"/>
		</g>
		<g>
			<path class="st0" d="M12.24,50.67c-0.19,0.04-0.36-0.02-0.52-0.19c-0.21-0.23-0.23-0.54-0.03-0.92l0.14-0.29l-1.24-1.35
				l-0.3,0.12c-0.21,0.08-0.38,0.12-0.52,0.12c-0.13,0-0.26-0.07-0.37-0.2c-0.15-0.17-0.2-0.34-0.14-0.52
				c0.06-0.18,0.23-0.32,0.49-0.42l3.05-1.13c0.28-0.1,0.5-0.14,0.68-0.11c0.18,0.03,0.35,0.13,0.51,0.3
				c0.16,0.17,0.24,0.35,0.25,0.53c0.01,0.18-0.05,0.4-0.17,0.67l-1.37,2.95C12.58,50.47,12.43,50.62,12.24,50.67z M12.33,48.26
				l0.66-1.3l-1.36,0.54L12.33,48.26z"/>
		</g>
		<g>
			<path class="st0" d="M18.91,50.34c0.03,0.15-0.01,0.3-0.11,0.44l-1.91,2.71c-0.13,0.18-0.28,0.3-0.46,0.33
				c-0.17,0.04-0.34,0-0.51-0.11c-0.12-0.08-0.21-0.18-0.27-0.29c-0.06-0.11-0.1-0.22-0.12-0.34c-0.02-0.11-0.02-0.26-0.02-0.44
				l0.03-2.35l-1.14,1.62c-0.1,0.14-0.23,0.23-0.38,0.25c-0.15,0.03-0.3-0.01-0.44-0.11c-0.14-0.1-0.23-0.23-0.25-0.38
				c-0.03-0.15,0.01-0.3,0.11-0.44l1.91-2.71c0.14-0.19,0.29-0.3,0.47-0.34c0.18-0.03,0.35,0.01,0.52,0.13
				c0.16,0.11,0.26,0.25,0.31,0.4s0.07,0.37,0.06,0.64l-0.07,2.42l1.19-1.69c0.1-0.14,0.23-0.23,0.38-0.25
				c0.15-0.03,0.3,0.01,0.44,0.11C18.79,50.06,18.88,50.18,18.91,50.34z"/>
		</g>
		<g>
			<path class="st0" d="M19.79,55.05c-0.07,0.16-0.18,0.27-0.33,0.32c-0.15,0.05-0.3,0.05-0.45-0.03c-0.16-0.07-0.26-0.18-0.32-0.33
				c-0.05-0.15-0.04-0.3,0.03-0.46l1.22-2.65l-0.64-0.29c-0.15-0.07-0.25-0.17-0.29-0.31c-0.05-0.14-0.04-0.28,0.03-0.43
				c0.07-0.15,0.17-0.25,0.31-0.3c0.14-0.05,0.28-0.04,0.43,0.02l2.36,1.09c0.15,0.07,0.24,0.17,0.29,0.31
				c0.05,0.14,0.04,0.28-0.03,0.43c-0.07,0.15-0.17,0.24-0.31,0.3c-0.14,0.05-0.28,0.04-0.42-0.02l-0.64-0.3L19.79,55.05z"/>
		</g>
		<g>
			<path class="st0" d="M22.9,52.14c0.13-0.07,0.27-0.09,0.42-0.04l1.91,0.53c0.15,0.04,0.27,0.13,0.34,0.26
				c0.07,0.13,0.09,0.27,0.04,0.43c-0.04,0.15-0.13,0.27-0.25,0.34c-0.13,0.07-0.27,0.09-0.42,0.04l-1.3-0.36l-0.16,0.58l1.02,0.28
				c0.15,0.04,0.27,0.13,0.34,0.26c0.07,0.13,0.09,0.27,0.04,0.43c-0.04,0.16-0.13,0.27-0.26,0.34c-0.13,0.07-0.27,0.09-0.42,0.04
				l-1.03-0.28l-0.18,0.64l1.3,0.36c0.15,0.04,0.27,0.13,0.34,0.26c0.07,0.13,0.09,0.27,0.04,0.43c-0.04,0.15-0.13,0.27-0.26,0.34
				c-0.13,0.07-0.27,0.09-0.42,0.04l-1.91-0.53c-0.15-0.04-0.27-0.13-0.34-0.26c-0.07-0.13-0.09-0.27-0.04-0.42l0.93-3.35
				C22.68,52.33,22.77,52.21,22.9,52.14z"/>
		</g>
		<g>
			<path class="st0" d="M25.71,56.21c0.1-0.08,0.23-0.11,0.38-0.09c0.1,0.01,0.22,0.05,0.35,0.12c0.13,0.07,0.26,0.14,0.42,0.21
				c0.15,0.07,0.31,0.11,0.47,0.13c0.15,0.02,0.28,0,0.38-0.03c0.1-0.04,0.16-0.11,0.17-0.21c0.01-0.08-0.02-0.16-0.1-0.23
				c-0.08-0.07-0.18-0.14-0.31-0.2c-0.13-0.06-0.28-0.13-0.44-0.19c-0.16-0.07-0.32-0.15-0.47-0.24c-0.16-0.09-0.3-0.2-0.42-0.31
				c-0.13-0.12-0.22-0.26-0.29-0.44c-0.07-0.18-0.09-0.38-0.06-0.59c0.05-0.42,0.25-0.74,0.6-0.96c0.35-0.22,0.81-0.3,1.37-0.24
				c0.29,0.03,0.55,0.09,0.78,0.18c0.23,0.09,0.41,0.21,0.55,0.36c0.14,0.16,0.2,0.33,0.17,0.53c-0.02,0.14-0.07,0.25-0.18,0.32
				c-0.1,0.08-0.23,0.11-0.37,0.09c-0.11-0.01-0.23-0.05-0.35-0.11c-0.12-0.06-0.26-0.12-0.41-0.18c-0.15-0.06-0.31-0.1-0.48-0.12
				c-0.26-0.03-0.4,0.04-0.42,0.22c-0.01,0.08,0.03,0.15,0.1,0.22c0.08,0.07,0.18,0.13,0.31,0.19c0.13,0.06,0.27,0.12,0.43,0.19
				c0.16,0.07,0.31,0.15,0.46,0.24c0.15,0.09,0.29,0.2,0.41,0.31c0.12,0.11,0.22,0.26,0.28,0.44c0.06,0.18,0.09,0.37,0.06,0.59
				c-0.05,0.43-0.25,0.77-0.61,1.01s-0.82,0.33-1.38,0.27c-0.3-0.03-0.57-0.1-0.81-0.2c-0.24-0.1-0.43-0.23-0.58-0.39
				s-0.21-0.35-0.18-0.55C25.55,56.39,25.61,56.29,25.71,56.21z"/>
		</g>
		<g>
			<path class="st0" d="M35.85,56.94c-0.07,0.18-0.22,0.28-0.45,0.32c-0.31,0.04-0.57-0.12-0.78-0.5l-0.16-0.28l-1.82,0.25
				l-0.07,0.31c-0.05,0.22-0.12,0.38-0.2,0.49c-0.08,0.11-0.21,0.17-0.38,0.2c-0.22,0.03-0.39-0.03-0.5-0.18
				c-0.11-0.15-0.14-0.37-0.07-0.64l0.81-3.15c0.07-0.28,0.17-0.49,0.3-0.63c0.12-0.13,0.3-0.22,0.54-0.25
				c0.23-0.03,0.42,0,0.58,0.09c0.15,0.09,0.3,0.27,0.45,0.52l1.64,2.81C35.89,56.55,35.92,56.76,35.85,56.94z M33.92,55.5
				l-0.7-1.28l-0.33,1.42L33.92,55.5z"/>
		</g>
		<g>
			<path class="st0" d="M39.9,54.81c0.16,0.13,0.27,0.28,0.33,0.45c0.05,0.14,0.04,0.26-0.02,0.38c-0.06,0.12-0.18,0.2-0.33,0.26
				c-0.14,0.05-0.26,0.05-0.38,0.02c-0.12-0.03-0.24-0.11-0.38-0.23l-0.93-0.85l-0.44,0.16l0.32,0.91c0.06,0.16,0.05,0.32-0.01,0.46
				c-0.07,0.14-0.18,0.24-0.34,0.29c-0.16,0.06-0.32,0.05-0.46-0.01c-0.14-0.07-0.24-0.18-0.3-0.35l-1.15-3.27
				c-0.05-0.15-0.05-0.29,0.01-0.42c0.06-0.13,0.17-0.22,0.32-0.28l1.05-0.37c0.55-0.19,1.04-0.22,1.46-0.07
				c0.42,0.14,0.71,0.43,0.86,0.86c0.09,0.27,0.11,0.53,0.06,0.78c-0.06,0.25-0.18,0.48-0.37,0.69L39.9,54.81z M37.4,54.01
				l0.54-0.19c0.17-0.06,0.29-0.15,0.36-0.27c0.07-0.12,0.08-0.26,0.03-0.4c-0.05-0.14-0.14-0.23-0.27-0.27
				c-0.13-0.05-0.28-0.04-0.45,0.02l-0.55,0.19L37.4,54.01z"/>
		</g>
		<g>
			<path class="st0" d="M43.08,53.66c0.08,0.15,0.11,0.3,0.06,0.45c-0.04,0.15-0.14,0.26-0.29,0.35c-0.15,0.08-0.3,0.1-0.45,0.06
				c-0.15-0.04-0.27-0.14-0.35-0.29l-1.4-2.55l-0.61,0.34c-0.14,0.08-0.28,0.1-0.42,0.05c-0.14-0.04-0.25-0.13-0.33-0.28
				c-0.08-0.14-0.1-0.28-0.05-0.42c0.04-0.14,0.13-0.25,0.27-0.33l2.26-1.25c0.14-0.08,0.28-0.09,0.42-0.05
				c0.14,0.04,0.25,0.13,0.33,0.28c0.08,0.14,0.1,0.28,0.06,0.42c-0.04,0.14-0.13,0.25-0.27,0.33l-0.62,0.34L43.08,53.66z"/>
		</g>
		<g>
			<path class="st0" d="M42.63,49.33c0.02-0.15,0.1-0.28,0.24-0.38c0.14-0.1,0.29-0.14,0.44-0.12c0.16,0.02,0.28,0.11,0.39,0.25
				l2.04,2.8c0.1,0.14,0.14,0.29,0.12,0.44c-0.02,0.15-0.1,0.28-0.24,0.38c-0.14,0.1-0.29,0.14-0.44,0.12
				c-0.15-0.02-0.28-0.11-0.39-0.25l-2.04-2.8C42.64,49.63,42.61,49.48,42.63,49.33z"/>
		</g>
		<g>
			<path class="st0" d="M47.54,50.46c0.12,0.13,0.17,0.27,0.17,0.43c-0.01,0.16-0.07,0.29-0.2,0.41c-0.13,0.12-0.27,0.17-0.42,0.17
				s-0.29-0.07-0.41-0.2l-2.4-2.59c-0.11-0.12-0.16-0.25-0.15-0.39c0-0.15,0.07-0.27,0.18-0.38l1.4-1.3
				c0.12-0.11,0.25-0.16,0.4-0.16c0.15,0.01,0.27,0.07,0.38,0.18c0.11,0.12,0.16,0.25,0.16,0.4c0,0.15-0.07,0.27-0.18,0.38
				l-0.94,0.87l0.5,0.53l0.73-0.68c0.12-0.11,0.25-0.16,0.39-0.15c0.15,0,0.27,0.07,0.38,0.18c0.11,0.12,0.16,0.25,0.16,0.4
				c0,0.15-0.06,0.27-0.18,0.38l-0.73,0.68L47.54,50.46z"/>
		</g>
		<g>
			<path class="st0" d="M46.53,45.86c-0.01-0.16,0.04-0.3,0.15-0.43c0.11-0.13,0.25-0.2,0.4-0.22c0.16-0.01,0.3,0.04,0.43,0.15
				l2.63,2.26c0.13,0.11,0.21,0.25,0.22,0.4c0.01,0.15-0.04,0.3-0.15,0.43c-0.11,0.13-0.25,0.2-0.4,0.22
				c-0.16,0.01-0.3-0.04-0.43-0.15l-2.63-2.26C46.61,46.15,46.54,46.01,46.53,45.86z"/>
		</g>
		<g>
			<path class="st0" d="M48.74,45.5c-0.17-0.19-0.29-0.39-0.39-0.61c-0.09-0.22-0.15-0.45-0.17-0.69c-0.02-0.24,0.01-0.49,0.09-0.76
				c0.07-0.26,0.2-0.53,0.36-0.79c0.16-0.24,0.34-0.45,0.54-0.62c0.2-0.17,0.41-0.28,0.61-0.34c0.21-0.05,0.38-0.03,0.53,0.07
				c0.14,0.09,0.23,0.21,0.24,0.34c0.02,0.14-0.01,0.27-0.1,0.4c-0.06,0.09-0.14,0.18-0.24,0.25c-0.1,0.07-0.21,0.15-0.32,0.24
				c-0.11,0.09-0.22,0.2-0.31,0.34c-0.2,0.31-0.26,0.61-0.17,0.89c0.09,0.28,0.28,0.52,0.58,0.71c0.3,0.19,0.59,0.27,0.89,0.23
				c0.29-0.04,0.54-0.21,0.74-0.52c0.09-0.14,0.15-0.28,0.19-0.42c0.03-0.14,0.06-0.27,0.08-0.39c0.02-0.12,0.06-0.23,0.12-0.32
				c0.09-0.13,0.19-0.22,0.33-0.26c0.13-0.04,0.27-0.01,0.41,0.08c0.15,0.1,0.24,0.25,0.28,0.46c0.04,0.21,0.02,0.44-0.05,0.7
				c-0.07,0.26-0.18,0.51-0.34,0.75c-0.17,0.26-0.36,0.48-0.57,0.66c-0.21,0.18-0.43,0.31-0.66,0.39c-0.23,0.08-0.46,0.13-0.7,0.13
				c-0.24,0.01-0.48-0.03-0.72-0.1c-0.24-0.07-0.47-0.18-0.69-0.32C49.1,45.85,48.9,45.68,48.74,45.5z"/>
		</g>
		<g>
			<path class="st0" d="M49.85,40.92c-0.05-0.15-0.04-0.3,0.03-0.45c0.07-0.16,0.18-0.26,0.33-0.32c0.15-0.05,0.3-0.04,0.46,0.03
				l3.14,1.45c0.16,0.07,0.26,0.18,0.32,0.33c0.05,0.15,0.05,0.3-0.03,0.45c-0.07,0.16-0.18,0.26-0.33,0.32
				c-0.15,0.05-0.3,0.04-0.46-0.03l-3.14-1.45C50.01,41.17,49.9,41.06,49.85,40.92z"/>
		</g>
		<g>
			<path class="st0" d="M55.85,36.55c0.13,0.14,0.17,0.32,0.1,0.54c-0.09,0.3-0.35,0.47-0.77,0.5l-0.32,0.03l-0.52,1.76l0.26,0.19
				c0.18,0.14,0.3,0.26,0.37,0.38c0.06,0.12,0.07,0.26,0.02,0.42c-0.06,0.22-0.19,0.34-0.37,0.38s-0.39-0.03-0.61-0.2l-2.54-2.03
				c-0.23-0.18-0.38-0.36-0.45-0.53c-0.07-0.17-0.07-0.37,0-0.59c0.07-0.23,0.17-0.39,0.32-0.49s0.37-0.17,0.66-0.2l3.23-0.34
				C55.51,36.35,55.72,36.41,55.85,36.55z M53.75,37.71l-1.45,0.11l1.16,0.89L53.75,37.71z"/>
		</g>
		<g>
			<path class="st0" d="M51.82,34.74c-0.1-0.12-0.14-0.26-0.12-0.44c0.02-0.17,0.09-0.31,0.21-0.41c0.12-0.1,0.27-0.14,0.44-0.12
				l2.9,0.29l0.14-1.45c0.02-0.16,0.08-0.28,0.19-0.38c0.11-0.09,0.25-0.13,0.41-0.11c0.16,0.02,0.29,0.08,0.38,0.19
				c0.09,0.11,0.13,0.25,0.12,0.41l-0.2,2.08c-0.01,0.16-0.08,0.29-0.19,0.38c-0.11,0.09-0.25,0.13-0.41,0.12l-3.45-0.34
				C52.06,34.93,51.92,34.86,51.82,34.74z"/>
		</g>
		<g>
			<path class="st0" d="M52.12,31.3c-0.11-0.1-0.17-0.23-0.18-0.39l-0.11-1.98c-0.01-0.16,0.04-0.29,0.14-0.4
				c0.1-0.11,0.23-0.17,0.39-0.18c0.16-0.01,0.29,0.04,0.4,0.13c0.11,0.1,0.17,0.23,0.18,0.39l0.07,1.35l0.6-0.03l-0.06-1.06
				c-0.01-0.16,0.04-0.29,0.13-0.4c0.1-0.11,0.23-0.17,0.39-0.18c0.16-0.01,0.29,0.04,0.4,0.13c0.11,0.1,0.17,0.23,0.18,0.39
				l0.06,1.06l0.66-0.03l-0.07-1.35c-0.01-0.16,0.04-0.29,0.13-0.4c0.1-0.11,0.23-0.17,0.39-0.18c0.16-0.01,0.29,0.04,0.4,0.13
				c0.11,0.1,0.17,0.23,0.18,0.39l0.11,1.98c0.01,0.16-0.04,0.29-0.13,0.4c-0.1,0.11-0.23,0.17-0.39,0.18l-3.48,0.19
				C52.36,31.44,52.23,31.4,52.12,31.3z"/>
		</g>
		<g>
			<path class="st0" d="M55.07,27.32c-0.11-0.07-0.18-0.18-0.21-0.33c-0.02-0.1-0.02-0.22,0-0.36c0.02-0.14,0.04-0.29,0.06-0.46
				s0.01-0.33-0.03-0.49c-0.03-0.15-0.08-0.27-0.16-0.35c-0.07-0.08-0.16-0.12-0.25-0.09c-0.08,0.02-0.14,0.07-0.19,0.17
				c-0.04,0.1-0.07,0.22-0.09,0.36c-0.02,0.14-0.03,0.3-0.04,0.47c-0.01,0.17-0.04,0.35-0.08,0.52c-0.04,0.18-0.09,0.34-0.16,0.5
				c-0.07,0.16-0.18,0.29-0.32,0.41s-0.33,0.2-0.54,0.25c-0.41,0.09-0.78,0-1.1-0.26c-0.33-0.26-0.55-0.67-0.67-1.22
				c-0.06-0.29-0.09-0.55-0.08-0.79c0.01-0.24,0.06-0.46,0.17-0.63c0.1-0.18,0.25-0.29,0.45-0.33c0.13-0.03,0.26-0.01,0.36,0.06
				c0.11,0.07,0.18,0.18,0.21,0.32c0.02,0.11,0.03,0.23,0.01,0.36c-0.02,0.14-0.03,0.28-0.04,0.45c-0.01,0.16,0,0.32,0.04,0.49
				c0.06,0.26,0.17,0.36,0.34,0.32c0.08-0.02,0.14-0.07,0.18-0.17c0.04-0.09,0.07-0.21,0.08-0.35c0.02-0.14,0.03-0.29,0.04-0.46
				c0.01-0.17,0.04-0.34,0.08-0.51c0.04-0.17,0.09-0.34,0.16-0.49c0.07-0.15,0.18-0.29,0.32-0.41c0.15-0.12,0.33-0.2,0.54-0.25
				c0.42-0.09,0.81-0.01,1.15,0.25c0.34,0.26,0.57,0.67,0.69,1.22c0.06,0.29,0.09,0.57,0.08,0.83c-0.01,0.26-0.07,0.48-0.18,0.67
				c-0.11,0.19-0.26,0.31-0.46,0.35C55.3,27.42,55.18,27.39,55.07,27.32z"/>
		</g>
	</g>
	<g>
		<g>
			<path class="st0" d="M38.68,8.46c5.94,2.32,10.86,7.13,13.26,13.04c0.31,0.76,1.02,1.31,1.88,1.07c0.72-0.2,1.38-1.11,1.07-1.88
				c-2.85-7-8.36-12.43-15.4-15.18c-0.77-0.3-1.68,0.33-1.88,1.07C37.37,7.45,37.91,8.16,38.68,8.46L38.68,8.46z"/>
		</g>
	</g>
	<g>
		<g>
			<path class="st0" d="M8.16,21.5c2.37-5.82,7.09-10.41,12.83-12.88c0.76-0.33,0.93-1.44,0.55-2.09c-0.46-0.78-1.33-0.88-2.09-0.55
				c-6.51,2.8-11.58,8.16-14.24,14.7c-0.31,0.77,0.34,1.68,1.07,1.88C7.15,22.81,7.84,22.27,8.16,21.5L8.16,21.5z"/>
		</g>
	</g>
	<g>
		<g>
			<g>
				<path class="st0" d="M23.18,25.63c1.56,1.59,3.11,3.19,4.67,4.78c0.63,0.64,1.23,1.34,1.9,1.94c0.72,0.65,1.7,1.1,2.52,1.61
					c1.12,0.7,2.28,1.68,3.69,1.12c0.97-0.39,1.61-1.38,1.53-2.44c-0.05-0.65-0.37-1.14-0.7-1.67c-0.53-0.84-1-1.85-1.67-2.58
					c-0.57-0.63-1.27-1.17-1.89-1.75c-1.86-1.72-3.72-3.43-5.58-5.15c-0.72-0.67-1.81,0.41-1.08,1.08c1.45,1.34,2.9,2.68,4.35,4.01
					c0.87,0.8,1.73,1.6,2.6,2.4c0.17,0.16,0.34,0.36,0.53,0.49c-0.04-0.03-0.14-0.23-0.01,0c0.12,0.21,0.27,0.42,0.4,0.63
					c0.36,0.56,0.71,1.12,1.07,1.68c0.27,0.42,0.63,0.86,0.4,1.39c-0.56,1.29-2.13-0.08-2.81-0.5c-0.56-0.35-1.11-0.7-1.67-1.05
					c-0.18-0.11-0.36-0.23-0.55-0.34c-0.19-0.11-0.16-0.16-0.04-0.01c-0.47-0.6-1.1-1.12-1.63-1.67c-1.65-1.69-3.3-3.38-4.94-5.07
					C23.57,23.84,22.49,24.93,23.18,25.63L23.18,25.63z"/>
			</g>
		</g>
		<g>
			<g>
				<path class="st0" d="M27.05,19.53c-1.65,1.65-3.29,3.29-4.94,4.94c-0.23,0.23-0.47,0.47-0.7,0.7c-0.7,0.7,0.38,1.78,1.08,1.08
					c1.65-1.65,3.29-3.29,4.94-4.94c0.23-0.23,0.47-0.47,0.7-0.7C28.82,19.91,27.74,18.83,27.05,19.53L27.05,19.53z"/>
			</g>
		</g>
		<g>
			<path class="st0" d="M39.33,40.24c0,1.2-0.97,2.17-2.17,2.17c-1.2,0-2.17-0.97-2.17-2.17c0-1.2,2.17-3.64,2.17-3.64
				S39.33,39.04,39.33,40.24z"/>
		</g>
		<g>
			<path class="st0" d="M23.15,23.93l-1.7-1.58c-0.92-0.85-0.92-2.3,0-3.16l0,0c0.87-0.82,2.24-0.76,3.06,0.11l1.5,1.62"/>
		</g>
	</g>
</g>
</svg>
