<?xml version="1.0" encoding="utf-8"?>
<!-- Generator: Adobe Illustrator 27.0.0, SVG Export Plug-In . SVG Version: 6.00 Build 0)  -->
<svg version="1.1" id="Capa_1" xmlns="http://www.w3.org/2000/svg" xmlns:xlink="http://www.w3.org/1999/xlink" x="0px" y="0px"
	 viewBox="0 0 60 60" style="enable-background:new 0 0 60 60;" xml:space="preserve">
<style type="text/css">
	.st0{fill:#2D3B2B;}
</style>
<g>
	<g>
		<path class="st0" d="M23.68,19.86h7.68c2.09,0,3.58,0.62,4.47,1.86c0.52,0.73,0.78,1.58,0.78,2.54c0,1.12-0.32,2.04-0.96,2.76
			c-0.33,0.38-0.81,0.73-1.43,1.04c0.91,0.35,1.59,0.74,2.04,1.17c0.8,0.77,1.2,1.84,1.2,3.21c0,1.14-0.36,2.18-1.08,3.11
			c-1.08,1.39-2.79,2.08-5.15,2.08h-7.56V19.86z M30.47,27.37c1.03,0,1.82-0.14,2.39-0.42c0.9-0.44,1.34-1.24,1.34-2.39
			c0-1.16-0.48-1.94-1.43-2.35c-0.54-0.23-1.34-0.34-2.4-0.34h-4.34v5.5H30.47z M31.28,35.57c1.49,0,2.55-0.43,3.19-1.28
			c0.4-0.54,0.6-1.19,0.6-1.96c0-1.29-0.58-2.17-1.75-2.64c-0.62-0.25-1.44-0.38-2.45-0.38h-4.82v6.25H31.28z"/>
	</g>
	<g>
		<path class="st0" d="M18.48,4.72h-2.84v1.16h2.6v0.95h-2.6v1.41h2.98v0.99h-4.1V3.75h3.96V4.72z"/>
		<path class="st0" d="M24.54,5.19c0.17,0.07,0.33,0.19,0.47,0.36c0.12,0.14,0.19,0.31,0.23,0.52c0.03,0.14,0.04,0.34,0.04,0.6
			l-0.01,2.56h-1.09V6.65c0-0.15-0.03-0.28-0.08-0.38c-0.09-0.19-0.27-0.28-0.52-0.28c-0.29,0-0.49,0.12-0.61,0.36
			c-0.06,0.13-0.08,0.28-0.08,0.46v2.41h-1.07V6.82c0-0.24-0.03-0.42-0.07-0.52C21.67,6.1,21.5,6,21.24,6c-0.3,0-0.51,0.1-0.61,0.29
			c-0.06,0.11-0.09,0.28-0.09,0.5v2.44h-1.07V5.19h1.03v0.59c0.13-0.21,0.25-0.36,0.37-0.45c0.21-0.16,0.47-0.24,0.8-0.24
			c0.31,0,0.56,0.07,0.75,0.2c0.15,0.13,0.27,0.29,0.35,0.49c0.14-0.24,0.31-0.41,0.52-0.52c0.22-0.11,0.46-0.17,0.73-0.17
			C24.19,5.09,24.37,5.12,24.54,5.19z"/>
		<path class="st0" d="M29.67,5.61c0.33,0.35,0.5,0.86,0.5,1.54c0,0.71-0.16,1.26-0.48,1.63c-0.32,0.37-0.74,0.56-1.25,0.56
			c-0.32,0-0.59-0.08-0.81-0.24c-0.12-0.09-0.23-0.22-0.35-0.39v2.11h-1.05V5.18h1.02v0.6c0.12-0.18,0.24-0.31,0.37-0.42
			c0.24-0.18,0.52-0.27,0.85-0.27C28.93,5.09,29.34,5.26,29.67,5.61z M28.86,6.38c-0.14-0.24-0.38-0.36-0.7-0.36
			c-0.39,0-0.66,0.18-0.8,0.55C27.28,6.75,27.24,7,27.24,7.3c0,0.47,0.13,0.8,0.38,0.99c0.15,0.11,0.33,0.17,0.54,0.17
			c0.3,0,0.53-0.11,0.68-0.34s0.23-0.53,0.23-0.91C29.07,6.89,29,6.62,28.86,6.38z"/>
		<path class="st0" d="M33.16,5.08c0.01,0,0.04,0,0.09,0.01v1.09c-0.07-0.01-0.13-0.01-0.18-0.01c-0.05,0-0.09,0-0.12,0
			c-0.43,0-0.71,0.14-0.86,0.42c-0.08,0.16-0.12,0.4-0.12,0.72v1.94H30.9V5.18h1.01v0.71c0.16-0.27,0.31-0.46,0.43-0.55
			c0.2-0.17,0.46-0.25,0.77-0.25C33.13,5.08,33.15,5.08,33.16,5.08z"/>
		<path class="st0" d="M36.52,5.26c0.28,0.13,0.52,0.33,0.7,0.6c0.17,0.24,0.28,0.52,0.32,0.84c0.03,0.19,0.04,0.45,0.04,0.8h-2.95
			c0.02,0.41,0.16,0.69,0.42,0.86c0.16,0.1,0.36,0.15,0.58,0.15c0.24,0,0.44-0.06,0.59-0.19c0.08-0.07,0.15-0.16,0.22-0.28h1.08
			c-0.03,0.24-0.16,0.48-0.39,0.73c-0.36,0.39-0.87,0.59-1.53,0.59c-0.54,0-1.02-0.17-1.43-0.5S33.56,8,33.56,7.25
			c0-0.7,0.19-1.24,0.56-1.62c0.37-0.37,0.86-0.56,1.45-0.56C35.92,5.07,36.24,5.13,36.52,5.26z M34.93,6.18
			c-0.15,0.15-0.24,0.36-0.28,0.63h1.83c-0.02-0.28-0.11-0.5-0.28-0.64c-0.17-0.15-0.38-0.22-0.63-0.22
			C35.29,5.94,35.08,6.02,34.93,6.18z"/>
		<path class="st0" d="M38.94,7.94c0.02,0.19,0.07,0.32,0.15,0.4c0.13,0.14,0.38,0.21,0.73,0.21c0.21,0,0.38-0.03,0.5-0.09
			S40.5,8.3,40.5,8.18c0-0.12-0.05-0.21-0.15-0.27c-0.1-0.06-0.47-0.17-1.11-0.32c-0.46-0.11-0.79-0.26-0.97-0.43
			c-0.19-0.17-0.28-0.41-0.28-0.73c0-0.37,0.15-0.7,0.44-0.97c0.29-0.27,0.71-0.4,1.24-0.4c0.51,0,0.92,0.1,1.24,0.3
			c0.32,0.2,0.5,0.55,0.55,1.05H40.4c-0.01-0.14-0.05-0.24-0.12-0.32c-0.12-0.14-0.32-0.22-0.6-0.22c-0.23,0-0.4,0.04-0.49,0.11
			c-0.1,0.07-0.15,0.16-0.15,0.25c0,0.12,0.05,0.21,0.16,0.26c0.11,0.06,0.47,0.16,1.11,0.29c0.42,0.1,0.74,0.25,0.95,0.45
			c0.21,0.2,0.31,0.46,0.31,0.76c0,0.4-0.15,0.73-0.45,0.98c-0.3,0.25-0.76,0.38-1.39,0.38c-0.64,0-1.11-0.13-1.41-0.4
			s-0.46-0.61-0.46-1.03H38.94z"/>
		<path class="st0" d="M43.96,6.77c0.2-0.02,0.34-0.06,0.42-0.09c0.15-0.06,0.23-0.17,0.23-0.3c0-0.17-0.06-0.28-0.18-0.34
			c-0.12-0.06-0.29-0.1-0.51-0.1c-0.25,0-0.43,0.06-0.54,0.19c-0.08,0.09-0.13,0.22-0.15,0.37h-1.02c0.02-0.35,0.12-0.65,0.3-0.87
			c0.28-0.36,0.76-0.54,1.45-0.54c0.45,0,0.84,0.09,1.19,0.26c0.35,0.18,0.52,0.51,0.52,1V8.2c0,0.13,0,0.29,0.01,0.47
			c0.01,0.14,0.03,0.23,0.06,0.28c0.04,0.05,0.09,0.09,0.16,0.12v0.16h-1.15C44.7,9.15,44.68,9.07,44.67,9
			c-0.01-0.07-0.02-0.15-0.03-0.25c-0.15,0.16-0.32,0.29-0.51,0.41c-0.23,0.13-0.49,0.2-0.78,0.2c-0.37,0-0.67-0.1-0.91-0.31
			s-0.36-0.51-0.36-0.89c0-0.5,0.19-0.86,0.58-1.08c0.21-0.12,0.53-0.21,0.94-0.26L43.96,6.77z M44.6,7.26
			c-0.07,0.04-0.14,0.08-0.21,0.1c-0.07,0.03-0.16,0.05-0.29,0.07l-0.24,0.04c-0.23,0.04-0.39,0.09-0.49,0.15
			c-0.17,0.1-0.25,0.25-0.25,0.45c0,0.18,0.05,0.31,0.15,0.39s0.23,0.12,0.37,0.12c0.23,0,0.44-0.07,0.64-0.2s0.3-0.38,0.3-0.73
			V7.26z"/>
	</g>
	<g>
		<path class="st0" d="M15.36,52.29c0.35-0.36,0.79-0.53,1.33-0.53c0.72,0,1.24,0.24,1.58,0.71c0.18,0.27,0.28,0.54,0.3,0.81h-0.9
			c-0.06-0.21-0.13-0.36-0.22-0.47c-0.16-0.19-0.4-0.28-0.71-0.28c-0.32,0-0.58,0.13-0.76,0.4s-0.28,0.64-0.28,1.12
			s0.1,0.85,0.29,1.09c0.2,0.24,0.44,0.36,0.75,0.36c0.31,0,0.55-0.1,0.71-0.31c0.09-0.11,0.16-0.28,0.22-0.5h0.9
			c-0.08,0.47-0.27,0.85-0.59,1.15c-0.32,0.29-0.72,0.44-1.22,0.44c-0.61,0-1.1-0.2-1.45-0.6c-0.35-0.4-0.53-0.95-0.53-1.65
			C14.76,53.28,14.96,52.7,15.36,52.29z"/>
		<path class="st0" d="M21.3,53.03c0.22,0.1,0.41,0.26,0.55,0.47c0.13,0.19,0.22,0.41,0.25,0.66c0.02,0.15,0.03,0.36,0.03,0.63
			h-2.33c0.01,0.32,0.12,0.54,0.33,0.67c0.13,0.08,0.28,0.12,0.46,0.12c0.19,0,0.34-0.05,0.46-0.15c0.06-0.05,0.12-0.13,0.17-0.22
			h0.85c-0.02,0.19-0.13,0.38-0.31,0.58c-0.29,0.31-0.69,0.47-1.2,0.47c-0.42,0-0.8-0.13-1.12-0.39s-0.49-0.69-0.49-1.28
			c0-0.55,0.15-0.98,0.44-1.27c0.29-0.3,0.67-0.44,1.14-0.44C20.83,52.88,21.08,52.93,21.3,53.03z M20.05,53.75
			c-0.12,0.12-0.19,0.29-0.22,0.49h1.44c-0.02-0.22-0.09-0.39-0.22-0.5c-0.13-0.12-0.3-0.17-0.5-0.17
			C20.33,53.57,20.17,53.63,20.05,53.75z"/>
		<path class="st0" d="M24.33,52.89c0.01,0,0.03,0,0.07,0v0.86c-0.05-0.01-0.1-0.01-0.14-0.01s-0.07,0-0.1,0
			c-0.34,0-0.56,0.11-0.68,0.33c-0.06,0.12-0.1,0.31-0.1,0.57v1.53h-0.84v-3.19h0.8v0.56c0.13-0.21,0.24-0.36,0.34-0.44
			c0.16-0.13,0.36-0.2,0.61-0.2C24.3,52.89,24.32,52.89,24.33,52.89z"/>
		<path class="st0" d="M24.56,53.59V53h0.45V52.1h0.83V53h0.52v0.59h-0.52v1.69c0,0.13,0.02,0.21,0.05,0.25s0.13,0.05,0.3,0.05
			c0.03,0,0.05,0,0.08,0s0.06,0,0.08,0v0.62l-0.4,0.01c-0.39,0.01-0.66-0.05-0.81-0.21c-0.09-0.1-0.14-0.24-0.14-0.44v-1.97H24.56z"
			/>
		<path class="st0" d="M27.75,52.58H26.9v-0.77h0.85V52.58z M26.9,52.97h0.85v3.19H26.9V52.97z"/>
		<path class="st0" d="M29.88,51.8c0.04,0,0.1,0.01,0.18,0.01v0.68c-0.05-0.01-0.13-0.01-0.24-0.01s-0.19,0.02-0.23,0.07
			s-0.06,0.11-0.06,0.17s0,0.15,0,0.27h0.55v0.59h-0.55v2.58H28.7v-2.58h-0.47V53h0.46v-0.21c0-0.34,0.06-0.58,0.17-0.71
			c0.12-0.19,0.41-0.29,0.88-0.29C29.79,51.8,29.83,51.8,29.88,51.8z"/>
		<path class="st0" d="M31.41,52.58h-0.85v-0.77h0.85V52.58z M30.56,52.97h0.85v3.19h-0.85V52.97z"/>
		<path class="st0" d="M34.13,54.11c-0.02-0.12-0.06-0.23-0.12-0.32c-0.09-0.13-0.24-0.19-0.44-0.19c-0.28,0-0.48,0.14-0.58,0.42
			c-0.05,0.15-0.08,0.34-0.08,0.59c0,0.23,0.03,0.42,0.08,0.56c0.1,0.27,0.29,0.4,0.56,0.4c0.2,0,0.33-0.05,0.42-0.16
			c0.08-0.11,0.13-0.24,0.15-0.41h0.85c-0.02,0.25-0.11,0.49-0.28,0.72c-0.26,0.37-0.65,0.55-1.16,0.55c-0.51,0-0.89-0.15-1.14-0.46
			c-0.24-0.3-0.36-0.7-0.36-1.18c0-0.55,0.13-0.97,0.4-1.28c0.27-0.3,0.64-0.46,1.11-0.46c0.4,0,0.73,0.09,0.98,0.27
			s0.41,0.5,0.45,0.95H34.13z"/>
		<path class="st0" d="M36.82,54.22c0.16-0.02,0.27-0.04,0.33-0.07c0.12-0.05,0.18-0.13,0.18-0.24c0-0.13-0.05-0.22-0.14-0.27
			c-0.09-0.05-0.23-0.08-0.41-0.08c-0.2,0-0.34,0.05-0.42,0.15c-0.06,0.07-0.1,0.17-0.12,0.29h-0.81c0.02-0.28,0.1-0.51,0.24-0.69
			c0.22-0.28,0.6-0.42,1.14-0.42c0.35,0,0.66,0.07,0.94,0.21s0.41,0.4,0.41,0.79v1.46c0,0.1,0,0.22,0.01,0.37
			c0.01,0.11,0.02,0.18,0.05,0.22s0.07,0.07,0.12,0.1v0.12h-0.91c-0.03-0.06-0.04-0.12-0.05-0.18s-0.02-0.12-0.02-0.19
			c-0.12,0.12-0.25,0.23-0.4,0.32c-0.18,0.1-0.39,0.16-0.61,0.16c-0.29,0-0.53-0.08-0.72-0.25s-0.28-0.4-0.28-0.7
			c0-0.39,0.15-0.68,0.46-0.85c0.17-0.1,0.41-0.16,0.74-0.21L36.82,54.22z M37.33,54.61c-0.05,0.03-0.11,0.06-0.16,0.08
			s-0.13,0.04-0.22,0.06l-0.19,0.04c-0.18,0.03-0.31,0.07-0.38,0.11c-0.13,0.08-0.2,0.19-0.2,0.35c0,0.14,0.04,0.25,0.12,0.31
			c0.08,0.06,0.18,0.09,0.29,0.09c0.18,0,0.35-0.05,0.5-0.16c0.15-0.11,0.23-0.3,0.24-0.58V54.61z"/>
		<path class="st0" d="M40.59,53.02c0.15,0.08,0.27,0.2,0.37,0.35v-1.52h0.85v4.31h-0.81v-0.44c-0.12,0.19-0.25,0.33-0.41,0.41
			s-0.34,0.13-0.57,0.13c-0.37,0-0.69-0.15-0.94-0.45c-0.25-0.3-0.38-0.69-0.38-1.16c0-0.54,0.12-0.97,0.38-1.29
			s0.59-0.47,1.01-0.47C40.26,52.89,40.44,52.93,40.59,53.02z M40.79,55.29c0.12-0.18,0.18-0.4,0.18-0.68c0-0.39-0.1-0.67-0.3-0.84
			c-0.12-0.1-0.26-0.15-0.42-0.15c-0.24,0-0.42,0.09-0.54,0.28c-0.11,0.18-0.17,0.41-0.17,0.69c0,0.29,0.06,0.53,0.17,0.71
			c0.12,0.18,0.29,0.26,0.53,0.26S40.67,55.47,40.79,55.29z"/>
		<path class="st0" d="M43.82,54.22c0.16-0.02,0.27-0.04,0.33-0.07c0.12-0.05,0.18-0.13,0.18-0.24c0-0.13-0.05-0.22-0.14-0.27
			c-0.09-0.05-0.23-0.08-0.41-0.08c-0.2,0-0.34,0.05-0.42,0.15c-0.06,0.07-0.1,0.17-0.12,0.29h-0.81c0.02-0.28,0.1-0.51,0.24-0.69
			c0.22-0.28,0.6-0.42,1.14-0.42c0.35,0,0.66,0.07,0.94,0.21s0.41,0.4,0.41,0.79v1.46c0,0.1,0,0.22,0.01,0.37
			c0.01,0.11,0.02,0.18,0.05,0.22s0.07,0.07,0.12,0.1v0.12h-0.91c-0.03-0.06-0.04-0.12-0.05-0.18s-0.02-0.12-0.02-0.19
			c-0.12,0.12-0.25,0.23-0.4,0.32c-0.18,0.1-0.39,0.16-0.61,0.16c-0.29,0-0.53-0.08-0.72-0.25s-0.28-0.4-0.28-0.7
			c0-0.39,0.15-0.68,0.46-0.85c0.17-0.1,0.41-0.16,0.74-0.21L43.82,54.22z M44.33,54.61c-0.05,0.03-0.11,0.06-0.16,0.08
			s-0.13,0.04-0.22,0.06l-0.19,0.04c-0.18,0.03-0.31,0.07-0.38,0.11c-0.13,0.08-0.2,0.19-0.2,0.35c0,0.14,0.04,0.25,0.12,0.31
			c0.08,0.06,0.18,0.09,0.29,0.09c0.18,0,0.35-0.05,0.5-0.16c0.15-0.11,0.23-0.3,0.24-0.58V54.61z"/>
	</g>
	<g>
		<path class="st0" d="M44.84,44.51c0.04,0.02,0.08,0.05,0.11,0.08c0.02,0.03,0.04,0.06,0.06,0.1c0.01,0.04,0.02,0.08,0.02,0.12
			c0,0.06-0.01,0.11-0.04,0.16c-0.03,0.05-0.07,0.09-0.14,0.11c0.05,0.02,0.09,0.05,0.11,0.09c0.02,0.04,0.03,0.1,0.03,0.18v0.08
			c0,0.05,0,0.09,0.01,0.11c0.01,0.03,0.02,0.05,0.04,0.07v0.03h-0.27c-0.01-0.03-0.01-0.05-0.02-0.06
			c-0.01-0.03-0.01-0.07-0.01-0.1l0-0.11c0-0.07-0.01-0.12-0.04-0.15s-0.07-0.04-0.14-0.04h-0.24v0.46H44.1v-1.16h0.56
			C44.73,44.48,44.79,44.49,44.84,44.51z M44.34,44.68v0.31h0.26c0.05,0,0.09-0.01,0.12-0.02c0.05-0.02,0.07-0.07,0.07-0.13
			c0-0.07-0.02-0.12-0.07-0.14c-0.02-0.01-0.06-0.02-0.11-0.02H44.34z"/>
	</g>
	<g>
		<path class="st0" d="M30,43.24c-8.16,0-14.79-6.64-14.79-14.79S21.84,13.66,30,13.66s14.79,6.64,14.79,14.79S38.16,43.24,30,43.24
			z M30,15.66c-7.05,0-12.79,5.74-12.79,12.79S22.95,41.24,30,41.24s12.79-5.74,12.79-12.79S37.05,15.66,30,15.66z"/>
	</g>
	<g>
		<rect x="14.71" y="47.35" class="st0" width="30.58" height="2"/>
	</g>
	<g>
		<path class="st0" d="M44.5,46.17c-0.63,0-1.14-0.51-1.14-1.14c0-0.63,0.51-1.14,1.14-1.14c0.63,0,1.14,0.51,1.14,1.14
			C45.64,45.66,45.13,46.17,44.5,46.17z M44.5,44.14c-0.49,0-0.89,0.4-0.89,0.89s0.4,0.89,0.89,0.89s0.89-0.4,0.89-0.89
			S44.99,44.14,44.5,44.14z"/>
	</g>
</g>
</svg>
