<?xml version="1.0" encoding="utf-8"?>
<!-- Generator: Adobe Illustrator 27.0.0, SVG Export Plug-In . SVG Version: 6.00 Build 0)  -->
<svg version="1.1" id="Capa_1" xmlns="http://www.w3.org/2000/svg" xmlns:xlink="http://www.w3.org/1999/xlink" x="0px" y="0px"
	 viewBox="0 0 60 60" style="enable-background:new 0 0 60 60;" xml:space="preserve">
<style type="text/css">
	.st0{fill:#2D3B2B;}
</style>
<g>
	<g>
		<path class="st0" d="M26.6,25.29c-1.11,0-2.14,0.32-3.01,0.87h2.16c0.42,0,0.75,0.34,0.75,0.75s-0.34,0.75-0.75,0.75h-3.39v2.03
			c0.11-0.29,0.38-0.49,0.71-0.49h1.42c0.42,0,0.75,0.34,0.75,0.75s-0.34,0.75-0.75,0.75h-1.42c-0.32,0-0.6-0.2-0.71-0.49v2.73
			c0,0.38-0.26,0.71-0.62,0.8c0,0,0,0.01,0.01,0.01c0,0,0,0.01,0.01,0.01c0,0,0,0,0,0c0.01,0.02,0.02,0.04,0.03,0.06
			c0.99,1.62,2.77,2.7,4.8,2.7c3.1,0,5.62-2.52,5.62-5.62S29.71,25.29,26.6,25.29z"/>
		<path class="st0" d="M20.71,32.95v-6.01c0,0,0-0.01,0-0.01c-0.01-0.42,0.32-0.76,0.73-0.77c0.01,0,0.02,0,0.03,0v0h0.41
			c-0.57-0.3-1.01-0.76-1.1-0.86c0-0.01-0.01-0.01-0.01-0.02c0,0,0,0,0,0l0,0c-1.03-1.15-2.53-1.88-4.19-1.88
			c-2.11,0-3.94,1.16-4.9,2.87c0.21,0.13,0.35,0.37,0.35,0.63c0,0.42-0.34,0.75-0.75,0.75H7.89v2.03c0.11-0.29,0.38-0.49,0.71-0.49
			h1.42c0.42,0,0.75,0.34,0.75,0.75s-0.34,0.75-0.75,0.75H8.59c-0.32,0-0.6-0.2-0.71-0.49v2.73c0,0.46-0.37,0.83-0.83,0.83
			c-0.46,0-0.83-0.37-0.83-0.83v-6.01c0,0,0-0.01,0-0.01c-0.01-0.42,0.32-0.76,0.73-0.77c0.01,0,0.02,0,0.03,0v0h4.09
			c-1.03-1.17-2.54-1.91-4.22-1.91c-3.1,0-5.62,2.52-5.62,5.62c0,3.1,2.52,5.62,5.62,5.62c1.14,0,2.21-0.34,3.09-0.93l0,0
			c0,0,0,0,0,0c0.05-0.03,0.09-0.06,0.13-0.09c0.48-0.31,2.16-1.23,4-0.4c0.05,0.02,0.1,0.05,0.15,0.07c0,0,0,0,0,0
			c0.19,0.1,0.35,0.16,0.48,0.19c0.58,0.2,1.21,0.32,1.86,0.32c1.32,0,2.54-0.46,3.5-1.22l0,0c0,0,0.29-0.22,0.66-0.26
			C20.72,33.1,20.71,33.03,20.71,32.95z M18.44,31.98L18.44,31.98l-0.46,0v1c0,0.44-0.35,0.79-0.79,0.79
			c-0.44,0-0.79-0.35-0.79-0.79V31.5c-0.08,0.28-0.34,0.49-0.65,0.49h-2.58v0c-0.41-0.01-0.75-0.35-0.75-0.77
			c0-0.06,0.01-0.12,0.02-0.17c0-0.01,0-0.01,0-0.02c0,0,0,0,0,0c0,0,0,0,0,0c0,0,0,0,0,0c0.02-0.06,0.04-0.12,0.07-0.17
			c0.15-0.32,0.44-0.65,0.44-0.65l3.25-3.75l0,0c0.12-0.14,0.3-0.23,0.51-0.23c0.37,0,0.67,0.3,0.67,0.67
			c0,0.16-0.06,0.31-0.15,0.43l-2.84,3.3h1.37c0.31,0,0.57,0.21,0.65,0.49v-1.86c0-0.44,0.35-0.79,0.79-0.79
			c0.44,0,0.79,0.35,0.79,0.79v1.37h0.45c0,0,0.01,0,0.01,0c0.37,0,0.67,0.3,0.67,0.67C19.11,31.68,18.81,31.98,18.44,31.98z"/>
	</g>
	<path class="st0" d="M36.42,26.67h-0.65v-0.38c0,0-0.02-0.4,0.6-0.32v-0.66c0,0-0.61-0.12-1.01,0.16c-0.4,0.28-0.41,0.82-0.41,0.82
		v0.38h-0.47v0.67h0.47v2.94h0.83v-2.94h0.65V26.67z"/>
	<path class="st0" d="M52.43,26.67h-0.65v-0.38c0,0-0.02-0.4,0.6-0.32v-0.66c0,0-0.61-0.12-1.01,0.16c-0.4,0.28-0.41,0.82-0.41,0.82
		v0.38h-0.47v0.67h0.47v2.94h0.83v-2.94h0.65V26.67z"/>
	<path class="st0" d="M36.42,32.92h-0.65v-0.38c0,0-0.02-0.4,0.6-0.32v-0.66c0,0-0.61-0.12-1.01,0.16c-0.4,0.28-0.41,0.82-0.41,0.82
		v0.38h-0.47v0.67h0.47v2.94h0.83v-2.94h0.65V32.92z"/>
	<path class="st0" d="M40.37,28.49L40.37,28.49c0-0.04-0.01-0.29-0.05-0.47c0,0,0,0,0,0c-0.03-0.2-0.11-0.43-0.26-0.65
		c-0.49-0.71-1.38-0.74-1.59-0.74c-0.23,0-1.09,0.04-1.58,0.74c-0.14,0.21-0.22,0.42-0.26,0.6c0,0,0,0,0,0
		c-0.06,0.21-0.07,0.47-0.07,0.52h0c0,0,0,0,0,0c0,0,0,0,0,0h0c0,0.04,0.01,0.29,0.05,0.47c0,0,0,0,0,0
		c0.03,0.2,0.11,0.43,0.26,0.65c0.49,0.71,1.38,0.74,1.59,0.74c0.23,0,1.09-0.04,1.58-0.74c0.14-0.21,0.22-0.42,0.26-0.6
		c0,0,0,0,0,0C40.36,28.81,40.37,28.54,40.37,28.49L40.37,28.49C40.37,28.5,40.37,28.5,40.37,28.49
		C40.37,28.49,40.37,28.49,40.37,28.49z M39.53,28.65c0,0.07-0.01,0.48-0.34,0.78c-0.28,0.25-0.61,0.25-0.73,0.25
		c-0.12,0-0.45,0-0.73-0.25c-0.33-0.29-0.34-0.71-0.34-0.78c0,0,0,0,0,0v0c0-0.04,0-0.08,0-0.1v-0.1c0-0.03,0-0.06,0-0.1v0h0
		c0.01-0.2,0.06-0.54,0.34-0.78c0.28-0.25,0.63-0.25,0.73-0.25c0.11,0,0.45,0,0.73,0.25c0.27,0.24,0.33,0.58,0.34,0.78h0V28.65z"/>
	<path class="st0" d="M44.43,28.49L44.43,28.49c0-0.04-0.01-0.29-0.05-0.47c0,0,0,0,0,0c-0.03-0.2-0.11-0.43-0.26-0.65
		c-0.49-0.71-1.38-0.74-1.59-0.74c-0.23,0-1.09,0.04-1.58,0.74c-0.14,0.21-0.22,0.42-0.26,0.6c0,0,0,0,0,0
		c-0.06,0.21-0.07,0.47-0.07,0.52h0c0,0,0,0,0,0c0,0,0,0,0,0h0c0,0.04,0.01,0.29,0.05,0.47c0,0,0,0,0,0
		c0.03,0.2,0.11,0.43,0.26,0.65c0.49,0.71,1.38,0.74,1.59,0.74c0.23,0,1.09-0.04,1.58-0.74c0.14-0.21,0.22-0.42,0.26-0.6
		c0,0,0,0,0,0C44.42,28.81,44.43,28.54,44.43,28.49L44.43,28.49C44.43,28.5,44.43,28.5,44.43,28.49
		C44.43,28.49,44.43,28.49,44.43,28.49z M43.6,28.65c0,0.07-0.01,0.48-0.34,0.78c-0.28,0.25-0.61,0.25-0.73,0.25
		c-0.12,0-0.45,0-0.73-0.25c-0.33-0.29-0.34-0.71-0.34-0.78c0,0,0,0,0,0v0c0-0.04,0-0.08,0-0.1v-0.1c0-0.03,0-0.06,0-0.1v0h0
		c0.01-0.2,0.06-0.54,0.34-0.78c0.28-0.25,0.63-0.25,0.73-0.25c0.11,0,0.45,0,0.73,0.25c0.27,0.24,0.33,0.58,0.34,0.78h0V28.65z"/>
	<path class="st0" d="M56.42,28.49L56.42,28.49c0-0.04-0.01-0.29-0.05-0.47c0,0,0,0,0,0c-0.03-0.2-0.11-0.43-0.26-0.65
		c-0.49-0.71-1.38-0.74-1.59-0.74c-0.23,0-1.09,0.04-1.58,0.74c-0.14,0.21-0.22,0.42-0.26,0.6c0,0,0,0,0,0
		c-0.06,0.21-0.07,0.47-0.07,0.52h0c0,0,0,0,0,0c0,0,0,0,0,0h0c0,0.04,0.01,0.29,0.05,0.47c0,0,0,0,0,0
		c0.03,0.2,0.11,0.43,0.26,0.65c0.49,0.71,1.38,0.74,1.59,0.74c0.23,0,1.09-0.04,1.58-0.74c0.14-0.21,0.22-0.42,0.26-0.6
		c0,0,0,0,0,0C56.41,28.81,56.42,28.54,56.42,28.49L56.42,28.49C56.42,28.5,56.42,28.5,56.42,28.49
		C56.42,28.49,56.42,28.49,56.42,28.49z M55.59,28.65c0,0.07-0.01,0.48-0.34,0.78c-0.28,0.25-0.61,0.25-0.73,0.25
		c-0.12,0-0.45,0-0.73-0.25c-0.33-0.29-0.34-0.71-0.34-0.78c0,0,0,0,0,0v0c0-0.04,0-0.08,0-0.1v-0.1c0-0.03,0-0.06,0-0.1v0h0
		c0.01-0.2,0.06-0.54,0.34-0.78c0.28-0.25,0.63-0.25,0.73-0.25c0.11,0,0.45,0,0.73,0.25c0.27,0.24,0.33,0.58,0.34,0.78h0V28.65z"/>
	<path class="st0" d="M37.17,28.12"/>
	<path class="st0" d="M47.78,25.34v1.97c-0.01,0.15-0.08,0.03-0.08,0.03l0,0c0-0.01-0.01-0.02-0.01-0.03l0,0l0,0
		c-0.09-0.16-0.2-0.32-0.36-0.45c-0.4-0.32-0.87-0.3-0.97-0.3c-0.57,0.02-0.93,0.36-1.04,0.46c-0.52,0.5-0.53,1.16-0.53,1.28h0v0.22
		c0,0.02,0,0.05,0,0.08v0.02h0c0,0.17,0.03,0.45,0.18,0.76c0.06,0.12,0.17,0.35,0.41,0.56c0.09,0.08,0.44,0.38,0.98,0.4
		c0.07,0,0.53,0.01,0.94-0.3c0.24-0.18,0.39-0.41,0.48-0.64v0.87h0.81v-4.95H47.78z M47.35,29.47c-0.26,0.19-0.54,0.19-0.65,0.19
		c-0.11,0-0.41,0-0.67-0.19c-0.35-0.26-0.4-0.69-0.41-0.89h0v-0.01c0-0.02,0-0.04,0-0.05v-0.14h0c0-0.2,0.06-0.64,0.43-0.91
		c0.26-0.19,0.54-0.19,0.65-0.19c0.11,0,0.41,0,0.67,0.19c0.3,0.22,0.38,0.56,0.4,0.79v0.41C47.76,28.88,47.67,29.24,47.35,29.47z"
		/>
	<path class="st0" d="M58.01,26.93c-0.1,0.12-0.17,0.32-0.23,0.55c0,0,0,0,0,0c-0.06,0.15-0.08,0.02-0.08,0.02v-0.78h-0.81v3.59
		h0.77h0.04h0.03v-2.06c0.05-0.62,0.36-0.73,0.46-0.76c0.04-0.01,0.08-0.01,0.13-0.01c0.24-0.01,0.44,0,0.44,0v-0.78
		C58.76,26.68,58.37,26.48,58.01,26.93z"/>
	<path class="st0" d="M45.92,32.95h-0.11h-0.04v2.25c0,0.05-0.01,0.13-0.02,0.2c-0.01,0.03-0.02,0.05-0.03,0.08c0,0,0,0,0,0
		c-0.01,0.02-0.01,0.03-0.02,0.05c-0.06,0.12-0.14,0.2-0.18,0.23c-0.26,0.23-0.62,0.19-0.74,0.18c-0.12-0.01-0.22-0.02-0.32-0.08
		c-0.28-0.18-0.3-0.57-0.3-0.57V35v-0.09v-1.96c-0.27,0-0.54,0-0.81,0c0,0.64,0,1.28-0.01,1.92l0,0c0,0,0,0.31,0.02,0.59
		c0,0.01,0,0.01,0,0.02c0,0.06,0.01,0.11,0.02,0.16c0,0,0,0.01,0,0.01c0,0.01,0,0.02,0,0.03c0.11,0.59,0.52,0.76,0.6,0.79
		c0.09,0.04,0.45,0.18,0.97,0.09c0.45-0.08,0.7-0.54,0.76-0.66c0,0,0,0,0,0c0,0,0,0,0,0c0,0,0-0.01,0.01-0.01
		c0.01-0.01,0.03-0.03,0.05-0.03c0.02,0,0.03,0.03,0.03,0.05v0.63h0.76v-3.58H45.92z"/>
	<path class="st0" d="M39.42,32.95h-0.11h-0.04v2.25c0,0.05-0.01,0.13-0.02,0.2c-0.01,0.03-0.02,0.05-0.03,0.08c0,0,0,0,0,0
		c-0.01,0.02-0.01,0.03-0.02,0.05c-0.06,0.12-0.14,0.2-0.18,0.23c-0.26,0.23-0.62,0.19-0.74,0.18c-0.12-0.01-0.22-0.02-0.32-0.08
		c-0.28-0.18-0.3-0.57-0.3-0.57V35v-0.09v-1.96c-0.27,0-0.54,0-0.81,0c0,0.64,0,1.28-0.01,1.92l0,0c0,0,0,0.31,0.02,0.59
		c0,0.01,0,0.01,0,0.02c0,0.06,0.01,0.11,0.02,0.16c0,0,0,0.01,0,0.01c0,0.01,0,0.02,0,0.03c0.11,0.59,0.52,0.76,0.6,0.79
		c0.09,0.04,0.45,0.18,0.97,0.09c0.45-0.08,0.7-0.54,0.76-0.66c0,0,0,0,0,0c0,0,0,0,0,0c0,0,0-0.01,0.01-0.01
		c0.01-0.01,0.03-0.03,0.05-0.03c0.02,0,0.03,0.03,0.03,0.05v0.63h0.76v-3.58H39.42z"/>
	<path class="st0" d="M41.86,35.3v-1.64c0-0.07,0.06-0.08,0.08-0.09h0.82v-0.65h-0.88V32.3h-0.55c-0.01,0.68-0.52,0.77-0.72,0.78
		h-0.08v0.49h0.5v1.73c0,0,0,0.23,0.01,0.37c0,0.13,0.03,0.22,0.03,0.22c0.19,0.54,0.5,0.66,0.87,0.69c0.37,0.04,0.7-0.05,0.7-0.05
		v-0.67c-0.11,0.02-0.31,0.02-0.31,0.02C41.86,35.89,41.85,35.4,41.86,35.3L41.86,35.3z"/>
	<path class="st0" d="M51.91,35.67c-0.25,0.29-0.63,0.27-0.79,0.26c-0.12-0.01-0.5-0.03-0.76-0.34c-0.22-0.26-0.21-0.57-0.21-0.66
		h1.78h0.15h0.84c0-0.08,0-0.15-0.01-0.22c-0.01-0.29-0.05-0.99-0.61-1.47c-0.46-0.39-1-0.4-1.18-0.4c-0.17,0-0.72,0.01-1.19,0.4
		c-0.62,0.51-0.63,1.28-0.64,1.47c0,0.21-0.02,0.92,0.53,1.43c0.47,0.44,1.05,0.44,1.3,0.45c0.26,0,0.97,0.01,1.43-0.53
		c0.2-0.23,0.29-0.48,0.33-0.72h-0.82C52.05,35.45,52,35.57,51.91,35.67z M51.13,33.5c0.49,0,0.9,0.37,0.96,0.84h-1.91
		C50.23,33.87,50.63,33.5,51.13,33.5z"/>
	<path class="st0" d="M48.37,33.17c-0.1,0.12-0.17,0.32-0.23,0.55c0,0,0,0,0,0c-0.06,0.15-0.08,0.02-0.08,0.02v-0.78h-0.81v3.39v0.2
		h0.77h0.04h0.03v-0.2v-1.86c0.05-0.62,0.36-0.73,0.46-0.76c0.04-0.01,0.08-0.01,0.13-0.01c0.24-0.01,0.44,0,0.44,0v-0.78
		C49.12,32.92,48.72,32.72,48.37,33.17z"/>
</g>
</svg>
