<?xml version="1.0" encoding="utf-8"?>
<!-- Generator: Adobe Illustrator 27.0.0, SVG Export Plug-In . SVG Version: 6.00 Build 0)  -->
<svg version="1.1" id="Capa_1" xmlns="http://www.w3.org/2000/svg" xmlns:xlink="http://www.w3.org/1999/xlink" x="0px" y="0px"
	 viewBox="0 0 60 60" style="enable-background:new 0 0 60 60;" xml:space="preserve">
<style type="text/css">
	.st0{fill:#2D3B2B;}
</style>
<g>
	<g>
		<g>
			<path class="st0" d="M4.28,19c-0.03-0.09-0.02-0.18,0.03-0.27L5.1,17.2c0.21-0.41,0.51-0.69,0.89-0.84
				c0.38-0.15,0.75-0.14,1.1,0.05c0.25,0.13,0.42,0.31,0.51,0.54c0.09,0.23,0.13,0.46,0.11,0.69c0.21-0.21,0.45-0.35,0.72-0.42
				C8.72,17.15,9,17.2,9.29,17.35c0.36,0.19,0.59,0.48,0.69,0.88c0.11,0.4,0.04,0.83-0.19,1.27l-0.85,1.64
				c-0.05,0.09-0.11,0.15-0.2,0.18c-0.09,0.03-0.18,0.02-0.27-0.03L4.45,19.2C4.36,19.15,4.31,19.09,4.28,19z M6.48,19.42l0.58-1.12
				c0.12-0.24,0.16-0.47,0.11-0.69c-0.05-0.23-0.18-0.39-0.38-0.5c-0.2-0.1-0.41-0.11-0.63-0.02c-0.22,0.09-0.39,0.25-0.51,0.49
				l-0.58,1.11L6.48,19.42z M8.53,20.49l0.64-1.22c0.13-0.25,0.16-0.49,0.11-0.74c-0.06-0.24-0.19-0.42-0.4-0.53
				c-0.21-0.11-0.44-0.12-0.67-0.03c-0.23,0.09-0.41,0.26-0.54,0.51l-0.63,1.22L8.53,20.49z"/>
		</g>
		<g>
			<path class="st0" d="M7.18,13.92c-0.01-0.1,0.02-0.19,0.09-0.27c0.07-0.08,0.15-0.13,0.25-0.14c0.1-0.01,0.19,0.02,0.27,0.09
				l2.18,1.82c0.32,0.27,0.66,0.4,1.01,0.38c0.35-0.02,0.65-0.18,0.9-0.48c0.25-0.3,0.36-0.63,0.31-0.98
				c-0.04-0.35-0.23-0.66-0.55-0.93L9.46,11.6c-0.08-0.07-0.13-0.15-0.13-0.25c-0.01-0.1,0.02-0.19,0.09-0.27
				c0.07-0.08,0.15-0.13,0.25-0.14s0.19,0.02,0.27,0.09l2.18,1.82c0.49,0.41,0.77,0.89,0.83,1.43c0.06,0.54-0.11,1.04-0.51,1.52
				c-0.39,0.47-0.86,0.73-1.4,0.76c-0.54,0.03-1.05-0.16-1.55-0.57l-2.17-1.82C7.23,14.1,7.19,14.02,7.18,13.92z"/>
		</g>
		<g>
			<path class="st0" d="M11.49,9.26c0.01-0.09,0.06-0.17,0.14-0.23l2.11-1.67c0.08-0.06,0.17-0.09,0.26-0.08
				c0.09,0.01,0.17,0.06,0.23,0.14c0.06,0.08,0.09,0.16,0.08,0.26c-0.01,0.09-0.06,0.17-0.14,0.23l-1.8,1.42l0.98,1.23l1.54-1.22
				c0.08-0.06,0.17-0.09,0.26-0.08c0.09,0.01,0.17,0.05,0.23,0.13c0.06,0.08,0.09,0.17,0.08,0.26c-0.01,0.09-0.06,0.17-0.14,0.23
				l-1.54,1.22l0.98,1.24l1.8-1.42c0.08-0.06,0.17-0.09,0.26-0.08c0.09,0.01,0.17,0.06,0.23,0.14c0.06,0.08,0.09,0.17,0.07,0.26
				c-0.01,0.09-0.06,0.17-0.14,0.23l-2.11,1.67c-0.08,0.06-0.17,0.09-0.26,0.08c-0.09-0.01-0.17-0.06-0.23-0.14l-2.81-3.56
				C11.5,9.44,11.48,9.35,11.49,9.26z"/>
		</g>
		<g>
			<path class="st0" d="M19.54,4.26c0.09,0.03,0.16,0.1,0.21,0.19l1.96,3.99c0.06,0.13,0.08,0.25,0.06,0.35
				c-0.03,0.11-0.09,0.19-0.2,0.24c-0.12,0.06-0.23,0.08-0.33,0.06c-0.1-0.02-0.23-0.07-0.39-0.15l-3.99-2.04l1.59,3.24
				c0.05,0.09,0.05,0.19,0.02,0.28c-0.03,0.09-0.1,0.17-0.2,0.21c-0.1,0.05-0.19,0.05-0.28,0.02c-0.09-0.03-0.16-0.09-0.21-0.19
				L15.81,6.5c-0.07-0.13-0.08-0.25-0.05-0.36c0.03-0.11,0.11-0.19,0.23-0.25c0.1-0.05,0.21-0.07,0.31-0.05s0.22,0.07,0.36,0.15
				l4.05,2.08l-1.61-3.29c-0.05-0.1-0.05-0.19-0.02-0.28c0.03-0.09,0.09-0.16,0.19-0.21C19.35,4.24,19.45,4.23,19.54,4.26z"/>
		</g>
		<g>
			<path class="st0" d="M27.34,7.38c-0.03,0.11-0.11,0.18-0.24,0.22c-0.21,0.06-0.39-0.02-0.54-0.24l-0.62-0.89l-2.46,0.54
				l-0.19,1.08c-0.02,0.14-0.06,0.24-0.11,0.3c-0.05,0.07-0.13,0.11-0.24,0.12c-0.13,0.02-0.23-0.01-0.3-0.09
				c-0.07-0.09-0.09-0.21-0.07-0.37l0.86-4.53c0.04-0.2,0.09-0.34,0.15-0.43c0.06-0.09,0.17-0.15,0.31-0.18s0.27-0.02,0.37,0.03
				c0.1,0.05,0.2,0.16,0.32,0.33L27.24,7C27.33,7.14,27.37,7.27,27.34,7.38z M25.53,5.88l-1.48-2.11L23.6,6.3L25.53,5.88z"/>
		</g>
		<g>
			<path class="st0" d="M30.82,7.23c-0.01,0.11-0.05,0.19-0.12,0.26c-0.07,0.07-0.17,0.09-0.27,0.09c-0.11-0.01-0.19-0.05-0.26-0.12
				c-0.07-0.07-0.1-0.16-0.09-0.27l0.29-4.59c0.01-0.1,0.04-0.18,0.12-0.24c0.07-0.06,0.16-0.09,0.26-0.08l2.6,0.16
				c0.1,0.01,0.18,0.04,0.25,0.11c0.06,0.07,0.09,0.15,0.08,0.25c-0.01,0.1-0.05,0.18-0.12,0.24c-0.07,0.06-0.16,0.09-0.26,0.08
				l-2.2-0.14l-0.1,1.64l1.88,0.12c0.1,0.01,0.18,0.04,0.24,0.11c0.06,0.07,0.09,0.16,0.08,0.26c-0.01,0.1-0.04,0.18-0.12,0.24
				C33,5.41,32.92,5.43,32.82,5.43l-1.88-0.12L30.82,7.23z"/>
		</g>
		<g>
			<path class="st0" d="M35.58,2.83c0.09-0.05,0.18-0.06,0.28-0.03c0.1,0.03,0.18,0.09,0.23,0.17c0.05,0.09,0.06,0.18,0.03,0.28
				L35.37,6c-0.11,0.41-0.09,0.77,0.07,1.08c0.16,0.31,0.43,0.52,0.81,0.63c0.38,0.1,0.72,0.06,1.02-0.12
				c0.3-0.19,0.5-0.48,0.62-0.89l0.76-2.74c0.03-0.1,0.08-0.18,0.17-0.23C38.9,3.68,39,3.67,39.1,3.69
				c0.11,0.03,0.18,0.09,0.23,0.17c0.05,0.09,0.06,0.18,0.03,0.28l-0.76,2.74c-0.17,0.62-0.49,1.07-0.96,1.35
				c-0.47,0.28-1,0.33-1.59,0.17c-0.59-0.16-1.02-0.48-1.28-0.96c-0.26-0.48-0.3-1.02-0.13-1.65l0.76-2.74
				C35.44,2.96,35.5,2.88,35.58,2.83z"/>
		</g>
		<g>
			<path class="st0" d="M41.59,4.81c0.09-0.03,0.18-0.02,0.27,0.03l2.39,1.23c0.09,0.05,0.15,0.12,0.18,0.2
				c0.03,0.09,0.02,0.18-0.03,0.27c-0.05,0.09-0.11,0.15-0.2,0.17c-0.09,0.03-0.18,0.02-0.27-0.03L41.9,5.64l-0.72,1.4l1.75,0.9
				c0.09,0.05,0.15,0.11,0.18,0.2c0.03,0.09,0.02,0.18-0.02,0.26c-0.05,0.09-0.11,0.15-0.2,0.18S42.7,8.6,42.61,8.55l-1.75-0.9
				l-0.72,1.41l2.04,1.05c0.09,0.05,0.15,0.11,0.18,0.2c0.03,0.09,0.02,0.18-0.03,0.27c-0.05,0.09-0.11,0.15-0.2,0.17
				c-0.09,0.03-0.18,0.02-0.27-0.03L39.47,9.5c-0.09-0.05-0.15-0.11-0.18-0.2c-0.03-0.09-0.02-0.18,0.03-0.27l2.07-4.03
				C41.44,4.9,41.5,4.84,41.59,4.81z"/>
		</g>
		<g>
			<path class="st0" d="M49.48,10.07c0.01,0.1-0.02,0.19-0.09,0.27l-2.81,3.43c-0.09,0.11-0.19,0.18-0.3,0.2
				c-0.11,0.02-0.21-0.01-0.3-0.08c-0.1-0.08-0.17-0.18-0.19-0.28c-0.03-0.1-0.04-0.24-0.03-0.42l0.19-4.47l-2.28,2.79
				c-0.07,0.08-0.15,0.13-0.25,0.14s-0.19-0.02-0.27-0.09c-0.08-0.07-0.13-0.15-0.14-0.25c-0.01-0.1,0.02-0.19,0.09-0.27l2.8-3.43
				c0.09-0.12,0.2-0.18,0.31-0.2c0.11-0.02,0.22,0.02,0.32,0.1c0.09,0.07,0.15,0.16,0.17,0.26S46.73,8,46.72,8.15l-0.21,4.54
				l2.31-2.83c0.07-0.08,0.15-0.13,0.25-0.14c0.1-0.01,0.19,0.02,0.27,0.09C49.42,9.89,49.47,9.97,49.48,10.07z"/>
		</g>
		<g>
			<path class="st0" d="M48.51,16.26c-0.08,0.07-0.17,0.09-0.27,0.08c-0.1-0.01-0.18-0.06-0.25-0.15c-0.07-0.08-0.09-0.17-0.08-0.27
				c0.01-0.1,0.06-0.18,0.14-0.24l3.27-2.6l-0.82-1.03c-0.06-0.08-0.09-0.16-0.08-0.25c0.01-0.09,0.06-0.17,0.14-0.23
				c0.08-0.06,0.16-0.09,0.25-0.08c0.09,0.01,0.17,0.05,0.23,0.13l2.09,2.63c0.06,0.08,0.09,0.16,0.08,0.25
				c-0.01,0.09-0.06,0.17-0.14,0.23c-0.08,0.06-0.16,0.09-0.25,0.08c-0.09-0.01-0.17-0.05-0.23-0.13l-0.82-1.03L48.51,16.26z"/>
		</g>
		<g>
			<path class="st0" d="M54.17,16.02c0.09,0.03,0.16,0.09,0.21,0.17l1.27,2.37c0.05,0.09,0.06,0.18,0.03,0.27
				c-0.03,0.09-0.09,0.16-0.18,0.21c-0.09,0.05-0.18,0.06-0.26,0.03c-0.09-0.03-0.16-0.09-0.2-0.18l-1.08-2.02l-1.39,0.74l0.93,1.73
				c0.05,0.09,0.06,0.18,0.03,0.27c-0.03,0.09-0.08,0.16-0.17,0.2c-0.09,0.05-0.18,0.06-0.27,0.03c-0.09-0.03-0.16-0.09-0.21-0.17
				l-0.93-1.73l-1.4,0.75l1.08,2.02c0.05,0.09,0.06,0.18,0.03,0.27c-0.03,0.09-0.09,0.16-0.18,0.21c-0.09,0.05-0.18,0.06-0.27,0.03
				c-0.09-0.03-0.16-0.09-0.2-0.18l-1.27-2.37c-0.05-0.09-0.06-0.18-0.03-0.27c0.03-0.09,0.09-0.16,0.18-0.21l4-2.14
				C53.99,16,54.08,15.99,54.17,16.02z"/>
		</g>
	</g>
	<g>
		<g>
			<path class="st0" d="M16.4,47.9c0.16-0.03,0.32,0,0.48,0.1l1.06,0.7c0.47,0.31,0.82,0.69,1.07,1.12
				c0.25,0.44,0.37,0.89,0.36,1.37c-0.01,0.48-0.15,0.92-0.43,1.34c-0.27,0.41-0.63,0.71-1.06,0.9s-0.9,0.25-1.4,0.19
				c-0.5-0.06-0.98-0.25-1.45-0.56l-1.06-0.71c-0.15-0.1-0.25-0.23-0.28-0.4c-0.03-0.16,0-0.32,0.1-0.48l2.2-3.31
				C16.1,48.03,16.24,47.94,16.4,47.9z M15.3,51.73L15.72,52c0.38,0.26,0.76,0.36,1.13,0.31c0.37-0.05,0.67-0.24,0.9-0.58
				c0.22-0.34,0.29-0.68,0.19-1.05c-0.1-0.36-0.34-0.67-0.73-0.93l-0.41-0.27L15.3,51.73z"/>
		</g>
		<g>
			<path class="st0" d="M20.73,50.58c0.15-0.07,0.31-0.06,0.49,0l2.1,0.84c0.17,0.07,0.29,0.18,0.35,0.33
				c0.06,0.15,0.06,0.32-0.01,0.49c-0.07,0.17-0.18,0.29-0.33,0.35c-0.15,0.07-0.32,0.06-0.49,0l-1.43-0.57l-0.25,0.64l1.13,0.45
				c0.17,0.07,0.29,0.18,0.35,0.33c0.07,0.15,0.06,0.32,0,0.49c-0.07,0.17-0.18,0.29-0.33,0.35c-0.15,0.07-0.32,0.07-0.49,0
				l-1.13-0.45l-0.28,0.7l1.43,0.57c0.17,0.07,0.29,0.18,0.35,0.33c0.07,0.15,0.06,0.32,0,0.49c-0.07,0.17-0.18,0.29-0.33,0.35
				c-0.15,0.07-0.32,0.06-0.49,0l-2.1-0.84c-0.17-0.07-0.29-0.18-0.35-0.33c-0.07-0.15-0.06-0.32,0-0.49l1.47-3.69
				C20.46,50.77,20.57,50.65,20.73,50.58z"/>
		</g>
		<g>
			<path class="st0" d="M26.23,56.87c-0.03,0.2-0.11,0.35-0.25,0.46c-0.14,0.11-0.31,0.15-0.51,0.12c-0.2-0.03-0.35-0.11-0.45-0.25
				c-0.11-0.14-0.15-0.31-0.12-0.51l0.55-4.02c0.02-0.18,0.1-0.32,0.24-0.42c0.13-0.1,0.29-0.14,0.47-0.11l2.17,0.3
				c0.18,0.03,0.32,0.1,0.43,0.24c0.1,0.13,0.14,0.29,0.11,0.47c-0.03,0.18-0.11,0.33-0.24,0.43c-0.13,0.1-0.29,0.14-0.47,0.12
				l-1.46-0.2l-0.11,0.83l1.14,0.16c0.18,0.02,0.32,0.1,0.42,0.24c0.1,0.13,0.14,0.29,0.11,0.47c-0.02,0.18-0.1,0.33-0.24,0.43
				s-0.29,0.14-0.47,0.12l-1.13-0.16L26.23,56.87z"/>
		</g>
		<g>
			<path class="st0" d="M29.55,52.6c0.13-0.12,0.29-0.19,0.49-0.18c0.2,0,0.36,0.07,0.48,0.2c0.13,0.13,0.19,0.29,0.18,0.49
				l-0.06,3.96c0,0.2-0.07,0.36-0.19,0.49c-0.13,0.12-0.29,0.18-0.49,0.18c-0.2,0-0.36-0.07-0.48-0.2
				c-0.13-0.13-0.19-0.29-0.18-0.49l0.06-3.96C29.36,52.89,29.43,52.73,29.55,52.6z"/>
		</g>
		<g>
			<path class="st0" d="M31.45,52.67c0.1-0.13,0.24-0.21,0.42-0.24l1.49-0.22c0.53-0.08,0.98,0,1.37,0.22
				c0.38,0.23,0.61,0.56,0.67,1c0.07,0.48-0.13,0.87-0.6,1.17c0.27,0.04,0.51,0.14,0.69,0.32s0.3,0.41,0.35,0.71
				c0.03,0.2,0.02,0.39-0.03,0.58s-0.14,0.36-0.26,0.52c-0.13,0.16-0.3,0.3-0.53,0.41c-0.23,0.11-0.49,0.19-0.79,0.24l-1.59,0.23
				c-0.18,0.03-0.34-0.01-0.47-0.11c-0.13-0.1-0.22-0.24-0.24-0.42l-0.57-3.93C31.31,52.96,31.35,52.8,31.45,52.67z M32.87,54.35
				l0.66-0.1c0.17-0.02,0.3-0.08,0.39-0.18c0.09-0.09,0.12-0.21,0.1-0.34c-0.02-0.13-0.08-0.23-0.2-0.29
				c-0.11-0.06-0.25-0.08-0.42-0.06l-0.66,0.1L32.87,54.35z M33.16,56.32l0.76-0.11c0.17-0.02,0.3-0.09,0.39-0.18
				c0.09-0.1,0.12-0.21,0.1-0.35c-0.02-0.13-0.09-0.23-0.2-0.29c-0.11-0.06-0.25-0.08-0.42-0.06l-0.76,0.11L33.16,56.32z"/>
		</g>
		<g>
			<path class="st0" d="M40.34,54.44c0.19,0.15,0.32,0.32,0.38,0.5c0.06,0.15,0.05,0.3-0.02,0.43c-0.07,0.13-0.2,0.24-0.38,0.3
				c-0.15,0.06-0.3,0.07-0.44,0.03c-0.14-0.04-0.28-0.12-0.44-0.26l-1.08-0.96l-0.5,0.19l0.38,1.04c0.07,0.19,0.07,0.36-0.01,0.52
				c-0.07,0.16-0.2,0.28-0.39,0.34c-0.19,0.07-0.36,0.06-0.52-0.01c-0.16-0.07-0.28-0.21-0.34-0.39l-1.36-3.72
				c-0.06-0.17-0.06-0.33,0.01-0.49c0.07-0.15,0.19-0.26,0.36-0.32l1.19-0.44c0.62-0.23,1.18-0.26,1.67-0.11
				c0.49,0.16,0.82,0.48,1,0.97c0.11,0.3,0.14,0.6,0.08,0.89c-0.06,0.29-0.2,0.55-0.41,0.79L40.34,54.44z M37.46,53.57l0.62-0.23
				c0.19-0.07,0.32-0.18,0.41-0.32c0.08-0.14,0.09-0.29,0.03-0.45c-0.06-0.15-0.16-0.26-0.31-0.31c-0.15-0.05-0.32-0.04-0.51,0.03
				l-0.62,0.23L37.46,53.57z"/>
		</g>
		<g>
			<path class="st0" d="M46.38,51.84c0.02,0.22-0.09,0.4-0.31,0.55c-0.3,0.2-0.65,0.15-1.04-0.14l-0.3-0.21l-1.75,1.15l0.08,0.36
				c0.05,0.25,0.07,0.45,0.04,0.6c-0.03,0.15-0.13,0.28-0.29,0.38c-0.22,0.14-0.42,0.16-0.61,0.06c-0.19-0.1-0.32-0.31-0.38-0.62
				l-0.7-3.64c-0.06-0.33-0.06-0.59,0-0.79c0.06-0.2,0.21-0.37,0.44-0.52c0.22-0.15,0.44-0.21,0.64-0.19
				c0.2,0.02,0.44,0.13,0.72,0.32l3.06,2.1C46.23,51.42,46.37,51.62,46.38,51.84z M43.7,51.29l-1.34-0.98l0.35,1.63L43.7,51.29z"/>
		</g>
	</g>
	<g>
		<g>
			<path class="st0" d="M4.02,24.2C2.3,31.56,3.69,39.38,7.97,45.61c1.11,1.61,3.76,0.08,2.64-1.54C6.79,38.5,5.42,31.61,6.97,25.02
				C7.43,23.1,4.48,22.28,4.02,24.2L4.02,24.2z"/>
		</g>
	</g>
	<g>
		<g>
			<path class="st0" d="M53.03,25.02c1.55,6.6,0.19,13.48-3.64,19.05c-1.12,1.63,1.53,3.16,2.64,1.54
				c4.28-6.23,5.68-14.05,3.95-21.41C55.53,22.29,52.57,23.1,53.03,25.02L53.03,25.02z"/>
		</g>
	</g>
	<g>
		<g>
			<g>
				<path class="st0" d="M22.77,25.92c1.6-0.11,3.09,1.45,3.92,2.65c1.15,1.67,1.65,3.56,1.65,5.57c0,1.41,0,2.82,0,4.22
					c0,1.44,1.41,2.39,2.8,1.96c1.57-0.49,1.73-2.46,1.53-3.83c-0.14-0.97-1.62-0.56-1.48,0.41c-0.05-0.31,0.01,0.11,0.01,0.24
					c0.01,0.26,0.02,0.52-0.02,0.78c-0.07,0.52-0.36,1.25-1.04,0.93c-0.22-0.1-0.26-0.28-0.31-0.36c0.04,0.05,0.01,0.28,0.02,0.11
					c0.01-0.08,0-0.16,0-0.24c0-0.66,0-1.31,0-1.97c0-1.26,0.07-2.55-0.08-3.8c-0.26-2.12-1.12-4.12-2.51-5.74
					c-1.07-1.26-2.75-2.58-4.51-2.46C21.8,24.46,21.79,25.99,22.77,25.92L22.77,25.92z"/>
			</g>
		</g>
		<g>
			<g>
				<path class="st0" d="M27.81,29.35c-3.63,1.15-6.6-0.97-8.97-3.47c-0.59-0.62-1.15-1.26-1.67-1.94c-0.29-0.38-0.6-1.2-0.96-1.48
					c-0.03-0.06-0.05-0.12-0.07-0.19c-0.01,0.16-0.05,0.3-0.14,0.43c0.04,0.02,0.38-0.15,0.43-0.16c0.54-0.08,1.07-0.24,1.62-0.31
					c2.43-0.31,6.15-0.61,8.27,0.87c2,1.4,2.99,4.45,3.5,6.74c0.16,0.75,1.28,0.71,1.48,0c0.53-1.96,3.5-2.81,5.38-2.98
					c2.39-0.21,5.45-0.41,7.74,0.54c-0.15-0.37-0.3-0.75-0.46-1.12c-1.18,1.9-2.57,3.74-4.17,5.3c-1.22,1.2-2.46,2.03-4.16,2.33
					c-0.98,0.17-2.02,0.19-3-0.01c-0.22-0.04-1.15-0.34-0.95-0.26c-0.89-0.39-1.67,0.93-0.77,1.32c6.35,2.78,11.41-3.13,14.38-7.92
					c0.29-0.46-0.02-0.94-0.46-1.12c-0.73-0.31-1.58-0.41-2.36-0.51c-2.35-0.3-4.86-0.33-7.19,0.09c-2.12,0.38-4.84,1.62-5.46,3.92
					c0.49,0,0.98,0,1.48,0c-0.51-2.32-1.47-4.79-3.04-6.6c-1.84-2.12-4.89-2.31-7.52-2.3c-1.34,0.01-2.69,0.1-4.01,0.36
					c-0.65,0.13-1.66,0.3-2.01,0.96c-0.42,0.8,0.37,1.81,0.81,2.43c0.92,1.3,2,2.51,3.15,3.61c2.58,2.46,5.91,4.07,9.53,2.93
					C29.15,30.53,28.75,29.05,27.81,29.35L27.81,29.35z"/>
			</g>
		</g>
		<g>
			<g>
				<path class="st0" d="M32.91,32.57c1.35-0.89,2.76-1.7,4.19-2.45c2.3-1.21,4.89-2.51,7.53-2.69c0.98-0.07,0.98-1.6,0-1.53
					c-2.83,0.2-5.56,1.48-8.04,2.76c-1.52,0.79-3.02,1.64-4.45,2.58C31.32,31.79,32.08,33.11,32.91,32.57L32.91,32.57z"/>
			</g>
		</g>
	</g>
</g>
</svg>
