<?xml version="1.0" encoding="utf-8"?>
<!-- Generator: Adobe Illustrator 27.0.0, SVG Export Plug-In . SVG Version: 6.00 Build 0)  -->
<svg version="1.1" id="Capa_1" xmlns="http://www.w3.org/2000/svg" xmlns:xlink="http://www.w3.org/1999/xlink" x="0px" y="0px"
	 viewBox="0 0 60 60" style="enable-background:new 0 0 60 60;" xml:space="preserve">
<style type="text/css">
	.st0{fill:#2D3B2B;}
</style>
<g>
	<g>
		<g>
			<g>
				<path class="st0" d="M35.3,38.49c0.28-0.22,0.06-0.05-0.01,0c-0.13,0.08-0.27,0.16-0.41,0.24c-0.36,0.18-0.77,0.33-1.23,0.39
					c-1.7,0.22-3.05-0.92-4.03-2.17c0,0.36,0,0.72,0,1.08c0.54-0.59,1.26-1.08,1.99-1.38c1.53-0.64,2.96-0.24,4.28,0.66
					c1.83,1.26,3.44,3.11,4.69,4.87c0.56,0.8,1.89,0.03,1.32-0.77c-1.09-1.54-2.36-3-3.77-4.25c-1-0.89-2.13-1.74-3.42-2.15
					c-1.37-0.43-2.82-0.2-4.09,0.42c-0.76,0.37-1.51,0.9-2.09,1.52c-0.31,0.33-0.26,0.74,0,1.08c1.25,1.59,3.06,2.84,5.16,2.61
					c0.97-0.11,1.91-0.46,2.68-1.06C37.15,38.96,36.06,37.89,35.3,38.49L35.3,38.49z"/>
			</g>
		</g>
		<g>
			<g>
				<path class="st0" d="M33.64,33.24c-0.7-1.09-1.81-1.97-3.01-2.45c-1.9-0.76-4.36-0.26-5.99,0.93c-0.41,0.3-0.81,0.64-1.09,1.07
					c-0.13,0.21-0.15,0.56,0,0.77c0.62,0.85,1.46,1.58,2.4,2.06c0.79,0.4,1.68,0.64,2.57,0.58c1.19-0.08,2.21-0.6,3.15-1.33
					c0.33-0.25,0.27-0.82,0-1.08c-0.32-0.32-0.75-0.25-1.08,0c-1.26,0.98-2.76,1.14-4.09,0.39c-0.52-0.29-0.8-0.52-1.22-0.95
					c-0.13-0.13-0.24-0.26-0.36-0.39c-0.04-0.04-0.07-0.09-0.11-0.14c0.01,0.01,0.14,0.18,0.07,0.09c0,0.26,0,0.51,0,0.77
					c0.01-0.02,0.06-0.06,0.06-0.08c-0.01,0.12-0.13,0.15-0.02,0.03c0.03-0.03,0.06-0.06,0.08-0.09c0.26-0.28,0.39-0.38,0.65-0.54
					c0.94-0.61,2.14-0.96,3.26-0.92c0.94,0.03,1.85,0.49,2.51,1.07c0.27,0.23,0.5,0.49,0.73,0.76c0.03,0.04,0.15,0.21,0.01,0.01
					c0.03,0.04,0.06,0.08,0.08,0.11c0.02,0.03,0.05,0.07,0.07,0.1C32.85,34.83,34.18,34.07,33.64,33.24L33.64,33.24z"/>
			</g>
		</g>
		<g>
			<g>
				<path class="st0" d="M29.26,28.69c-0.7-1.09-1.81-1.97-3.01-2.45c-1.9-0.76-4.36-0.26-5.99,0.93c-0.41,0.3-0.81,0.64-1.09,1.07
					c-0.13,0.21-0.15,0.56,0,0.77c0.62,0.85,1.46,1.58,2.4,2.06c0.79,0.4,1.68,0.64,2.57,0.58c1.19-0.08,2.21-0.6,3.15-1.33
					c0.33-0.25,0.27-0.82,0-1.08c-0.32-0.32-0.75-0.25-1.08,0c-1.26,0.98-2.76,1.14-4.09,0.39c-0.52-0.29-0.8-0.52-1.22-0.95
					c-0.13-0.13-0.24-0.26-0.36-0.39c-0.04-0.04-0.07-0.09-0.11-0.14c0.01,0.01,0.14,0.18,0.07,0.09c0,0.26,0,0.51,0,0.77
					c0.01-0.02,0.06-0.06,0.06-0.08c-0.01,0.12-0.13,0.15-0.02,0.03c0.03-0.03,0.06-0.06,0.08-0.09c0.26-0.28,0.39-0.38,0.65-0.54
					c0.94-0.61,2.14-0.96,3.26-0.92c0.94,0.03,1.85,0.49,2.51,1.07c0.27,0.23,0.5,0.49,0.73,0.76c0.03,0.04,0.15,0.21,0.01,0.01
					c0.03,0.04,0.06,0.08,0.08,0.11c0.02,0.03,0.05,0.07,0.07,0.1C28.47,30.29,29.8,29.52,29.26,28.69L29.26,28.69z"/>
			</g>
		</g>
		<g>
			<g>
				<path class="st0" d="M35.67,34.48c0.1-0.61,0.24-1.21,0.4-1.81c0.13-0.49,0.27-0.97,0.45-1.44c0.03-0.07,0.05-0.14,0.08-0.2
					c-0.03,0.07-0.02,0.04,0.01-0.01c0.05-0.11,0.1-0.22,0.16-0.33c0.05-0.09,0.1-0.18,0.16-0.26c0.03-0.04,0.05-0.08,0.08-0.12
					c-0.07,0.09-0.05,0.07,0.01,0c-0.25,0.07-0.5,0.13-0.74,0.2c0.02,0.01,0.08,0.04,0.1,0.03c0.02-0.01,0.09,0.04,0.11,0.04
					c-0.24-0.07-0.11-0.05-0.01,0c0.14,0.06,0.27,0.14,0.4,0.22c0.07,0.04,0.14,0.09,0.21,0.14c0.03,0.02,0.16,0.12,0.05,0.03
					c-0.11-0.08,0.04,0.03,0.06,0.05c0.16,0.14,0.31,0.29,0.45,0.45c0.02,0.02,0.04,0.05,0.06,0.07c0,0-0.1-0.13-0.05-0.06
					c0.03,0.05,0.07,0.09,0.1,0.14c0.07,0.1,0.14,0.21,0.2,0.32c0.03,0.05,0.05,0.11,0.08,0.17c0.06,0.11-0.04-0.12,0.02,0.04
					c0.05,0.14,0.1,0.27,0.13,0.41c0.04,0.14,0.06,0.28,0.08,0.42c-0.03-0.19,0,0.09,0.01,0.12c0.01,0.09,0.01,0.18,0.01,0.28
					c0.01,0.9-0.26,1.81-0.64,2.74c-0.16,0.38,0.17,0.84,0.53,0.94c0.44,0.12,0.78-0.15,0.94-0.53c0.67-1.61,1.01-3.45,0.28-5.1
					c-0.4-0.91-1.15-1.66-2.03-2.11c-0.22-0.11-0.45-0.22-0.69-0.29c-0.25-0.07-0.56,0-0.74,0.2c-0.71,0.78-1.04,1.9-1.31,2.89
					c-0.18,0.64-0.33,1.29-0.44,1.95c-0.07,0.41,0.11,0.82,0.53,0.94C35.1,35.11,35.6,34.89,35.67,34.48L35.67,34.48z"/>
			</g>
		</g>
		<g>
			<g>
				<path class="st0" d="M31.18,29.91c0.1-0.61,0.24-1.21,0.4-1.81c0.13-0.49,0.27-0.97,0.45-1.44c0.03-0.07,0.05-0.14,0.08-0.2
					c-0.03,0.07-0.02,0.04,0.01-0.01c0.05-0.11,0.1-0.22,0.16-0.33c0.05-0.09,0.1-0.18,0.16-0.26c0.03-0.04,0.05-0.08,0.08-0.12
					c-0.07,0.09-0.05,0.07,0.01,0c-0.25,0.07-0.5,0.13-0.74,0.2c0.02,0.01,0.08,0.04,0.1,0.03c0.02-0.01,0.09,0.04,0.11,0.04
					c-0.24-0.07-0.11-0.05-0.01,0c0.14,0.06,0.27,0.14,0.4,0.22c0.07,0.04,0.14,0.09,0.21,0.14c0.03,0.02,0.16,0.12,0.05,0.03
					c-0.11-0.08,0.04,0.03,0.06,0.05c0.16,0.14,0.31,0.29,0.45,0.45c0.02,0.02,0.04,0.05,0.06,0.07c0,0-0.1-0.13-0.05-0.06
					c0.03,0.05,0.07,0.09,0.1,0.14c0.07,0.1,0.14,0.21,0.2,0.32c0.03,0.05,0.05,0.11,0.08,0.17c0.06,0.11-0.04-0.12,0.02,0.04
					c0.05,0.14,0.1,0.27,0.13,0.41c0.04,0.14,0.06,0.28,0.08,0.42c-0.03-0.19,0,0.09,0.01,0.12c0.01,0.09,0.01,0.18,0.01,0.28
					c0.01,0.9-0.26,1.81-0.64,2.74c-0.16,0.38,0.17,0.84,0.53,0.94c0.44,0.12,0.78-0.15,0.94-0.53c0.67-1.61,1.01-3.45,0.28-5.1
					c-0.4-0.91-1.15-1.66-2.03-2.11c-0.22-0.11-0.45-0.22-0.69-0.29c-0.25-0.07-0.56,0-0.74,0.2c-0.71,0.78-1.04,1.9-1.31,2.89
					c-0.18,0.64-0.33,1.29-0.44,1.95c-0.07,0.41,0.11,0.82,0.53,0.94C30.61,30.54,31.11,30.32,31.18,29.91L31.18,29.91z"/>
			</g>
		</g>
		<g>
			<g>
				<path class="st0" d="M26.72,25.62c0.1-0.61,0.24-1.21,0.4-1.81c0.13-0.49,0.27-0.97,0.45-1.44c0.03-0.07,0.05-0.14,0.08-0.2
					c-0.03,0.07-0.02,0.04,0.01-0.01c0.05-0.11,0.1-0.22,0.16-0.33c0.05-0.09,0.1-0.18,0.16-0.26c0.03-0.04,0.05-0.08,0.08-0.12
					c-0.07,0.09-0.05,0.07,0.01,0c-0.25,0.07-0.5,0.13-0.74,0.2c0.02,0.01,0.08,0.04,0.1,0.03c0.02-0.01,0.09,0.04,0.11,0.04
					c-0.24-0.07-0.11-0.05-0.01,0c0.14,0.06,0.27,0.14,0.4,0.22c0.07,0.04,0.14,0.09,0.21,0.14c0.03,0.02,0.16,0.12,0.05,0.03
					c-0.11-0.08,0.04,0.03,0.06,0.05c0.16,0.14,0.31,0.29,0.45,0.45c0.02,0.02,0.04,0.05,0.06,0.07c0,0-0.1-0.13-0.05-0.06
					c0.03,0.05,0.07,0.09,0.1,0.14c0.07,0.1,0.14,0.21,0.2,0.32c0.03,0.05,0.05,0.11,0.08,0.17c0.06,0.11-0.04-0.12,0.02,0.04
					c0.05,0.14,0.1,0.27,0.13,0.41c0.04,0.14,0.06,0.28,0.08,0.42c-0.03-0.19,0,0.09,0.01,0.12c0.01,0.09,0.01,0.18,0.01,0.28
					c0.01,0.9-0.26,1.81-0.64,2.74c-0.16,0.38,0.17,0.84,0.53,0.94c0.44,0.12,0.78-0.15,0.94-0.53c0.67-1.61,1.01-3.45,0.28-5.1
					c-0.4-0.91-1.15-1.66-2.03-2.11c-0.22-0.11-0.45-0.22-0.69-0.29c-0.25-0.07-0.56,0-0.74,0.2c-0.71,0.78-1.04,1.9-1.31,2.89
					c-0.18,0.64-0.33,1.29-0.44,1.95c-0.07,0.41,0.11,0.82,0.53,0.94C26.14,26.26,26.65,26.03,26.72,25.62L26.72,25.62z"/>
			</g>
		</g>
		<g>
			<g>
				<path class="st0" d="M23.01,24.46c-0.17-0.04-0.33-0.09-0.49-0.14c-0.18-0.06-0.36-0.13-0.53-0.2c-0.17-0.07,0.12,0.05-0.01,0
					c-0.05-0.02-0.1-0.05-0.16-0.07c-0.12-0.05-0.23-0.11-0.35-0.17c-0.24-0.13-0.48-0.27-0.71-0.42c-0.12-0.08-0.23-0.16-0.35-0.25
					c-0.07-0.05,0.02,0.02,0.03,0.02c-0.03-0.03-0.07-0.05-0.1-0.08c-0.07-0.05-0.13-0.11-0.19-0.17c-0.54-0.49-0.8-0.81-1.11-1.45
					c-0.02-0.04-0.12-0.26-0.07-0.15c-0.04-0.09-0.07-0.19-0.1-0.28c-0.06-0.2-0.12-0.4-0.16-0.6c-0.05-0.24-0.05-0.29-0.06-0.58
					c-0.01-0.26,0-0.51,0.02-0.77c-0.19,0.25-0.37,0.49-0.56,0.74c0.14-0.05,0.28-0.08,0.43-0.1c0.07-0.01,0.15-0.02,0.22-0.04
					c0.01,0-0.19,0.02-0.03,0.01c0.05,0,0.1-0.01,0.14-0.01c0.21-0.02,0.43-0.03,0.64-0.02c0.12,0,0.23,0.01,0.35,0.02
					c0.07,0,0.13,0.01,0.2,0.02c0.13,0.01-0.12-0.02,0.06,0.01c0.28,0.05,0.55,0.11,0.83,0.19c0.14,0.04,0.28,0.09,0.41,0.15
					c0.11,0.05-0.1-0.05,0.01,0.01c0.03,0.01,0.06,0.03,0.1,0.04c0.08,0.04,0.15,0.07,0.23,0.11c0.27,0.14,0.63,0.38,0.79,0.51
					c0.77,0.64,1.34,1.44,1.8,2.32c0.19,0.37,0.7,0.48,1.05,0.27c0.37-0.22,0.46-0.68,0.27-1.05c-0.85-1.64-2.13-3.03-3.87-3.72
					c-1.08-0.42-2.25-0.51-3.39-0.34c-0.21,0.03-0.42,0.07-0.63,0.14c-0.34,0.11-0.54,0.39-0.56,0.74c-0.13,1.73,0.44,3.4,1.66,4.64
					c0.86,0.88,1.96,1.5,3.12,1.92c0.23,0.08,0.46,0.16,0.69,0.21C23.56,26.15,23.97,24.68,23.01,24.46L23.01,24.46z"/>
			</g>
		</g>
	</g>
	<g>
		<g>
			<path class="st0" d="M2.86,23.61c-0.05-0.09-0.05-0.18-0.02-0.28c0.03-0.1,0.09-0.18,0.18-0.22c0.09-0.05,0.19-0.05,0.29-0.02
				l3.94,1.24l0.7-2.21c0.03-0.1,0.08-0.17,0.17-0.21c0.08-0.04,0.17-0.05,0.27-0.01c0.1,0.03,0.17,0.09,0.21,0.17
				c0.04,0.08,0.05,0.17,0.02,0.26l-0.82,2.59c-0.03,0.1-0.09,0.17-0.17,0.21c-0.08,0.04-0.17,0.05-0.27,0.02l-4.27-1.35
				C2.98,23.76,2.9,23.7,2.86,23.61z"/>
		</g>
		<g>
			<path class="st0" d="M4.5,19.02c-0.03-0.09-0.03-0.19,0.02-0.28c0.05-0.1,0.12-0.16,0.21-0.2c0.09-0.03,0.19-0.03,0.28,0.02
				l4.09,1.93c0.1,0.05,0.16,0.11,0.19,0.21c0.03,0.09,0.02,0.19-0.02,0.29c-0.04,0.1-0.11,0.16-0.21,0.2
				c-0.09,0.03-0.19,0.03-0.28-0.02l-4.09-1.93C4.59,19.18,4.53,19.11,4.5,19.02z"/>
		</g>
		<g>
			<path class="st0" d="M5.8,16.46c-0.02-0.09,0-0.18,0.06-0.26l0.96-1.43c0.26-0.38,0.58-0.62,0.98-0.73
				c0.4-0.11,0.76-0.05,1.09,0.18c0.23,0.16,0.38,0.35,0.45,0.59c0.07,0.24,0.08,0.47,0.03,0.69c0.23-0.19,0.49-0.3,0.77-0.33
				c0.28-0.03,0.56,0.04,0.82,0.22c0.33,0.22,0.53,0.54,0.59,0.95c0.06,0.41-0.05,0.82-0.33,1.24l-1.03,1.53
				c-0.06,0.08-0.13,0.13-0.22,0.15c-0.09,0.02-0.18,0-0.26-0.06l-3.75-2.53C5.87,16.62,5.82,16.55,5.8,16.46z M7.93,17.13
				l0.71-1.05c0.15-0.22,0.21-0.45,0.19-0.68C8.8,15.18,8.69,15,8.51,14.87c-0.19-0.13-0.4-0.16-0.62-0.09
				c-0.23,0.06-0.42,0.21-0.57,0.43l-0.7,1.04L7.93,17.13z M9.85,18.43l0.77-1.14c0.16-0.23,0.22-0.47,0.19-0.72
				c-0.03-0.25-0.14-0.44-0.34-0.57c-0.2-0.14-0.42-0.17-0.66-0.1c-0.24,0.07-0.44,0.22-0.6,0.45l-0.77,1.14L9.85,18.43z"/>
		</g>
		<g>
			<path class="st0" d="M14.87,12.61c0.13,0.03,0.23,0.08,0.31,0.16c0.06,0.06,0.09,0.14,0.08,0.22c0,0.08-0.04,0.16-0.12,0.24
				c-0.06,0.06-0.13,0.1-0.21,0.11c-0.07,0.01-0.17,0.01-0.28-0.02l-2.08-0.51l-0.75,0.74l1.2,1.23c0.07,0.08,0.11,0.16,0.11,0.26
				c0,0.1-0.04,0.19-0.12,0.26c-0.08,0.07-0.16,0.11-0.26,0.11c-0.1,0-0.18-0.04-0.26-0.11l-3.17-3.24c-0.07-0.07-0.1-0.15-0.1-0.25
				c0-0.09,0.04-0.18,0.11-0.25l1.06-1.04c0.41-0.4,0.84-0.62,1.29-0.66c0.45-0.04,0.84,0.11,1.17,0.45
				c0.25,0.26,0.4,0.56,0.43,0.89c0.03,0.33-0.05,0.67-0.24,1.01L14.87,12.61z M12.18,12.27c0.23-0.23,0.36-0.47,0.38-0.73
				c0.02-0.26-0.06-0.49-0.26-0.69c-0.19-0.2-0.42-0.29-0.67-0.27c-0.26,0.02-0.5,0.14-0.74,0.37l-0.82,0.8l1.28,1.31L12.18,12.27z"
				/>
		</g>
		<g>
			<path class="st0" d="M13.61,7.92c0.02-0.09,0.07-0.17,0.16-0.22l2.26-1.46c0.09-0.06,0.18-0.07,0.26-0.05
				c0.09,0.02,0.16,0.07,0.22,0.16c0.06,0.08,0.07,0.17,0.05,0.26c-0.02,0.09-0.07,0.16-0.16,0.22l-1.92,1.24l0.85,1.32l1.65-1.07
				c0.08-0.05,0.17-0.07,0.26-0.06c0.09,0.02,0.16,0.07,0.22,0.15c0.05,0.09,0.07,0.17,0.05,0.26c-0.02,0.09-0.07,0.17-0.16,0.22
				L15.7,9.97l0.86,1.33l1.92-1.24C18.57,10,18.66,9.98,18.75,10c0.09,0.02,0.16,0.07,0.22,0.16c0.05,0.08,0.07,0.17,0.05,0.26
				c-0.02,0.09-0.07,0.16-0.16,0.22l-2.26,1.46c-0.08,0.05-0.17,0.07-0.26,0.05c-0.09-0.02-0.17-0.07-0.22-0.16l-2.46-3.81
				C13.61,8.1,13.59,8.01,13.61,7.92z"/>
		</g>
		<g>
			<path class="st0" d="M20.17,4.36c0.05-0.08,0.12-0.14,0.21-0.17l1.2-0.35c0.55-0.16,1.07-0.2,1.57-0.11
				c0.49,0.09,0.91,0.29,1.26,0.6c0.35,0.31,0.6,0.71,0.74,1.2c0.14,0.49,0.15,0.96,0.03,1.41c-0.12,0.45-0.36,0.84-0.72,1.17
				c-0.36,0.33-0.8,0.58-1.34,0.73l-1.28,0.37c-0.1,0.03-0.19,0.02-0.27-0.02c-0.08-0.05-0.14-0.12-0.17-0.21l-1.27-4.35
				C20.11,4.53,20.12,4.44,20.17,4.36z M22.05,8.44l0.83-0.24c0.62-0.18,1.07-0.5,1.35-0.94s0.34-0.95,0.17-1.5
				c-0.16-0.56-0.48-0.95-0.96-1.18c-0.48-0.23-1.03-0.25-1.65-0.07l-0.82,0.24L22.05,8.44z"/>
		</g>
		<g>
			<path class="st0" d="M26.61,2.83c0.06-0.07,0.14-0.11,0.24-0.12l2.67-0.2c0.1-0.01,0.19,0.02,0.26,0.08
				c0.07,0.06,0.11,0.14,0.12,0.24c0.01,0.1-0.02,0.19-0.08,0.25c-0.06,0.07-0.14,0.11-0.24,0.11l-2.28,0.17l0.12,1.56l1.96-0.15
				c0.1-0.01,0.19,0.02,0.26,0.08c0.07,0.06,0.11,0.14,0.12,0.24c0.01,0.1-0.02,0.19-0.08,0.26c-0.06,0.07-0.14,0.11-0.24,0.12
				l-1.96,0.15l0.12,1.58l2.28-0.17c0.1-0.01,0.19,0.02,0.26,0.08c0.07,0.06,0.11,0.14,0.12,0.25c0.01,0.1-0.02,0.18-0.08,0.25
				c-0.06,0.07-0.14,0.11-0.24,0.11l-2.68,0.2c-0.1,0.01-0.19-0.02-0.26-0.08c-0.07-0.06-0.11-0.14-0.12-0.24l-0.34-4.51
				C26.52,2.99,26.55,2.91,26.61,2.83z"/>
		</g>
		<g>
			<path class="st0" d="M33.95,6.44c0.1,0.33,0.28,0.61,0.54,0.85c0.26,0.24,0.56,0.39,0.92,0.47c0.41,0.09,0.78,0.1,1.11,0.04
				l0.31-1.46c0.02-0.11,0.08-0.19,0.16-0.24c0.08-0.05,0.18-0.07,0.28-0.05c0.1,0.02,0.18,0.07,0.23,0.16
				c0.05,0.08,0.07,0.18,0.05,0.28l-0.3,1.41c-0.06,0.29-0.28,0.48-0.66,0.58c-0.38,0.1-0.84,0.09-1.38-0.02
				c-0.49-0.1-0.9-0.32-1.26-0.64c-0.35-0.32-0.6-0.71-0.74-1.16c-0.14-0.45-0.16-0.92-0.06-1.4c0.1-0.49,0.31-0.91,0.62-1.26
				c0.31-0.36,0.69-0.61,1.15-0.76c0.46-0.15,0.95-0.17,1.47-0.06c0.23,0.05,0.45,0.12,0.66,0.22c0.21,0.1,0.38,0.2,0.52,0.32
				c0.14,0.11,0.24,0.23,0.32,0.34c0.07,0.12,0.1,0.22,0.08,0.31c-0.02,0.1-0.07,0.17-0.14,0.21c-0.07,0.04-0.15,0.05-0.25,0.03
				c-0.07-0.01-0.14-0.05-0.23-0.12c-0.09-0.06-0.18-0.13-0.26-0.21C37,4.21,36.88,4.13,36.71,4.05c-0.16-0.08-0.34-0.14-0.54-0.18
				c-0.36-0.07-0.69-0.06-1.02,0.06s-0.59,0.3-0.81,0.57c-0.22,0.26-0.36,0.57-0.44,0.93C33.83,5.77,33.85,6.11,33.95,6.44z"/>
		</g>
		<g>
			<path class="st0" d="M40.24,4.56c0.09-0.04,0.19-0.03,0.29,0.01c0.1,0.04,0.17,0.11,0.2,0.21c0.04,0.09,0.03,0.19-0.01,0.29
				l-1.68,3.78l2.12,0.94c0.09,0.04,0.15,0.1,0.19,0.19c0.03,0.08,0.03,0.18-0.02,0.27c-0.04,0.09-0.1,0.15-0.19,0.19
				c-0.08,0.03-0.17,0.03-0.26-0.01l-2.48-1.1c-0.09-0.04-0.16-0.11-0.19-0.19c-0.03-0.09-0.03-0.18,0.01-0.27l1.82-4.09
				C40.08,4.66,40.15,4.59,40.24,4.56z"/>
		</g>
		<g>
			<path class="st0" d="M44.64,6.65c0.1-0.02,0.19,0,0.27,0.07c0.09,0.06,0.14,0.14,0.16,0.24c0.02,0.1,0,0.19-0.07,0.28l-1.63,2.32
				c-0.24,0.35-0.34,0.69-0.29,1.04c0.05,0.35,0.23,0.63,0.55,0.86c0.32,0.23,0.66,0.3,1,0.23c0.34-0.07,0.64-0.28,0.88-0.63
				l1.63-2.32c0.06-0.09,0.14-0.14,0.24-0.16c0.1-0.02,0.19,0.01,0.27,0.07c0.09,0.06,0.14,0.14,0.16,0.24
				c0.02,0.1,0,0.19-0.06,0.28l-1.63,2.32c-0.37,0.53-0.82,0.84-1.35,0.94c-0.53,0.1-1.05-0.02-1.55-0.38
				c-0.5-0.35-0.79-0.8-0.87-1.33c-0.08-0.53,0.07-1.06,0.44-1.59l1.63-2.32C44.47,6.72,44.54,6.66,44.64,6.65z"/>
		</g>
		<g>
			<path class="st0" d="M47.33,15.08c-0.08,0.07-0.17,0.11-0.26,0.1c-0.1,0-0.19-0.05-0.26-0.13c-0.07-0.08-0.11-0.16-0.1-0.26
				c0-0.1,0.04-0.18,0.12-0.26l3.06-2.86l-0.9-0.96c-0.07-0.07-0.1-0.16-0.1-0.25c0-0.09,0.04-0.17,0.12-0.24
				c0.07-0.07,0.16-0.1,0.25-0.1c0.09,0,0.17,0.04,0.24,0.11l2.3,2.46c0.07,0.07,0.1,0.16,0.1,0.25c0,0.09-0.04,0.17-0.12,0.24
				c-0.07,0.07-0.16,0.1-0.25,0.1c-0.09,0-0.17-0.04-0.24-0.11l-0.9-0.96L47.33,15.08z"/>
		</g>
		<g>
			<path class="st0" d="M52.95,14.39c0.09,0.02,0.17,0.07,0.22,0.16l1.46,2.26c0.06,0.09,0.08,0.18,0.06,0.26
				c-0.02,0.09-0.07,0.16-0.16,0.22c-0.09,0.05-0.17,0.07-0.26,0.05c-0.09-0.02-0.16-0.07-0.22-0.16l-1.24-1.92l-1.32,0.85
				l1.07,1.65c0.05,0.08,0.07,0.17,0.06,0.26c-0.02,0.09-0.07,0.16-0.15,0.22c-0.08,0.05-0.17,0.07-0.26,0.05
				c-0.09-0.02-0.17-0.07-0.22-0.16l-1.07-1.65l-1.33,0.86l1.24,1.92c0.06,0.09,0.07,0.18,0.06,0.26c-0.02,0.09-0.07,0.16-0.16,0.22
				c-0.09,0.05-0.17,0.07-0.26,0.05s-0.16-0.07-0.22-0.16l-1.46-2.26c-0.06-0.08-0.07-0.17-0.05-0.26c0.02-0.09,0.07-0.17,0.16-0.22
				l3.81-2.46C52.77,14.39,52.86,14.37,52.95,14.39z"/>
		</g>
		<g>
			<path class="st0" d="M57.16,22.88c-0.04,0.09-0.11,0.15-0.21,0.19l-4.16,1.56c-0.13,0.05-0.25,0.06-0.36,0.02
				c-0.1-0.04-0.18-0.11-0.22-0.23c-0.05-0.12-0.06-0.24-0.03-0.34c0.03-0.1,0.09-0.23,0.19-0.38l2.42-3.77l-3.38,1.27
				c-0.1,0.04-0.19,0.03-0.28-0.01c-0.09-0.04-0.15-0.12-0.19-0.22c-0.04-0.1-0.04-0.19,0-0.28c0.04-0.09,0.11-0.15,0.21-0.19
				l4.15-1.56c0.14-0.05,0.26-0.06,0.37-0.02c0.1,0.04,0.18,0.12,0.23,0.25c0.04,0.11,0.05,0.21,0.02,0.31
				c-0.03,0.1-0.09,0.21-0.18,0.34l-2.47,3.83l3.43-1.29c0.1-0.04,0.19-0.04,0.28,0c0.09,0.04,0.15,0.11,0.19,0.21
				C57.2,22.7,57.2,22.8,57.16,22.88z"/>
		</g>
	</g>
	<g>
		<g>
			<path class="st0" d="M53.47,27.27c1.43,10.74-4.44,21.48-14.65,25.5c-9.89,3.9-21.59,0.65-27.86-8
				C7.27,39.7,5.8,33.48,6.63,27.27c0.11-0.83-0.78-1.52-1.53-1.53c-0.92-0.01-1.42,0.71-1.53,1.53
				c-1.62,12.1,5.43,23.89,16.74,28.39c11.11,4.42,24.04,0.55,31.18-8.94c4.15-5.52,5.96-12.62,5.05-19.45
				c-0.11-0.83-0.62-1.52-1.53-1.53C54.26,25.73,53.36,26.45,53.47,27.27L53.47,27.27z"/>
		</g>
	</g>
</g>
</svg>
