<?xml version="1.0" encoding="utf-8"?>
<!-- Generator: Adobe Illustrator 27.0.0, SVG Export Plug-In . SVG Version: 6.00 Build 0)  -->
<svg version="1.1" id="Capa_1" xmlns="http://www.w3.org/2000/svg" xmlns:xlink="http://www.w3.org/1999/xlink" x="0px" y="0px"
	 viewBox="0 0 60 60" style="enable-background:new 0 0 60 60;" xml:space="preserve">
<style type="text/css">
	.st0{fill:#2D3B2B;}
</style>
<g>
	<g>
		<g>
			<path class="st0" d="M23.99,7.14c0.05-0.07,0.12-0.11,0.21-0.12c0.06-0.01,0.14,0,0.26,0.04c0.11,0.04,0.23,0.08,0.36,0.12
				c0.12,0.05,0.29,0.08,0.49,0.1c0.2,0.02,0.41,0.01,0.63-0.02c0.31-0.05,0.54-0.17,0.71-0.35c0.16-0.18,0.22-0.38,0.18-0.63
				c-0.02-0.13-0.08-0.25-0.16-0.33c-0.09-0.09-0.19-0.16-0.31-0.21c-0.13-0.05-0.26-0.09-0.42-0.12c-0.16-0.03-0.32-0.06-0.49-0.08
				c-0.17-0.02-0.34-0.05-0.51-0.07c-0.17-0.03-0.34-0.07-0.5-0.12c-0.16-0.05-0.3-0.12-0.43-0.2s-0.24-0.19-0.34-0.33
				c-0.09-0.14-0.16-0.3-0.19-0.49c-0.07-0.42,0.03-0.78,0.31-1.1c0.28-0.32,0.69-0.52,1.23-0.62c0.47-0.08,0.88-0.07,1.25,0.03
				c0.37,0.1,0.57,0.26,0.61,0.46c0.02,0.09,0,0.16-0.05,0.23c-0.05,0.06-0.12,0.1-0.21,0.12c-0.06,0.01-0.15,0-0.25-0.02
				c-0.11-0.03-0.21-0.05-0.32-0.09c-0.11-0.03-0.25-0.05-0.43-0.07c-0.18-0.01-0.37,0-0.56,0.03c-0.28,0.05-0.5,0.15-0.65,0.31
				c-0.15,0.16-0.21,0.34-0.17,0.54c0.02,0.12,0.07,0.22,0.16,0.31c0.08,0.08,0.19,0.15,0.31,0.19c0.12,0.04,0.26,0.08,0.41,0.11
				c0.16,0.03,0.32,0.05,0.49,0.08c0.17,0.02,0.34,0.05,0.51,0.08c0.17,0.03,0.34,0.07,0.5,0.13c0.16,0.05,0.3,0.12,0.43,0.21
				c0.13,0.08,0.24,0.2,0.34,0.34c0.09,0.15,0.16,0.32,0.2,0.51c0.08,0.46-0.02,0.85-0.3,1.19c-0.28,0.34-0.71,0.55-1.27,0.66
				c-0.32,0.06-0.64,0.07-0.95,0.03c-0.31-0.04-0.56-0.11-0.76-0.22c-0.2-0.11-0.31-0.24-0.34-0.39
				C23.93,7.28,23.95,7.21,23.99,7.14z"/>
		</g>
		<g>
			<path class="st0" d="M28.67,2.38c0.07-0.07,0.15-0.11,0.26-0.11c0.11,0,0.2,0.03,0.27,0.09c0.07,0.07,0.11,0.15,0.12,0.26
				l0.18,4.53c0,0.11-0.03,0.2-0.09,0.27c-0.07,0.07-0.16,0.11-0.26,0.11c-0.11,0-0.2-0.03-0.27-0.09
				c-0.07-0.07-0.11-0.15-0.12-0.26l-0.18-4.53C28.57,2.54,28.6,2.45,28.67,2.38z"/>
		</g>
		<g>
			<path class="st0" d="M35.76,2.86c0.06,0.08,0.08,0.17,0.07,0.27l-0.57,4.4c-0.02,0.14-0.07,0.25-0.15,0.32
				c-0.08,0.07-0.18,0.1-0.3,0.09c-0.13-0.02-0.24-0.06-0.31-0.13c-0.08-0.07-0.16-0.19-0.25-0.34l-2.2-3.9l-0.46,3.58
				c-0.01,0.11-0.06,0.19-0.14,0.25c-0.08,0.06-0.17,0.08-0.28,0.07c-0.11-0.01-0.19-0.06-0.25-0.14c-0.06-0.08-0.08-0.17-0.07-0.27
				l0.57-4.4c0.02-0.15,0.07-0.26,0.16-0.33c0.08-0.07,0.19-0.1,0.33-0.08c0.12,0.02,0.21,0.06,0.28,0.13
				c0.07,0.07,0.15,0.18,0.22,0.32l2.23,3.97l0.47-3.63c0.01-0.11,0.06-0.19,0.14-0.25c0.08-0.06,0.17-0.08,0.27-0.07
				C35.62,2.73,35.7,2.78,35.76,2.86z"/>
		</g>
	</g>
	<g>
		<g>
			<path class="st0" d="M6.67,38.46l-1.34,0.48C5.14,39.01,4.96,39,4.8,38.93c-0.16-0.08-0.27-0.21-0.34-0.39
				c-0.07-0.19-0.06-0.36,0.01-0.52c0.08-0.16,0.21-0.28,0.4-0.34l3.72-1.33c0.19-0.07,0.36-0.06,0.52,0.01
				c0.16,0.08,0.27,0.21,0.34,0.39c0.07,0.19,0.06,0.36-0.01,0.52c-0.08,0.16-0.21,0.27-0.4,0.34l-1.19,0.42l0.68,1.9l1.19-0.42
				c0.19-0.07,0.36-0.06,0.52,0.01c0.16,0.08,0.27,0.21,0.34,0.39c0.07,0.19,0.06,0.36-0.01,0.52c-0.08,0.16-0.21,0.28-0.4,0.34
				l-3.72,1.33c-0.19,0.07-0.36,0.06-0.52-0.01c-0.16-0.08-0.27-0.21-0.34-0.39c-0.07-0.19-0.06-0.36,0.01-0.52
				c0.08-0.16,0.21-0.27,0.4-0.34l1.34-0.48L6.67,38.46z"/>
		</g>
		<g>
			<path class="st0" d="M10.64,47.11c-0.36,0.07-0.71,0.06-1.05,0c-0.34-0.07-0.66-0.2-0.97-0.4c-0.31-0.2-0.56-0.46-0.77-0.76
				c-0.27-0.41-0.43-0.86-0.46-1.35c-0.03-0.49,0.06-0.95,0.28-1.39c0.21-0.44,0.53-0.79,0.94-1.07c0.31-0.21,0.64-0.34,1.01-0.41
				c0.36-0.07,0.71-0.06,1.05,0c0.34,0.07,0.66,0.2,0.97,0.41c0.31,0.2,0.57,0.46,0.77,0.77c0.27,0.41,0.43,0.86,0.46,1.35
				c0.03,0.49-0.06,0.95-0.28,1.39c-0.21,0.44-0.53,0.79-0.94,1.07C11.33,46.9,11,47.04,10.64,47.11z M11.45,44.63
				c0.09-0.36,0.03-0.69-0.17-0.99c-0.2-0.3-0.48-0.48-0.85-0.54c-0.37-0.06-0.71,0.02-1.03,0.23c-0.32,0.21-0.52,0.5-0.61,0.86
				c-0.09,0.36-0.03,0.69,0.17,0.99c0.2,0.3,0.48,0.48,0.84,0.54c0.36,0.06,0.71-0.02,1.03-0.23
				C11.16,45.28,11.37,44.99,11.45,44.63z"/>
		</g>
		<g>
			<path class="st0" d="M13.9,50.89c-0.05,0.24-0.15,0.43-0.28,0.57c-0.11,0.12-0.25,0.18-0.4,0.17c-0.15,0-0.3-0.07-0.44-0.2
				c-0.12-0.11-0.19-0.24-0.22-0.38c-0.03-0.14-0.02-0.31,0.04-0.51l0.38-1.39l-0.39-0.37l-0.76,0.8c-0.14,0.14-0.29,0.22-0.47,0.23
				c-0.18,0-0.34-0.06-0.48-0.19c-0.15-0.14-0.22-0.29-0.23-0.47c0-0.18,0.06-0.34,0.2-0.49l2.73-2.88c0.13-0.13,0.27-0.2,0.44-0.21
				c0.17,0,0.32,0.06,0.45,0.18l0.92,0.87c0.48,0.46,0.77,0.94,0.84,1.45s-0.06,0.95-0.42,1.33c-0.22,0.24-0.48,0.39-0.76,0.47
				c-0.29,0.07-0.58,0.07-0.89-0.02L13.9,50.89z M13.4,47.93l0.48,0.45c0.15,0.14,0.3,0.21,0.46,0.22c0.16,0.01,0.3-0.05,0.42-0.17
				c0.11-0.12,0.16-0.26,0.14-0.42c-0.02-0.16-0.11-0.31-0.25-0.45l-0.48-0.46L13.4,47.93z"/>
		</g>
		<g>
			<path class="st0" d="M21.86,51.23c0.05,0.2,0.01,0.4-0.11,0.61l-1.87,3.33c-0.1,0.17-0.23,0.28-0.4,0.33
				c-0.17,0.05-0.34,0.03-0.51-0.07c-0.17-0.1-0.28-0.23-0.33-0.4c-0.05-0.17-0.02-0.34,0.07-0.52l1.18-2.1l-1.35,0.73
				c-0.16,0.09-0.31,0.13-0.43,0.13c-0.13,0-0.25-0.03-0.39-0.11c-0.13-0.07-0.23-0.16-0.29-0.27c-0.06-0.11-0.1-0.26-0.11-0.44
				l-0.09-1.53l-1.17,2.1c-0.1,0.17-0.23,0.28-0.4,0.33s-0.34,0.02-0.51-0.07c-0.17-0.1-0.28-0.23-0.33-0.4
				c-0.05-0.17-0.02-0.34,0.07-0.52l1.82-3.26c0.14-0.24,0.31-0.39,0.53-0.46c0.22-0.06,0.45-0.02,0.7,0.12
				c0.21,0.12,0.35,0.26,0.42,0.44c0.07,0.18,0.12,0.43,0.13,0.75l0.08,1.88l1.86-1.03c0.19-0.11,0.37-0.17,0.53-0.19
				s0.33,0.03,0.52,0.13C21.68,50.87,21.81,51.03,21.86,51.23z"/>
		</g>
		<g>
			<path class="st0" d="M26.4,56.03c-0.22,0.29-0.48,0.52-0.78,0.7c-0.3,0.18-0.63,0.29-0.99,0.35c-0.36,0.06-0.72,0.04-1.08-0.05
				c-0.48-0.12-0.89-0.35-1.24-0.69s-0.59-0.74-0.73-1.21c-0.14-0.47-0.14-0.94-0.02-1.42c0.09-0.36,0.25-0.69,0.47-0.98
				c0.22-0.29,0.48-0.52,0.78-0.7s0.62-0.29,0.99-0.35c0.36-0.06,0.72-0.04,1.08,0.05c0.48,0.12,0.89,0.35,1.24,0.69
				c0.35,0.34,0.59,0.74,0.73,1.21c0.14,0.47,0.14,0.94,0.02,1.42C26.78,55.41,26.62,55.74,26.4,56.03z M25.34,53.65
				c-0.18-0.33-0.44-0.53-0.79-0.62c-0.35-0.09-0.68-0.03-0.99,0.17c-0.31,0.2-0.51,0.49-0.61,0.86c-0.09,0.37-0.05,0.72,0.13,1.05
				c0.18,0.33,0.44,0.53,0.79,0.62c0.35,0.09,0.68,0.03,0.99-0.17c0.31-0.2,0.51-0.49,0.6-0.86C25.56,54.33,25.52,53.98,25.34,53.65
				z"/>
		</g>
		<g>
			<path class="st0" d="M32.09,52.58c0.13,0.12,0.19,0.29,0.2,0.49l0.06,3.79c0,0.26-0.06,0.46-0.2,0.62
				c-0.14,0.15-0.32,0.23-0.54,0.24c-0.16,0-0.31-0.03-0.45-0.09c-0.13-0.06-0.24-0.14-0.33-0.23c-0.09-0.09-0.2-0.22-0.31-0.39
				l-1.56-2.2l0.03,2.27c0,0.2-0.06,0.36-0.18,0.49c-0.12,0.13-0.28,0.19-0.48,0.2c-0.2,0-0.36-0.06-0.49-0.18
				c-0.13-0.12-0.19-0.29-0.2-0.49l-0.06-3.79c0-0.27,0.06-0.48,0.21-0.62c0.14-0.15,0.33-0.22,0.57-0.23
				c0.22,0,0.41,0.05,0.56,0.16c0.15,0.11,0.31,0.29,0.49,0.55l1.57,2.29l-0.04-2.36c0-0.2,0.06-0.36,0.18-0.49
				c0.12-0.13,0.28-0.19,0.48-0.2C31.8,52.4,31.96,52.46,32.09,52.58z"/>
		</g>
		<g>
			<path class="st0" d="M38.68,56.1c-0.06,0.21-0.22,0.35-0.48,0.41c-0.35,0.09-0.67-0.07-0.94-0.48l-0.21-0.3l-2.04,0.5l-0.05,0.36
				c-0.03,0.26-0.09,0.45-0.17,0.58c-0.08,0.13-0.21,0.22-0.41,0.27c-0.25,0.06-0.45,0.01-0.59-0.15c-0.15-0.16-0.2-0.4-0.15-0.72
				l0.56-3.68c0.05-0.33,0.14-0.58,0.26-0.75s0.32-0.28,0.58-0.34c0.26-0.06,0.48-0.05,0.67,0.04c0.18,0.09,0.38,0.27,0.57,0.54
				l2.19,3C38.67,55.65,38.74,55.89,38.68,56.1z M36.32,54.69l-0.94-1.38l-0.21,1.66L36.32,54.69z"/>
		</g>
		<g>
			<path class="st0" d="M39.49,54.55c0.05-0.14,0.16-0.25,0.31-0.32c0.11-0.05,0.24-0.09,0.4-0.1c0.16-0.01,0.34-0.03,0.52-0.06
				c0.19-0.03,0.37-0.08,0.53-0.16c0.16-0.08,0.27-0.17,0.35-0.27c0.07-0.1,0.09-0.21,0.03-0.31c-0.04-0.09-0.12-0.14-0.24-0.16
				c-0.12-0.02-0.26-0.02-0.43,0c-0.16,0.02-0.34,0.05-0.54,0.08c-0.19,0.03-0.39,0.05-0.6,0.06c-0.21,0.01-0.41-0.01-0.6-0.04
				c-0.19-0.03-0.37-0.12-0.55-0.25c-0.17-0.13-0.32-0.31-0.43-0.53c-0.21-0.43-0.22-0.86-0.01-1.29c0.2-0.43,0.59-0.79,1.17-1.07
				c0.3-0.15,0.59-0.25,0.86-0.31c0.27-0.06,0.52-0.05,0.75,0.01c0.23,0.07,0.39,0.2,0.49,0.41c0.07,0.14,0.08,0.28,0.03,0.42
				c-0.05,0.14-0.15,0.25-0.3,0.32c-0.11,0.05-0.25,0.09-0.4,0.11c-0.16,0.02-0.32,0.04-0.51,0.07c-0.18,0.03-0.36,0.09-0.54,0.18
				c-0.27,0.13-0.36,0.29-0.27,0.47c0.04,0.08,0.12,0.13,0.23,0.15c0.12,0.02,0.26,0.02,0.41,0c0.16-0.02,0.34-0.05,0.53-0.08
				c0.19-0.03,0.39-0.05,0.59-0.06c0.2,0,0.4,0.01,0.59,0.05c0.19,0.03,0.37,0.12,0.54,0.25c0.17,0.13,0.31,0.31,0.42,0.53
				c0.22,0.45,0.23,0.89,0.03,1.35c-0.2,0.45-0.58,0.82-1.16,1.1c-0.31,0.15-0.61,0.25-0.9,0.31c-0.29,0.06-0.56,0.05-0.8-0.02
				c-0.24-0.07-0.41-0.21-0.51-0.42C39.45,54.83,39.44,54.69,39.49,54.55z"/>
		</g>
		<g>
			<path class="st0" d="M45.58,47.68c0.19,0,0.35,0.09,0.49,0.25c0.13,0.15,0.18,0.31,0.16,0.47c-0.02,0.16-0.1,0.3-0.25,0.43
				c-0.04,0.04-0.12,0.09-0.23,0.17s-0.2,0.14-0.26,0.19c-0.1,0.08-0.16,0.18-0.17,0.29c-0.01,0.11,0.02,0.21,0.1,0.3l1.11,1.34
				c0.12,0.15,0.18,0.31,0.17,0.48c-0.01,0.17-0.09,0.32-0.24,0.44c-0.15,0.12-0.31,0.18-0.48,0.16c-0.17-0.01-0.32-0.1-0.45-0.25
				l-1.71-2.05c-0.12-0.15-0.18-0.31-0.17-0.48c0.01-0.17,0.09-0.32,0.24-0.44c0.12-0.1,0.25-0.15,0.38-0.17
				c0.14-0.01,0.26,0.02,0.38,0.1c-0.01-0.2,0.02-0.39,0.09-0.57c0.07-0.18,0.18-0.33,0.33-0.46
				C45.22,47.74,45.39,47.68,45.58,47.68z"/>
		</g>
		<g>
			<path class="st0" d="M48.09,44.98c0.31-0.1,0.64-0.12,1-0.04c0.35,0.08,0.69,0.25,1,0.51c0.46,0.39,0.72,0.85,0.79,1.37
				c0.07,0.52-0.06,0.99-0.41,1.39c-0.29,0.34-0.63,0.53-1.01,0.55c0.08,0.24,0.04,0.46-0.13,0.66c-0.13,0.15-0.28,0.23-0.45,0.25
				c-0.17,0.01-0.33-0.04-0.48-0.17l-3.33-2.83c-0.15-0.13-0.23-0.28-0.24-0.45c-0.01-0.17,0.04-0.33,0.17-0.49
				c0.13-0.15,0.28-0.23,0.45-0.24c0.17-0.01,0.33,0.04,0.48,0.17l1.02,0.87c-0.02-0.36,0.1-0.69,0.36-1
				C47.52,45.26,47.78,45.08,48.09,44.98z M49.55,47.01c-0.03-0.22-0.14-0.4-0.32-0.56c-0.18-0.16-0.38-0.23-0.6-0.22
				s-0.4,0.1-0.54,0.26c-0.14,0.17-0.2,0.36-0.17,0.57c0.03,0.21,0.13,0.4,0.31,0.55c0.18,0.16,0.38,0.23,0.6,0.23
				c0.22,0,0.4-0.09,0.54-0.26C49.52,47.42,49.58,47.23,49.55,47.01z"/>
		</g>
		<g>
			<path class="st0" d="M51.13,44.93c-0.04-0.14-0.01-0.29,0.07-0.44c0.06-0.1,0.15-0.21,0.28-0.31c0.13-0.1,0.26-0.22,0.4-0.35
				c0.14-0.13,0.25-0.27,0.34-0.44c0.09-0.15,0.13-0.29,0.13-0.42c0-0.13-0.05-0.22-0.15-0.27c-0.08-0.05-0.18-0.04-0.29,0.01
				c-0.11,0.05-0.23,0.13-0.35,0.25c-0.12,0.11-0.25,0.24-0.39,0.37c-0.14,0.14-0.29,0.27-0.46,0.39c-0.17,0.12-0.34,0.23-0.52,0.31
				c-0.18,0.08-0.37,0.12-0.59,0.11c-0.22-0.01-0.43-0.07-0.65-0.19c-0.42-0.23-0.67-0.58-0.75-1.05c-0.08-0.47,0.03-0.99,0.34-1.55
				c0.16-0.29,0.34-0.54,0.53-0.74c0.19-0.2,0.4-0.34,0.62-0.42c0.22-0.08,0.44-0.06,0.64,0.05c0.14,0.08,0.23,0.19,0.27,0.33
				c0.04,0.14,0.02,0.29-0.06,0.44c-0.06,0.11-0.15,0.22-0.27,0.32c-0.12,0.1-0.24,0.22-0.37,0.35c-0.13,0.13-0.25,0.28-0.34,0.45
				c-0.14,0.26-0.13,0.44,0.05,0.54c0.08,0.04,0.17,0.04,0.28-0.01c0.11-0.05,0.22-0.13,0.34-0.24c0.12-0.11,0.25-0.23,0.39-0.37
				c0.14-0.14,0.29-0.26,0.45-0.38c0.16-0.12,0.33-0.22,0.51-0.3c0.17-0.08,0.37-0.11,0.58-0.1c0.22,0.01,0.43,0.07,0.65,0.19
				c0.43,0.24,0.7,0.6,0.8,1.08c0.1,0.48-0.01,1-0.32,1.57c-0.17,0.3-0.35,0.56-0.56,0.77c-0.21,0.21-0.43,0.36-0.67,0.44
				c-0.24,0.08-0.46,0.07-0.66-0.05C51.25,45.18,51.16,45.07,51.13,44.93z"/>
		</g>
		<g>
			<path class="st0" d="M54.74,38.69c0.19,0.06,0.32,0.17,0.41,0.33c0.08,0.16,0.09,0.33,0.03,0.52c-0.06,0.19-0.17,0.32-0.33,0.4
				c-0.16,0.08-0.33,0.09-0.52,0.03l-3.16-1.04l-0.25,0.76c-0.06,0.17-0.16,0.3-0.31,0.37c-0.15,0.07-0.31,0.08-0.49,0.02
				c-0.17-0.06-0.3-0.16-0.37-0.31c-0.08-0.15-0.08-0.31-0.03-0.48l0.92-2.81c0.06-0.17,0.16-0.3,0.31-0.37
				c0.15-0.07,0.31-0.08,0.49-0.02c0.17,0.06,0.3,0.16,0.37,0.31c0.08,0.15,0.08,0.31,0.03,0.48l-0.25,0.77L54.74,38.69z"/>
		</g>
	</g>
	<g>
		<g>
			<path class="st0" d="M38.51,8.4c9.97,3.76,15.92,13.96,15.04,24.43c-0.16,1.96,2.9,1.95,3.06,0c1-11.91-6.11-23.16-17.29-27.38
				C37.48,4.75,36.68,7.71,38.51,8.4L38.51,8.4z"/>
		</g>
	</g>
	<g>
		<g>
			<path class="st0" d="M6.45,32.83C5.6,22.67,11.17,12.7,20.71,8.71c0.77-0.32,1.3-1.01,1.07-1.88c-0.19-0.72-1.12-1.39-1.88-1.07
				C9.15,10.26,2.41,21.19,3.39,32.83C3.55,34.78,6.61,34.8,6.45,32.83L6.45,32.83z"/>
		</g>
	</g>
	<g>
		<g>
			<g>
				<path class="st0" d="M23.09,28.55c0.97-0.95,1.95-1.9,2.92-2.84c0.74-0.72,2.16-2.76,3.33-1.86c0.79,0.61,1.48,1.4,2.2,2.08
					c1.33,1.26,2.66,2.52,3.99,3.78c0.86,0.81,1.71,1.62,2.57,2.44c-0.07-0.25-0.13-0.5-0.2-0.74c-0.15,0.89-0.3,1.79-0.45,2.68
					c-0.17,0.99-0.2,2.16-0.99,2.88c-0.75,0.68-1.94,0.71-2.9,0.86c-0.91,0.15-1.81,0.3-2.72,0.44c0.25,0.07,0.5,0.13,0.74,0.2
					c-1.55-1.53-3.1-3.07-4.66-4.6c-0.98-0.96-1.95-1.93-2.93-2.89C23.37,30.34,22.22,29.52,23.09,28.55
					c0.66-0.73-0.42-1.81-1.08-1.08c-0.99,1.09-1,2.6,0.01,3.69c0.31,0.34,0.66,0.65,0.99,0.98c1.48,1.46,2.96,2.92,4.44,4.38
					c1,0.99,1.96,2.15,3.06,3.02c0.53,0.42,1.39,0.11,2.01,0.01c0.97-0.16,1.94-0.31,2.91-0.48c1.18-0.2,2.24-0.86,2.84-1.92
					c0.43-0.77,0.51-1.65,0.65-2.51c0.15-0.91,0.36-1.84,0.46-2.76c0.06-0.6-0.18-0.8-0.56-1.16c-2.67-2.53-5.35-5.07-8.02-7.6
					c-0.64-0.61-1.33-1.1-2.27-1.07c-1.04,0.04-1.69,0.74-2.38,1.4c-1.38,1.34-2.75,2.68-4.13,4.02
					C21.3,28.16,22.38,29.24,23.09,28.55z"/>
			</g>
		</g>
		<g>
			<g>
				<path class="st0" d="M36.51,38.01c0.99,0.99,1.97,1.97,2.96,2.96c0.14,0.14,0.28,0.28,0.42,0.42c0.28,0.28,0.8,0.3,1.08,0
					c0.28-0.31,0.3-0.78,0-1.08c-0.99-0.99-1.97-1.97-2.96-2.96c-0.14-0.14-0.28-0.28-0.42-0.42c-0.28-0.28-0.8-0.3-1.08,0
					C36.23,37.23,36.2,37.7,36.51,38.01L36.51,38.01z"/>
			</g>
		</g>
		<g>
			<g>
				<path class="st0" d="M36.51,29.56c-0.9,0.92-1.8,1.83-2.7,2.75c-0.13,0.13-0.26,0.26-0.38,0.39c-0.28,0.29-0.31,0.8,0,1.08
					c0.3,0.28,0.78,0.3,1.08,0c0.9-0.92,1.8-1.83,2.7-2.75c0.13-0.13,0.26-0.26,0.38-0.39c0.28-0.29,0.31-0.8,0-1.08
					C37.28,29.28,36.81,29.25,36.51,29.56L36.51,29.56z"/>
			</g>
		</g>
		<g>
			<g>
				<path class="st0" d="M24.02,16.52c-2.35,2.39-4.69,4.78-7.04,7.16c-0.33,0.34-0.67,0.68-1,1.02c-0.69,0.7,0.39,1.79,1.08,1.08
					c2.35-2.39,4.69-4.78,7.04-7.16c0.33-0.34,0.67-0.68,1-1.02C25.79,16.9,24.71,15.82,24.02,16.52L24.02,16.52z"/>
			</g>
		</g>
		<g>
			<g>
				<path class="st0" d="M27.91,22.78c-1.37-1.27-2.74-2.54-4.11-3.81c-0.19-0.18-0.39-0.36-0.58-0.54c-0.29-0.27-0.8-0.31-1.08,0
					c-0.27,0.3-0.31,0.79,0,1.08c1.37,1.27,2.74,2.54,4.11,3.81c0.19,0.18,0.39,0.36,0.58,0.54c0.29,0.27,0.8,0.31,1.08,0
					C28.18,23.57,28.22,23.07,27.91,22.78L27.91,22.78z"/>
			</g>
		</g>
		<g>
			<g>
				<path class="st0" d="M23.8,26.61c-1.21-1.12-2.42-2.24-3.62-3.36c-0.17-0.16-0.34-0.32-0.51-0.47c-0.29-0.27-0.8-0.31-1.08,0
					c-0.27,0.3-0.31,0.79,0,1.08c1.21,1.12,2.42,2.24,3.62,3.36c0.17,0.16,0.34,0.32,0.51,0.47c0.29,0.27,0.8,0.31,1.08,0
					C24.07,27.4,24.11,26.9,23.8,26.61L23.8,26.61z"/>
			</g>
		</g>
	</g>
</g>
</svg>
