<?xml version="1.0" encoding="utf-8"?>
<!-- Generator: Adobe Illustrator 27.0.0, SVG Export Plug-In . SVG Version: 6.00 Build 0)  -->
<svg version="1.1" id="Capa_1" xmlns="http://www.w3.org/2000/svg" xmlns:xlink="http://www.w3.org/1999/xlink" x="0px" y="0px"
	 viewBox="0 0 60 60" style="enable-background:new 0 0 60 60;" xml:space="preserve">
<style type="text/css">
	.st0{fill:#2D3B2B;}
</style>
<g>
	<g>
		<g>
			<path class="st0" d="M25.31,7.66c0.04,0.16,0.01,0.3-0.07,0.43c-0.09,0.12-0.21,0.21-0.37,0.26c-0.15,0.05-0.3,0.05-0.44,0.02
				c-0.14-0.03-0.29-0.12-0.46-0.26l-1.39-1.18l-0.65,0.2l0.4,1.29c0.06,0.19,0.05,0.36-0.04,0.52c-0.08,0.16-0.22,0.26-0.41,0.32
				c-0.19,0.06-0.37,0.05-0.52-0.04C21.21,9.14,21.1,9,21.04,8.81l-1.16-3.79c-0.06-0.19-0.05-0.36,0.04-0.52
				c0.08-0.16,0.22-0.26,0.41-0.32c0.19-0.06,0.37-0.05,0.52,0.04c0.16,0.08,0.26,0.22,0.32,0.41l0.39,1.29l0.61-0.19l0.45-1.6
				c0.08-0.27,0.16-0.47,0.24-0.59c0.08-0.12,0.21-0.21,0.37-0.26c0.17-0.05,0.33-0.05,0.46,0.02c0.14,0.07,0.23,0.17,0.27,0.32
				c0.04,0.15,0.04,0.33-0.02,0.54l-0.54,1.76l1.52,1.23C25.15,7.33,25.27,7.5,25.31,7.66z"/>
		</g>
		<g>
			<path class="st0" d="M25.72,3.02c0.11-0.13,0.25-0.2,0.43-0.22l2.25-0.23c0.18-0.02,0.34,0.03,0.47,0.13
				c0.13,0.11,0.21,0.25,0.22,0.44c0.02,0.18-0.02,0.34-0.13,0.47c-0.11,0.13-0.25,0.2-0.43,0.22L27,3.98l0.07,0.68l1.21-0.12
				c0.18-0.02,0.34,0.02,0.47,0.13c0.13,0.11,0.21,0.25,0.22,0.44c0.02,0.18-0.02,0.34-0.13,0.47c-0.11,0.13-0.25,0.2-0.43,0.22
				L27.2,5.93l0.08,0.75l1.54-0.16c0.18-0.02,0.34,0.02,0.47,0.13c0.13,0.11,0.2,0.25,0.22,0.44c0.02,0.18-0.02,0.34-0.13,0.47
				c-0.11,0.13-0.25,0.2-0.43,0.22l-2.25,0.23c-0.18,0.02-0.34-0.02-0.47-0.13S26.01,7.63,26,7.44l-0.4-3.96
				C25.57,3.3,25.62,3.15,25.72,3.02z"/>
		</g>
		<g>
			<path class="st0" d="M32.46,7.27c-0.02,0.2-0.09,0.36-0.22,0.47c-0.13,0.12-0.3,0.17-0.49,0.15c-0.2-0.01-0.36-0.09-0.47-0.23
				c-0.12-0.13-0.17-0.3-0.15-0.5l0.25-3.31l-0.8-0.06c-0.18-0.01-0.33-0.08-0.44-0.21c-0.11-0.13-0.16-0.28-0.14-0.47
				C30,2.93,30.07,2.78,30.2,2.68c0.13-0.11,0.28-0.16,0.46-0.14l2.94,0.22c0.18,0.01,0.33,0.08,0.44,0.21s0.15,0.28,0.14,0.47
				c-0.01,0.18-0.08,0.33-0.21,0.44c-0.13,0.11-0.28,0.16-0.46,0.14l-0.81-0.06L32.46,7.27z"/>
		</g>
		<g>
			<path class="st0" d="M39.27,7.9c-0.23,0.28-0.5,0.51-0.8,0.67c-0.3,0.17-0.64,0.27-1,0.32c-0.36,0.04-0.73,0.02-1.08-0.09
				c-0.47-0.14-0.88-0.38-1.22-0.74c-0.34-0.35-0.57-0.77-0.69-1.24c-0.12-0.47-0.11-0.95,0.03-1.42c0.1-0.36,0.27-0.68,0.51-0.96
				c0.24-0.28,0.5-0.51,0.8-0.67c0.3-0.17,0.64-0.27,1-0.32c0.36-0.04,0.73-0.02,1.08,0.09c0.48,0.14,0.88,0.38,1.22,0.73
				c0.34,0.35,0.56,0.77,0.68,1.24c0.12,0.47,0.11,0.95-0.03,1.42C39.67,7.3,39.5,7.62,39.27,7.9z M38.29,5.49
				c-0.17-0.33-0.42-0.55-0.77-0.65c-0.34-0.1-0.68-0.05-1,0.14C36.21,5.16,36,5.44,35.89,5.81c-0.11,0.37-0.08,0.72,0.09,1.05
				c0.17,0.33,0.43,0.55,0.77,0.65c0.34,0.1,0.68,0.05,0.99-0.13c0.32-0.19,0.53-0.47,0.64-0.84C38.49,6.17,38.46,5.82,38.29,5.49z"
				/>
		</g>
	</g>
	<g>
		<g>
			<path class="st0" d="M42.13,10.46c7.38,4.46,11.84,12.58,11.54,21.22c-0.27,7.68-4.42,14.91-10.89,19.04
				c-6.62,4.23-15.22,4.94-22.41,1.68c-6.99-3.17-12.1-9.58-13.59-17.12C4.89,25.7,9.33,15.84,17.55,10.67
				c1.66-1.05,0.13-3.69-1.54-2.64C7.79,13.19,2.79,22.47,3.33,32.21c0.49,8.75,5.32,16.85,12.81,21.42
				c7.64,4.66,17.31,5.08,25.38,1.28c7.81-3.68,13.54-11.3,14.87-19.83c1.68-10.82-3.35-21.59-12.72-27.25
				C41.98,6.79,40.44,9.44,42.13,10.46L42.13,10.46z"/>
		</g>
	</g>
	<g>
		<g>
			<g>
				<path class="st0" d="M32.96,35.3c-0.03,1.6-1.32,2.95-2.94,2.94c-1.61,0-2.94-1.33-2.94-2.94c0-1.39,0.62-2.91,1.43-4.02
					c0.34-0.46,0.81-0.97,1.36-1.06c0.15-0.03,0.36-0.01,0.56,0.07c0.28,0.12,0.52,0.32,0.73,0.54
					C32.23,31.94,32.95,33.76,32.96,35.3c0.01,0.98,1.54,0.99,1.53,0c-0.02-1.91-0.87-4.02-2.15-5.44c-0.6-0.66-1.41-1.19-2.33-1.19
					c-0.93,0-1.77,0.56-2.36,1.23c-1.24,1.4-2.11,3.51-2.11,5.39c0,2.3,1.8,4.23,4.08,4.45c2.61,0.25,4.82-1.88,4.87-4.45
					C34.51,34.32,32.98,34.32,32.96,35.3z"/>
			</g>
		</g>
		<g>
			<g>
				<path class="st0" d="M38.48,33.67c0.03,4.02-2.76,7.64-6.71,8.53c-3.84,0.86-7.89-1.25-9.49-4.82c-0.9-2.01-0.96-4.33-0.21-6.39
					c0.76-2.09,2.57-3.52,3.5-5.54c0.41-0.88,0.72-1.8,0.88-2.76c0.16-0.93,0.24-1.79,0.93-2.52c1.37-1.45,3.92-1.29,5.06,0.38
					c0.6,0.89,0.63,2.06,0.98,3.05c0.39,1.13,0.94,2.19,1.64,3.16c0.69,0.96,1.58,1.76,2.19,2.77
					C38.02,30.79,38.41,32.19,38.48,33.67c0.05,0.98,1.58,0.99,1.53,0c-0.07-1.35-0.33-2.64-0.9-3.88c-0.59-1.3-1.47-2.25-2.37-3.33
					c-0.92-1.12-1.64-2.44-2.04-3.83c-0.32-1.1-0.42-2.16-1.14-3.11c-1.2-1.59-3.32-2.23-5.21-1.68c-2.28,0.66-3.02,2.52-3.42,4.64
					c-0.25,1.33-0.79,2.59-1.54,3.72c-0.8,1.2-1.81,2.15-2.43,3.48c-1.07,2.3-1.25,4.99-0.45,7.39c1.42,4.23,5.63,7.14,10.11,6.83
					c5.29-0.37,9.42-4.96,9.38-10.23C40,32.68,38.47,32.68,38.48,33.67z"/>
			</g>
		</g>
	</g>
</g>
</svg>
