<?xml version="1.0" encoding="utf-8"?>
<!-- Generator: Adobe Illustrator 27.0.0, SVG Export Plug-In . SVG Version: 6.00 Build 0)  -->
<svg version="1.1" id="Capa_1" xmlns="http://www.w3.org/2000/svg" xmlns:xlink="http://www.w3.org/1999/xlink" x="0px" y="0px"
	 viewBox="0 0 60 60" style="enable-background:new 0 0 60 60;" xml:space="preserve">
<style type="text/css">
	.st0{fill:#2D3B2B;}
</style>
<g>
	<g>
		<g>
			<path class="st0" d="M7.3,24.94c0.09,0.07,0.14,0.17,0.12,0.3c-0.01,0.22-0.15,0.36-0.41,0.42l-1.05,0.28l-0.33,2.5L6.58,29
				c0.12,0.07,0.2,0.14,0.25,0.21c0.05,0.07,0.06,0.16,0.03,0.26c-0.02,0.13-0.09,0.22-0.19,0.25s-0.23,0.02-0.37-0.06L2.33,27.3
				c-0.17-0.1-0.29-0.2-0.35-0.29c-0.06-0.09-0.08-0.21-0.06-0.36c0.02-0.15,0.07-0.26,0.16-0.33c0.09-0.07,0.22-0.14,0.42-0.19
				l4.42-1.23C7.08,24.87,7.21,24.88,7.3,24.94z M5.27,26.13l-2.49,0.66l2.22,1.3L5.27,26.13z"/>
		</g>
		<g>
			<path class="st0" d="M2.99,22.33c-0.04-0.09-0.05-0.19-0.01-0.29c0.04-0.1,0.1-0.17,0.19-0.22c0.09-0.04,0.19-0.05,0.29-0.01
				l3.89,1.37l0.77-2.19c0.03-0.1,0.09-0.16,0.17-0.2c0.08-0.04,0.17-0.04,0.27,0c0.09,0.03,0.16,0.09,0.2,0.17
				c0.04,0.08,0.04,0.17,0.01,0.26l-0.9,2.56c-0.03,0.09-0.09,0.16-0.18,0.2c-0.08,0.04-0.17,0.04-0.27,0.01l-4.22-1.49
				C3.1,22.49,3.03,22.42,2.99,22.33z"/>
		</g>
		<g>
			<path class="st0" d="M4.8,17.75c-0.03-0.09-0.02-0.19,0.03-0.28c0.05-0.1,0.12-0.16,0.22-0.19c0.09-0.03,0.19-0.02,0.28,0.03
				l4.02,2.09c0.09,0.05,0.16,0.12,0.19,0.22c0.03,0.09,0.02,0.19-0.03,0.29c-0.05,0.09-0.12,0.16-0.21,0.19
				c-0.09,0.03-0.19,0.02-0.28-0.03l-4.02-2.09C4.89,17.91,4.83,17.84,4.8,17.75z"/>
		</g>
		<g>
			<path class="st0" d="M9.38,11.06c0.11-0.01,0.21,0.02,0.31,0.1l3.52,2.76c0.08,0.07,0.13,0.15,0.14,0.25
				c0.01,0.1-0.02,0.19-0.08,0.28c-0.07,0.08-0.15,0.13-0.24,0.14c-0.1,0.01-0.19-0.02-0.27-0.08l-2.88-2.26l1,2.75
				c0.06,0.18,0.04,0.34-0.06,0.47c-0.1,0.13-0.25,0.18-0.44,0.16L7.49,15.3l2.86,2.25c0.08,0.06,0.13,0.15,0.14,0.25
				c0.01,0.1-0.02,0.19-0.08,0.27c-0.07,0.08-0.15,0.13-0.25,0.14c-0.1,0.01-0.19-0.01-0.27-0.08l-3.47-2.73
				c-0.12-0.09-0.18-0.2-0.2-0.32c-0.01-0.12,0.03-0.24,0.12-0.36c0.08-0.1,0.18-0.17,0.28-0.2c0.11-0.03,0.24-0.03,0.41-0.01
				l3.13,0.36l-1.14-3.07c-0.04-0.12-0.06-0.22-0.05-0.31c0.01-0.09,0.04-0.18,0.11-0.27C9.18,11.13,9.27,11.07,9.38,11.06z"/>
		</g>
		<g>
			<path class="st0" d="M11.38,9.24c0.01-0.09,0.06-0.17,0.13-0.23l2.11-1.67c0.08-0.06,0.17-0.09,0.26-0.08
				c0.09,0.01,0.17,0.06,0.23,0.14c0.06,0.08,0.09,0.16,0.07,0.26c-0.01,0.09-0.06,0.17-0.14,0.23l-1.8,1.42l0.98,1.23l1.54-1.22
				c0.08-0.06,0.16-0.09,0.26-0.08c0.09,0.01,0.17,0.05,0.23,0.13c0.06,0.08,0.09,0.17,0.08,0.26c-0.01,0.09-0.06,0.17-0.14,0.23
				l-1.54,1.22l0.98,1.24l1.8-1.42c0.08-0.06,0.17-0.09,0.26-0.08c0.09,0.01,0.17,0.06,0.23,0.14c0.06,0.08,0.09,0.17,0.08,0.26
				c-0.01,0.09-0.06,0.17-0.14,0.23l-2.11,1.67c-0.08,0.06-0.17,0.09-0.26,0.08c-0.09-0.01-0.17-0.06-0.23-0.14L11.46,9.5
				C11.39,9.42,11.37,9.34,11.38,9.24z"/>
		</g>
		<g>
			<path class="st0" d="M19.42,4.24c0.09,0.03,0.16,0.1,0.21,0.19l1.96,3.99c0.06,0.13,0.08,0.25,0.06,0.35
				c-0.03,0.11-0.09,0.19-0.2,0.24c-0.12,0.06-0.23,0.08-0.33,0.06c-0.1-0.02-0.23-0.07-0.39-0.15l-3.99-2.04l1.59,3.24
				c0.05,0.09,0.05,0.19,0.02,0.28c-0.03,0.09-0.1,0.17-0.2,0.21c-0.1,0.05-0.19,0.05-0.28,0.02c-0.09-0.03-0.16-0.09-0.21-0.19
				l-1.96-3.98c-0.07-0.13-0.08-0.25-0.05-0.36c0.03-0.11,0.11-0.19,0.23-0.25c0.1-0.05,0.21-0.07,0.31-0.05s0.22,0.07,0.36,0.15
				l4.05,2.08l-1.61-3.29c-0.05-0.1-0.05-0.19-0.02-0.28c0.03-0.09,0.09-0.16,0.19-0.21C19.23,4.22,19.33,4.21,19.42,4.24z"/>
		</g>
		<g>
			<path class="st0" d="M24.62,7.7c0.03,0.1,0.01,0.2-0.04,0.28c-0.05,0.08-0.13,0.14-0.24,0.17c-0.1,0.02-0.2,0.01-0.28-0.04
				c-0.08-0.05-0.14-0.13-0.16-0.23l-1.01-4.06l-1.27,0.32c-0.1,0.02-0.19,0.01-0.26-0.03c-0.08-0.05-0.13-0.12-0.15-0.22
				c-0.02-0.1-0.01-0.19,0.03-0.26c0.05-0.08,0.12-0.13,0.22-0.15l3.27-0.82c0.1-0.02,0.19-0.01,0.26,0.03
				c0.08,0.05,0.13,0.12,0.15,0.22c0.02,0.1,0.01,0.19-0.03,0.26c-0.05,0.08-0.12,0.13-0.22,0.15L23.6,3.64L24.62,7.7z"/>
		</g>
		<g>
			<path class="st0" d="M30.88,7.2c-0.04,0.11-0.14,0.17-0.27,0.18c-0.21,0.03-0.38-0.08-0.5-0.32l-0.48-0.98l-2.52,0.16l-0.36,1.04
				c-0.04,0.13-0.1,0.23-0.16,0.28c-0.06,0.06-0.14,0.09-0.25,0.09c-0.13,0-0.23-0.04-0.29-0.14C26,7.41,26,7.28,26.05,7.13
				l1.55-4.36c0.07-0.19,0.14-0.32,0.22-0.4c0.08-0.08,0.19-0.12,0.34-0.13c0.15-0.01,0.27,0.02,0.36,0.09
				c0.09,0.07,0.18,0.19,0.26,0.37l2.06,4.11C30.91,6.96,30.92,7.09,30.88,7.2z M29.32,5.43l-1.14-2.31l-0.84,2.44L29.32,5.43z"/>
		</g>
		<g>
			<path class="st0" d="M32.71,2.39c0.08-0.05,0.16-0.07,0.26-0.06l1.23,0.21c0.56,0.1,1.05,0.29,1.45,0.59
				c0.4,0.29,0.69,0.66,0.87,1.09c0.18,0.43,0.22,0.9,0.14,1.4c-0.08,0.5-0.28,0.92-0.58,1.27c-0.3,0.35-0.69,0.6-1.15,0.74
				S33.95,7.8,33.4,7.71l-1.31-0.22c-0.1-0.02-0.18-0.06-0.23-0.14c-0.05-0.08-0.07-0.17-0.06-0.26l0.76-4.46
				C32.58,2.52,32.63,2.44,32.71,2.39z M32.61,6.87l0.85,0.15c0.63,0.11,1.18,0.02,1.62-0.25c0.45-0.28,0.72-0.7,0.81-1.27
				c0.1-0.57-0.02-1.06-0.35-1.48c-0.33-0.41-0.81-0.68-1.45-0.78l-0.84-0.14L32.61,6.87z"/>
		</g>
		<g>
			<path class="st0" d="M42.21,9.05c-0.26,0.25-0.56,0.43-0.87,0.55c-0.32,0.12-0.66,0.18-1.02,0.18c-0.36-0.01-0.71-0.08-1.04-0.23
				c-0.33-0.15-0.62-0.36-0.86-0.62c-0.24-0.27-0.42-0.56-0.54-0.88c-0.12-0.32-0.18-0.66-0.17-1.02c0.01-0.36,0.09-0.71,0.24-1.05
				c0.15-0.34,0.36-0.63,0.63-0.88c0.27-0.25,0.56-0.43,0.88-0.56c0.32-0.12,0.66-0.18,1.02-0.18c0.36,0,0.71,0.08,1.04,0.23
				c0.33,0.15,0.62,0.36,0.86,0.63c0.24,0.27,0.42,0.56,0.54,0.88c0.12,0.32,0.17,0.66,0.16,1.03c-0.01,0.37-0.09,0.72-0.24,1.05
				C42.68,8.51,42.47,8.8,42.21,9.05z M42.3,6.84c-0.03-0.35-0.14-0.67-0.33-0.95c-0.19-0.28-0.45-0.5-0.76-0.64
				c-0.31-0.14-0.64-0.19-0.98-0.15c-0.34,0.04-0.65,0.17-0.93,0.38c-0.28,0.21-0.49,0.48-0.64,0.81c-0.11,0.25-0.17,0.5-0.18,0.76
				c-0.01,0.26,0.03,0.51,0.11,0.74c0.08,0.23,0.21,0.44,0.38,0.63s0.37,0.34,0.61,0.45c0.32,0.14,0.64,0.19,0.98,0.15
				s0.65-0.17,0.93-0.37c0.28-0.21,0.49-0.47,0.64-0.8C42.27,7.53,42.33,7.19,42.3,6.84z"/>
		</g>
		<g>
			<path class="st0" d="M42.87,10.12c0.08-0.01,0.16,0.01,0.23,0.07c0.05,0.03,0.09,0.11,0.15,0.22c0.05,0.11,0.1,0.22,0.15,0.34
				c0.05,0.12,0.14,0.26,0.26,0.43c0.12,0.16,0.27,0.31,0.45,0.44c0.25,0.19,0.5,0.28,0.74,0.28s0.43-0.1,0.58-0.3
				c0.08-0.11,0.13-0.22,0.13-0.35c0.01-0.12-0.01-0.25-0.06-0.37c-0.05-0.12-0.12-0.25-0.2-0.39c-0.08-0.13-0.18-0.27-0.28-0.41
				c-0.1-0.14-0.2-0.28-0.3-0.43c-0.1-0.14-0.18-0.29-0.25-0.44c-0.07-0.15-0.12-0.3-0.15-0.45c-0.03-0.15-0.03-0.31,0.01-0.47
				c0.04-0.16,0.11-0.32,0.23-0.48c0.25-0.34,0.59-0.51,1.01-0.52c0.42-0.01,0.85,0.15,1.29,0.47c0.38,0.28,0.66,0.59,0.83,0.93
				c0.18,0.34,0.2,0.59,0.08,0.76c-0.05,0.07-0.12,0.11-0.2,0.12c-0.08,0.01-0.15-0.01-0.23-0.07c-0.05-0.04-0.1-0.1-0.16-0.2
				c-0.05-0.09-0.11-0.19-0.16-0.29c-0.05-0.1-0.13-0.22-0.25-0.36c-0.11-0.14-0.25-0.27-0.41-0.39C46.14,8.09,45.92,8,45.71,8
				s-0.38,0.08-0.51,0.25c-0.07,0.1-0.11,0.21-0.11,0.32c0,0.12,0.02,0.24,0.07,0.35c0.05,0.12,0.12,0.24,0.21,0.38
				c0.09,0.13,0.18,0.27,0.28,0.41c0.1,0.14,0.2,0.28,0.29,0.42c0.1,0.14,0.18,0.29,0.25,0.45c0.07,0.15,0.12,0.31,0.14,0.46
				c0.03,0.15,0.02,0.31-0.02,0.48c-0.04,0.17-0.12,0.33-0.24,0.49c-0.28,0.37-0.64,0.57-1.07,0.59c-0.44,0.02-0.89-0.13-1.34-0.48
				c-0.26-0.2-0.48-0.42-0.67-0.67c-0.18-0.25-0.3-0.49-0.35-0.71c-0.06-0.22-0.04-0.39,0.05-0.51
				C42.72,10.17,42.79,10.13,42.87,10.12z"/>
		</g>
		<g>
			<path class="st0" d="M49.98,12.78c0.34-0.09,0.69-0.12,1.02-0.08c0.34,0.04,0.67,0.15,0.99,0.34c0.32,0.19,0.61,0.45,0.85,0.77
				c0.19,0.25,0.33,0.51,0.43,0.78c0.1,0.28,0.15,0.52,0.14,0.73c-0.01,0.21-0.06,0.35-0.16,0.42c-0.08,0.06-0.16,0.08-0.24,0.06
				c-0.08-0.02-0.15-0.06-0.21-0.14c-0.04-0.05-0.07-0.13-0.09-0.23c-0.02-0.11-0.04-0.21-0.06-0.32c-0.02-0.11-0.06-0.25-0.13-0.41
				c-0.07-0.16-0.16-0.32-0.28-0.48c-0.34-0.45-0.78-0.71-1.3-0.76c-0.52-0.06-1.01,0.09-1.46,0.43c-0.44,0.34-0.71,0.76-0.79,1.28
				c-0.08,0.52,0.05,1,0.39,1.46c0.12,0.15,0.24,0.28,0.38,0.4c0.14,0.11,0.26,0.19,0.36,0.23c0.1,0.04,0.2,0.09,0.29,0.15
				c0.1,0.05,0.16,0.1,0.2,0.15c0.06,0.08,0.08,0.16,0.08,0.24c-0.01,0.08-0.05,0.16-0.13,0.22c-0.1,0.08-0.25,0.09-0.45,0.04
				c-0.2-0.05-0.42-0.16-0.66-0.33s-0.45-0.38-0.64-0.62c-0.33-0.43-0.52-0.89-0.58-1.37c-0.06-0.48,0-0.94,0.2-1.37
				c0.19-0.43,0.48-0.79,0.88-1.09C49.31,13.03,49.63,12.87,49.98,12.78z"/>
		</g>
		<g>
			<path class="st0" d="M53.37,22.76c-0.36,0.01-0.7-0.05-1.02-0.17c-0.32-0.12-0.61-0.3-0.87-0.55c-0.26-0.25-0.47-0.53-0.62-0.87
				s-0.22-0.68-0.23-1.04c0-0.36,0.06-0.7,0.18-1.01c0.12-0.32,0.31-0.61,0.56-0.87c0.25-0.26,0.54-0.47,0.88-0.62
				c0.34-0.15,0.69-0.23,1.05-0.24c0.36-0.01,0.7,0.05,1.02,0.17c0.32,0.12,0.61,0.3,0.88,0.54c0.26,0.24,0.47,0.53,0.62,0.86
				c0.15,0.33,0.22,0.68,0.23,1.04c0,0.36-0.06,0.7-0.19,1.02c-0.12,0.32-0.31,0.61-0.56,0.87c-0.25,0.27-0.54,0.47-0.88,0.62
				C54.08,22.68,53.73,22.75,53.37,22.76z M54.91,21.18c0.21-0.28,0.34-0.59,0.38-0.93c0.04-0.34,0-0.67-0.14-0.98
				c-0.14-0.31-0.35-0.57-0.63-0.76c-0.28-0.19-0.6-0.31-0.94-0.34c-0.35-0.03-0.69,0.03-1.02,0.18c-0.25,0.11-0.46,0.26-0.64,0.45
				s-0.32,0.4-0.41,0.63c-0.09,0.23-0.14,0.47-0.14,0.72c0,0.26,0.05,0.5,0.15,0.74c0.14,0.32,0.35,0.57,0.63,0.77
				c0.28,0.2,0.59,0.31,0.94,0.34c0.35,0.03,0.68-0.02,1.01-0.17C54.43,21.67,54.7,21.46,54.91,21.18z"/>
		</g>
		<g>
			<path class="st0" d="M58.03,27.91c-0.06,0.08-0.14,0.13-0.24,0.14l-4.39,0.73c-0.14,0.02-0.26,0.01-0.35-0.05
				c-0.09-0.05-0.15-0.14-0.17-0.26c-0.02-0.13-0.01-0.24,0.04-0.34c0.05-0.09,0.13-0.21,0.26-0.33l3.1-3.24l-3.56,0.59
				c-0.1,0.02-0.2,0-0.28-0.06c-0.08-0.06-0.13-0.14-0.15-0.25c-0.02-0.1,0-0.2,0.06-0.28c0.06-0.08,0.14-0.13,0.24-0.15l4.38-0.73
				c0.15-0.02,0.27-0.01,0.36,0.05c0.09,0.06,0.15,0.16,0.18,0.29c0.02,0.12,0,0.22-0.04,0.31c-0.05,0.09-0.13,0.19-0.25,0.3
				l-3.16,3.28l3.61-0.6c0.1-0.02,0.2,0,0.28,0.06c0.08,0.06,0.13,0.14,0.15,0.24C58.1,27.74,58.09,27.83,58.03,27.91z"/>
		</g>
	</g>
	<g>
		<g>
			<path class="st0" d="M13.06,44.68c-0.06,0.19-0.19,0.35-0.39,0.48l-3.26,2c-0.17,0.1-0.34,0.14-0.51,0.1
				c-0.17-0.04-0.31-0.14-0.41-0.31c-0.1-0.17-0.14-0.34-0.09-0.51c0.04-0.17,0.15-0.31,0.32-0.42l2.06-1.26l-1.54-0.02
				c-0.19,0-0.33-0.03-0.44-0.09c-0.11-0.06-0.2-0.15-0.28-0.28c-0.08-0.13-0.12-0.25-0.12-0.38c0-0.13,0.03-0.27,0.11-0.44
				l0.67-1.38l-2.05,1.26c-0.17,0.1-0.34,0.14-0.51,0.1c-0.17-0.04-0.31-0.14-0.41-0.31c-0.1-0.17-0.14-0.34-0.09-0.51
				c0.04-0.17,0.15-0.31,0.32-0.42l3.18-1.96c0.24-0.15,0.47-0.19,0.69-0.14c0.22,0.05,0.4,0.2,0.55,0.44
				c0.12,0.2,0.18,0.4,0.15,0.59c-0.02,0.19-0.11,0.43-0.25,0.72l-0.85,1.68l2.13,0c0.22,0,0.41,0.03,0.56,0.1
				c0.15,0.06,0.28,0.19,0.39,0.37C13.08,44.28,13.12,44.49,13.06,44.68z"/>
		</g>
		<g>
			<path class="st0" d="M13.73,51.97c-0.21,0.07-0.41,0.01-0.61-0.18c-0.26-0.25-0.3-0.6-0.11-1.05l0.14-0.34l-1.52-1.44l-0.33,0.16
				c-0.23,0.11-0.43,0.17-0.58,0.17c-0.15,0-0.3-0.06-0.44-0.2c-0.19-0.18-0.25-0.37-0.2-0.58c0.06-0.21,0.23-0.38,0.52-0.52
				L14,46.48c0.31-0.14,0.56-0.2,0.77-0.18c0.21,0.02,0.41,0.12,0.61,0.3c0.19,0.18,0.3,0.38,0.33,0.58
				c0.02,0.2-0.02,0.46-0.14,0.77l-1.33,3.47C14.11,51.73,13.94,51.91,13.73,51.97z M13.64,49.23l0.65-1.53l-1.51,0.72L13.64,49.23z
				"/>
		</g>
		<g>
			<path class="st0" d="M17.7,48.75c0.17-0.04,0.34,0,0.51,0.11c0.17,0.11,0.27,0.25,0.3,0.43c0.04,0.18,0,0.35-0.11,0.51
				l-2.19,3.29c-0.11,0.17-0.25,0.27-0.43,0.3c-0.17,0.04-0.34,0-0.51-0.11c-0.17-0.11-0.27-0.25-0.3-0.43
				c-0.03-0.17,0-0.34,0.11-0.51l2.19-3.29C17.38,48.88,17.53,48.78,17.7,48.75z M20.19,48.05c0.04,0.13,0.03,0.25-0.05,0.36
				c-0.07,0.11-0.19,0.18-0.37,0.24l-0.68,0.15c-0.22,0.05-0.42,0.01-0.6-0.11c-0.16-0.11-0.24-0.24-0.23-0.4
				c0.01-0.16,0.1-0.28,0.28-0.36l0.55-0.26c0.15-0.07,0.3-0.11,0.43-0.1c0.13,0.01,0.26,0.05,0.4,0.15
				C20.06,47.8,20.15,47.91,20.19,48.05z"/>
		</g>
		<g>
			<path class="st0" d="M19.06,50.95c-0.17-0.08-0.28-0.2-0.33-0.35c-0.05-0.16-0.04-0.32,0.04-0.49c0.08-0.17,0.2-0.28,0.35-0.34
				c0.16-0.06,0.32-0.05,0.48,0.03l2.4,1.13c0.26,0.12,0.42,0.27,0.5,0.45c0.08,0.18,0.07,0.38-0.03,0.59
				c-0.03,0.06-0.06,0.11-0.1,0.16c-0.04,0.05-0.08,0.09-0.11,0.12c-0.03,0.03-0.08,0.07-0.15,0.11c-0.07,0.04-0.12,0.07-0.16,0.09
				c-0.03,0.02-0.1,0.05-0.2,0.1c-0.1,0.05-0.17,0.08-0.2,0.1l-2.56,1.27l1.59,0.75c0.17,0.08,0.28,0.2,0.33,0.35
				c0.06,0.16,0.04,0.32-0.04,0.49c-0.08,0.17-0.2,0.28-0.35,0.33c-0.16,0.06-0.32,0.05-0.48-0.03l-2.59-1.22
				c-0.21-0.1-0.36-0.24-0.44-0.43c-0.08-0.18-0.07-0.37,0.02-0.57c0.03-0.07,0.07-0.14,0.12-0.19c0.04-0.05,0.1-0.1,0.17-0.15
				c0.07-0.05,0.13-0.08,0.17-0.11c0.04-0.02,0.12-0.06,0.24-0.12s0.19-0.09,0.24-0.11l2.55-1.27L19.06,50.95z"/>
		</g>
		<g>
			<path class="st0" d="M28.82,52.65c0.11,0.14,0.14,0.31,0.12,0.51l-0.56,3.75c-0.04,0.25-0.14,0.45-0.29,0.58
				c-0.16,0.13-0.35,0.18-0.57,0.14c-0.16-0.02-0.3-0.08-0.43-0.16c-0.12-0.08-0.22-0.18-0.29-0.28c-0.07-0.11-0.16-0.25-0.25-0.44
				l-1.18-2.42l-0.34,2.24c-0.03,0.2-0.12,0.35-0.26,0.46c-0.14,0.11-0.31,0.14-0.51,0.12c-0.2-0.03-0.35-0.12-0.45-0.26
				c-0.11-0.14-0.14-0.31-0.11-0.51l0.56-3.75c0.04-0.26,0.14-0.46,0.3-0.58c0.16-0.12,0.36-0.17,0.6-0.13
				c0.22,0.03,0.39,0.12,0.52,0.25c0.13,0.14,0.26,0.34,0.39,0.62l1.17,2.51l0.35-2.33c0.03-0.2,0.11-0.35,0.26-0.45
				c0.14-0.11,0.31-0.14,0.5-0.12C28.56,52.42,28.72,52.51,28.82,52.65z"/>
		</g>
		<g>
			<path class="st0" d="M34.76,57.07c-0.09,0.2-0.27,0.31-0.53,0.34c-0.36,0.03-0.65-0.17-0.86-0.61l-0.16-0.33l-2.09,0.19
				l-0.1,0.35c-0.07,0.25-0.15,0.43-0.25,0.55c-0.1,0.12-0.25,0.18-0.44,0.2c-0.26,0.02-0.44-0.06-0.56-0.24
				c-0.12-0.18-0.13-0.43-0.04-0.73l1.1-3.55c0.1-0.32,0.22-0.55,0.37-0.7c0.15-0.14,0.36-0.23,0.63-0.25
				c0.27-0.02,0.49,0.02,0.65,0.14s0.33,0.32,0.49,0.62l1.72,3.29C34.82,56.63,34.85,56.87,34.76,57.07z M32.64,55.32l-0.72-1.5
				l-0.46,1.61L32.64,55.32z"/>
		</g>
		<g>
			<path class="st0" d="M37.59,55.86c0.05,0.19,0.04,0.36-0.05,0.52c-0.09,0.16-0.22,0.26-0.41,0.31c-0.19,0.05-0.36,0.04-0.52-0.05
				c-0.16-0.09-0.26-0.23-0.31-0.42l-0.91-3.2l-0.77,0.22c-0.18,0.05-0.34,0.03-0.48-0.05c-0.15-0.08-0.25-0.21-0.3-0.39
				c-0.05-0.18-0.03-0.34,0.05-0.48c0.08-0.15,0.21-0.24,0.39-0.29l2.84-0.81c0.18-0.05,0.34-0.03,0.48,0.05
				c0.15,0.08,0.24,0.21,0.29,0.39c0.05,0.18,0.04,0.34-0.04,0.48c-0.08,0.15-0.21,0.24-0.38,0.29l-0.78,0.22L37.59,55.86z"/>
		</g>
		<g>
			<path class="st0" d="M37.98,51.11c0.05-0.17,0.17-0.3,0.34-0.39c0.18-0.09,0.35-0.11,0.52-0.06c0.17,0.05,0.3,0.17,0.39,0.35
				l1.07,2.06c0.15,0.28,0.34,0.47,0.57,0.56c0.23,0.09,0.47,0.08,0.71-0.05c0.24-0.12,0.38-0.3,0.44-0.55
				c0.06-0.24,0.01-0.5-0.13-0.78l-1.08-2.07c-0.09-0.18-0.11-0.35-0.06-0.52c0.05-0.17,0.17-0.3,0.34-0.39
				c0.18-0.09,0.35-0.11,0.52-0.06c0.17,0.05,0.3,0.17,0.39,0.35l1.09,2.09c0.33,0.63,0.41,1.23,0.24,1.8
				c-0.17,0.57-0.55,1.02-1.15,1.33c-0.59,0.31-1.17,0.37-1.73,0.17c-0.56-0.19-1.01-0.61-1.33-1.24l-1.09-2.09
				C37.95,51.45,37.93,51.28,37.98,51.11z"/>
		</g>
		<g>
			<path class="st0" d="M47.52,49.51c0.23,0.08,0.4,0.19,0.53,0.34c0.11,0.13,0.15,0.26,0.13,0.42c-0.02,0.15-0.11,0.29-0.25,0.41
				c-0.13,0.11-0.26,0.16-0.4,0.18c-0.14,0.01-0.31-0.02-0.5-0.09l-1.34-0.53l-0.41,0.34l0.71,0.85c0.13,0.15,0.18,0.32,0.17,0.49
				c-0.01,0.18-0.1,0.33-0.25,0.45c-0.15,0.13-0.32,0.18-0.5,0.17s-0.33-0.1-0.46-0.25l-2.54-3.04c-0.12-0.14-0.17-0.29-0.15-0.46
				c0.02-0.17,0.09-0.31,0.23-0.43l0.97-0.81c0.51-0.43,1.02-0.65,1.53-0.67c0.51-0.02,0.93,0.17,1.27,0.57
				c0.21,0.25,0.33,0.52,0.37,0.81c0.04,0.29,0,0.59-0.12,0.88L47.52,49.51z M44.52,49.66l0.51-0.42c0.15-0.13,0.25-0.27,0.27-0.43
				c0.03-0.16-0.01-0.31-0.12-0.44c-0.11-0.13-0.24-0.19-0.4-0.18c-0.16,0-0.32,0.07-0.47,0.2l-0.51,0.42L44.52,49.66z"/>
		</g>
		<g>
			<path class="st0" d="M52.35,45c0.09,0.2,0.05,0.41-0.11,0.62c-0.22,0.29-0.56,0.36-1.03,0.22l-0.35-0.1l-1.27,1.67l0.19,0.31
				c0.14,0.22,0.22,0.41,0.24,0.56c0.02,0.15-0.03,0.3-0.15,0.46c-0.16,0.21-0.34,0.29-0.56,0.26c-0.21-0.03-0.4-0.19-0.57-0.46
				l-1.88-3.21c-0.17-0.29-0.26-0.54-0.26-0.75c-0.01-0.21,0.07-0.42,0.24-0.64c0.16-0.21,0.34-0.34,0.54-0.39
				c0.2-0.05,0.46-0.03,0.79,0.06l3.59,0.95C52.06,44.66,52.26,44.8,52.35,45z M49.63,45.39l-1.6-0.48l0.88,1.42L49.63,45.39z"/>
		</g>
		<g>
			<path class="st0" d="M48.69,41.54c-0.06-0.17-0.05-0.34,0.03-0.52c0.08-0.18,0.21-0.3,0.38-0.36c0.17-0.06,0.34-0.05,0.52,0.03
				l3.02,1.41l0.7-1.51c0.08-0.17,0.2-0.28,0.35-0.33c0.16-0.06,0.32-0.04,0.49,0.03c0.17,0.08,0.28,0.19,0.34,0.35
				s0.05,0.32-0.03,0.48l-1.01,2.16c-0.08,0.17-0.19,0.28-0.35,0.34c-0.16,0.06-0.32,0.05-0.48-0.03l-3.59-1.67
				C48.87,41.83,48.75,41.71,48.69,41.54z"/>
		</g>
	</g>
	<g>
		<g>
			<path class="st0" d="M7.09,36.71c-0.29-1.03-0.5-2.08-0.65-3.15c0.02,0.14,0.04,0.27,0.05,0.41c-0.06-0.42-0.1-0.83-0.13-1.25
				c-0.03-0.41-0.15-0.78-0.45-1.08c-0.27-0.27-0.7-0.47-1.08-0.45c-0.77,0.03-1.6,0.68-1.53,1.53c0.13,1.62,0.4,3.23,0.84,4.8
				c0.21,0.77,1.09,1.32,1.88,1.07C6.81,38.34,7.32,37.54,7.09,36.71L7.09,36.71z"/>
		</g>
	</g>
	<g>
		<g>
			<path class="st0" d="M53.47,32.72c-0.03,0.42-0.08,0.83-0.13,1.25c0.02-0.14,0.04-0.27,0.05-0.41c-0.15,1.06-0.36,2.11-0.65,3.15
				c-0.21,0.77,0.26,1.7,1.07,1.88c0.81,0.18,1.65-0.24,1.88-1.07c0.44-1.57,0.71-3.18,0.84-4.8c0.03-0.37-0.19-0.83-0.45-1.08
				c-0.27-0.27-0.7-0.47-1.08-0.45c-0.4,0.02-0.81,0.15-1.08,0.45C53.63,31.95,53.5,32.3,53.47,32.72L53.47,32.72z"/>
		</g>
	</g>
	<g>
		<g>
			<path class="st0" d="M30.46,32.19c2.76-2.97,6.5-6.08,10.59-6.78c-0.25-0.43-0.5-0.85-0.74-1.28c-1.59,2.04-3.15,4.23-4.16,6.62
				c-1.09,2.59-1.22,5.49-2.63,7.98c-0.76,1.35-1.79,2.22-3.4,2.22c-1.78,0-3.07-0.92-3.83-2.49c-0.59-1.21-0.78-2.56-1.23-3.83
				c-0.49-1.38-1.08-2.72-1.71-4.04c-0.72-1.52-1.5-3.03-2.42-4.43c-0.54-0.82-1.19-1.9-2.18-2.22c-0.14,0.49-0.27,0.98-0.41,1.48
				c3.19,0.94,6.68,2.37,9.13,4.66c2.11,1.98,2.61,4.65,3.28,7.33c0.27,1.06,1.65,4.55,3.27,3.28c0.78-0.61-0.31-1.68-1.08-1.08
				c0.74-0.02,0.84-0.16,0.31-0.45c-0.06-0.06-0.11-0.11-0.17-0.17c-0.16-0.19-0.3-0.4-0.41-0.62c-0.24-0.47-0.36-0.99-0.49-1.49
				c-0.29-1.21-0.5-2.43-0.93-3.6c-0.82-2.23-2.17-4-4.09-5.38c-2.49-1.8-5.49-3.08-8.43-3.94c-0.95-0.28-1.34,1.17-0.41,1.48
				c0.66,0.21,1.43,1.75,1.8,2.39c0.82,1.38,1.55,2.83,2.22,4.29c0.58,1.27,1.15,2.58,1.54,3.93c0.42,1.45,0.74,2.92,1.63,4.17
				c1.75,2.45,5.62,3.17,7.94,1.07c2.22-2.01,2.79-5.4,3.51-8.15c0.44-1.69,1.2-3.17,2.13-4.64c0.49-0.77,1-1.53,1.54-2.27
				c0.18-0.24,0.35-0.48,0.53-0.72c0.05-0.06,0.34-0.45,0.2-0.26c0.47-0.61,0.04-1.41-0.74-1.28c-4.33,0.74-8.34,4.04-11.26,7.18
				C28.7,31.83,29.78,32.91,30.46,32.19L30.46,32.19z"/>
		</g>
	</g>
	<g>
		<g>
			<path class="st0" d="M25.12,26.3c-0.01-0.04-0.02-0.15,0,0.02c0.02,0.19-0.01-0.06-0.01-0.11c-0.02-0.25-0.03-0.5-0.03-0.75
				c0-0.82,0.09-1.52,0.28-2.31c0.67-2.68,2.44-4.85,4.72-6.36c-0.2,0.03-0.39,0.05-0.59,0.08c0.17,0.06-0.21-0.1,0,0
				c0.15,0.07,0.29,0.14,0.44,0.22c0.46,0.24,1.01,0.61,1.33,0.86c1.39,1.1,2.48,2.57,3.06,4.26c0.48,1.39,0.63,2.84,0.57,4.3
				c-0.04,0.98,1.49,0.98,1.53,0c0.16-4.21-1.62-8.27-5.28-10.49c-0.31-0.19-0.64-0.36-0.97-0.51c-0.27-0.12-0.46-0.2-0.77-0.07
				c-0.7,0.28-1.41,0.98-1.96,1.48c-1.76,1.6-3.07,3.71-3.6,6.04c-0.28,1.21-0.41,2.53-0.19,3.76
				C23.81,27.67,25.29,27.26,25.12,26.3L25.12,26.3z"/>
		</g>
	</g>
	<g>
		<g>
			<path class="st0" d="M32.45,43.84c-0.97,0-1.94,0-2.92,0c-0.14,0-0.27,0-0.41,0c0.25,0.26,0.51,0.51,0.76,0.76
				c0-0.85,0-1.69,0-2.54c0-0.12,0-0.24,0-0.36c-0.25,0.25-0.51,0.51-0.76,0.76c0.97,0,1.94,0,2.92,0c0.14,0,0.27,0,0.41,0
				c-0.25-0.26-0.51-0.51-0.76-0.76c0,0.85,0,1.69,0,2.54c0,0.12,0,0.24,0,0.36c0,0.4,0.35,0.78,0.76,0.76
				c0.41-0.02,0.77-0.34,0.77-0.76c0-0.85,0-1.69,0-2.54c0-0.12,0-0.24,0-0.36c0-0.41-0.35-0.77-0.77-0.77c-0.97,0-1.94,0-2.92,0
				c-0.14,0-0.27,0-0.41,0c-0.41,0-0.77,0.35-0.77,0.77c0,0.85,0,1.69,0,2.54c0,0.12,0,0.24,0,0.36c0,0.41,0.35,0.76,0.77,0.76
				c0.97,0,1.94,0,2.92,0c0.14,0,0.27,0,0.41,0c0.4,0,0.78-0.35,0.77-0.76C33.2,44.19,32.88,43.84,32.45,43.84z"/>
		</g>
	</g>
	<g>
		<g>
			<path class="st0" d="M25.15,30.16c0.04,0.02,0.17,0.13,0.08,0.06c0.13,0.1,0.26,0.21,0.38,0.32c0.42,0.37,0.81,0.78,1.17,1.22
				c1.09,1.34,1.8,2.98,1.96,4.7c0.04,0.49,0.81,0.49,0.76,0c-0.17-1.9-0.92-3.64-2.1-5.13c-0.53-0.68-1.16-1.33-1.87-1.83
				C25.13,29.22,24.75,29.88,25.15,30.16L25.15,30.16z"/>
		</g>
	</g>
	<g>
		<g>
			<path class="st0" d="M32.33,32.56c0.13-0.26,0.29-0.5,0.46-0.74c0.04-0.05,0.08-0.11,0.12-0.16c0.01-0.01,0.02-0.03,0.03-0.04
				c0.03-0.05-0.04,0.05,0,0c0.02-0.03,0.05-0.06,0.07-0.09c0.11-0.13,0.21-0.26,0.33-0.38c0.25-0.27,0.51-0.52,0.8-0.74
				c0.32-0.25,0.75-0.5,1.16-0.68c0.19-0.08,0.23-0.36,0.14-0.52c-0.11-0.2-0.33-0.22-0.52-0.14c-1.29,0.56-2.36,1.62-3.08,2.82
				c-0.06,0.09-0.11,0.18-0.16,0.28c-0.09,0.18-0.05,0.41,0.14,0.52C31.97,32.8,32.24,32.75,32.33,32.56L32.33,32.56z"/>
		</g>
	</g>
	<g>
		<g>
			<path class="st0" d="M25.91,20.3c2.28,0,4.56,0,6.84,0c0.32,0,0.65,0,0.97,0c0.49,0,0.49-0.76,0-0.76c-2.28,0-4.56,0-6.84,0
				c-0.32,0-0.65,0-0.97,0C25.41,19.53,25.41,20.3,25.91,20.3L25.91,20.3z"/>
		</g>
	</g>
	<g>
		<g>
			<path class="st0" d="M24.58,23.53c3.13,0,6.26,0,9.39,0c0.44,0,0.89,0,1.33,0c0.49,0,0.49-0.76,0-0.76c-3.13,0-6.26,0-9.39,0
				c-0.44,0-0.89,0-1.33,0C24.08,22.76,24.08,23.53,24.58,23.53L24.58,23.53z"/>
		</g>
	</g>
	<g>
		<g>
			<path class="st0" d="M24.58,26.24c3.13,0,6.26,0,9.39,0c0.44,0,0.89,0,1.33,0c0.49,0,0.49-0.76,0-0.76c-3.13,0-6.26,0-9.39,0
				c-0.44,0-0.89,0-1.33,0C24.08,25.47,24.08,26.24,24.58,26.24L24.58,26.24z"/>
		</g>
	</g>
	<g>
		<g>
			<path class="st0" d="M32.38,29.27c0-3.42,0-6.84,0-10.26c0-0.48,0-0.97,0-1.45c0-0.49-0.77-0.49-0.77,0c0,3.42,0,6.84,0,10.26
				c0,0.48,0,0.97,0,1.45C31.62,29.76,32.38,29.76,32.38,29.27L32.38,29.27z"/>
		</g>
	</g>
	<g>
		<g>
			<path class="st0" d="M27.92,29.27c0-3.42,0-6.84,0-10.26c0-0.48,0-0.97,0-1.45c0-0.49-0.77-0.49-0.77,0c0,3.42,0,6.84,0,10.26
				c0,0.48,0,0.97,0,1.45C27.16,29.76,27.92,29.76,27.92,29.27L27.92,29.27z"/>
		</g>
	</g>
</g>
</svg>
