<?xml version="1.0" encoding="utf-8"?>
<!-- Generator: Adobe Illustrator 27.0.0, SVG Export Plug-In . SVG Version: 6.00 Build 0)  -->
<svg version="1.1" id="Capa_1" xmlns="http://www.w3.org/2000/svg" xmlns:xlink="http://www.w3.org/1999/xlink" x="0px" y="0px"
	 viewBox="0 0 60 60" style="enable-background:new 0 0 60 60;" xml:space="preserve">
<style type="text/css">
	.st0{fill:#2D3B2B;}
</style>
<g>
	<g>
		<g>
			<path class="st0" d="M15.66,11.67c0.12,0.35,0.16,0.7,0.14,1.04c-0.02,0.35-0.11,0.68-0.27,1.02c-0.16,0.33-0.37,0.62-0.65,0.87
				c-0.37,0.33-0.8,0.54-1.28,0.64c-0.48,0.1-0.95,0.07-1.42-0.08c-0.46-0.15-0.86-0.41-1.19-0.78c-0.25-0.28-0.43-0.59-0.54-0.94
				c-0.11-0.35-0.16-0.7-0.14-1.04c0.02-0.34,0.11-0.68,0.27-1.02c0.16-0.33,0.38-0.62,0.65-0.87c0.37-0.33,0.8-0.54,1.27-0.64
				c0.48-0.1,0.95-0.07,1.41,0.09c0.46,0.15,0.86,0.41,1.19,0.78C15.36,11,15.54,11.32,15.66,11.67z M13.09,11.19
				c-0.37-0.04-0.69,0.06-0.96,0.3c-0.27,0.24-0.41,0.54-0.42,0.91s0.11,0.7,0.37,0.99c0.26,0.29,0.57,0.45,0.94,0.49
				c0.37,0.04,0.69-0.06,0.96-0.3c0.27-0.24,0.41-0.54,0.42-0.91c0.01-0.37-0.11-0.7-0.37-0.99C13.77,11.39,13.46,11.23,13.09,11.19
				z"/>
		</g>
		<g>
			<path class="st0" d="M20.06,9.7c0.21,0.12,0.36,0.27,0.45,0.44c0.08,0.15,0.09,0.29,0.04,0.43c-0.05,0.14-0.16,0.26-0.33,0.35
				c-0.15,0.08-0.29,0.11-0.43,0.09c-0.14-0.02-0.3-0.08-0.47-0.19l-1.21-0.79l-0.47,0.26l0.53,0.97c0.1,0.18,0.12,0.35,0.07,0.52
				s-0.16,0.3-0.33,0.4c-0.18,0.1-0.35,0.12-0.52,0.07c-0.17-0.05-0.3-0.16-0.4-0.34l-1.89-3.48C15.02,8.26,15,8.1,15.05,7.94
				c0.05-0.16,0.15-0.28,0.31-0.37l1.12-0.61c0.59-0.32,1.13-0.43,1.64-0.35C18.62,6.7,19,6.97,19.24,7.43
				c0.15,0.28,0.22,0.57,0.2,0.87c-0.02,0.3-0.12,0.58-0.29,0.84L20.06,9.7z M17.09,9.25l0.58-0.31c0.18-0.1,0.3-0.22,0.36-0.37
				c0.06-0.15,0.05-0.3-0.03-0.46c-0.08-0.14-0.2-0.23-0.35-0.26s-0.32,0.01-0.5,0.1l-0.58,0.31L17.09,9.25z"/>
		</g>
		<g>
			<path class="st0" d="M22.51,8.27c0.32,0.19,0.67,0.23,1.04,0.12c0.23-0.07,0.43-0.16,0.59-0.27l-0.22-0.75
				c-0.06-0.19-0.04-0.37,0.04-0.52c0.09-0.16,0.22-0.26,0.41-0.32c0.19-0.06,0.37-0.04,0.52,0.04c0.16,0.09,0.26,0.22,0.32,0.42
				l0.22,0.76c0.12,0.4,0.04,0.78-0.23,1.14c-0.27,0.36-0.73,0.63-1.36,0.81c-0.49,0.14-0.96,0.15-1.43,0.03
				c-0.47-0.12-0.87-0.35-1.21-0.68c-0.34-0.34-0.58-0.74-0.73-1.22c-0.11-0.36-0.14-0.72-0.11-1.08s0.12-0.68,0.28-0.99
				s0.39-0.58,0.71-0.82c0.31-0.24,0.69-0.42,1.13-0.55c0.31-0.09,0.6-0.13,0.89-0.12c0.29,0.01,0.54,0.07,0.75,0.18
				c0.21,0.11,0.34,0.26,0.4,0.46c0.06,0.19,0.04,0.35-0.04,0.48c-0.09,0.13-0.21,0.22-0.39,0.27C23.97,5.7,23.84,5.71,23.7,5.7
				c-0.14-0.01-0.29-0.03-0.46-0.04c-0.17-0.01-0.34,0.01-0.52,0.07c-0.41,0.12-0.68,0.33-0.81,0.65c-0.14,0.31-0.15,0.66-0.03,1.05
				C21.97,7.8,22.19,8.09,22.51,8.27z"/>
		</g>
		<g>
			<path class="st0" d="M31.22,8.4c-0.1,0.2-0.28,0.3-0.55,0.32c-0.36,0.02-0.64-0.19-0.84-0.64l-0.15-0.34l-2.1,0.11L27.47,8.2
				c-0.08,0.25-0.17,0.43-0.27,0.54c-0.1,0.11-0.25,0.18-0.45,0.19c-0.26,0.01-0.44-0.07-0.56-0.26c-0.11-0.19-0.12-0.43-0.02-0.73
				l1.23-3.51c0.11-0.32,0.24-0.55,0.4-0.68c0.15-0.14,0.37-0.22,0.64-0.23c0.27-0.01,0.49,0.04,0.65,0.16
				c0.16,0.12,0.32,0.33,0.46,0.64l1.6,3.36C31.3,7.95,31.31,8.2,31.22,8.4z M29.16,6.57l-0.67-1.53l-0.51,1.59L29.16,6.57z
				 M28.14,3.01c-0.09-0.13-0.08-0.28,0.01-0.46l0.28-0.54c0.08-0.15,0.17-0.26,0.28-0.34c0.11-0.07,0.25-0.12,0.41-0.12
				c0.17-0.01,0.31,0.03,0.42,0.11c0.11,0.08,0.17,0.19,0.18,0.31c0,0.13-0.05,0.26-0.16,0.41l-0.46,0.53
				c-0.14,0.17-0.33,0.26-0.55,0.27C28.37,3.21,28.23,3.15,28.14,3.01z"/>
		</g>
		<g>
			<path class="st0" d="M37.3,4.53c0.1,0.15,0.13,0.32,0.1,0.52l-0.7,3.73c-0.05,0.25-0.15,0.44-0.31,0.57
				c-0.16,0.12-0.36,0.16-0.58,0.12c-0.16-0.03-0.3-0.09-0.42-0.17C35.26,9.2,35.17,9.11,35.1,9c-0.07-0.11-0.15-0.26-0.23-0.45
				l-1.09-2.47l-0.42,2.23c-0.04,0.2-0.13,0.34-0.27,0.45c-0.15,0.1-0.32,0.13-0.51,0.1c-0.2-0.04-0.34-0.13-0.45-0.28
				c-0.1-0.15-0.13-0.32-0.1-0.51l0.7-3.73c0.05-0.26,0.16-0.46,0.33-0.57c0.17-0.12,0.37-0.15,0.61-0.11
				c0.22,0.04,0.39,0.13,0.51,0.27c0.13,0.14,0.25,0.35,0.37,0.63l1.09,2.56l0.43-2.32c0.04-0.2,0.13-0.34,0.27-0.45
				c0.15-0.1,0.32-0.13,0.51-0.1C37.05,4.29,37.19,4.38,37.3,4.53z"/>
		</g>
		<g>
			<path class="st0" d="M39.21,5.2c0.16-0.07,0.33-0.08,0.52-0.01c0.19,0.07,0.32,0.18,0.39,0.34c0.07,0.16,0.08,0.34,0.01,0.52
				l-1.36,3.71c-0.07,0.19-0.18,0.32-0.34,0.39c-0.16,0.08-0.33,0.08-0.52,0.01c-0.19-0.07-0.32-0.18-0.39-0.34
				c-0.08-0.16-0.08-0.34-0.01-0.52l1.36-3.71C38.94,5.41,39.05,5.28,39.21,5.2z"/>
		</g>
		<g>
			<path class="st0" d="M40.92,7.51c0.2-0.2,0.42-0.36,0.67-0.49c0.25-0.12,0.51-0.2,0.78-0.24c0.27-0.04,0.56-0.02,0.87,0.04
				c0.31,0.06,0.62,0.18,0.93,0.36c0.29,0.16,0.54,0.35,0.75,0.57s0.35,0.44,0.43,0.67c0.08,0.23,0.06,0.43-0.03,0.61
				c-0.1,0.17-0.22,0.27-0.37,0.31c-0.15,0.03-0.31,0-0.47-0.08c-0.11-0.06-0.21-0.15-0.3-0.26c-0.09-0.11-0.19-0.23-0.3-0.35
				c-0.11-0.12-0.25-0.23-0.42-0.32c-0.37-0.2-0.71-0.25-1.03-0.12c-0.32,0.12-0.58,0.36-0.77,0.72c-0.2,0.36-0.26,0.7-0.2,1.03
				c0.07,0.33,0.28,0.6,0.65,0.81c0.17,0.09,0.33,0.15,0.5,0.18c0.16,0.03,0.31,0.05,0.45,0.06c0.14,0.01,0.27,0.05,0.38,0.12
				c0.16,0.09,0.26,0.21,0.32,0.35c0.05,0.15,0.03,0.31-0.06,0.48c-0.1,0.18-0.27,0.3-0.5,0.36c-0.24,0.06-0.5,0.06-0.8,0
				c-0.3-0.06-0.59-0.17-0.88-0.33c-0.31-0.17-0.58-0.37-0.79-0.6c-0.22-0.23-0.38-0.47-0.5-0.72c-0.11-0.25-0.18-0.51-0.21-0.79
				s-0.01-0.55,0.06-0.83c0.06-0.28,0.17-0.55,0.32-0.81C40.55,7.94,40.72,7.71,40.92,7.51z"/>
		</g>
		<g>
			<path class="st0" d="M48.17,15.03c-0.33,0.16-0.67,0.25-1.02,0.26c-0.35,0.02-0.69-0.03-1.04-0.14c-0.35-0.12-0.66-0.3-0.94-0.54
				c-0.37-0.33-0.63-0.72-0.79-1.19c-0.15-0.47-0.18-0.94-0.09-1.42c0.1-0.48,0.31-0.9,0.63-1.27c0.25-0.28,0.54-0.5,0.87-0.65
				c0.33-0.16,0.67-0.24,1.02-0.26c0.34-0.02,0.69,0.03,1.04,0.14c0.35,0.12,0.67,0.3,0.94,0.54c0.37,0.33,0.63,0.72,0.78,1.19
				c0.15,0.46,0.18,0.94,0.09,1.41c-0.1,0.48-0.31,0.9-0.64,1.27C48.79,14.65,48.5,14.87,48.17,15.03z M48.32,12.42
				c-0.01-0.37-0.15-0.68-0.42-0.92c-0.27-0.24-0.59-0.34-0.96-0.3c-0.37,0.03-0.68,0.2-0.94,0.49c-0.26,0.29-0.38,0.62-0.37,0.99
				c0.01,0.37,0.15,0.68,0.42,0.92c0.27,0.24,0.59,0.34,0.96,0.31s0.68-0.2,0.94-0.49C48.21,13.13,48.33,12.8,48.32,12.42z"/>
		</g>
	</g>
	<g>
		<g>
			<path class="st0" d="M49.9,18.91c3.9,6.15,4.84,13.74,2.46,20.64c-2.02,5.85-6.41,10.7-11.93,13.44
				c-11.6,5.75-25.96,0.66-31.67-10.84c-3.67-7.4-3.01-16.3,1.37-23.24c1.05-1.67-1.59-3.21-2.64-1.54
				c-4.38,6.94-5.45,15.75-2.6,23.48c2.41,6.53,7.31,12.04,13.62,15.01c6.51,3.07,14.18,3.47,20.93,0.88
				c6.49-2.49,11.95-7.46,14.84-13.81c3.75-8.23,3.12-17.91-1.74-25.57C51.49,15.71,48.84,17.24,49.9,18.91L49.9,18.91z"/>
		</g>
	</g>
	<g>
		<g>
			<g>
				<path class="st0" d="M44.85,26.9c1.98,7.97-2.61,16.3-10.54,18.61c-6.95,2.03-14.54-1.22-17.89-7.62
					c-1.89-3.61-2.21-7.79-1.04-11.68c0.28-0.95-1.19-1.35-1.48-0.41c-2.3,7.69,1.11,16.2,8.29,19.93
					c7.09,3.69,16.09,1.82,21.05-4.48c3.29-4.17,4.37-9.62,3.09-14.76C46.09,25.53,44.61,25.94,44.85,26.9L44.85,26.9z"/>
			</g>
		</g>
		<g>
			<g>
				<path class="st0" d="M16.72,38.22c1.05-0.84,2.09-1.67,3.14-2.51c1.49-1.19,2.9-2.2,4.91-2.27c1.44-0.05,3.05,0.14,4.45-0.25
					c0.77-0.21,1.5-0.64,2.22-0.99c0.21-0.11,0.58-0.38,0.81-0.4c0.54-0.03,0.54,0.41,0.19,0.68c-0.55,0.44-1.41,0.7-2.04,1.01
					c-0.59,0.29-1.18,0.58-1.77,0.87c-0.88,0.44-0.11,1.76,0.77,1.32c1.27-0.63,2.61-1.18,3.83-1.89c1.06-0.62,1.36-2.09,0.45-2.99
					c-0.84-0.83-1.82-0.51-2.74-0.06c-0.86,0.42-1.77,0.99-2.74,1.09c-0.81,0.08-1.65,0.04-2.46,0.06
					c-1.08,0.02-2.14,0.04-3.18,0.37c-1.06,0.34-1.97,0.91-2.83,1.59c-1.37,1.09-2.73,2.18-4.1,3.28
					C14.87,37.76,15.96,38.83,16.72,38.22L16.72,38.22z"/>
			</g>
		</g>
		<g>
			<g>
				<path class="st0" d="M30.31,35.19c0.91,0.37,1.82,0.84,2.81,0.92c1.29,0.11,2.34-0.43,3.36-1.14c0.73-0.52,1.46-1.17,2.25-1.59
					c0.59-0.31,1.09,0.17,0.66,0.74c-0.23,0.3-0.58,0.55-0.86,0.81c-1.85,1.76-3.55,3.74-6.34,3.74c-1.7,0-3.41-0.36-5.11-0.31
					c-2.9,0.1-4.7,2.13-6.66,3.97c-0.72,0.67,0.36,1.75,1.08,1.08c1.84-1.72,3.46-3.64,6.23-3.51c2.14,0.11,4.45,0.6,6.55,0
					c2.41-0.69,4.12-2.74,5.88-4.41c0.85-0.8,1.34-1.93,0.54-2.98c-0.8-1.05-2.07-0.93-3.05-0.24c-0.83,0.59-1.65,1.21-2.5,1.77
					c-1.54,1.01-2.93,0.28-4.42-0.33C29.81,33.34,29.41,34.82,30.31,35.19L30.31,35.19z"/>
			</g>
		</g>
		<g>
			<g>
				<path class="st0" d="M26.42,32.29c0.05-2.85,3.06-4.62,5.67-4.16c1.17,0.21,2.28,0.74,3.08,1.64c0.91,1.02,1.12,2.37,0.97,3.69
					c-0.05,0.41,0.39,0.76,0.76,0.76c0.45,0,0.72-0.36,0.76-0.76c0.3-2.66-1.01-5.16-3.48-6.27c-2.49-1.12-5.45-0.82-7.48,1.09
					c-1.11,1.04-1.79,2.48-1.82,4.01C24.87,33.28,26.4,33.28,26.42,32.29L26.42,32.29z"/>
			</g>
		</g>
		<g>
			<g>
				<path class="st0" d="M31.49,27.39c0.12-0.71,0.16-1.43,0.14-2.15c-0.03-1.18-0.23-2.46-1.02-3.38
					c-0.32-0.37-0.86,0.17-0.54,0.54c0.67,0.79,0.78,1.97,0.8,2.96c0.01,0.45-0.01,0.9-0.06,1.34c-0.01,0.07-0.01,0.14-0.02,0.21
					c0,0.03-0.03,0.25-0.01,0.11c-0.01,0.05-0.01,0.1-0.02,0.16C30.67,27.67,31.41,27.88,31.49,27.39L31.49,27.39z"/>
			</g>
		</g>
		<g>
			<path class="st0" d="M30.9,23.17c0,0-0.83-0.61-1.7-0.64s-3.07-0.17-3.86-2.02c-0.79-1.85-0.5-3.82-0.17-3.93
				c0.33-0.1,0.5,0.74,1.29,1.09c0.79,0.34,3.11,0.96,3.73,2.46C30.8,21.64,30.9,23.17,30.9,23.17z"/>
		</g>
		<g>
			<path class="st0" d="M31.04,24.1c0,0,0.89-0.5,1.76-0.42c0.87,0.08,3.05,0.2,4.05-1.53c1-1.73,0.95-3.71,0.64-3.85
				c-0.31-0.14-0.58,0.67-1.41,0.92c-0.82,0.24-3.18,0.57-3.97,1.98C31.32,22.61,31.04,24.1,31.04,24.1z"/>
		</g>
	</g>
</g>
</svg>
