<?xml version="1.0" encoding="utf-8"?>
<!-- Generator: Adobe Illustrator 27.0.0, SVG Export Plug-In . SVG Version: 6.00 Build 0)  -->
<svg version="1.1" id="Capa_1" xmlns="http://www.w3.org/2000/svg" xmlns:xlink="http://www.w3.org/1999/xlink" x="0px" y="0px"
	 viewBox="0 0 60 60" style="enable-background:new 0 0 60 60;" xml:space="preserve">
<style type="text/css">
	.st0{fill:#2D3B2B;}
</style>
<g>
	<g>
		<g>
			<path class="st0" d="M23.99,7.19c0.05-0.07,0.12-0.11,0.21-0.12c0.06-0.01,0.14,0,0.26,0.04c0.11,0.04,0.23,0.08,0.36,0.12
				c0.12,0.05,0.29,0.08,0.49,0.1c0.2,0.02,0.41,0.01,0.63-0.02c0.31-0.05,0.54-0.17,0.71-0.35c0.16-0.18,0.22-0.38,0.18-0.63
				C26.79,6.2,26.74,6.09,26.65,6c-0.09-0.09-0.19-0.16-0.31-0.21c-0.13-0.05-0.26-0.09-0.42-0.12c-0.16-0.03-0.32-0.06-0.49-0.08
				c-0.17-0.02-0.34-0.05-0.51-0.07c-0.17-0.03-0.34-0.07-0.5-0.12c-0.16-0.05-0.3-0.12-0.43-0.2C23.85,5.11,23.74,5,23.65,4.86
				c-0.09-0.14-0.16-0.3-0.19-0.49c-0.07-0.42,0.03-0.78,0.31-1.1c0.28-0.32,0.69-0.52,1.23-0.62c0.47-0.08,0.88-0.07,1.25,0.03
				c0.37,0.1,0.57,0.26,0.61,0.46c0.02,0.09,0,0.16-0.05,0.23s-0.12,0.1-0.21,0.12c-0.06,0.01-0.15,0-0.25-0.02
				c-0.11-0.03-0.21-0.05-0.32-0.09c-0.11-0.03-0.25-0.05-0.43-0.07c-0.18-0.01-0.37,0-0.56,0.03c-0.28,0.05-0.5,0.15-0.65,0.31
				C24.24,3.82,24.18,4,24.22,4.2c0.02,0.12,0.07,0.22,0.16,0.31c0.08,0.08,0.19,0.15,0.31,0.19c0.12,0.04,0.26,0.08,0.41,0.11
				c0.16,0.03,0.32,0.05,0.49,0.08c0.17,0.02,0.34,0.05,0.51,0.08c0.17,0.03,0.34,0.07,0.5,0.13c0.16,0.05,0.3,0.12,0.43,0.21
				c0.13,0.08,0.24,0.2,0.34,0.34c0.09,0.15,0.16,0.32,0.2,0.51c0.08,0.46-0.02,0.85-0.3,1.19c-0.28,0.34-0.71,0.55-1.27,0.66
				c-0.32,0.06-0.64,0.07-0.95,0.03c-0.31-0.04-0.56-0.11-0.76-0.22c-0.2-0.11-0.31-0.24-0.34-0.39
				C23.93,7.33,23.95,7.25,23.99,7.19z"/>
		</g>
		<g>
			<path class="st0" d="M28.66,2.42c0.07-0.07,0.15-0.11,0.26-0.11c0.11,0,0.2,0.03,0.27,0.09c0.07,0.07,0.11,0.15,0.12,0.26
				l0.18,4.53c0,0.11-0.03,0.2-0.09,0.27c-0.07,0.07-0.16,0.11-0.26,0.11c-0.11,0-0.2-0.03-0.27-0.09
				c-0.07-0.07-0.11-0.15-0.12-0.26l-0.18-4.53C28.56,2.58,28.6,2.49,28.66,2.42z"/>
		</g>
		<g>
			<path class="st0" d="M35.76,2.9c0.06,0.08,0.08,0.17,0.07,0.27l-0.57,4.4c-0.02,0.14-0.07,0.25-0.15,0.32
				c-0.08,0.07-0.18,0.1-0.3,0.09c-0.13-0.02-0.24-0.06-0.31-0.13c-0.08-0.07-0.16-0.19-0.25-0.34l-2.2-3.9l-0.46,3.58
				c-0.01,0.11-0.06,0.19-0.14,0.25c-0.08,0.06-0.17,0.08-0.28,0.07c-0.11-0.01-0.19-0.06-0.25-0.14S30.83,7.2,30.85,7.1l0.57-4.4
				c0.02-0.15,0.07-0.26,0.16-0.33c0.08-0.07,0.19-0.1,0.33-0.08c0.12,0.02,0.21,0.06,0.28,0.13c0.07,0.07,0.15,0.18,0.22,0.32
				l2.23,3.97l0.47-3.63c0.01-0.11,0.06-0.19,0.14-0.25c0.08-0.06,0.17-0.08,0.27-0.07C35.62,2.77,35.7,2.82,35.76,2.9z"/>
		</g>
	</g>
	<g>
		<g>
			<path class="st0" d="M10.18,39.57c0.16,0.05,0.28,0.16,0.37,0.32l0.59,1.13c0.31,0.59,0.41,1.14,0.3,1.65
				c-0.11,0.51-0.4,0.89-0.89,1.14c-0.49,0.26-0.98,0.28-1.46,0.08c-0.48-0.2-0.88-0.6-1.19-1.2l-0.25-0.48L6.8,42.65
				c-0.18,0.09-0.35,0.11-0.52,0.06c-0.17-0.05-0.3-0.17-0.39-0.34c-0.09-0.18-0.11-0.35-0.06-0.52c0.05-0.17,0.17-0.3,0.35-0.39
				l3.52-1.83C9.86,39.54,10.02,39.52,10.18,39.57z M8.69,41.67l0.3,0.59c0.09,0.18,0.22,0.3,0.38,0.35
				c0.16,0.05,0.33,0.04,0.51-0.05c0.17-0.09,0.27-0.21,0.32-0.38c0.05-0.16,0.02-0.34-0.07-0.51l-0.3-0.59L8.69,41.67z"/>
		</g>
		<g>
			<path class="st0" d="M11.4,48.58c-0.08,0.23-0.2,0.4-0.35,0.53c-0.13,0.1-0.27,0.14-0.42,0.12c-0.15-0.02-0.29-0.11-0.41-0.26
				c-0.1-0.13-0.16-0.26-0.17-0.4c-0.01-0.14,0.02-0.31,0.1-0.5l0.56-1.33l-0.34-0.42l-0.86,0.7c-0.16,0.13-0.32,0.18-0.5,0.16
				c-0.18-0.02-0.33-0.1-0.45-0.26c-0.13-0.15-0.18-0.32-0.16-0.5c0.02-0.18,0.11-0.33,0.26-0.45l3.08-2.49
				c0.14-0.12,0.3-0.16,0.46-0.15c0.17,0.02,0.31,0.1,0.42,0.24l0.8,0.99c0.42,0.52,0.63,1.03,0.64,1.55
				c0.01,0.51-0.19,0.93-0.59,1.26c-0.25,0.2-0.52,0.32-0.82,0.36c-0.29,0.04-0.59-0.01-0.88-0.14L11.4,48.58z M11.29,45.57
				l0.42,0.51c0.13,0.16,0.27,0.25,0.43,0.28c0.16,0.03,0.31-0.01,0.44-0.12c0.13-0.1,0.19-0.24,0.19-0.4
				c0-0.16-0.06-0.32-0.19-0.47l-0.42-0.51L11.29,45.57z"/>
		</g>
		<g>
			<path class="st0" d="M15.15,46.76c0.17-0.01,0.32,0.04,0.46,0.16l1.73,1.46c0.14,0.12,0.22,0.26,0.23,0.43
				c0.01,0.17-0.04,0.32-0.16,0.47c-0.12,0.14-0.26,0.22-0.43,0.23c-0.17,0.01-0.32-0.04-0.46-0.16l-1.18-0.99l-0.44,0.52l0.93,0.78
				c0.14,0.12,0.22,0.26,0.23,0.43c0.01,0.17-0.04,0.32-0.16,0.46c-0.12,0.14-0.26,0.22-0.43,0.23c-0.17,0.01-0.32-0.04-0.46-0.16
				l-0.93-0.78l-0.49,0.58l1.18,0.99c0.14,0.12,0.22,0.26,0.23,0.43c0.01,0.17-0.04,0.32-0.16,0.46c-0.12,0.14-0.26,0.22-0.43,0.23
				c-0.17,0.01-0.32-0.04-0.46-0.16l-1.73-1.46c-0.14-0.12-0.22-0.26-0.23-0.43c-0.01-0.17,0.04-0.32,0.16-0.46l2.56-3.04
				C14.84,46.85,14.99,46.78,15.15,46.76z"/>
		</g>
		<g>
			<path class="st0" d="M16.15,52.3c0.14-0.04,0.29-0.01,0.44,0.07c0.1,0.06,0.21,0.15,0.31,0.28c0.1,0.13,0.22,0.26,0.34,0.4
				c0.13,0.14,0.27,0.26,0.43,0.35c0.15,0.09,0.29,0.13,0.42,0.14c0.13,0,0.22-0.04,0.28-0.15c0.05-0.08,0.04-0.18-0.01-0.29
				c-0.05-0.11-0.13-0.23-0.24-0.35c-0.11-0.12-0.23-0.26-0.37-0.4c-0.14-0.14-0.27-0.3-0.39-0.46c-0.12-0.17-0.22-0.34-0.3-0.52
				c-0.08-0.18-0.11-0.38-0.1-0.59c0.01-0.22,0.08-0.44,0.2-0.65c0.24-0.42,0.59-0.66,1.06-0.74c0.47-0.08,0.99,0.04,1.54,0.36
				c0.29,0.17,0.54,0.34,0.74,0.54c0.2,0.19,0.34,0.4,0.41,0.63c0.07,0.23,0.05,0.44-0.06,0.64c-0.08,0.14-0.19,0.22-0.33,0.26
				c-0.14,0.04-0.29,0.02-0.44-0.07c-0.11-0.06-0.21-0.15-0.32-0.27c-0.1-0.12-0.22-0.24-0.35-0.37c-0.13-0.13-0.28-0.25-0.45-0.34
				c-0.26-0.15-0.44-0.13-0.54,0.04c-0.04,0.08-0.04,0.17,0.01,0.28c0.05,0.11,0.13,0.22,0.24,0.34c0.11,0.12,0.23,0.25,0.36,0.39
				c0.13,0.14,0.26,0.29,0.38,0.46c0.12,0.17,0.22,0.34,0.29,0.51c0.08,0.17,0.11,0.37,0.1,0.58c-0.01,0.21-0.08,0.43-0.2,0.64
				c-0.24,0.43-0.61,0.7-1.09,0.79c-0.48,0.09-1-0.02-1.56-0.34c-0.3-0.17-0.55-0.36-0.76-0.57c-0.21-0.21-0.35-0.43-0.43-0.67
				c-0.08-0.24-0.06-0.46,0.05-0.66C15.89,52.42,16,52.33,16.15,52.3z"/>
		</g>
		<g>
			<path class="st0" d="M21.71,51.08C21.86,51,22.02,51,22.2,51.06l2.14,0.73c0.17,0.06,0.3,0.16,0.37,0.32
				c0.07,0.15,0.08,0.31,0.02,0.49c-0.06,0.17-0.16,0.3-0.31,0.37c-0.15,0.07-0.31,0.08-0.49,0.02l-1.46-0.5l-0.22,0.65l1.15,0.39
				c0.17,0.06,0.3,0.16,0.37,0.31c0.07,0.15,0.08,0.31,0.02,0.49c-0.06,0.17-0.16,0.3-0.31,0.37c-0.15,0.07-0.31,0.08-0.49,0.02
				l-1.15-0.39l-0.25,0.71l1.46,0.5c0.17,0.06,0.3,0.16,0.37,0.31c0.07,0.15,0.08,0.31,0.02,0.49c-0.06,0.17-0.16,0.3-0.31,0.37
				c-0.15,0.07-0.31,0.08-0.49,0.02L20.5,56c-0.17-0.06-0.3-0.16-0.37-0.31c-0.07-0.15-0.08-0.31-0.02-0.49l1.29-3.76
				C21.46,51.27,21.56,51.15,21.71,51.08z"/>
		</g>
		<g>
			<path class="st0" d="M28.28,56.62c0.1,0.22,0.13,0.43,0.1,0.63c-0.02,0.16-0.1,0.29-0.22,0.37c-0.13,0.09-0.28,0.12-0.48,0.09
				c-0.16-0.02-0.3-0.08-0.4-0.18c-0.1-0.1-0.19-0.24-0.26-0.43l-0.51-1.35l-0.53-0.07l-0.15,1.1c-0.03,0.2-0.11,0.35-0.25,0.46
				c-0.14,0.11-0.31,0.15-0.5,0.12c-0.2-0.03-0.35-0.11-0.46-0.25c-0.11-0.14-0.15-0.31-0.12-0.51l0.54-3.93
				c0.02-0.18,0.1-0.32,0.24-0.42c0.13-0.1,0.29-0.14,0.47-0.11L27,52.29c0.66,0.09,1.17,0.32,1.53,0.69
				c0.36,0.37,0.5,0.81,0.43,1.33c-0.04,0.32-0.16,0.6-0.35,0.82c-0.19,0.23-0.44,0.4-0.74,0.51L28.28,56.62z M26.14,54.5l0.66,0.09
				c0.2,0.03,0.37,0,0.51-0.09c0.14-0.09,0.22-0.22,0.24-0.39c0.02-0.16-0.02-0.3-0.13-0.42c-0.11-0.12-0.26-0.19-0.47-0.22
				l-0.66-0.09L26.14,54.5z"/>
		</g>
		<g>
			<path class="st0" d="M33.84,52.53c0.12,0.18,0.13,0.43,0.04,0.74l-1.04,3.5c-0.09,0.29-0.21,0.52-0.37,0.67
				c-0.16,0.16-0.37,0.24-0.63,0.26c-0.26,0.02-0.48-0.04-0.66-0.17s-0.33-0.34-0.46-0.62L29.2,53.6c-0.13-0.29-0.14-0.53-0.03-0.73
				c0.11-0.2,0.3-0.31,0.57-0.33c0.18-0.01,0.33,0.03,0.46,0.14c0.13,0.1,0.24,0.27,0.33,0.5l1.25,2.98l0.82-3.12
				c0.06-0.24,0.15-0.41,0.25-0.53c0.1-0.12,0.25-0.19,0.44-0.2C33.53,52.27,33.72,52.35,33.84,52.53z"/>
		</g>
		<g>
			<path class="st0" d="M39.62,55.8c-0.05,0.21-0.2,0.36-0.46,0.43c-0.35,0.1-0.67-0.05-0.96-0.44l-0.22-0.29l-2.01,0.57l-0.03,0.36
				c-0.02,0.26-0.07,0.45-0.15,0.59c-0.07,0.13-0.21,0.23-0.39,0.28c-0.25,0.07-0.45,0.03-0.6-0.13c-0.15-0.16-0.21-0.39-0.18-0.71
				l0.42-3.69c0.04-0.33,0.12-0.58,0.24-0.75c0.12-0.17,0.31-0.29,0.57-0.37c0.26-0.07,0.48-0.07,0.67,0.01
				c0.19,0.08,0.38,0.25,0.59,0.52l2.3,2.91C39.6,55.36,39.67,55.59,39.62,55.8z M37.21,54.48l-0.99-1.34l-0.15,1.66L37.21,54.48z"
				/>
		</g>
		<g>
			<path class="st0" d="M42.49,48.77c0.17,0.05,0.31,0.16,0.41,0.33l1.88,3.29c0.13,0.22,0.17,0.44,0.13,0.63
				c-0.04,0.2-0.17,0.35-0.36,0.47c-0.14,0.08-0.29,0.13-0.43,0.14c-0.15,0.01-0.28,0-0.4-0.04s-0.28-0.1-0.46-0.19l-2.42-1.17
				l1.12,1.97c0.1,0.17,0.13,0.34,0.08,0.52c-0.05,0.17-0.15,0.31-0.32,0.4c-0.17,0.1-0.34,0.13-0.52,0.08
				c-0.17-0.05-0.31-0.16-0.41-0.33l-1.88-3.29c-0.13-0.23-0.17-0.45-0.12-0.65c0.05-0.2,0.18-0.36,0.39-0.48
				c0.19-0.11,0.38-0.15,0.57-0.13c0.19,0.02,0.42,0.11,0.69,0.24l2.48,1.24l-1.17-2.04c-0.1-0.17-0.13-0.35-0.08-0.52
				c0.05-0.17,0.15-0.31,0.32-0.4C42.15,48.75,42.32,48.72,42.49,48.77z"/>
		</g>
		<g>
			<path class="st0" d="M47.72,50.07c0.13,0.15,0.2,0.31,0.19,0.49c-0.01,0.18-0.09,0.33-0.23,0.46c-0.15,0.13-0.31,0.19-0.49,0.19
				c-0.18-0.01-0.33-0.09-0.47-0.24l-2.22-2.48l-0.6,0.53c-0.14,0.12-0.29,0.18-0.46,0.17S43.12,49.1,43,48.97
				c-0.12-0.14-0.18-0.29-0.17-0.46c0.01-0.17,0.08-0.31,0.22-0.43l2.21-1.98c0.14-0.12,0.29-0.18,0.46-0.17
				c0.17,0.01,0.31,0.09,0.44,0.22c0.12,0.14,0.18,0.29,0.17,0.46c-0.01,0.17-0.08,0.31-0.22,0.43l-0.6,0.54L47.72,50.07z"/>
		</g>
		<g>
			<path class="st0" d="M46.02,45.55c-0.02-0.17,0.03-0.32,0.14-0.47l1.39-1.78c0.11-0.15,0.25-0.23,0.42-0.25
				c0.17-0.02,0.32,0.03,0.47,0.14c0.15,0.11,0.23,0.25,0.25,0.42c0.02,0.17-0.03,0.32-0.14,0.47l-0.95,1.22l0.54,0.42l0.75-0.96
				c0.11-0.14,0.25-0.23,0.42-0.25c0.17-0.02,0.32,0.03,0.47,0.14c0.15,0.11,0.23,0.25,0.25,0.42c0.02,0.17-0.03,0.32-0.14,0.47
				l-0.75,0.96l0.59,0.46l0.95-1.22c0.11-0.14,0.25-0.23,0.42-0.25c0.17-0.02,0.32,0.03,0.47,0.14c0.15,0.11,0.23,0.25,0.25,0.42
				c0.02,0.17-0.03,0.32-0.14,0.47l-1.39,1.78c-0.11,0.14-0.25,0.23-0.42,0.25c-0.17,0.02-0.32-0.02-0.47-0.14l-3.13-2.44
				C46.12,45.86,46.04,45.72,46.02,45.55z"/>
		</g>
		<g>
			<path class="st0" d="M51.51,44.35c-0.04-0.14-0.02-0.29,0.06-0.44c0.06-0.11,0.14-0.21,0.27-0.32c0.12-0.11,0.25-0.23,0.39-0.36
				c0.14-0.13,0.25-0.28,0.33-0.45c0.08-0.16,0.12-0.3,0.12-0.42c0-0.13-0.05-0.22-0.16-0.27c-0.09-0.04-0.18-0.04-0.29,0.02
				c-0.11,0.05-0.22,0.14-0.34,0.25c-0.12,0.11-0.25,0.24-0.38,0.38c-0.14,0.14-0.29,0.28-0.45,0.4c-0.16,0.13-0.33,0.23-0.51,0.32
				c-0.18,0.09-0.37,0.13-0.59,0.13c-0.22,0-0.44-0.06-0.66-0.18c-0.42-0.22-0.68-0.56-0.78-1.03c-0.09-0.47,0.01-0.99,0.3-1.55
				c0.16-0.3,0.32-0.55,0.51-0.76c0.19-0.21,0.39-0.35,0.61-0.43c0.22-0.08,0.43-0.07,0.64,0.03c0.14,0.07,0.23,0.18,0.27,0.32
				c0.04,0.14,0.03,0.29-0.05,0.44c-0.06,0.11-0.14,0.22-0.26,0.33c-0.11,0.11-0.24,0.23-0.36,0.36c-0.13,0.13-0.24,0.29-0.33,0.46
				c-0.14,0.26-0.12,0.44,0.06,0.54c0.08,0.04,0.17,0.04,0.28-0.02c0.11-0.05,0.22-0.14,0.33-0.25c0.12-0.11,0.24-0.24,0.38-0.38
				c0.13-0.14,0.28-0.27,0.44-0.4c0.16-0.12,0.33-0.23,0.5-0.31c0.17-0.08,0.37-0.12,0.58-0.12c0.22,0,0.43,0.06,0.65,0.18
				c0.44,0.23,0.72,0.58,0.82,1.06s0.01,1-0.28,1.57c-0.16,0.3-0.34,0.56-0.54,0.78c-0.2,0.22-0.42,0.37-0.65,0.46
				c-0.24,0.09-0.46,0.08-0.66-0.03C51.64,44.6,51.55,44.5,51.51,44.35z"/>
		</g>
	</g>
	<g>
		<g>
			<g>
				<path class="st0" d="M23.13,25.65c1.56,1.59,3.11,3.19,4.67,4.78c0.63,0.64,1.23,1.34,1.9,1.94c0.72,0.65,1.7,1.1,2.52,1.61
					c1.12,0.7,2.28,1.68,3.69,1.12c0.97-0.39,1.61-1.38,1.53-2.44c-0.05-0.65-0.37-1.14-0.7-1.67c-0.53-0.84-1-1.85-1.67-2.58
					c-0.57-0.63-1.27-1.17-1.89-1.75c-1.86-1.72-3.72-3.43-5.58-5.15c-0.72-0.67-1.81,0.41-1.08,1.08c1.45,1.34,2.9,2.68,4.35,4.01
					c0.87,0.8,1.73,1.6,2.6,2.4c0.17,0.16,0.34,0.36,0.53,0.49c-0.04-0.03-0.14-0.23-0.01,0c0.12,0.21,0.27,0.42,0.4,0.63
					c0.36,0.56,0.71,1.12,1.07,1.68c0.27,0.42,0.63,0.86,0.4,1.39c-0.56,1.29-2.13-0.08-2.81-0.5c-0.56-0.35-1.11-0.7-1.67-1.05
					c-0.18-0.11-0.36-0.23-0.55-0.34c-0.19-0.11-0.16-0.16-0.04-0.01c-0.47-0.6-1.1-1.12-1.63-1.67c-1.65-1.69-3.3-3.38-4.94-5.07
					C23.52,23.86,22.44,24.95,23.13,25.65L23.13,25.65z"/>
			</g>
		</g>
		<g>
			<g>
				<path class="st0" d="M27,19.55c-1.65,1.65-3.29,3.29-4.94,4.94c-0.23,0.23-0.47,0.47-0.7,0.7c-0.7,0.7,0.38,1.78,1.08,1.08
					c1.65-1.65,3.29-3.29,4.94-4.94c0.23-0.23,0.47-0.47,0.7-0.7C28.77,19.93,27.69,18.85,27,19.55L27,19.55z"/>
			</g>
		</g>
		<g>
			<path class="st0" d="M39.28,40.25c0,1.2-0.97,2.17-2.17,2.17c-1.2,0-2.17-0.97-2.17-2.17c0-1.2,2.17-3.64,2.17-3.64
				S39.28,39.06,39.28,40.25z"/>
		</g>
		<g>
			<path class="st0" d="M23.1,23.95l-1.7-1.58c-0.92-0.85-0.92-2.3,0-3.16l0,0c0.87-0.82,2.24-0.76,3.06,0.11l1.5,1.62"/>
		</g>
	</g>
	<g>
		<g>
			<path class="st0" d="M38.87,8.77c10.58,4.31,16.55,15.95,14.01,27.07c-0.44,1.92,2.51,2.74,2.95,0.81
				c2.94-12.88-3.97-25.87-16.14-30.83C37.86,5.07,37.07,8.03,38.87,8.77L38.87,8.77z"/>
		</g>
	</g>
	<g>
		<g>
			<path class="st0" d="M7.12,35.83c-2.53-11.08,3.31-22.3,13.61-26.9c1.79-0.8,0.24-3.44-1.54-2.64
				C7.6,11.46,1.35,24.33,4.16,36.65C4.6,38.57,7.55,37.75,7.12,35.83L7.12,35.83z"/>
		</g>
	</g>
</g>
</svg>
