<?xml version="1.0" encoding="utf-8"?>
<!-- Generator: Adobe Illustrator 27.0.0, SVG Export Plug-In . SVG Version: 6.00 Build 0)  -->
<svg version="1.1" id="Capa_1" xmlns="http://www.w3.org/2000/svg" xmlns:xlink="http://www.w3.org/1999/xlink" x="0px" y="0px"
	 viewBox="0 0 60 60" style="enable-background:new 0 0 60 60;" xml:space="preserve">
<style type="text/css">
	.st0{fill:#2D3B2B;}
</style>
<g>
	<g>
		<g>
			<path class="st0" d="M9.05,11.89c0-0.09,0.04-0.18,0.11-0.25l1.06-1.04c0.43-0.42,0.88-0.65,1.35-0.7
				c0.47-0.04,0.89,0.11,1.24,0.47c0.35,0.36,0.5,0.77,0.45,1.25c-0.05,0.48-0.29,0.93-0.72,1.36l-0.76,0.75l1.1,1.11
				c0.07,0.08,0.11,0.16,0.11,0.26c0,0.1-0.04,0.19-0.12,0.26c-0.08,0.07-0.16,0.11-0.26,0.11c-0.1,0-0.19-0.04-0.26-0.11
				l-3.19-3.22C9.08,12.07,9.05,11.98,9.05,11.89z M11.3,13.26l0.82-0.81c0.25-0.25,0.39-0.51,0.41-0.79s-0.07-0.53-0.28-0.74
				c-0.21-0.22-0.46-0.31-0.74-0.29c-0.28,0.02-0.54,0.16-0.79,0.4L9.9,11.84L11.3,13.26z"/>
		</g>
		<g>
			<path class="st0" d="M13.3,8.05c0.02-0.09,0.07-0.17,0.15-0.22l2.24-1.49c0.09-0.06,0.17-0.08,0.26-0.06
				c0.09,0.02,0.16,0.07,0.22,0.16c0.06,0.08,0.07,0.17,0.05,0.26c-0.02,0.09-0.07,0.16-0.16,0.22l-1.91,1.27l0.87,1.31l1.63-1.09
				c0.08-0.06,0.17-0.08,0.26-0.06c0.09,0.02,0.16,0.07,0.22,0.15c0.06,0.08,0.08,0.17,0.06,0.26c-0.02,0.09-0.07,0.17-0.15,0.22
				l-1.63,1.09l0.88,1.32l1.91-1.27c0.09-0.06,0.18-0.08,0.26-0.06c0.09,0.02,0.16,0.07,0.22,0.16c0.06,0.08,0.07,0.17,0.05,0.26
				c-0.02,0.09-0.07,0.16-0.16,0.22l-2.23,1.49c-0.08,0.06-0.17,0.07-0.26,0.06c-0.09-0.02-0.17-0.07-0.22-0.15l-2.51-3.77
				C13.3,8.23,13.28,8.14,13.3,8.05z"/>
		</g>
		<g>
			<path class="st0" d="M24.41,9.09c0.03,0.07,0.03,0.15,0,0.23c-0.03,0.08-0.09,0.14-0.18,0.17c-0.1,0.04-0.23,0.04-0.37,0.02
				l-1.89-0.24c-0.05,0.02-0.13,0.06-0.24,0.1c-0.34,0.13-0.69,0.19-1.05,0.17c-0.36-0.01-0.69-0.09-1-0.23
				c-0.31-0.14-0.59-0.34-0.84-0.6c-0.25-0.26-0.44-0.56-0.58-0.91c-0.13-0.34-0.19-0.7-0.18-1.06c0.01-0.36,0.08-0.7,0.22-1.01
				c0.14-0.31,0.33-0.59,0.59-0.85c0.26-0.25,0.55-0.44,0.89-0.57c0.34-0.13,0.69-0.19,1.05-0.17c0.36,0.02,0.7,0.09,1.01,0.24
				c0.31,0.14,0.59,0.34,0.84,0.61c0.25,0.26,0.45,0.57,0.58,0.91c0.19,0.49,0.23,1,0.13,1.51c-0.1,0.51-0.33,0.95-0.68,1.32
				l1.33,0.15C24.25,8.9,24.37,8.97,24.41,9.09z M19.41,8.19c0.18,0.19,0.38,0.34,0.6,0.44c0.22,0.1,0.46,0.16,0.72,0.18
				c0.25,0.01,0.5-0.02,0.74-0.12c0.32-0.12,0.59-0.32,0.8-0.59c0.21-0.27,0.34-0.58,0.39-0.92s0.01-0.68-0.12-1.01
				c-0.13-0.34-0.33-0.62-0.6-0.84c-0.27-0.23-0.57-0.37-0.91-0.43c-0.34-0.06-0.67-0.03-0.99,0.09c-0.32,0.12-0.58,0.32-0.79,0.59
				c-0.21,0.27-0.33,0.58-0.38,0.92C18.82,6.84,18.87,7.19,19,7.52C19.09,7.77,19.23,8,19.41,8.19z"/>
		</g>
		<g>
			<path class="st0" d="M24.54,3.05c0.06-0.08,0.14-0.12,0.25-0.14c0.11-0.01,0.2,0.01,0.28,0.07c0.08,0.06,0.12,0.14,0.14,0.25
				l0.35,2.82c0.05,0.42,0.22,0.75,0.48,0.97c0.27,0.23,0.6,0.31,0.99,0.26c0.39-0.05,0.69-0.22,0.89-0.5
				c0.2-0.28,0.28-0.64,0.23-1.06L27.79,2.9c-0.01-0.11,0.01-0.2,0.07-0.27c0.06-0.08,0.14-0.12,0.25-0.14
				c0.11-0.01,0.2,0.01,0.28,0.07c0.08,0.06,0.12,0.14,0.14,0.25l0.35,2.82c0.08,0.64-0.04,1.18-0.37,1.61
				c-0.33,0.43-0.79,0.69-1.41,0.77c-0.61,0.08-1.13-0.05-1.54-0.4c-0.42-0.34-0.67-0.83-0.75-1.47l-0.35-2.82
				C24.45,3.22,24.48,3.12,24.54,3.05z"/>
		</g>
		<g>
			<path class="st0" d="M30.87,2.58c0.07-0.06,0.16-0.09,0.26-0.08l2.67,0.21c0.1,0.01,0.18,0.05,0.24,0.12
				c0.06,0.07,0.09,0.16,0.08,0.26c-0.01,0.1-0.05,0.18-0.12,0.24c-0.07,0.06-0.16,0.08-0.26,0.08l-2.28-0.18l-0.12,1.56l1.96,0.15
				c0.1,0.01,0.18,0.05,0.24,0.11c0.06,0.07,0.09,0.15,0.08,0.25s-0.05,0.18-0.12,0.24c-0.07,0.06-0.16,0.09-0.26,0.08l-1.96-0.15
				l-0.12,1.58l2.28,0.18c0.1,0.01,0.18,0.05,0.24,0.12c0.06,0.07,0.09,0.16,0.08,0.26c-0.01,0.1-0.05,0.18-0.12,0.24
				C33.59,7.9,33.5,7.93,33.4,7.92l-2.67-0.21c-0.1-0.01-0.18-0.05-0.24-0.12c-0.06-0.07-0.09-0.16-0.08-0.26l0.35-4.51
				C30.77,2.72,30.8,2.64,30.87,2.58z"/>
		</g>
		<g>
			<path class="st0" d="M40.18,4.4c0.04,0.09,0.05,0.18,0.02,0.28l-1.28,4.25c-0.04,0.14-0.11,0.24-0.2,0.3
				c-0.09,0.06-0.19,0.07-0.31,0.04c-0.13-0.04-0.22-0.1-0.29-0.18C38.06,8.99,38,8.87,37.94,8.7L36.4,4.5l-1.04,3.45
				c-0.03,0.1-0.09,0.18-0.18,0.22C35.1,8.21,35,8.22,34.89,8.19c-0.1-0.03-0.18-0.09-0.22-0.18c-0.05-0.09-0.05-0.18-0.02-0.28
				l1.28-4.24c0.04-0.14,0.11-0.24,0.21-0.3c0.1-0.06,0.21-0.07,0.34-0.03c0.11,0.03,0.2,0.09,0.26,0.17
				c0.06,0.08,0.11,0.2,0.16,0.35l1.55,4.28l1.06-3.5c0.03-0.1,0.09-0.18,0.18-0.22c0.09-0.05,0.18-0.05,0.28-0.02
				C40.06,4.25,40.13,4.31,40.18,4.4z M37.15,2.66c-0.03-0.05-0.03-0.11-0.01-0.18c0.04-0.15,0.16-0.27,0.34-0.37
				c0.18-0.1,0.37-0.12,0.57-0.06c0.1,0.03,0.2,0.09,0.3,0.16c0.09,0.08,0.17,0.15,0.23,0.23c0.06,0.08,0.13,0.15,0.21,0.22
				s0.16,0.12,0.24,0.15c0.07,0.02,0.14,0.02,0.21,0c0.07-0.02,0.13-0.05,0.17-0.08c0.04-0.04,0.09-0.07,0.15-0.09
				c0.05-0.02,0.1-0.03,0.15-0.01c0.06,0.02,0.1,0.05,0.13,0.11c0.02,0.05,0.03,0.11,0.01,0.17c-0.04,0.15-0.16,0.27-0.34,0.37
				c-0.18,0.1-0.37,0.12-0.57,0.06c-0.1-0.03-0.2-0.09-0.3-0.16c-0.09-0.08-0.17-0.15-0.23-0.23c-0.06-0.08-0.13-0.15-0.21-0.23
				c-0.08-0.07-0.16-0.12-0.24-0.15c-0.07-0.02-0.15-0.02-0.21,0c-0.07,0.02-0.13,0.05-0.17,0.08c-0.04,0.04-0.09,0.07-0.14,0.09
				s-0.1,0.03-0.14,0.02C37.22,2.75,37.17,2.71,37.15,2.66z"/>
		</g>
		<g>
			<path class="st0" d="M44.87,11.02c-0.29,0.21-0.61,0.36-0.94,0.44c-0.33,0.08-0.67,0.1-1.03,0.05c-0.36-0.05-0.69-0.17-1-0.36
				c-0.31-0.19-0.57-0.43-0.78-0.73c-0.21-0.29-0.35-0.61-0.43-0.94c-0.08-0.33-0.09-0.68-0.04-1.03c0.05-0.36,0.18-0.7,0.37-1.01
				c0.19-0.32,0.43-0.58,0.73-0.79c0.29-0.21,0.61-0.36,0.94-0.45c0.33-0.08,0.67-0.1,1.03-0.05c0.36,0.05,0.69,0.17,1,0.36
				c0.31,0.19,0.57,0.43,0.78,0.73c0.21,0.3,0.35,0.61,0.43,0.94c0.08,0.33,0.09,0.68,0.04,1.04c-0.05,0.36-0.18,0.7-0.37,1.02
				C45.41,10.55,45.16,10.81,44.87,11.02z M45.24,8.84c0.01-0.35-0.06-0.68-0.21-0.98c-0.16-0.3-0.38-0.55-0.68-0.73
				c-0.29-0.18-0.61-0.27-0.95-0.27c-0.34,0-0.66,0.09-0.97,0.26c-0.3,0.17-0.55,0.41-0.74,0.72c-0.14,0.23-0.23,0.47-0.27,0.74
				s-0.04,0.51,0.02,0.75c0.05,0.24,0.15,0.46,0.3,0.68c0.14,0.21,0.33,0.38,0.55,0.52c0.3,0.18,0.61,0.27,0.96,0.27
				c0.34,0,0.66-0.08,0.97-0.26c0.3-0.17,0.55-0.41,0.73-0.71C45.12,9.53,45.22,9.19,45.24,8.84z"/>
		</g>
		<g>
			<path class="st0" d="M45.4,12.19c0.08,0,0.15,0.03,0.22,0.09c0.04,0.04,0.08,0.12,0.12,0.23c0.04,0.11,0.07,0.23,0.11,0.36
				c0.04,0.13,0.11,0.28,0.21,0.46c0.1,0.18,0.23,0.34,0.39,0.49c0.23,0.22,0.46,0.34,0.69,0.37c0.24,0.03,0.44-0.05,0.61-0.22
				c0.09-0.1,0.15-0.21,0.18-0.33c0.02-0.12,0.02-0.25-0.02-0.38s-0.08-0.27-0.15-0.41c-0.07-0.14-0.14-0.29-0.22-0.44
				c-0.08-0.15-0.16-0.3-0.24-0.46c-0.08-0.15-0.14-0.31-0.19-0.47c-0.05-0.16-0.08-0.32-0.09-0.47c-0.01-0.15,0.01-0.31,0.07-0.47
				c0.06-0.16,0.15-0.3,0.28-0.44c0.29-0.3,0.65-0.43,1.07-0.39c0.42,0.04,0.82,0.25,1.22,0.63c0.34,0.33,0.58,0.67,0.71,1.03
				c0.13,0.36,0.13,0.61-0.02,0.76c-0.06,0.06-0.13,0.09-0.21,0.09c-0.08,0-0.15-0.03-0.22-0.1c-0.05-0.04-0.09-0.12-0.13-0.22
				c-0.04-0.1-0.08-0.2-0.12-0.31c-0.04-0.11-0.1-0.24-0.2-0.39c-0.1-0.15-0.21-0.3-0.35-0.43c-0.21-0.2-0.42-0.31-0.63-0.34
				c-0.21-0.03-0.39,0.03-0.53,0.18c-0.09,0.09-0.14,0.19-0.16,0.31c-0.02,0.12-0.01,0.24,0.03,0.36c0.04,0.12,0.09,0.26,0.16,0.4
				c0.07,0.14,0.14,0.29,0.22,0.44c0.08,0.15,0.16,0.3,0.24,0.46c0.08,0.16,0.14,0.31,0.19,0.47c0.05,0.16,0.08,0.32,0.09,0.47
				c0.01,0.15-0.02,0.31-0.08,0.47c-0.06,0.16-0.16,0.31-0.3,0.46c-0.32,0.33-0.7,0.49-1.14,0.46c-0.44-0.03-0.86-0.24-1.27-0.64
				c-0.24-0.23-0.43-0.48-0.58-0.75c-0.15-0.27-0.24-0.52-0.26-0.75s0.01-0.39,0.11-0.5C45.25,12.22,45.32,12.19,45.4,12.19z"/>
		</g>
	</g>
	<g>
		<g>
			<path class="st0" d="M10.44,40.36c0.16,0.05,0.29,0.15,0.37,0.31l0.62,1.11c0.32,0.58,0.44,1.13,0.34,1.65
				c-0.1,0.51-0.38,0.9-0.86,1.17c-0.49,0.27-0.97,0.31-1.46,0.11c-0.49-0.19-0.9-0.58-1.22-1.17l-0.26-0.48l-0.83,0.46
				c-0.17,0.1-0.35,0.12-0.52,0.07c-0.17-0.05-0.3-0.16-0.4-0.33c-0.1-0.17-0.12-0.35-0.07-0.52c0.05-0.17,0.16-0.31,0.33-0.4
				l3.47-1.92C10.12,40.34,10.28,40.32,10.44,40.36z M9.01,42.49l0.32,0.58c0.1,0.18,0.23,0.29,0.39,0.34
				c0.17,0.05,0.33,0.03,0.51-0.07c0.17-0.09,0.27-0.22,0.31-0.38s0.01-0.34-0.09-0.51l-0.32-0.58L9.01,42.49z"/>
		</g>
		<g>
			<path class="st0" d="M11.93,49.32c-0.08,0.23-0.19,0.41-0.34,0.54c-0.13,0.11-0.26,0.15-0.41,0.13c-0.15-0.02-0.29-0.1-0.42-0.25
				c-0.11-0.12-0.17-0.26-0.18-0.4c-0.01-0.14,0.01-0.31,0.09-0.5l0.52-1.35l-0.35-0.41L10,47.82C9.85,47.94,9.68,48,9.51,47.99
				c-0.18-0.01-0.33-0.09-0.46-0.24c-0.13-0.15-0.19-0.31-0.17-0.49c0.01-0.18,0.1-0.33,0.25-0.46l3-2.59
				c0.14-0.12,0.29-0.17,0.46-0.16c0.17,0.01,0.31,0.09,0.43,0.23l0.83,0.96c0.44,0.51,0.67,1.01,0.69,1.53
				c0.02,0.51-0.16,0.94-0.56,1.28c-0.25,0.21-0.52,0.34-0.81,0.39c-0.29,0.04-0.59,0.01-0.89-0.11L11.93,49.32z M11.73,46.32
				l0.43,0.5c0.13,0.15,0.28,0.24,0.44,0.27c0.16,0.03,0.31-0.02,0.44-0.13c0.12-0.11,0.18-0.24,0.18-0.4s-0.07-0.32-0.21-0.47
				l-0.43-0.5L11.73,46.32z"/>
		</g>
		<g>
			<path class="st0" d="M17.21,53c-0.32,0.18-0.65,0.3-0.99,0.35c-0.34,0.05-0.69,0.03-1.05-0.05c-0.36-0.09-0.69-0.24-0.99-0.46
				c-0.4-0.3-0.69-0.67-0.89-1.12c-0.19-0.45-0.26-0.92-0.21-1.4c0.05-0.49,0.23-0.93,0.52-1.32c0.22-0.3,0.49-0.54,0.81-0.73
				c0.32-0.18,0.65-0.3,0.99-0.35c0.34-0.05,0.69-0.03,1.05,0.05s0.69,0.24,0.99,0.46c0.4,0.3,0.69,0.67,0.88,1.12
				c0.19,0.45,0.26,0.92,0.21,1.4c-0.05,0.49-0.23,0.93-0.52,1.32C17.8,52.57,17.53,52.82,17.21,53z M17.14,50.39
				c-0.04-0.37-0.2-0.66-0.49-0.88c-0.29-0.21-0.62-0.29-0.98-0.22c-0.37,0.07-0.66,0.26-0.89,0.56s-0.32,0.65-0.28,1.02
				c0.04,0.37,0.21,0.66,0.5,0.88c0.29,0.21,0.61,0.29,0.98,0.22c0.36-0.07,0.66-0.25,0.89-0.56C17.08,51.1,17.18,50.76,17.14,50.39
				z"/>
		</g>
		<g>
			<path class="st0" d="M19.8,50.42c0.16-0.06,0.32-0.06,0.49,0.01l1.17,0.49c0.52,0.22,0.94,0.52,1.27,0.9
				c0.33,0.38,0.53,0.81,0.61,1.28c0.08,0.47,0.02,0.93-0.17,1.39c-0.19,0.46-0.48,0.82-0.87,1.08c-0.39,0.27-0.83,0.42-1.34,0.45
				s-1.01-0.06-1.53-0.28l-1.17-0.49c-0.17-0.07-0.28-0.18-0.35-0.34c-0.06-0.15-0.06-0.32,0.01-0.49l1.54-3.66
				C19.53,50.6,19.65,50.48,19.8,50.42z M19.45,54.38l0.46,0.19c0.42,0.18,0.81,0.21,1.17,0.09c0.35-0.12,0.61-0.37,0.77-0.74
				c0.16-0.37,0.15-0.73-0.01-1.06c-0.16-0.34-0.46-0.59-0.89-0.77l-0.45-0.19L19.45,54.38z"/>
		</g>
		<g>
			<path class="st0" d="M24.46,52.21c0.14-0.1,0.31-0.14,0.51-0.11c0.2,0.03,0.35,0.12,0.45,0.27c0.1,0.15,0.14,0.32,0.11,0.51
				l-0.38,2.3c-0.05,0.31-0.01,0.58,0.12,0.79c0.13,0.22,0.33,0.34,0.6,0.39c0.26,0.04,0.49-0.01,0.68-0.17
				c0.19-0.16,0.31-0.39,0.36-0.7l0.38-2.31c0.03-0.2,0.12-0.35,0.26-0.45c0.15-0.1,0.31-0.14,0.51-0.11
				c0.2,0.03,0.35,0.12,0.45,0.27c0.1,0.15,0.14,0.32,0.11,0.51l-0.39,2.33c-0.12,0.7-0.41,1.23-0.89,1.59
				c-0.48,0.36-1.05,0.48-1.72,0.37c-0.66-0.11-1.16-0.41-1.49-0.91c-0.33-0.49-0.44-1.09-0.32-1.79l0.39-2.33
				C24.22,52.47,24.31,52.32,24.46,52.21z"/>
		</g>
		<g>
			<path class="st0" d="M29.07,54.52c0.06-0.28,0.17-0.53,0.31-0.77c0.14-0.24,0.32-0.44,0.53-0.62c0.21-0.18,0.47-0.32,0.76-0.43
				c0.3-0.11,0.62-0.17,0.98-0.19c0.33-0.02,0.65,0.01,0.94,0.09c0.29,0.07,0.53,0.19,0.72,0.35c0.19,0.16,0.28,0.34,0.29,0.54
				c0.01,0.2-0.04,0.35-0.16,0.46c-0.12,0.11-0.26,0.17-0.44,0.18c-0.13,0.01-0.26-0.01-0.39-0.06s-0.28-0.1-0.44-0.14
				c-0.16-0.05-0.33-0.07-0.52-0.06c-0.42,0.02-0.74,0.17-0.94,0.44c-0.21,0.27-0.3,0.61-0.28,1.02c0.02,0.41,0.15,0.73,0.38,0.98
				c0.23,0.25,0.56,0.36,0.98,0.34c0.19-0.01,0.36-0.05,0.52-0.11c0.15-0.06,0.29-0.12,0.42-0.19c0.13-0.06,0.26-0.09,0.38-0.1
				c0.18-0.01,0.33,0.03,0.46,0.13c0.12,0.1,0.19,0.24,0.2,0.44c0.01,0.2-0.07,0.39-0.24,0.57c-0.17,0.17-0.4,0.31-0.68,0.42
				c-0.28,0.11-0.59,0.17-0.93,0.18c-0.36,0.02-0.69-0.01-0.99-0.09c-0.31-0.08-0.57-0.19-0.8-0.35c-0.23-0.15-0.43-0.34-0.59-0.56
				c-0.17-0.22-0.3-0.46-0.39-0.73c-0.09-0.27-0.14-0.56-0.16-0.86C28.98,55.09,29.01,54.8,29.07,54.52z"/>
		</g>
		<g>
			<path class="st0" d="M37.07,56.33c0.05,0.19,0.03,0.37-0.06,0.52c-0.09,0.15-0.23,0.25-0.42,0.3c-0.19,0.05-0.37,0.03-0.52-0.06
				c-0.15-0.09-0.26-0.23-0.3-0.43l-0.82-3.22l-0.77,0.2c-0.18,0.04-0.34,0.02-0.48-0.06c-0.14-0.09-0.24-0.22-0.28-0.4
				c-0.04-0.18-0.02-0.34,0.06-0.48c0.08-0.14,0.22-0.24,0.39-0.28l2.86-0.73c0.18-0.04,0.34-0.02,0.48,0.06
				c0.14,0.09,0.24,0.22,0.28,0.4c0.04,0.18,0.03,0.34-0.06,0.48c-0.08,0.14-0.21,0.24-0.39,0.28l-0.78,0.2L37.07,56.33z"/>
		</g>
		<g>
			<path class="st0" d="M43.3,52.7c0.02,0.37-0.03,0.71-0.14,1.04s-0.29,0.63-0.53,0.91c-0.24,0.28-0.53,0.5-0.86,0.66
				c-0.44,0.22-0.91,0.31-1.4,0.28c-0.49-0.03-0.94-0.19-1.34-0.46c-0.41-0.27-0.72-0.63-0.94-1.07c-0.16-0.33-0.26-0.68-0.27-1.05
				c-0.02-0.37,0.03-0.72,0.14-1.04c0.11-0.33,0.29-0.63,0.53-0.91c0.24-0.28,0.53-0.5,0.86-0.67c0.44-0.22,0.91-0.31,1.4-0.27
				c0.49,0.03,0.93,0.19,1.34,0.46c0.41,0.27,0.72,0.63,0.94,1.07C43.19,51.99,43.28,52.34,43.3,52.7z M40.95,51.57
				c-0.35-0.13-0.68-0.12-1.01,0.03c-0.32,0.16-0.54,0.42-0.65,0.77s-0.08,0.71,0.09,1.05c0.17,0.35,0.43,0.59,0.78,0.72
				s0.68,0.12,1.01-0.04c0.32-0.16,0.54-0.41,0.64-0.77c0.11-0.35,0.08-0.7-0.09-1.05C41.55,51.95,41.3,51.7,40.95,51.57z"/>
		</g>
		<g>
			<path class="st0" d="M47.45,49.92c0.23,0.08,0.41,0.2,0.53,0.35c0.1,0.13,0.15,0.27,0.12,0.42S48,50.98,47.85,51.1
				c-0.13,0.1-0.26,0.16-0.4,0.17c-0.14,0.01-0.31-0.02-0.5-0.1l-1.34-0.55l-0.42,0.34l0.71,0.86c0.13,0.15,0.18,0.32,0.17,0.5
				c-0.02,0.18-0.1,0.33-0.25,0.45c-0.15,0.13-0.32,0.18-0.5,0.16c-0.18-0.02-0.33-0.1-0.46-0.26l-2.52-3.07
				c-0.12-0.14-0.17-0.3-0.15-0.46s0.09-0.31,0.24-0.43l0.98-0.81c0.52-0.42,1.03-0.64,1.54-0.66c0.51-0.01,0.94,0.18,1.27,0.58
				c0.21,0.25,0.33,0.52,0.37,0.82c0.04,0.29,0,0.59-0.13,0.88L47.45,49.92z M44.44,50.06l0.51-0.42c0.16-0.13,0.25-0.27,0.28-0.43
				c0.03-0.16-0.01-0.31-0.12-0.44c-0.1-0.13-0.24-0.19-0.4-0.19c-0.16,0-0.32,0.07-0.47,0.2l-0.51,0.42L44.44,50.06z"/>
		</g>
		<g>
			<path class="st0" d="M45.59,46.22c-0.02-0.17,0.03-0.32,0.15-0.46l1.44-1.74c0.12-0.14,0.26-0.22,0.43-0.23
				c0.17-0.01,0.32,0.04,0.47,0.16c0.14,0.12,0.22,0.26,0.24,0.42s-0.03,0.32-0.15,0.46l-0.98,1.19l0.53,0.44l0.77-0.94
				c0.12-0.14,0.26-0.22,0.42-0.24c0.17-0.02,0.32,0.04,0.46,0.15c0.14,0.12,0.22,0.26,0.24,0.42s-0.03,0.32-0.15,0.46l-0.77,0.94
				l0.58,0.48l0.98-1.19c0.12-0.14,0.26-0.22,0.42-0.24c0.17-0.01,0.32,0.04,0.46,0.15c0.14,0.12,0.22,0.26,0.24,0.42
				c0.01,0.17-0.03,0.32-0.15,0.46l-1.44,1.74c-0.12,0.14-0.26,0.22-0.42,0.24c-0.17,0.02-0.32-0.03-0.46-0.15l-3.06-2.53
				C45.68,46.53,45.6,46.39,45.59,46.22z"/>
		</g>
		<g>
			<path class="st0" d="M51.11,45.19c-0.04-0.14-0.01-0.29,0.07-0.44c0.06-0.1,0.15-0.21,0.28-0.31c0.13-0.1,0.26-0.22,0.4-0.35
				c0.14-0.13,0.25-0.27,0.35-0.44c0.09-0.15,0.13-0.29,0.13-0.42c0-0.13-0.05-0.22-0.15-0.27c-0.08-0.05-0.18-0.04-0.29,0.01
				c-0.11,0.05-0.23,0.13-0.35,0.24c-0.12,0.11-0.26,0.24-0.4,0.37c-0.14,0.14-0.3,0.27-0.46,0.39c-0.17,0.12-0.34,0.22-0.52,0.3
				c-0.18,0.08-0.38,0.12-0.59,0.11c-0.22-0.01-0.44-0.07-0.65-0.2c-0.42-0.23-0.67-0.59-0.75-1.06c-0.08-0.47,0.04-0.99,0.35-1.55
				c0.16-0.29,0.34-0.54,0.53-0.74c0.19-0.2,0.4-0.34,0.63-0.42c0.23-0.08,0.44-0.06,0.64,0.05c0.14,0.08,0.23,0.19,0.26,0.33
				s0.02,0.29-0.07,0.44c-0.06,0.11-0.15,0.22-0.27,0.32c-0.12,0.1-0.24,0.22-0.37,0.35c-0.13,0.13-0.25,0.28-0.34,0.45
				c-0.14,0.26-0.13,0.44,0.05,0.54c0.08,0.04,0.17,0.04,0.28-0.01s0.22-0.13,0.34-0.24c0.12-0.11,0.25-0.23,0.39-0.37
				c0.14-0.14,0.29-0.26,0.46-0.38c0.17-0.12,0.34-0.22,0.51-0.3c0.17-0.08,0.37-0.11,0.58-0.1c0.22,0.01,0.43,0.08,0.65,0.2
				c0.43,0.24,0.7,0.6,0.79,1.09c0.09,0.48-0.01,1.01-0.33,1.57c-0.17,0.3-0.36,0.55-0.56,0.77c-0.21,0.21-0.43,0.36-0.67,0.44
				c-0.24,0.08-0.46,0.06-0.66-0.05C51.23,45.44,51.14,45.33,51.11,45.19z"/>
		</g>
	</g>
	<g>
		<g>
			<path class="st0" d="M7.18,36.99c-1.59-5.87-0.88-12.15,2-17.51c0.93-1.73-1.71-3.28-2.64-1.54c-3.27,6.07-4.11,13.2-2.31,19.87
				C4.74,39.7,7.7,38.89,7.18,36.99L7.18,36.99z"/>
		</g>
	</g>
	<g>
		<g>
			<path class="st0" d="M50.82,19.48c2.88,5.36,3.59,11.64,2,17.51c-0.52,1.9,2.43,2.71,2.95,0.81c1.81-6.67,0.96-13.79-2.31-19.87
				C52.53,16.2,49.89,17.74,50.82,19.48L50.82,19.48z"/>
		</g>
	</g>
	<g>
		<g>
			<g>
				<path class="st0" d="M30.08,33.43c-1.45,0-2.79-0.94-3.26-2.32c-0.26-0.75-0.19-1.56-0.19-2.34c0-1.1,0-2.2,0-3.3
					c0-0.65-0.05-1.33,0.02-1.97c0.36-3.31,4.91-4.12,6.47-1.24c0.43,0.8,0.41,1.63,0.41,2.51c0,1.03,0,2.07,0,3.1
					c0,0.82,0.07,1.69-0.02,2.51C33.32,32.13,31.81,33.39,30.08,33.43c-0.98,0.02-0.99,1.55,0,1.53c1.83-0.04,3.55-1.01,4.41-2.66
					c0.55-1.06,0.58-2.15,0.58-3.3c0-1.28,0-2.56,0-3.84c0-1.08,0.04-2.13-0.38-3.16c-1.48-3.58-6.42-4.12-8.67-0.99
					c-0.76,1.05-0.92,2.25-0.92,3.5c0,1.25,0,2.5,0,3.76c0,1.18-0.1,2.39,0.34,3.51c0.74,1.89,2.6,3.18,4.64,3.18
					C31.07,34.96,31.07,33.43,30.08,33.43z"/>
			</g>
		</g>
		<g>
			<path class="st0" d="M30.04,26.65c-2.54,0-4.28-0.75-4.39-0.8l0.41-0.93c0.04,0.01,3.69,1.58,8.05-0.01l0.35,0.96
				C32.86,26.45,31.35,26.65,30.04,26.65z"/>
		</g>
		<g>
			<g>
				<path class="st0" d="M25.86,23.57c-1.41,0.16-2.86,0.33-4.2,0.83c-0.68,0.25-1.54,0.63-1.76,1.4c-0.57,2.01,3.21,2.51,4.39,2.69
					c3.2,0.49,6.48,0.55,9.7,0.22c1.43-0.15,2.92-0.32,4.28-0.82c0.7-0.25,1.59-0.63,1.81-1.41c0.68-2.38-4.55-2.75-5.79-2.89
					c-0.98-0.11-0.97,1.42,0,1.53c1.24,0.15,2.61,0.31,3.77,0.81c0.11,0.05,0.34,0.24,0.46,0.24c0.23,0.01-0.06,0.09,0.09-0.09
					c0,0-0.6,0.28-0.75,0.34c-2.49,0.94-5.44,0.96-8.06,0.95c-1.44-0.01-2.87-0.08-4.3-0.25c-1.19-0.14-2.51-0.3-3.62-0.8
					c-0.19-0.09-0.5-0.4-0.5-0.19c0,0.24-0.02,0.03,0.13,0.01c0.16-0.02,0.4-0.21,0.56-0.27c1.19-0.47,2.53-0.63,3.79-0.77
					C26.83,24.99,26.84,23.46,25.86,23.57L25.86,23.57z"/>
			</g>
		</g>
		<g>
			<g>
				<path class="st0" d="M32.64,33.92c3.53,1.02,5.92,4.18,5.98,7.85c0.26-0.26,0.51-0.51,0.77-0.77c-5.2,0-10.41,0-15.61,0
					c-0.74,0-1.47,0-2.21,0c0.25,0.26,0.51,0.51,0.76,0.77c0.05-3.44,2.17-6.5,5.42-7.68c0.92-0.33,0.52-1.81-0.41-1.48
					c-3.9,1.41-6.48,5-6.54,9.15c-0.01,0.41,0.36,0.76,0.77,0.76c5.2,0,10.41,0,15.61,0c0.74,0,1.47,0,2.21,0
					c0.41,0,0.77-0.35,0.76-0.76c-0.06-4.35-2.91-8.12-7.1-9.33C32.1,32.17,31.69,33.64,32.64,33.92L32.64,33.92z"/>
			</g>
		</g>
		<g>
			<rect x="36.01" y="35.23" class="st0" width="1.02" height="6.54"/>
		</g>
		<g>
			<rect x="23.72" y="35.23" class="st0" width="1.02" height="6.54"/>
		</g>
	</g>
</g>
</svg>
