<?xml version="1.0" encoding="utf-8"?>
<!-- Generator: Adobe Illustrator 27.0.0, SVG Export Plug-In . SVG Version: 6.00 Build 0)  -->
<svg version="1.1" id="Capa_1" xmlns="http://www.w3.org/2000/svg" xmlns:xlink="http://www.w3.org/1999/xlink" x="0px" y="0px"
	 viewBox="0 0 60 60" style="enable-background:new 0 0 60 60;" xml:space="preserve">
<style type="text/css">
	.st0{fill:#2D3B2B;}
</style>
<g>
	<g>
		<g>
			<path class="st0" d="M4.28,18.96c-0.03-0.09-0.02-0.18,0.03-0.27l0.8-1.53c0.21-0.41,0.51-0.69,0.89-0.84
				c0.38-0.15,0.75-0.14,1.11,0.05c0.25,0.13,0.42,0.31,0.51,0.54c0.09,0.23,0.13,0.46,0.11,0.69c0.21-0.21,0.45-0.35,0.72-0.42
				c0.28-0.06,0.56-0.02,0.84,0.13c0.36,0.19,0.59,0.48,0.69,0.88c0.11,0.4,0.04,0.83-0.19,1.27L8.94,21.1
				c-0.05,0.09-0.11,0.15-0.2,0.18c-0.09,0.03-0.18,0.02-0.27-0.03l-4.02-2.09C4.36,19.11,4.31,19.05,4.28,18.96z M6.48,19.38
				l0.58-1.12c0.12-0.24,0.16-0.47,0.11-0.69c-0.05-0.23-0.18-0.39-0.38-0.5c-0.2-0.1-0.41-0.11-0.63-0.02
				c-0.22,0.09-0.39,0.25-0.51,0.49l-0.58,1.11L6.48,19.38z M8.53,20.45l0.64-1.22c0.13-0.25,0.16-0.49,0.11-0.74
				c-0.06-0.24-0.19-0.42-0.4-0.53c-0.21-0.11-0.44-0.12-0.67-0.03c-0.23,0.09-0.41,0.26-0.54,0.51l-0.64,1.22L8.53,20.45z"/>
		</g>
		<g>
			<path class="st0" d="M7.18,13.88c-0.01-0.1,0.02-0.19,0.09-0.27c0.07-0.08,0.15-0.13,0.25-0.14c0.1-0.01,0.19,0.02,0.27,0.09
				l2.18,1.82c0.33,0.27,0.66,0.4,1.01,0.38c0.35-0.02,0.65-0.18,0.9-0.48c0.25-0.3,0.36-0.63,0.31-0.98
				c-0.04-0.35-0.23-0.66-0.56-0.93l-2.18-1.82c-0.08-0.07-0.13-0.15-0.13-0.25c-0.01-0.1,0.02-0.19,0.09-0.27
				c0.07-0.08,0.15-0.13,0.25-0.14c0.1-0.01,0.19,0.02,0.27,0.09l2.17,1.82c0.49,0.41,0.77,0.89,0.83,1.43s-0.11,1.04-0.51,1.52
				c-0.39,0.47-0.86,0.73-1.4,0.76c-0.54,0.03-1.05-0.16-1.55-0.57l-2.17-1.82C7.23,14.06,7.19,13.98,7.18,13.88z"/>
		</g>
		<g>
			<path class="st0" d="M11.49,9.22c0.01-0.09,0.06-0.17,0.13-0.23l2.11-1.67c0.08-0.06,0.17-0.09,0.26-0.08
				c0.09,0.01,0.17,0.06,0.23,0.14c0.06,0.08,0.09,0.16,0.08,0.26c-0.01,0.09-0.06,0.17-0.14,0.23l-1.8,1.42l0.98,1.23l1.54-1.22
				c0.08-0.06,0.16-0.09,0.26-0.08s0.17,0.05,0.23,0.13c0.06,0.08,0.09,0.17,0.08,0.26c-0.01,0.09-0.06,0.17-0.14,0.23l-1.54,1.22
				l0.98,1.24l1.8-1.42c0.08-0.06,0.17-0.09,0.26-0.08c0.09,0.01,0.17,0.06,0.23,0.14c0.06,0.08,0.09,0.17,0.08,0.26
				c-0.01,0.09-0.06,0.17-0.14,0.23l-2.11,1.67c-0.08,0.06-0.17,0.09-0.26,0.08c-0.09-0.01-0.17-0.06-0.23-0.14l-2.81-3.56
				C11.5,9.4,11.48,9.31,11.49,9.22z"/>
		</g>
		<g>
			<path class="st0" d="M19.54,4.22c0.09,0.03,0.16,0.1,0.21,0.19L21.7,8.4c0.06,0.13,0.08,0.25,0.06,0.35
				c-0.02,0.11-0.09,0.19-0.2,0.24c-0.12,0.06-0.23,0.08-0.33,0.06c-0.1-0.02-0.23-0.07-0.39-0.15l-3.99-2.04l1.59,3.24
				c0.05,0.09,0.05,0.19,0.02,0.28s-0.1,0.17-0.2,0.21c-0.1,0.05-0.19,0.05-0.28,0.02c-0.09-0.03-0.16-0.09-0.21-0.19l-1.96-3.98
				c-0.07-0.13-0.08-0.25-0.05-0.36c0.03-0.11,0.11-0.19,0.23-0.25c0.11-0.05,0.21-0.07,0.31-0.05c0.1,0.02,0.22,0.07,0.36,0.15
				l4.05,2.08l-1.61-3.29c-0.05-0.1-0.05-0.19-0.02-0.28c0.03-0.09,0.1-0.16,0.19-0.21C19.35,4.2,19.44,4.19,19.54,4.22z"/>
		</g>
		<g>
			<path class="st0" d="M27.34,7.34c-0.03,0.11-0.11,0.18-0.24,0.22c-0.21,0.06-0.39-0.02-0.54-0.24l-0.62-0.89l-2.46,0.54
				l-0.19,1.08c-0.02,0.14-0.06,0.24-0.11,0.3c-0.05,0.07-0.13,0.11-0.24,0.12c-0.13,0.02-0.23-0.01-0.3-0.09
				c-0.07-0.09-0.09-0.21-0.07-0.37l0.86-4.53c0.04-0.2,0.09-0.34,0.15-0.43c0.06-0.09,0.17-0.15,0.31-0.18
				c0.15-0.03,0.27-0.02,0.37,0.03c0.1,0.05,0.2,0.16,0.32,0.33l2.67,3.73C27.33,7.1,27.37,7.23,27.34,7.34z M25.53,5.84l-1.48-2.11
				L23.6,6.26L25.53,5.84z"/>
		</g>
		<g>
			<path class="st0" d="M30.82,7.19c-0.01,0.11-0.05,0.19-0.12,0.26c-0.07,0.07-0.17,0.09-0.27,0.09c-0.11-0.01-0.19-0.05-0.26-0.12
				c-0.07-0.07-0.1-0.16-0.09-0.27l0.29-4.59c0.01-0.1,0.04-0.18,0.11-0.24s0.16-0.09,0.26-0.08l2.6,0.16
				c0.1,0.01,0.18,0.04,0.24,0.11c0.06,0.07,0.09,0.15,0.08,0.25c-0.01,0.1-0.04,0.18-0.12,0.24s-0.16,0.09-0.26,0.08l-2.2-0.14
				l-0.1,1.64l1.88,0.12c0.1,0.01,0.18,0.04,0.24,0.11c0.06,0.07,0.09,0.16,0.08,0.26c-0.01,0.1-0.04,0.18-0.11,0.24
				C33,5.37,32.92,5.39,32.82,5.39l-1.88-0.12L30.82,7.19z"/>
		</g>
		<g>
			<path class="st0" d="M35.58,2.79c0.09-0.05,0.18-0.06,0.28-0.03c0.11,0.03,0.18,0.09,0.23,0.17c0.05,0.09,0.06,0.18,0.03,0.28
				l-0.75,2.74c-0.11,0.41-0.09,0.77,0.07,1.08c0.16,0.31,0.43,0.52,0.81,0.63c0.38,0.1,0.72,0.06,1.02-0.12
				c0.3-0.19,0.5-0.48,0.62-0.89l0.76-2.74c0.03-0.1,0.08-0.18,0.17-0.23C38.9,3.63,39,3.62,39.1,3.65
				c0.11,0.03,0.18,0.09,0.23,0.17c0.05,0.09,0.06,0.18,0.03,0.28l-0.75,2.74c-0.17,0.62-0.49,1.07-0.96,1.35
				c-0.47,0.28-1,0.33-1.59,0.17c-0.59-0.16-1.02-0.48-1.27-0.96c-0.26-0.48-0.3-1.02-0.13-1.65l0.75-2.74
				C35.44,2.92,35.5,2.84,35.58,2.79z"/>
		</g>
		<g>
			<path class="st0" d="M41.59,4.77c0.09-0.03,0.18-0.02,0.27,0.03l2.39,1.23c0.09,0.05,0.15,0.12,0.18,0.2
				c0.03,0.09,0.02,0.18-0.03,0.27c-0.05,0.09-0.11,0.15-0.2,0.17c-0.09,0.03-0.18,0.02-0.27-0.03L41.9,5.6L41.18,7l1.75,0.9
				c0.09,0.05,0.15,0.11,0.18,0.2c0.03,0.09,0.02,0.18-0.02,0.26c-0.05,0.09-0.11,0.15-0.2,0.18c-0.09,0.03-0.18,0.02-0.27-0.03
				l-1.75-0.9l-0.72,1.41l2.04,1.05c0.09,0.05,0.15,0.11,0.18,0.2c0.03,0.09,0.02,0.18-0.03,0.27c-0.05,0.09-0.11,0.15-0.2,0.17
				c-0.09,0.03-0.18,0.02-0.27-0.03l-2.39-1.23c-0.09-0.05-0.15-0.11-0.18-0.2c-0.03-0.09-0.02-0.18,0.03-0.27l2.07-4.03
				C41.44,4.86,41.5,4.8,41.59,4.77z"/>
		</g>
		<g>
			<path class="st0" d="M49.48,10.02c0.01,0.1-0.02,0.19-0.09,0.27l-2.81,3.43c-0.09,0.11-0.19,0.18-0.3,0.2
				c-0.11,0.02-0.21-0.01-0.3-0.08c-0.1-0.08-0.17-0.18-0.19-0.28c-0.03-0.1-0.04-0.24-0.03-0.42l0.19-4.47l-2.28,2.79
				c-0.07,0.08-0.15,0.13-0.25,0.14c-0.1,0.01-0.19-0.02-0.27-0.09c-0.08-0.07-0.13-0.15-0.14-0.25c-0.01-0.1,0.02-0.19,0.09-0.27
				l2.8-3.43c0.09-0.12,0.2-0.18,0.31-0.2c0.11-0.02,0.22,0.02,0.32,0.1c0.09,0.07,0.15,0.16,0.17,0.26s0.03,0.23,0.01,0.39
				l-0.21,4.54l2.31-2.83c0.07-0.08,0.15-0.13,0.25-0.14c0.1-0.01,0.19,0.02,0.27,0.09C49.42,9.84,49.47,9.93,49.48,10.02z"/>
		</g>
		<g>
			<path class="st0" d="M48.51,16.22c-0.08,0.07-0.17,0.09-0.27,0.08c-0.1-0.01-0.18-0.06-0.25-0.15c-0.07-0.08-0.09-0.17-0.08-0.27
				c0.01-0.1,0.06-0.18,0.14-0.24l3.27-2.6l-0.82-1.03c-0.06-0.08-0.09-0.16-0.08-0.25c0.01-0.09,0.06-0.17,0.14-0.23
				c0.08-0.06,0.16-0.09,0.25-0.08c0.09,0.01,0.17,0.05,0.23,0.13l2.09,2.63c0.06,0.08,0.09,0.16,0.08,0.25
				c-0.01,0.09-0.06,0.17-0.14,0.23c-0.08,0.06-0.16,0.09-0.25,0.08c-0.09-0.01-0.17-0.05-0.23-0.13l-0.82-1.03L48.51,16.22z"/>
		</g>
		<g>
			<path class="st0" d="M54.17,15.97c0.09,0.03,0.16,0.09,0.21,0.17l1.27,2.37c0.05,0.09,0.06,0.18,0.03,0.27
				c-0.03,0.09-0.09,0.16-0.18,0.21c-0.09,0.05-0.18,0.06-0.26,0.03c-0.09-0.03-0.16-0.09-0.2-0.18l-1.08-2.02l-1.39,0.74l0.93,1.73
				c0.05,0.09,0.06,0.18,0.03,0.27c-0.02,0.09-0.08,0.16-0.17,0.2c-0.09,0.05-0.18,0.06-0.27,0.03c-0.09-0.03-0.16-0.09-0.21-0.17
				l-0.93-1.73l-1.4,0.75l1.08,2.02c0.05,0.09,0.06,0.18,0.03,0.27c-0.03,0.09-0.09,0.16-0.18,0.21c-0.09,0.05-0.18,0.06-0.27,0.03
				s-0.16-0.09-0.2-0.18l-1.27-2.37c-0.05-0.09-0.06-0.18-0.03-0.27c0.03-0.09,0.09-0.16,0.17-0.21l4-2.14
				C53.99,15.96,54.08,15.95,54.17,15.97z"/>
		</g>
	</g>
	<g>
		<g>
			<path class="st0" d="M12,42.97c0.17,0.02,0.31,0.1,0.42,0.24l0.8,0.99c0.35,0.44,0.58,0.9,0.69,1.39
				c0.11,0.49,0.09,0.97-0.06,1.42c-0.15,0.45-0.42,0.83-0.81,1.15c-0.38,0.31-0.81,0.49-1.28,0.54c-0.47,0.05-0.93-0.03-1.39-0.24
				c-0.46-0.21-0.86-0.53-1.21-0.97l-0.8-0.99c-0.12-0.14-0.16-0.3-0.15-0.46c0.02-0.17,0.1-0.31,0.24-0.42l3.09-2.5
				C11.68,43,11.83,42.95,12,42.97z M9.81,46.3l0.31,0.39c0.29,0.36,0.62,0.57,0.99,0.63c0.37,0.06,0.71-0.03,1.03-0.29
				c0.31-0.25,0.48-0.57,0.49-0.94c0.01-0.37-0.12-0.74-0.42-1.1l-0.31-0.38L9.81,46.3z"/>
		</g>
		<g>
			<path class="st0" d="M15.32,46.84c0.17-0.02,0.32,0.03,0.46,0.15l1.75,1.43c0.14,0.12,0.22,0.26,0.24,0.43
				c0.02,0.17-0.04,0.32-0.15,0.47c-0.12,0.14-0.26,0.22-0.42,0.24s-0.32-0.03-0.46-0.15l-1.19-0.98l-0.43,0.53l0.94,0.77
				c0.14,0.12,0.22,0.26,0.24,0.42s-0.03,0.32-0.15,0.47c-0.12,0.14-0.26,0.22-0.42,0.24s-0.32-0.03-0.46-0.15l-0.94-0.77
				l-0.48,0.58l1.19,0.98c0.14,0.12,0.22,0.26,0.24,0.42c0.02,0.17-0.03,0.32-0.15,0.47c-0.12,0.14-0.26,0.22-0.42,0.24
				c-0.17,0.02-0.32-0.03-0.46-0.15l-1.75-1.43c-0.14-0.12-0.22-0.26-0.24-0.42c-0.02-0.17,0.03-0.32,0.15-0.46l2.51-3.07
				C15.01,46.93,15.15,46.86,15.32,46.84z"/>
		</g>
		<g>
			<path class="st0" d="M19.52,49.93c0.16-0.06,0.32-0.05,0.49,0.03l1.16,0.53c0.61,0.28,1.02,0.65,1.25,1.12
				c0.23,0.47,0.23,0.95,0,1.45c-0.23,0.51-0.6,0.83-1.11,0.96c-0.51,0.14-1.07,0.06-1.68-0.22l-0.5-0.23l-0.39,0.86
				c-0.08,0.18-0.21,0.3-0.37,0.37c-0.17,0.06-0.34,0.05-0.52-0.03c-0.18-0.08-0.3-0.21-0.37-0.38c-0.06-0.17-0.05-0.34,0.03-0.52
				l1.66-3.61C19.25,50.1,19.36,49.99,19.52,49.93z M19.63,52.5l0.6,0.28c0.18,0.08,0.36,0.1,0.52,0.04
				c0.16-0.06,0.29-0.17,0.37-0.35c0.08-0.17,0.09-0.34,0.02-0.49s-0.19-0.28-0.37-0.36l-0.6-0.28L19.63,52.5z"/>
		</g>
		<g>
			<path class="st0" d="M26.03,56.28c0.08,0.23,0.09,0.44,0.05,0.63c-0.04,0.16-0.12,0.28-0.25,0.35s-0.29,0.09-0.48,0.05
				c-0.16-0.04-0.29-0.11-0.38-0.21c-0.09-0.11-0.17-0.26-0.23-0.46l-0.39-1.39l-0.52-0.12l-0.25,1.08
				c-0.04,0.19-0.14,0.34-0.29,0.43c-0.15,0.1-0.32,0.12-0.51,0.08c-0.19-0.04-0.34-0.14-0.43-0.29c-0.1-0.15-0.12-0.32-0.08-0.52
				l0.88-3.87c0.04-0.18,0.13-0.31,0.27-0.4c0.14-0.09,0.3-0.11,0.48-0.07l1.24,0.28c0.65,0.15,1.14,0.42,1.46,0.82
				c0.32,0.4,0.43,0.85,0.31,1.36c-0.07,0.32-0.21,0.58-0.42,0.79c-0.21,0.21-0.47,0.36-0.78,0.44L26.03,56.28z M24.08,53.98
				l0.65,0.15c0.2,0.04,0.37,0.03,0.51-0.04s0.24-0.2,0.28-0.37c0.04-0.16,0.01-0.3-0.09-0.43c-0.1-0.13-0.25-0.21-0.45-0.26
				l-0.65-0.15L24.08,53.98z"/>
		</g>
		<g>
			<path class="st0" d="M32.47,56.14c-0.15,0.34-0.35,0.62-0.6,0.86c-0.25,0.24-0.54,0.43-0.88,0.57s-0.7,0.21-1.07,0.2
				c-0.49-0.01-0.95-0.14-1.37-0.39c-0.42-0.25-0.75-0.59-0.99-1.02c-0.24-0.43-0.35-0.88-0.35-1.38c0.01-0.37,0.08-0.73,0.24-1.06
				c0.15-0.33,0.35-0.62,0.6-0.86c0.25-0.24,0.54-0.43,0.88-0.57c0.34-0.14,0.7-0.21,1.07-0.2c0.49,0.01,0.95,0.14,1.37,0.39
				c0.42,0.25,0.75,0.59,0.98,1.02c0.24,0.43,0.35,0.88,0.35,1.38C32.69,55.45,32.62,55.81,32.47,56.14z M30.89,54.07
				c-0.25-0.28-0.55-0.42-0.91-0.42c-0.36-0.01-0.67,0.12-0.92,0.39c-0.26,0.27-0.39,0.59-0.4,0.98c-0.01,0.38,0.12,0.72,0.37,0.99
				c0.25,0.28,0.55,0.42,0.91,0.42c0.36,0.01,0.67-0.12,0.92-0.39c0.26-0.26,0.39-0.59,0.39-0.98
				C31.26,54.68,31.14,54.34,30.89,54.07z"/>
		</g>
		<g>
			<path class="st0" d="M35.87,56.36c0.04,0.2,0.01,0.37-0.09,0.52c-0.1,0.15-0.24,0.24-0.44,0.28c-0.2,0.04-0.37,0.01-0.52-0.09
				c-0.15-0.1-0.24-0.25-0.28-0.44l-0.66-3.26l-0.79,0.16c-0.18,0.04-0.34,0.01-0.48-0.09c-0.14-0.09-0.23-0.23-0.26-0.41
				c-0.04-0.18-0.01-0.34,0.08-0.48c0.09-0.14,0.23-0.23,0.41-0.26l2.9-0.59c0.18-0.04,0.34-0.01,0.48,0.09
				c0.14,0.09,0.23,0.23,0.26,0.41c0.04,0.18,0.01,0.34-0.08,0.48c-0.09,0.14-0.23,0.23-0.41,0.26L35.2,53.1L35.87,56.36z"/>
		</g>
		<g>
			<path class="st0" d="M36.66,51.6c0.07-0.15,0.18-0.26,0.35-0.33l2.09-0.85c0.17-0.07,0.33-0.07,0.49,0
				c0.15,0.07,0.27,0.19,0.34,0.36C40,50.94,40,51.1,39.93,51.26c-0.07,0.15-0.18,0.26-0.35,0.33l-1.43,0.58l0.26,0.63l1.13-0.46
				c0.17-0.07,0.33-0.07,0.49,0c0.15,0.06,0.27,0.18,0.34,0.36c0.07,0.17,0.07,0.33,0.01,0.49c-0.06,0.15-0.18,0.26-0.35,0.33
				l-1.13,0.46l0.28,0.7l1.43-0.58c0.17-0.07,0.33-0.07,0.49,0c0.15,0.06,0.27,0.18,0.34,0.36c0.07,0.17,0.07,0.33,0.01,0.49
				c-0.07,0.15-0.18,0.26-0.35,0.33l-2.09,0.85c-0.17,0.07-0.33,0.07-0.49,0.01c-0.15-0.06-0.26-0.18-0.33-0.35l-1.49-3.68
				C36.6,51.91,36.6,51.75,36.66,51.6z"/>
		</g>
		<g>
			<path class="st0" d="M40.68,47.46c0.14,0.02,0.24,0.09,0.3,0.2c0.06,0.11,0.08,0.26,0.04,0.44l-0.17,0.68
				c-0.05,0.22-0.18,0.38-0.37,0.49c-0.17,0.1-0.32,0.1-0.46,0.03c-0.14-0.08-0.2-0.22-0.2-0.41l0.01-0.61
				c0-0.17,0.04-0.31,0.1-0.43c0.06-0.11,0.17-0.21,0.31-0.29C40.4,47.47,40.54,47.44,40.68,47.46z M40.2,50
				c0.05-0.17,0.15-0.31,0.32-0.4c0.17-0.1,0.35-0.12,0.52-0.08c0.17,0.05,0.31,0.16,0.41,0.33l1.96,3.43
				c0.1,0.17,0.13,0.34,0.08,0.52c-0.05,0.17-0.15,0.31-0.32,0.4c-0.17,0.1-0.35,0.13-0.52,0.08s-0.31-0.16-0.41-0.33l-1.96-3.43
				C40.18,50.34,40.15,50.17,40.2,50z"/>
		</g>
		<g>
			<path class="st0" d="M45.23,46.33c0.18,0.02,0.33,0.1,0.46,0.26l2.42,2.93c0.16,0.2,0.24,0.4,0.23,0.61
				c-0.01,0.2-0.1,0.38-0.28,0.52c-0.13,0.1-0.26,0.17-0.4,0.21c-0.14,0.03-0.28,0.04-0.41,0.03c-0.13-0.02-0.29-0.05-0.49-0.11
				l-2.59-0.74l1.44,1.75c0.13,0.15,0.18,0.32,0.17,0.5c-0.02,0.18-0.1,0.33-0.25,0.45c-0.15,0.13-0.32,0.18-0.5,0.16
				c-0.18-0.02-0.33-0.1-0.46-0.26l-2.42-2.93c-0.17-0.21-0.25-0.41-0.23-0.62c0.02-0.2,0.12-0.38,0.31-0.54
				c0.17-0.14,0.35-0.21,0.54-0.22c0.19-0.01,0.43,0.03,0.72,0.12l2.66,0.81l-1.5-1.82c-0.13-0.15-0.18-0.32-0.17-0.5
				c0.02-0.18,0.1-0.33,0.25-0.45C44.89,46.37,45.05,46.31,45.23,46.33z"/>
		</g>
		<g>
			<path class="st0" d="M52.49,44.9c0.09,0.2,0.05,0.41-0.11,0.62c-0.22,0.29-0.56,0.37-1.03,0.23L51,45.65l-1.26,1.68l0.2,0.31
				c0.14,0.22,0.22,0.4,0.24,0.56c0.02,0.15-0.03,0.3-0.14,0.46c-0.15,0.21-0.34,0.29-0.55,0.26c-0.21-0.03-0.41-0.19-0.57-0.46
				l-1.9-3.2c-0.17-0.29-0.26-0.54-0.27-0.75c-0.01-0.21,0.07-0.42,0.23-0.64c0.16-0.22,0.34-0.35,0.54-0.4
				c0.2-0.05,0.46-0.03,0.79,0.06l3.6,0.93C52.21,44.55,52.41,44.7,52.49,44.9z M49.77,45.3l-1.6-0.47l0.89,1.42L49.77,45.3z"/>
		</g>
	</g>
	<g>
		<g>
			<path class="st0" d="M8.14,39.53c-1.9-4.7-2.32-9.84-1.11-14.77c0.47-1.91-2.48-2.73-2.95-0.81c-1.33,5.42-0.99,11.21,1.11,16.4
				c0.31,0.77,1.02,1.31,1.88,1.07C7.8,41.22,8.45,40.3,8.14,39.53L8.14,39.53z"/>
		</g>
	</g>
	<g>
		<g>
			<path class="st0" d="M52.97,24.76c1.21,4.93,0.79,10.08-1.11,14.77c-0.31,0.77,0.34,1.68,1.07,1.88c0.87,0.24,1.57-0.3,1.88-1.07
				c2.1-5.18,2.44-10.98,1.11-16.4C55.46,22.04,52.5,22.85,52.97,24.76L52.97,24.76z"/>
		</g>
	</g>
	<g>
		<g>
			<g>
				<path class="st0" d="M21.16,17.81c-0.72,1.5-1.33,3.05-1.78,4.64c-0.26,0.93-0.47,1.87-0.61,2.83
					c-0.08,0.53-0.14,1.05-0.18,1.58c-0.03,0.43-0.12,0.9,0.19,1.24c0.49,0.55,1.18,0.99,1.75,1.47c0.58,0.49,1.17,0.98,1.75,1.47
					c0.53,0.45,1.24,0.13,1.31-0.54c0.05-0.49,0.07-0.64,0.15-1.12c0.15-1.01,0.34-2.02,0.58-3.01c0.45-1.91,1.03-4.42,2.66-5.7
					c0.33-0.26,0.26-0.81,0-1.08c-0.68-0.72-1.36-1.44-2.05-2.15C23.79,16.29,21.97,16.32,21.16,17.81
					c-0.47,0.86,0.85,1.64,1.32,0.77c0.55-1.01,1.31-0.11,1.8,0.4c0.53,0.56,1.07,1.12,1.6,1.68c0-0.36,0-0.72,0-1.08
					c-1.8,1.41-2.51,4.13-3.02,6.24c-0.37,1.54-0.65,3.11-0.81,4.68c0.44-0.18,0.87-0.36,1.31-0.54c-1.17-0.98-2.33-1.96-3.5-2.93
					c0.07,0.18,0.15,0.36,0.22,0.54c0.11-3.12,1.06-6.18,2.4-8.98C22.9,17.7,21.58,16.92,21.16,17.81z"/>
			</g>
		</g>
		<g>
			<g>
				<path class="st0" d="M28.32,24.97c-0.72,1.5-1.33,3.05-1.78,4.64c-0.26,0.93-0.47,1.87-0.61,2.83
					c-0.08,0.53-0.14,1.05-0.18,1.58c-0.03,0.43-0.12,0.9,0.19,1.24c0.49,0.55,1.18,0.99,1.75,1.47c0.58,0.49,1.17,0.98,1.75,1.47
					c0.53,0.45,1.24,0.13,1.31-0.54c0.05-0.49,0.07-0.64,0.15-1.12c0.15-1.01,0.34-2.02,0.58-3.01c0.45-1.91,1.03-4.42,2.66-5.7
					c0.33-0.26,0.26-0.81,0-1.08c-0.68-0.72-1.36-1.44-2.05-2.15C30.96,23.45,29.13,23.49,28.32,24.97
					c-0.47,0.86,0.85,1.64,1.32,0.77c0.55-1.01,1.31-0.11,1.8,0.4c0.53,0.56,1.07,1.12,1.6,1.68c0-0.36,0-0.72,0-1.08
					c-1.8,1.41-2.51,4.13-3.02,6.24c-0.37,1.54-0.65,3.11-0.81,4.68c0.44-0.18,0.87-0.36,1.31-0.54c-1.17-0.98-2.33-1.96-3.5-2.93
					c0.07,0.18,0.15,0.36,0.22,0.54c0.11-3.12,1.06-6.18,2.4-8.98C30.06,24.86,28.74,24.08,28.32,24.97z"/>
			</g>
		</g>
		<g>
			<g>
				<path class="st0" d="M36.42,30.22c-1.78,2.89-2.99,6.33-3.44,9.68c-0.08,0.61-0.22,1.31-0.16,1.93
					c0.04,0.39,0.25,0.56,0.52,0.79c0.45,0.38,0.89,0.76,1.35,1.13c0.78,0.63,1.82,0.74,2.65,0.13c0.87-0.63,0.89-1.73,1.11-2.7
					c0.27-1.23,0.6-2.46,1.06-3.63c0.39-0.97,0.89-1.96,1.72-2.62c0.33-0.26,0.26-0.81,0-1.08c-1.2-1.26-2.41-2.52-3.61-3.78
					c-0.68-0.71-1.76,0.37-1.08,1.08c1.2,1.26,2.41,2.52,3.61,3.78c0-0.36,0-0.72,0-1.08c-0.95,0.75-1.53,1.88-1.98,2.97
					c-0.53,1.27-0.9,2.61-1.2,3.96c-0.14,0.63-0.25,2.55-1.26,1.85c-0.56-0.39-1.07-0.89-1.59-1.33c0.07,0.18,0.15,0.36,0.22,0.54
					c0.13-3.74,1.42-7.65,3.39-10.84C38.26,30.15,36.94,29.39,36.42,30.22z"/>
			</g>
		</g>
		<g>
			<g>
				<path class="st0" d="M36.69,29.95c-1.02,0.63-2.04,1.25-3.06,1.88c-0.15,0.09-0.29,0.18-0.44,0.27
					c-0.34,0.21-0.5,0.69-0.27,1.05c0.22,0.34,0.68,0.5,1.05,0.27c1.02-0.63,2.04-1.25,3.06-1.88c0.15-0.09,0.29-0.18,0.44-0.27
					c0.34-0.21,0.5-0.69,0.27-1.05C37.52,29.88,37.06,29.72,36.69,29.95L36.69,29.95z"/>
			</g>
		</g>
		<g>
			<g>
				<path class="st0" d="M30.05,23.79c-1.11,0.32-2.23,0.65-3.34,0.97c-0.16,0.05-0.32,0.09-0.49,0.14
					c-0.38,0.11-0.66,0.54-0.53,0.94c0.13,0.39,0.53,0.65,0.94,0.53c1.11-0.32,2.23-0.65,3.34-0.97c0.16-0.05,0.32-0.09,0.49-0.14
					c0.38-0.11,0.66-0.54,0.53-0.94C30.86,23.94,30.46,23.67,30.05,23.79L30.05,23.79z"/>
			</g>
		</g>
		<g>
			<g>
				<path class="st0" d="M22.81,31.26c1.15-0.08,2.3-0.16,3.45-0.25c0.17-0.01,0.33-0.02,0.5-0.04c0.4-0.03,0.78-0.33,0.77-0.76
					c-0.02-0.39-0.34-0.8-0.77-0.77c-1.15,0.08-2.3,0.16-3.45,0.25c-0.17,0.01-0.33,0.02-0.5,0.04c-0.4,0.03-0.78,0.33-0.76,0.76
					C22.06,30.89,22.38,31.29,22.81,31.26L22.81,31.26z"/>
			</g>
		</g>
		<g>
			<g>
				<path class="st0" d="M29.97,38.42c1.1,0,2.21,0,3.31,0c0.16,0,0.31,0,0.47,0c0.4,0,0.78-0.35,0.77-0.77
					c-0.02-0.41-0.34-0.76-0.77-0.76c-1.1,0-2.21,0-3.31,0c-0.16,0-0.31,0-0.47,0c-0.4,0-0.78,0.35-0.76,0.76
					C29.22,38.07,29.54,38.42,29.97,38.42L29.97,38.42z"/>
			</g>
		</g>
	</g>
</g>
</svg>
