<?xml version="1.0" encoding="utf-8"?>
<!-- Generator: Adobe Illustrator 27.0.0, SVG Export Plug-In . SVG Version: 6.00 Build 0)  -->
<svg version="1.1" id="Capa_1" xmlns="http://www.w3.org/2000/svg" xmlns:xlink="http://www.w3.org/1999/xlink" x="0px" y="0px"
	 viewBox="0 0 60 60" style="enable-background:new 0 0 60 60;" xml:space="preserve">
<style type="text/css">
	.st0{fill:#2D3B2B;}
</style>
<g>
	<g>
		<path class="st0" d="M28.02,23.41c0,1.7-1.37,3.07-3.07,3.07c-1.7,0-3.07-1.38-3.07-3.07c0-1.7,1.38-3.07,3.07-3.07
			C26.65,20.33,28.02,21.71,28.02,23.41"/>
	</g>
	<g>
		<path class="st0" d="M37.23,23.41c0,1.7-1.38,3.07-3.08,3.07c-1.7,0-3.08-1.38-3.08-3.07c0-1.7,1.38-3.07,3.08-3.07
			C35.85,20.33,37.23,21.71,37.23,23.41"/>
	</g>
	<g>
		<path class="st0" d="M51.03,29.36l-3.61-4.73c-0.35-0.46-0.93-0.46-1.28,0l-3.66,4.74c-0.35,0.46-0.17,0.83,0.41,0.83h1.61
			c-2.33,6.2-8.49,10.41-15.31,10.1c-7.74-0.35-14.1-6.42-14.81-14.12c-0.1-1.15-1.12-2-2.28-1.89c-1.15,0.11-2,1.12-1.89,2.28
			c0.44,4.71,2.56,9.12,5.98,12.42c3.46,3.33,8.01,5.28,12.8,5.5c4.8,0.22,9.5-1.31,13.25-4.3c3.22-2.57,5.53-5.91,6.66-9.83
			l-0.03,0.15h0.03l1.71-0.15C51.19,30.35,51.38,29.82,51.03,29.36"/>
	</g>
	<g>
		<path class="st0" d="M49.3,20.3c-1.73-8.85-9.34-15.38-18.49-15.94c-8.83-0.54-17.5,4.95-20.75,12.52H8.4
			c-0.59,0-0.78,0.37-0.42,0.83l3.72,4.74c0.36,0.46,0.95,0.46,1.3,0l3.67-4.73c0.36-0.46,0.17-0.84-0.42-0.84l-1.44,0
			c2.95-5.38,9.22-8.74,15.74-8.35c7.22,0.44,13.21,5.6,14.58,12.58c0.22,1.13,1.34,1.87,2.49,1.65
			C48.77,22.55,49.53,21.44,49.3,20.3"/>
	</g>
	<g>
		<path class="st0" d="M7.03,51.7c0-0.35,0.28-0.63,0.63-0.63c0.35,0,0.63,0.28,0.63,0.63v0.2c0.18-0.43,0.48-0.83,0.86-0.83
			c0.39,0,0.62,0.26,0.62,0.62c0,0.33-0.22,0.53-0.47,0.59c-0.64,0.15-1,0.64-1,1.54v1.18c0,0.35-0.28,0.63-0.63,0.63
			c-0.35,0-0.63-0.28-0.63-0.63V51.7z"/>
		<path class="st0" d="M12.51,55.67c-1.34,0-2.33-0.94-2.33-2.31v-0.02c0-1.27,0.91-2.32,2.21-2.32c1.49,0,2.15,1.22,2.15,2.15
			c0,0.37-0.26,0.61-0.59,0.61h-2.51c0.12,0.57,0.52,0.87,1.09,0.87c0.35,0,0.64-0.11,0.9-0.3c0.09-0.07,0.17-0.1,0.31-0.1
			c0.28,0,0.49,0.22,0.49,0.5c0,0.17-0.07,0.29-0.17,0.37C13.67,55.47,13.16,55.67,12.51,55.67z M13.33,52.99
			c-0.07-0.57-0.41-0.95-0.94-0.95c-0.52,0-0.87,0.37-0.97,0.95H13.33z"/>
		<path class="st0" d="M15.28,53.37v-0.02c0-1.27,0.97-2.32,2.34-2.32c0.67,0,1.15,0.18,1.52,0.5c0.08,0.07,0.2,0.22,0.2,0.43
			c0,0.32-0.26,0.57-0.57,0.57c-0.17,0-0.29-0.07-0.37-0.12c-0.22-0.17-0.46-0.28-0.79-0.28c-0.63,0-1.08,0.56-1.08,1.22v0.02
			c0,0.68,0.44,1.23,1.13,1.23c0.33,0,0.59-0.12,0.83-0.31c0.07-0.05,0.19-0.12,0.34-0.12c0.3,0,0.53,0.24,0.53,0.54
			c0,0.17-0.07,0.3-0.18,0.4c-0.37,0.34-0.85,0.57-1.58,0.57C16.26,55.67,15.28,54.64,15.28,53.37z"/>
		<path class="st0" d="M20.24,50.05c0-0.37,0.31-0.59,0.71-0.59s0.71,0.22,0.71,0.59v0.02c0,0.37-0.31,0.6-0.71,0.6
			s-0.71-0.23-0.71-0.6V50.05z M20.31,51.7c0-0.35,0.28-0.63,0.63-0.63s0.63,0.28,0.63,0.63v3.3c0,0.35-0.28,0.63-0.63,0.63
			s-0.63-0.28-0.63-0.63V51.7z"/>
		<path class="st0" d="M22.55,53.37v-0.02c0-1.27,0.97-2.32,2.34-2.32c0.67,0,1.15,0.18,1.52,0.5c0.08,0.07,0.2,0.22,0.2,0.43
			c0,0.32-0.26,0.57-0.57,0.57c-0.17,0-0.29-0.07-0.37-0.12c-0.22-0.17-0.46-0.28-0.79-0.28c-0.63,0-1.08,0.56-1.08,1.22v0.02
			c0,0.68,0.44,1.23,1.13,1.23c0.33,0,0.59-0.12,0.83-0.31c0.07-0.05,0.19-0.12,0.34-0.12c0.3,0,0.53,0.24,0.53,0.54
			c0,0.17-0.07,0.3-0.18,0.4c-0.37,0.34-0.85,0.57-1.58,0.57C23.53,55.67,22.55,54.64,22.55,53.37z"/>
		<path class="st0" d="M27.58,50.08c0-0.35,0.28-0.63,0.63-0.63c0.35,0,0.63,0.28,0.63,0.63v4.91c0,0.35-0.28,0.63-0.63,0.63
			c-0.35,0-0.63-0.28-0.63-0.63V50.08z"/>
		<path class="st0" d="M29.76,54.29v-0.02c0-0.97,0.74-1.42,1.8-1.42c0.45,0,0.77,0.07,1.09,0.18v-0.07c0-0.52-0.32-0.82-0.96-0.82
			c-0.35,0-0.63,0.05-0.87,0.12c-0.07,0.03-0.12,0.03-0.18,0.03c-0.29,0-0.52-0.22-0.52-0.52c0-0.22,0.14-0.42,0.34-0.49
			c0.4-0.15,0.83-0.23,1.42-0.23c0.69,0,1.19,0.18,1.51,0.5c0.33,0.33,0.48,0.82,0.48,1.42v2.03c0,0.34-0.27,0.61-0.62,0.61
			c-0.37,0-0.61-0.26-0.61-0.52v-0.01c-0.31,0.34-0.73,0.57-1.35,0.57C30.46,55.66,29.76,55.18,29.76,54.29z M32.67,54v-0.22
			c-0.22-0.1-0.5-0.17-0.81-0.17c-0.54,0-0.87,0.22-0.87,0.62v0.02c0,0.34,0.28,0.54,0.69,0.54C32.27,54.78,32.67,54.46,32.67,54z"
			/>
		<path class="st0" d="M34.96,51.7c0-0.35,0.28-0.63,0.63-0.63c0.35,0,0.63,0.28,0.63,0.63v0.05c0.29-0.37,0.67-0.72,1.31-0.72
			c0.58,0,1.02,0.26,1.26,0.71c0.39-0.46,0.86-0.71,1.46-0.71c0.94,0,1.51,0.57,1.51,1.64v2.32c0,0.35-0.28,0.63-0.63,0.63
			c-0.35,0-0.63-0.28-0.63-0.63v-1.91c0-0.6-0.27-0.91-0.74-0.91c-0.47,0-0.77,0.31-0.77,0.91v1.91c0,0.35-0.28,0.63-0.63,0.63
			c-0.35,0-0.63-0.28-0.63-0.63v-1.91c0-0.6-0.27-0.91-0.74-0.91c-0.47,0-0.77,0.31-0.77,0.91v1.91c0,0.35-0.28,0.63-0.63,0.63
			c-0.35,0-0.63-0.28-0.63-0.63V51.7z"/>
		<path class="st0" d="M42.65,53.37v-0.02c0-1.28,1.03-2.32,2.42-2.32c1.38,0,2.41,1.02,2.41,2.31v0.02c0,1.28-1.03,2.32-2.42,2.32
			C43.67,55.67,42.65,54.65,42.65,53.37z M46.23,53.37v-0.02c0-0.66-0.47-1.23-1.17-1.23c-0.72,0-1.16,0.56-1.16,1.22v0.02
			c0,0.66,0.47,1.23,1.17,1.23C45.8,54.58,46.23,54.03,46.23,53.37z"/>
		<path class="st0" d="M48.28,55.15c-0.13-0.08-0.24-0.23-0.24-0.43c0-0.28,0.22-0.5,0.5-0.5c0.09,0,0.18,0.02,0.25,0.07
			c0.42,0.27,0.85,0.4,1.21,0.4c0.37,0,0.53-0.13,0.53-0.33v-0.02c0-0.27-0.43-0.37-0.92-0.52c-0.62-0.18-1.33-0.47-1.33-1.34v-0.02
			c0-0.91,0.73-1.41,1.63-1.41c0.47,0,0.95,0.12,1.38,0.34c0.18,0.09,0.3,0.26,0.3,0.47c0,0.28-0.22,0.5-0.51,0.5
			c-0.09,0-0.15-0.02-0.23-0.06c-0.36-0.17-0.7-0.28-0.97-0.28c-0.31,0-0.47,0.13-0.47,0.31v0.02c0,0.25,0.42,0.37,0.91,0.53
			c0.62,0.21,1.35,0.51,1.35,1.32v0.02c0,0.99-0.74,1.44-1.71,1.44C49.41,55.66,48.82,55.5,48.28,55.15z"/>
	</g>
	<g>
		<path class="st0" d="M6.92,47.87v-1.52h-0.2c-0.09,0-0.17-0.08-0.17-0.17c0-0.09,0.08-0.17,0.17-0.17h0.2v-0.59
			c0-0.1,0.08-0.19,0.18-0.19c0.1,0,0.19,0.09,0.19,0.19v0.59h0.65c0.09,0,0.17,0.08,0.17,0.17c0,0.09-0.08,0.17-0.17,0.17H7.3v1.47
			c0,0.31,0.17,0.42,0.42,0.42c0.13,0,0.2-0.03,0.23-0.03c0.09,0,0.16,0.07,0.16,0.16c0,0.07-0.04,0.12-0.11,0.15
			c-0.11,0.04-0.22,0.07-0.37,0.07C7.23,48.58,6.92,48.38,6.92,47.87z"/>
		<path class="st0" d="M8.53,47.29L8.53,47.29c0-0.72,0.55-1.32,1.31-1.32c0.75,0,1.31,0.59,1.31,1.3v0.01
			c0,0.71-0.56,1.31-1.32,1.31C9.08,48.59,8.53,48,8.53,47.29z M10.76,47.29L10.76,47.29c0-0.55-0.4-0.99-0.93-0.99
			c-0.54,0-0.92,0.44-0.92,0.97v0.01c0,0.54,0.4,0.98,0.93,0.98C10.39,48.26,10.76,47.82,10.76,47.29z"/>
		<path class="st0" d="M14.21,48.37c0,0.11-0.08,0.19-0.18,0.19c-0.11,0-0.19-0.08-0.19-0.19v-0.34c-0.2,0.3-0.5,0.56-0.96,0.56
			c-0.6,0-1.2-0.48-1.2-1.3v-0.01c0-0.82,0.6-1.31,1.2-1.31c0.47,0,0.77,0.25,0.96,0.53v-1.35c0-0.11,0.08-0.19,0.18-0.19
			s0.19,0.08,0.19,0.19V48.37z M12.06,47.27L12.06,47.27c0,0.6,0.41,0.98,0.88,0.98c0.47,0,0.91-0.39,0.91-0.97v-0.01
			c0-0.58-0.44-0.97-0.91-0.97C12.46,46.3,12.06,46.66,12.06,47.27z"/>
		<path class="st0" d="M14.89,47.29L14.89,47.29c0-0.72,0.55-1.32,1.31-1.32c0.75,0,1.31,0.59,1.31,1.3v0.01
			c0,0.71-0.56,1.31-1.32,1.31C15.44,48.59,14.89,48,14.89,47.29z M17.13,47.29L17.13,47.29c0-0.55-0.4-0.99-0.93-0.99
			c-0.54,0-0.92,0.44-0.92,0.97v0.01c0,0.54,0.4,0.98,0.93,0.98C16.75,48.26,17.13,47.82,17.13,47.29z"/>
		<path class="st0" d="M18.05,48.27c-0.03-0.02-0.07-0.07-0.07-0.14c0-0.09,0.07-0.16,0.17-0.16c0.03,0,0.07,0.01,0.09,0.03
			c0.26,0.17,0.52,0.27,0.8,0.27c0.3,0,0.52-0.16,0.52-0.4v-0.01c0-0.25-0.3-0.35-0.63-0.44c-0.39-0.11-0.83-0.25-0.83-0.71V46.7
			c0-0.43,0.36-0.72,0.85-0.72c0.27,0,0.56,0.08,0.8,0.21c0.05,0.03,0.09,0.08,0.09,0.16c0,0.09-0.07,0.16-0.17,0.16
			c-0.03,0-0.06-0.01-0.08-0.02c-0.21-0.12-0.44-0.19-0.66-0.19c-0.3,0-0.49,0.16-0.49,0.36v0.01c0,0.24,0.31,0.33,0.65,0.43
			c0.39,0.12,0.81,0.27,0.81,0.72v0.01c0,0.48-0.39,0.75-0.89,0.75C18.68,48.58,18.32,48.46,18.05,48.27z"/>
	</g>
	<g>
		<g>
			<path class="st0" d="M52.39,50.44c-0.58,0-1.05-0.47-1.05-1.05s0.47-1.05,1.05-1.05s1.05,0.47,1.05,1.05S52.97,50.44,52.39,50.44
				z M52.39,48.61c-0.43,0-0.79,0.35-0.79,0.79c0,0.43,0.35,0.79,0.79,0.79c0.43,0,0.79-0.35,0.79-0.79
				C53.18,48.96,52.83,48.61,52.39,48.61z"/>
		</g>
		<g>
			<g>
				<path class="st0" d="M52.06,49.8v-0.82h0.37c0.07,0,0.13,0.01,0.17,0.02c0.04,0.01,0.07,0.04,0.09,0.08
					c0.02,0.04,0.03,0.08,0.03,0.12c0,0.06-0.02,0.11-0.06,0.15c-0.04,0.04-0.1,0.07-0.18,0.08c0.03,0.01,0.05,0.03,0.07,0.04
					c0.03,0.03,0.06,0.07,0.09,0.11l0.14,0.22h-0.14l-0.11-0.17c-0.03-0.05-0.06-0.09-0.08-0.11s-0.04-0.04-0.06-0.06
					c-0.02-0.01-0.03-0.02-0.05-0.02c-0.01,0-0.03,0-0.06,0h-0.13v0.37H52.06z M52.17,49.34h0.23c0.05,0,0.09-0.01,0.12-0.02
					c0.03-0.01,0.05-0.03,0.06-0.05c0.01-0.02,0.02-0.05,0.02-0.07c0-0.04-0.01-0.07-0.04-0.1c-0.03-0.03-0.07-0.04-0.13-0.04h-0.26
					V49.34z"/>
			</g>
		</g>
	</g>
</g>
</svg>
