<?xml version="1.0" encoding="utf-8"?>
<!-- Generator: Adobe Illustrator 27.0.0, SVG Export Plug-In . SVG Version: 6.00 Build 0)  -->
<svg version="1.1" id="Capa_1" xmlns="http://www.w3.org/2000/svg" xmlns:xlink="http://www.w3.org/1999/xlink" x="0px" y="0px"
	 viewBox="0 0 60 60" style="enable-background:new 0 0 60 60;" xml:space="preserve">
<style type="text/css">
	.st0{fill:#2D3B2B;}
</style>
<g>
	<g>
		<g>
			<path class="st0" d="M24.03,7.14c0.05-0.07,0.12-0.11,0.21-0.12c0.06-0.01,0.14,0,0.25,0.04c0.11,0.04,0.23,0.08,0.36,0.12
				c0.12,0.05,0.29,0.08,0.49,0.1c0.2,0.02,0.41,0.01,0.63-0.02c0.31-0.05,0.54-0.17,0.71-0.35c0.16-0.18,0.22-0.38,0.18-0.63
				c-0.02-0.13-0.08-0.25-0.16-0.33c-0.09-0.09-0.19-0.16-0.31-0.21c-0.13-0.05-0.26-0.09-0.42-0.12c-0.16-0.03-0.32-0.06-0.49-0.08
				s-0.34-0.05-0.51-0.07c-0.17-0.03-0.34-0.07-0.5-0.12c-0.16-0.05-0.3-0.12-0.43-0.2c-0.13-0.08-0.24-0.19-0.34-0.33
				c-0.09-0.14-0.16-0.3-0.19-0.49c-0.07-0.42,0.03-0.78,0.31-1.1c0.28-0.32,0.69-0.52,1.23-0.62c0.47-0.08,0.88-0.07,1.25,0.03
				c0.37,0.1,0.57,0.26,0.61,0.46c0.02,0.09,0,0.16-0.05,0.23c-0.05,0.06-0.12,0.1-0.21,0.12c-0.06,0.01-0.15,0-0.25-0.02
				c-0.11-0.03-0.21-0.05-0.32-0.09c-0.11-0.03-0.25-0.05-0.43-0.07c-0.18-0.01-0.37,0-0.56,0.03c-0.28,0.05-0.5,0.15-0.65,0.31
				c-0.15,0.16-0.21,0.34-0.17,0.54c0.02,0.12,0.07,0.22,0.16,0.31c0.08,0.08,0.19,0.15,0.31,0.19c0.12,0.04,0.26,0.08,0.41,0.11
				c0.16,0.03,0.32,0.05,0.49,0.08c0.17,0.02,0.34,0.05,0.51,0.08c0.17,0.03,0.34,0.07,0.5,0.13c0.16,0.05,0.3,0.12,0.43,0.21
				c0.13,0.08,0.24,0.2,0.34,0.34c0.09,0.15,0.16,0.32,0.2,0.51c0.08,0.46-0.02,0.85-0.3,1.19c-0.28,0.34-0.71,0.55-1.27,0.66
				C25.71,8,25.39,8.01,25.08,7.97c-0.31-0.04-0.56-0.11-0.76-0.22c-0.2-0.11-0.31-0.24-0.34-0.39C23.97,7.28,23.99,7.21,24.03,7.14
				z"/>
		</g>
		<g>
			<path class="st0" d="M28.71,2.37c0.07-0.07,0.15-0.11,0.26-0.11c0.11,0,0.2,0.03,0.27,0.09c0.07,0.07,0.11,0.15,0.12,0.26
				l0.18,4.53c0,0.11-0.03,0.2-0.09,0.27c-0.07,0.07-0.16,0.11-0.26,0.11c-0.11,0-0.2-0.03-0.27-0.09
				c-0.07-0.07-0.11-0.15-0.12-0.26l-0.18-4.53C28.61,2.54,28.64,2.45,28.71,2.37z"/>
		</g>
		<g>
			<path class="st0" d="M35.8,2.86c0.06,0.08,0.08,0.17,0.07,0.27l-0.57,4.4c-0.02,0.14-0.07,0.25-0.15,0.32
				c-0.08,0.07-0.18,0.1-0.3,0.09c-0.13-0.02-0.24-0.06-0.31-0.13c-0.08-0.07-0.16-0.19-0.25-0.34l-2.2-3.9l-0.46,3.58
				c-0.01,0.11-0.06,0.19-0.14,0.25c-0.08,0.06-0.17,0.08-0.28,0.07c-0.11-0.01-0.19-0.06-0.25-0.14c-0.06-0.08-0.08-0.17-0.07-0.27
				l0.57-4.4c0.02-0.15,0.07-0.26,0.16-0.33c0.08-0.07,0.19-0.1,0.33-0.08c0.12,0.02,0.21,0.06,0.28,0.13
				c0.07,0.07,0.15,0.18,0.22,0.32l2.23,3.97l0.47-3.63c0.01-0.11,0.06-0.19,0.14-0.25c0.08-0.06,0.17-0.08,0.27-0.07
				C35.66,2.73,35.74,2.78,35.8,2.86z"/>
		</g>
	</g>
	<g>
		<g>
			<path class="st0" d="M5.46,25.76c0.08,0.12,0.11,0.27,0.09,0.44c-0.02,0.12-0.07,0.25-0.15,0.39c-0.08,0.14-0.17,0.29-0.25,0.46
				c-0.09,0.17-0.14,0.34-0.17,0.53C4.96,27.75,4.96,27.9,5,28.02c0.04,0.12,0.12,0.19,0.24,0.2c0.09,0.01,0.18-0.02,0.27-0.11
				c0.08-0.09,0.16-0.2,0.24-0.35c0.08-0.15,0.16-0.31,0.24-0.49s0.18-0.35,0.29-0.53c0.11-0.17,0.24-0.33,0.38-0.47
				c0.14-0.14,0.31-0.24,0.52-0.31c0.21-0.07,0.43-0.08,0.68-0.05c0.47,0.07,0.83,0.31,1.07,0.73c0.24,0.41,0.31,0.94,0.22,1.57
				c-0.05,0.33-0.13,0.62-0.24,0.88c-0.11,0.26-0.26,0.46-0.44,0.61c-0.18,0.15-0.39,0.21-0.61,0.17c-0.16-0.02-0.28-0.09-0.36-0.21
				c-0.09-0.12-0.12-0.26-0.09-0.43c0.02-0.12,0.06-0.25,0.14-0.39c0.07-0.14,0.15-0.29,0.23-0.46c0.08-0.17,0.13-0.35,0.16-0.54
				c0.04-0.29-0.03-0.46-0.23-0.49c-0.09-0.01-0.18,0.02-0.26,0.11c-0.08,0.08-0.16,0.2-0.24,0.34c-0.07,0.14-0.15,0.3-0.23,0.48
				c-0.08,0.18-0.18,0.35-0.29,0.52c-0.11,0.17-0.24,0.32-0.37,0.46c-0.14,0.13-0.3,0.23-0.51,0.3c-0.2,0.07-0.43,0.08-0.67,0.04
				c-0.49-0.07-0.86-0.32-1.12-0.74c-0.26-0.42-0.34-0.94-0.24-1.58c0.05-0.34,0.14-0.64,0.26-0.91c0.12-0.27,0.28-0.49,0.47-0.64
				c0.19-0.16,0.41-0.22,0.63-0.19C5.26,25.57,5.38,25.64,5.46,25.76z"/>
		</g>
		<g>
			<path class="st0" d="M4.03,35.41c-0.2-0.09-0.3-0.27-0.32-0.54c-0.02-0.36,0.19-0.64,0.63-0.84l0.33-0.15l-0.13-2.09L4.2,31.68
				c-0.25-0.08-0.43-0.17-0.54-0.27c-0.11-0.1-0.18-0.25-0.19-0.44c-0.02-0.26,0.07-0.44,0.25-0.56c0.18-0.11,0.43-0.12,0.73-0.02
				l3.51,1.19c0.32,0.11,0.55,0.24,0.69,0.39c0.14,0.15,0.22,0.36,0.24,0.63c0.02,0.27-0.03,0.48-0.15,0.65
				c-0.12,0.17-0.33,0.32-0.63,0.47l-3.33,1.62C4.47,35.48,4.23,35.5,4.03,35.41z M5.84,33.34l1.52-0.68l-1.59-0.5L5.84,33.34z"/>
		</g>
		<g>
			<path class="st0" d="M9.03,35.66c0.15,0.08,0.25,0.21,0.3,0.38l0.42,1.45C9.9,38,9.89,38.46,9.72,38.88
				c-0.17,0.41-0.47,0.68-0.89,0.81c-0.47,0.14-0.88-0.01-1.24-0.44c0,0.28-0.07,0.52-0.22,0.73C7.21,40.19,7,40.34,6.71,40.42
				c-0.2,0.06-0.39,0.07-0.58,0.05c-0.19-0.02-0.37-0.09-0.55-0.19c-0.18-0.1-0.34-0.26-0.48-0.47c-0.15-0.21-0.26-0.46-0.35-0.75
				L4.3,37.51c-0.05-0.18-0.04-0.34,0.04-0.48c0.08-0.15,0.21-0.25,0.38-0.3l3.82-1.12C8.72,35.56,8.88,35.57,9.03,35.66z
				 M5.63,37.87l0.22,0.74c0.05,0.17,0.13,0.29,0.24,0.36c0.11,0.07,0.23,0.09,0.36,0.05c0.13-0.04,0.22-0.12,0.27-0.24
				c0.05-0.12,0.04-0.26,0-0.43L6.5,37.62L5.63,37.87z M7.55,37.31l0.19,0.64c0.05,0.17,0.13,0.29,0.23,0.36
				c0.1,0.07,0.22,0.09,0.35,0.05c0.13-0.04,0.21-0.12,0.26-0.24c0.05-0.12,0.05-0.26,0-0.43l-0.19-0.64L7.55,37.31z"/>
		</g>
		<g>
			<path class="st0" d="M9.52,45.6c-0.36,0.04-0.71,0.01-1.04-0.09c-0.33-0.09-0.64-0.25-0.93-0.48c-0.29-0.22-0.53-0.5-0.71-0.82
				c-0.24-0.43-0.36-0.89-0.35-1.38c0.01-0.49,0.14-0.94,0.38-1.36c0.25-0.42,0.59-0.75,1.02-0.99c0.32-0.18,0.67-0.29,1.03-0.33
				c0.37-0.04,0.71-0.01,1.04,0.08c0.33,0.09,0.64,0.25,0.93,0.48c0.29,0.22,0.53,0.5,0.71,0.82c0.24,0.43,0.36,0.89,0.35,1.38
				c-0.01,0.49-0.14,0.94-0.38,1.36c-0.25,0.42-0.59,0.75-1.02,0.99C10.23,45.45,9.89,45.56,9.52,45.6z M10.53,43.2
				c0.11-0.35,0.08-0.69-0.09-1c-0.17-0.31-0.44-0.51-0.8-0.6c-0.36-0.09-0.71-0.04-1.04,0.15c-0.33,0.19-0.56,0.46-0.67,0.81
				c-0.11,0.35-0.08,0.69,0.09,1c0.18,0.31,0.44,0.51,0.8,0.6c0.36,0.09,0.71,0.04,1.04-0.15C10.19,43.83,10.41,43.55,10.53,43.2z"
				/>
		</g>
		<g>
			<path class="st0" d="M12.52,49.62c-0.07,0.23-0.18,0.42-0.32,0.55c-0.12,0.11-0.26,0.16-0.41,0.15
				c-0.15-0.01-0.29-0.09-0.42-0.24c-0.11-0.12-0.18-0.25-0.2-0.39c-0.02-0.14,0.01-0.31,0.07-0.5l0.48-1.36l-0.36-0.4l-0.82,0.75
				c-0.15,0.13-0.31,0.2-0.49,0.19c-0.18-0.01-0.33-0.08-0.47-0.23c-0.13-0.15-0.2-0.31-0.19-0.49c0.01-0.18,0.09-0.33,0.23-0.47
				l2.93-2.68c0.14-0.12,0.29-0.18,0.45-0.17c0.17,0.01,0.31,0.08,0.44,0.21l0.86,0.94c0.45,0.49,0.7,0.99,0.74,1.51
				c0.04,0.51-0.13,0.94-0.52,1.3c-0.24,0.22-0.5,0.36-0.79,0.41c-0.29,0.05-0.59,0.03-0.89-0.08L12.52,49.62z M12.23,46.62
				l0.45,0.49c0.14,0.15,0.28,0.23,0.45,0.26c0.16,0.02,0.31-0.03,0.43-0.14c0.12-0.11,0.18-0.25,0.17-0.41
				c-0.01-0.16-0.09-0.31-0.22-0.46l-0.45-0.49L12.23,46.62z"/>
		</g>
		<g>
			<path class="st0" d="M16.14,47.58c0.17-0.02,0.32,0.02,0.47,0.13l1.81,1.35c0.15,0.11,0.23,0.25,0.26,0.41
				c0.02,0.17-0.02,0.32-0.13,0.47c-0.11,0.15-0.25,0.23-0.41,0.26s-0.32-0.02-0.47-0.13l-1.24-0.92l-0.41,0.55l0.97,0.73
				c0.15,0.11,0.23,0.25,0.26,0.41c0.02,0.17-0.02,0.32-0.13,0.47c-0.11,0.15-0.25,0.23-0.41,0.26s-0.32-0.02-0.47-0.13l-0.97-0.73
				l-0.45,0.6l1.23,0.92c0.15,0.11,0.23,0.25,0.26,0.41c0.02,0.17-0.02,0.32-0.13,0.47c-0.11,0.15-0.25,0.23-0.41,0.26
				c-0.17,0.02-0.32-0.02-0.47-0.13l-1.81-1.35c-0.15-0.11-0.23-0.25-0.26-0.41c-0.02-0.17,0.02-0.32,0.13-0.47l2.37-3.18
				C15.84,47.69,15.97,47.6,16.14,47.58z"/>
		</g>
		<g>
			<path class="st0" d="M17.45,53.04c0.14-0.04,0.29-0.03,0.45,0.05c0.11,0.05,0.22,0.14,0.33,0.26c0.11,0.12,0.23,0.25,0.37,0.38
				c0.13,0.13,0.28,0.24,0.45,0.32c0.16,0.08,0.3,0.11,0.43,0.11c0.13,0,0.21-0.06,0.27-0.16c0.04-0.09,0.04-0.18-0.02-0.29
				s-0.14-0.22-0.26-0.33c-0.12-0.12-0.25-0.24-0.39-0.38c-0.14-0.13-0.28-0.28-0.41-0.44c-0.13-0.16-0.24-0.33-0.33-0.5
				c-0.09-0.17-0.14-0.37-0.14-0.59c0-0.22,0.05-0.44,0.16-0.66c0.21-0.43,0.55-0.7,1.02-0.8c0.47-0.1,0.99-0.01,1.56,0.27
				c0.3,0.15,0.56,0.31,0.77,0.49c0.21,0.18,0.36,0.38,0.45,0.6c0.09,0.22,0.08,0.43-0.02,0.64c-0.07,0.14-0.17,0.23-0.31,0.28
				c-0.14,0.05-0.29,0.03-0.44-0.04c-0.11-0.06-0.22-0.14-0.33-0.25c-0.11-0.11-0.23-0.23-0.37-0.35c-0.14-0.12-0.29-0.23-0.47-0.32
				c-0.27-0.13-0.45-0.11-0.53,0.07c-0.04,0.08-0.03,0.17,0.02,0.28c0.05,0.1,0.14,0.21,0.25,0.33s0.24,0.24,0.39,0.37
				c0.14,0.13,0.28,0.28,0.41,0.44c0.13,0.16,0.24,0.32,0.32,0.49c0.09,0.17,0.13,0.36,0.13,0.58c0,0.22-0.05,0.43-0.16,0.66
				c-0.22,0.45-0.57,0.73-1.04,0.85c-0.48,0.12-1,0.04-1.58-0.25c-0.31-0.15-0.57-0.32-0.79-0.52c-0.22-0.2-0.38-0.41-0.47-0.65
				c-0.09-0.23-0.09-0.45,0.01-0.66C17.21,53.17,17.31,53.08,17.45,53.04z"/>
		</g>
		<g>
			<path class="st0" d="M28.1,57.5c-0.14,0.17-0.34,0.23-0.6,0.19c-0.36-0.06-0.58-0.33-0.67-0.81l-0.07-0.36l-2.06-0.35l-0.19,0.31
				c-0.13,0.22-0.26,0.38-0.38,0.47c-0.12,0.09-0.28,0.12-0.48,0.08c-0.25-0.04-0.42-0.17-0.48-0.37c-0.07-0.21-0.02-0.44,0.14-0.72
				l1.97-3.14c0.18-0.28,0.36-0.48,0.54-0.58c0.18-0.1,0.41-0.13,0.67-0.08c0.26,0.04,0.46,0.15,0.6,0.3
				c0.13,0.15,0.24,0.4,0.31,0.72l0.82,3.62C28.28,57.09,28.24,57.33,28.1,57.5z M26.51,55.27l-0.31-1.63l-0.85,1.43L26.51,55.27z"
				/>
		</g>
		<g>
			<path class="st0" d="M33.26,56.42c0.14,0.2,0.21,0.4,0.22,0.59c0.01,0.17-0.04,0.3-0.15,0.41c-0.11,0.11-0.26,0.17-0.45,0.18
				c-0.17,0.01-0.31-0.02-0.43-0.1c-0.12-0.07-0.24-0.2-0.34-0.37l-0.76-1.23l-0.54,0.03l0.07,1.11c0.01,0.2-0.04,0.37-0.16,0.5
				s-0.27,0.21-0.47,0.22c-0.2,0.01-0.37-0.04-0.5-0.16s-0.21-0.28-0.22-0.48l-0.23-3.96c-0.01-0.18,0.04-0.34,0.15-0.46
				c0.11-0.13,0.26-0.19,0.44-0.2l1.27-0.07c0.67-0.04,1.21,0.09,1.63,0.38c0.42,0.29,0.65,0.7,0.68,1.22
				c0.02,0.32-0.04,0.62-0.18,0.88c-0.14,0.26-0.35,0.47-0.63,0.64L33.26,56.42z M30.75,54.75l0.66-0.04
				c0.2-0.01,0.36-0.07,0.48-0.19c0.12-0.11,0.17-0.25,0.16-0.43c-0.01-0.16-0.08-0.29-0.21-0.39c-0.13-0.09-0.3-0.13-0.5-0.12
				l-0.66,0.04L30.75,54.75z"/>
		</g>
		<g>
			<path class="st0" d="M37.11,56.09c0.05,0.19,0.03,0.37-0.06,0.52c-0.09,0.15-0.23,0.25-0.42,0.3c-0.19,0.05-0.37,0.03-0.52-0.06
				c-0.15-0.09-0.25-0.23-0.3-0.43l-0.82-3.22l-0.77,0.2c-0.18,0.04-0.34,0.02-0.48-0.06c-0.14-0.09-0.24-0.22-0.28-0.4
				c-0.04-0.18-0.02-0.34,0.06-0.48c0.08-0.14,0.22-0.24,0.39-0.28l2.86-0.73c0.18-0.04,0.34-0.02,0.48,0.06
				c0.14,0.09,0.24,0.22,0.28,0.4c0.04,0.18,0.03,0.34-0.06,0.48s-0.21,0.24-0.39,0.28l-0.78,0.2L37.11,56.09z"/>
		</g>
		<g>
			<path class="st0" d="M37.72,51.18c0.07-0.16,0.19-0.28,0.37-0.36c0.19-0.08,0.36-0.08,0.52-0.01c0.17,0.07,0.29,0.2,0.36,0.38
				l1.51,3.66c0.08,0.18,0.08,0.36,0.01,0.52c-0.07,0.16-0.19,0.28-0.37,0.36c-0.18,0.08-0.36,0.08-0.52,0.01
				c-0.17-0.07-0.28-0.2-0.36-0.38l-1.52-3.66C37.66,51.52,37.66,51.35,37.72,51.18z"/>
		</g>
		<g>
			<path class="st0" d="M42.85,53.75c0.1,0.17,0.13,0.34,0.08,0.52c-0.04,0.17-0.15,0.31-0.33,0.41c-0.17,0.1-0.34,0.13-0.51,0.08
				c-0.17-0.05-0.31-0.15-0.41-0.33l-2.04-3.49c-0.09-0.16-0.12-0.32-0.07-0.48c0.04-0.16,0.14-0.29,0.3-0.38l1.88-1.1
				c0.16-0.09,0.32-0.12,0.48-0.07c0.16,0.04,0.29,0.14,0.38,0.3c0.09,0.16,0.12,0.32,0.08,0.49c-0.04,0.16-0.14,0.29-0.3,0.38
				l-1.27,0.74l0.42,0.72l0.99-0.58c0.16-0.09,0.32-0.12,0.48-0.08c0.16,0.04,0.29,0.14,0.38,0.3c0.09,0.16,0.12,0.32,0.08,0.48
				c-0.04,0.16-0.14,0.29-0.3,0.38l-0.99,0.58L42.85,53.75z"/>
		</g>
		<g>
			<path class="st0" d="M42.78,48.41c0.02-0.18,0.11-0.32,0.26-0.45c0.16-0.12,0.32-0.17,0.5-0.15c0.18,0.02,0.33,0.11,0.45,0.27
				l2.43,3.12c0.12,0.16,0.17,0.32,0.15,0.5c-0.02,0.18-0.11,0.32-0.26,0.45c-0.16,0.12-0.32,0.17-0.5,0.15
				c-0.18-0.02-0.33-0.11-0.45-0.27l-2.43-3.12C42.81,48.75,42.76,48.59,42.78,48.41z"/>
		</g>
		<g>
			<path class="st0" d="M45.31,48.54c-0.15-0.24-0.25-0.5-0.31-0.77c-0.06-0.27-0.07-0.54-0.04-0.81c0.03-0.27,0.11-0.55,0.25-0.84
				c0.14-0.28,0.33-0.56,0.57-0.82c0.23-0.24,0.47-0.44,0.74-0.59c0.26-0.15,0.52-0.24,0.76-0.25c0.24-0.02,0.44,0.04,0.59,0.18
				c0.14,0.13,0.21,0.28,0.21,0.44c-0.01,0.16-0.07,0.3-0.2,0.43c-0.09,0.09-0.2,0.17-0.32,0.23c-0.13,0.06-0.27,0.12-0.41,0.2
				c-0.15,0.08-0.28,0.18-0.41,0.32c-0.29,0.31-0.41,0.63-0.37,0.97c0.04,0.34,0.21,0.65,0.51,0.92c0.3,0.28,0.61,0.43,0.95,0.44
				c0.34,0.02,0.65-0.13,0.94-0.44c0.13-0.14,0.23-0.28,0.3-0.44c0.07-0.15,0.12-0.29,0.17-0.42s0.12-0.25,0.2-0.34
				c0.12-0.13,0.26-0.21,0.42-0.22c0.16-0.02,0.31,0.04,0.45,0.18c0.15,0.14,0.22,0.33,0.22,0.57c0,0.24-0.07,0.5-0.2,0.77
				c-0.13,0.27-0.31,0.53-0.54,0.77c-0.24,0.26-0.5,0.47-0.78,0.63c-0.27,0.16-0.55,0.26-0.82,0.31c-0.27,0.05-0.54,0.05-0.82,0.01
				c-0.27-0.04-0.53-0.13-0.79-0.26c-0.25-0.13-0.49-0.3-0.71-0.51C45.64,49.01,45.45,48.78,45.31,48.54z"/>
		</g>
		<g>
			<path class="st0" d="M47.43,43.68c-0.03-0.17,0.01-0.34,0.12-0.51c0.11-0.16,0.26-0.26,0.43-0.29c0.18-0.03,0.35,0.01,0.51,0.12
				l3.26,2.24c0.17,0.11,0.26,0.26,0.3,0.43c0.03,0.17-0.01,0.34-0.12,0.51c-0.11,0.16-0.26,0.26-0.43,0.29s-0.34-0.01-0.51-0.12
				l-3.26-2.24C47.56,44,47.46,43.86,47.43,43.68z"/>
		</g>
		<g>
			<path class="st0" d="M54.94,39.85c0.13,0.18,0.14,0.39,0.03,0.63c-0.15,0.33-0.47,0.48-0.96,0.44l-0.37-0.02l-0.88,1.91
				l0.26,0.26c0.18,0.19,0.3,0.35,0.35,0.49c0.05,0.14,0.04,0.3-0.04,0.48c-0.11,0.23-0.27,0.36-0.49,0.37
				c-0.22,0.01-0.44-0.1-0.66-0.33l-2.54-2.72c-0.23-0.25-0.37-0.47-0.42-0.67c-0.05-0.2-0.02-0.43,0.09-0.67
				c0.11-0.25,0.26-0.41,0.45-0.5c0.18-0.09,0.45-0.13,0.78-0.11l3.72,0.15C54.59,39.57,54.81,39.67,54.94,39.85z M52.37,40.82
				L50.7,40.7l1.17,1.19L52.37,40.82z"/>
		</g>
		<g>
			<path class="st0" d="M50.61,37.27c-0.1-0.15-0.12-0.32-0.08-0.51c0.04-0.19,0.14-0.34,0.29-0.44c0.15-0.1,0.32-0.12,0.52-0.08
				l3.25,0.72l0.36-1.63c0.04-0.18,0.13-0.31,0.27-0.4s0.3-0.11,0.48-0.07c0.18,0.04,0.31,0.13,0.4,0.27
				c0.09,0.14,0.12,0.3,0.08,0.48l-0.51,2.33c-0.04,0.18-0.13,0.31-0.27,0.4c-0.14,0.09-0.3,0.12-0.48,0.08l-3.87-0.85
				C50.85,37.52,50.71,37.42,50.61,37.27z"/>
		</g>
		<g>
			<path class="st0" d="M51.37,33.49c-0.11-0.12-0.17-0.28-0.16-0.46l0.09-2.26c0.01-0.18,0.07-0.33,0.2-0.45
				c0.12-0.11,0.28-0.17,0.46-0.16c0.18,0.01,0.33,0.07,0.45,0.19c0.11,0.12,0.17,0.28,0.16,0.46l-0.06,1.54l0.69,0.03l0.05-1.22
				c0.01-0.18,0.07-0.33,0.2-0.45c0.12-0.11,0.28-0.17,0.46-0.16c0.18,0.01,0.33,0.07,0.45,0.2c0.11,0.12,0.17,0.28,0.16,0.46
				l-0.05,1.22l0.75,0.03l0.06-1.54c0.01-0.18,0.07-0.33,0.2-0.45c0.12-0.11,0.28-0.17,0.46-0.16c0.18,0.01,0.33,0.07,0.45,0.2
				c0.11,0.12,0.17,0.28,0.16,0.46l-0.09,2.26c-0.01,0.18-0.07,0.33-0.2,0.45c-0.12,0.11-0.28,0.17-0.46,0.16l-3.97-0.15
				C51.64,33.68,51.49,33.62,51.37,33.49z"/>
		</g>
		<g>
			<path class="st0" d="M55.14,29.33c-0.12-0.09-0.19-0.22-0.21-0.39c-0.02-0.12-0.01-0.26,0.03-0.41c0.04-0.16,0.07-0.33,0.11-0.52
				c0.03-0.19,0.04-0.37,0.01-0.55c-0.03-0.17-0.07-0.31-0.15-0.41c-0.07-0.1-0.17-0.14-0.28-0.13c-0.1,0.01-0.17,0.07-0.23,0.18
				c-0.06,0.11-0.1,0.24-0.13,0.41c-0.03,0.16-0.06,0.34-0.09,0.53c-0.03,0.2-0.07,0.39-0.13,0.59c-0.06,0.2-0.13,0.38-0.22,0.56
				c-0.09,0.17-0.23,0.32-0.4,0.44c-0.18,0.13-0.39,0.21-0.64,0.24c-0.47,0.07-0.88-0.06-1.23-0.38c-0.35-0.33-0.57-0.8-0.66-1.44
				c-0.05-0.33-0.06-0.63-0.03-0.91c0.03-0.28,0.11-0.51,0.24-0.71c0.13-0.2,0.31-0.31,0.54-0.34c0.16-0.02,0.29,0.01,0.41,0.1
				s0.19,0.22,0.21,0.38c0.02,0.12,0.01,0.26-0.02,0.42c-0.03,0.15-0.06,0.32-0.08,0.5c-0.03,0.18-0.02,0.37,0,0.56
				c0.04,0.29,0.16,0.43,0.36,0.4c0.09-0.01,0.16-0.07,0.22-0.18s0.1-0.24,0.13-0.39c0.03-0.16,0.06-0.33,0.08-0.52
				c0.03-0.19,0.07-0.38,0.13-0.58c0.06-0.2,0.13-0.38,0.23-0.54c0.09-0.17,0.22-0.31,0.4-0.43c0.18-0.12,0.39-0.2,0.63-0.24
				c0.49-0.07,0.92,0.05,1.29,0.38c0.37,0.32,0.6,0.8,0.69,1.44c0.05,0.34,0.06,0.65,0.02,0.95c-0.04,0.29-0.12,0.54-0.26,0.75
				c-0.14,0.21-0.32,0.33-0.55,0.36C55.39,29.45,55.26,29.42,55.14,29.33z"/>
		</g>
	</g>
	<g>
		<g>
			<path class="st0" d="M7.59,23c2.18-6.52,7.13-11.72,13.42-14.41c0.76-0.32,0.93-1.44,0.55-2.09c-0.46-0.79-1.33-0.87-2.09-0.55
				c-7.02,3-12.42,9.01-14.83,16.23C4.01,24.06,6.96,24.86,7.59,23L7.59,23z"/>
		</g>
	</g>
	<g>
		<g>
			<path class="st0" d="M38.78,8.49C45.22,11.02,50.3,16.45,52.49,23c0.62,1.86,3.58,1.06,2.95-0.81
				c-2.56-7.64-8.36-13.7-15.85-16.64c-0.77-0.3-1.68,0.33-1.88,1.07C37.48,7.48,38.01,8.19,38.78,8.49L38.78,8.49z"/>
		</g>
	</g>
	<g>
		<g>
			<g>
				<path class="st0" d="M23.17,25.61c1.56,1.59,3.11,3.19,4.67,4.78c0.63,0.64,1.23,1.34,1.9,1.94c0.72,0.65,1.7,1.1,2.52,1.61
					c1.12,0.7,2.28,1.68,3.69,1.12c0.97-0.39,1.61-1.38,1.53-2.44c-0.05-0.65-0.37-1.14-0.7-1.67c-0.53-0.84-1-1.85-1.67-2.58
					c-0.57-0.63-1.27-1.17-1.89-1.75c-1.86-1.72-3.72-3.43-5.58-5.15c-0.72-0.67-1.81,0.41-1.08,1.08c1.45,1.34,2.9,2.68,4.35,4.01
					c0.87,0.8,1.73,1.6,2.6,2.4c0.17,0.16,0.34,0.36,0.53,0.49c-0.04-0.03-0.14-0.23-0.01,0c0.12,0.21,0.27,0.42,0.4,0.63
					c0.36,0.56,0.71,1.12,1.07,1.68c0.27,0.42,0.63,0.86,0.4,1.39c-0.56,1.29-2.13-0.08-2.81-0.5c-0.56-0.35-1.11-0.7-1.67-1.05
					c-0.18-0.11-0.36-0.23-0.55-0.34c-0.19-0.11-0.16-0.16-0.04-0.01c-0.47-0.6-1.1-1.12-1.63-1.67c-1.65-1.69-3.3-3.38-4.94-5.07
					C23.56,23.82,22.48,24.9,23.17,25.61L23.17,25.61z"/>
			</g>
		</g>
		<g>
			<g>
				<path class="st0" d="M27.04,19.5c-1.65,1.65-3.29,3.29-4.94,4.94c-0.23,0.23-0.47,0.47-0.7,0.7c-0.7,0.7,0.38,1.78,1.08,1.08
					c1.65-1.65,3.29-3.29,4.94-4.94c0.23-0.23,0.47-0.47,0.7-0.7C28.82,19.89,27.74,18.81,27.04,19.5L27.04,19.5z"/>
			</g>
		</g>
		<g>
			<path class="st0" d="M39.32,40.21c0,1.2-0.97,2.17-2.17,2.17c-1.2,0-2.17-0.97-2.17-2.17c0-1.2,2.17-3.64,2.17-3.64
				S39.32,39.02,39.32,40.21z"/>
		</g>
		<g>
			<path class="st0" d="M23.15,23.91l-1.7-1.58c-0.92-0.85-0.92-2.3,0-3.16l0,0c0.87-0.82,2.24-0.76,3.06,0.11l1.5,1.62"/>
		</g>
	</g>
</g>
</svg>
