<?xml version="1.0" encoding="utf-8"?>
<!-- Generator: Adobe Illustrator 27.0.0, SVG Export Plug-In . SVG Version: 6.00 Build 0)  -->
<svg version="1.1" id="Capa_1" xmlns="http://www.w3.org/2000/svg" xmlns:xlink="http://www.w3.org/1999/xlink" x="0px" y="0px"
	 viewBox="0 0 60 60" style="enable-background:new 0 0 60 60;" xml:space="preserve">
<style type="text/css">
	.st0{fill:#2D3B2B;}
</style>
<g>
	<g>
		<polygon class="st0" points="33.93,21.59 26.31,21.59 20.93,26.97 20.93,34.59 26.31,39.97 33.93,39.97 39.31,34.59 39.31,26.97 
					"/>
	</g>
	<g>
		<g>
			<path class="st0" d="M34.67,19.02c-2.75,0-5.49,0-8.24,0c-0.91,0-1.28,0.1-1.93,0.74c-1.15,1.15-2.31,2.31-3.46,3.46
				c-0.79,0.79-1.8,1.56-2.45,2.45c-0.52,0.71-0.23,2.18-0.23,3c0,1.75,0,3.51,0,5.26c0,0.82-0.15,1.53,0.44,2.15
				c1.96,2.06,3.96,4.24,6.1,6.1c0.62,0.54,1.6,0.34,2.37,0.34c1.77,0,3.54,0,5.31,0c0.77,0,2.02,0.25,2.66-0.27
				c0.98-0.79,1.83-1.83,2.72-2.72c1.11-1.11,2.21-2.21,3.32-3.32c0.64-0.64,0.58-1.17,0.58-2.05c0-1.7,0-3.4,0-5.1
				c0-0.71,0-1.41,0-2.12c0-0.35,0.06-0.8-0.1-1.12c-0.15-0.29-0.51-0.54-0.73-0.77c-0.52-0.52-1.03-1.03-1.55-1.55
				c-1.19-1.19-2.38-2.38-3.57-3.57c-0.24-0.24-0.47-0.47-0.71-0.71c-0.7-0.7-1.78,0.38-1.08,1.08c2.15,2.15,4.29,4.29,6.44,6.44
				c-0.07-0.18-0.15-0.36-0.22-0.54c0,3.04,0,6.07,0,9.11c0.07-0.18,0.15-0.36,0.22-0.54c-2.15,2.15-4.29,4.29-6.44,6.44
				c0.18-0.07,0.36-0.15,0.54-0.22c-3.04,0-6.07,0-9.11,0c0.18,0.07,0.36,0.15,0.54,0.22c-2.15-2.15-4.29-4.29-6.44-6.44
				c0.07,0.18,0.15,0.36,0.22,0.54c0-3.04,0-6.07,0-9.11c-0.07,0.18-0.15,0.36-0.22,0.54c2.15-2.15,4.29-4.29,6.44-6.44
				c-0.18,0.07-0.36,0.15-0.54,0.22c3.04,0,6.07,0,9.11,0C35.66,20.55,35.66,19.02,34.67,19.02z"/>
		</g>
	</g>
	<g>
		<g>
			<path class="st0" d="M3.21,22.61c-0.04-0.09-0.05-0.19-0.01-0.29c0.04-0.1,0.1-0.18,0.19-0.22c0.09-0.04,0.19-0.04,0.29-0.01
				l3.89,1.39l0.78-2.19c0.03-0.09,0.09-0.16,0.17-0.2c0.08-0.04,0.17-0.04,0.27,0c0.09,0.03,0.16,0.09,0.2,0.17
				c0.04,0.08,0.04,0.17,0.01,0.26l-0.91,2.56C8.05,24.19,8,24.26,7.91,24.3c-0.09,0.04-0.17,0.04-0.27,0.01l-4.22-1.5
				C3.32,22.77,3.25,22.7,3.21,22.61z"/>
		</g>
		<g>
			<path class="st0" d="M5.02,18.05C5,17.96,5.01,17.86,5.05,17.77c0.05-0.1,0.12-0.16,0.22-0.19c0.09-0.03,0.19-0.02,0.28,0.03
				l4.02,2.09c0.09,0.05,0.16,0.12,0.18,0.21C9.78,20,9.77,20.1,9.72,20.19c-0.05,0.09-0.12,0.16-0.21,0.19
				c-0.09,0.03-0.19,0.02-0.28-0.03l-4.02-2.09C5.11,18.22,5.05,18.14,5.02,18.05z"/>
		</g>
		<g>
			<path class="st0" d="M6.41,15.55c-0.01-0.09,0.01-0.18,0.07-0.26L7.5,13.9c0.27-0.37,0.61-0.6,1.01-0.7
				c0.4-0.09,0.76-0.02,1.09,0.22c0.23,0.17,0.37,0.37,0.43,0.61c0.06,0.24,0.06,0.47,0,0.69c0.24-0.18,0.5-0.28,0.78-0.3
				c0.28-0.02,0.56,0.06,0.82,0.25c0.32,0.24,0.51,0.56,0.55,0.98c0.04,0.41-0.08,0.82-0.37,1.23l-1.09,1.5
				c-0.06,0.08-0.14,0.13-0.23,0.14c-0.09,0.01-0.18-0.01-0.26-0.07l-3.66-2.67C6.47,15.72,6.43,15.65,6.41,15.55z M8.52,16.3
				l0.75-1.02c0.16-0.22,0.23-0.44,0.21-0.67c-0.02-0.23-0.12-0.42-0.3-0.55C9,13.93,8.79,13.89,8.56,13.95
				C8.33,14,8.14,14.14,7.98,14.35l-0.74,1.02L8.52,16.3z M10.4,17.67l0.81-1.11c0.16-0.23,0.24-0.46,0.22-0.71
				c-0.02-0.25-0.13-0.45-0.32-0.59c-0.2-0.14-0.41-0.19-0.66-0.13c-0.24,0.06-0.45,0.2-0.61,0.43l-0.81,1.11L10.4,17.67z"/>
		</g>
		<g>
			<path class="st0" d="M15.66,12.04c0.13,0.04,0.23,0.09,0.3,0.17c0.06,0.06,0.08,0.14,0.08,0.22c-0.01,0.08-0.05,0.16-0.13,0.23
				c-0.06,0.06-0.13,0.09-0.21,0.1s-0.17,0-0.28-0.04l-2.05-0.6l-0.78,0.7l1.15,1.28c0.07,0.08,0.1,0.17,0.1,0.27
				c-0.01,0.1-0.05,0.18-0.13,0.26c-0.08,0.07-0.17,0.1-0.27,0.1c-0.1,0-0.18-0.05-0.25-0.12l-3.03-3.36
				c-0.07-0.08-0.1-0.16-0.09-0.25c0-0.09,0.04-0.17,0.12-0.24l1.1-0.99c0.43-0.38,0.86-0.59,1.32-0.61
				c0.45-0.02,0.83,0.15,1.15,0.5c0.24,0.27,0.37,0.57,0.39,0.91c0.02,0.33-0.08,0.67-0.28,0.99L15.66,12.04z M12.99,11.59
				c0.24-0.22,0.38-0.46,0.41-0.71c0.03-0.26-0.04-0.49-0.23-0.7c-0.18-0.21-0.4-0.3-0.66-0.29c-0.26,0.01-0.51,0.12-0.75,0.34
				l-0.85,0.77l1.23,1.36L12.99,11.59z"/>
		</g>
		<g>
			<path class="st0" d="M14.57,7.3c0.02-0.09,0.08-0.16,0.16-0.21l2.31-1.37c0.09-0.05,0.18-0.07,0.27-0.04
				c0.09,0.02,0.16,0.08,0.21,0.17c0.05,0.09,0.07,0.17,0.04,0.26c-0.02,0.09-0.08,0.16-0.17,0.21l-1.97,1.17l0.8,1.35l1.69-1.01
				c0.09-0.05,0.17-0.07,0.26-0.05s0.16,0.07,0.21,0.16c0.05,0.09,0.07,0.18,0.04,0.27c-0.02,0.09-0.08,0.16-0.16,0.21l-1.69,1.01
				l0.81,1.36l1.97-1.17c0.09-0.05,0.18-0.07,0.27-0.05c0.09,0.02,0.16,0.08,0.21,0.17c0.05,0.09,0.07,0.17,0.04,0.26
				s-0.08,0.16-0.17,0.21l-2.31,1.37c-0.09,0.05-0.18,0.07-0.27,0.04c-0.09-0.02-0.16-0.08-0.21-0.16l-2.32-3.89
				C14.56,7.48,14.55,7.39,14.57,7.3z"/>
		</g>
		<g>
			<path class="st0" d="M21.25,4.01c0.05-0.08,0.12-0.13,0.22-0.16l1.21-0.31c0.56-0.14,1.08-0.16,1.57-0.05
				c0.49,0.1,0.9,0.32,1.24,0.64c0.34,0.32,0.57,0.73,0.69,1.23c0.12,0.49,0.12,0.96-0.02,1.4s-0.39,0.83-0.76,1.15
				c-0.37,0.32-0.82,0.55-1.36,0.68l-1.29,0.33c-0.1,0.02-0.19,0.01-0.27-0.03c-0.08-0.05-0.13-0.12-0.16-0.22l-1.11-4.39
				C21.19,4.18,21.2,4.09,21.25,4.01z M22.98,8.14l0.84-0.21c0.63-0.16,1.09-0.46,1.38-0.89c0.29-0.43,0.37-0.93,0.23-1.49
				c-0.14-0.56-0.45-0.96-0.92-1.21c-0.47-0.25-1.02-0.29-1.65-0.13l-0.83,0.21L22.98,8.14z"/>
		</g>
		<g>
			<path class="st0" d="M27.72,2.72c0.06-0.07,0.15-0.1,0.25-0.11l2.69-0.09c0.1,0,0.19,0.03,0.26,0.09
				c0.07,0.06,0.1,0.15,0.11,0.25c0,0.1-0.03,0.18-0.09,0.25c-0.06,0.07-0.15,0.1-0.25,0.1l-2.29,0.08l0.05,1.57l1.96-0.07
				c0.1,0,0.19,0.02,0.25,0.09c0.07,0.06,0.11,0.14,0.11,0.24c0,0.1-0.03,0.19-0.09,0.25c-0.06,0.07-0.15,0.1-0.25,0.11l-1.96,0.07
				l0.06,1.58l2.29-0.08c0.1,0,0.19,0.03,0.26,0.09c0.07,0.06,0.1,0.15,0.11,0.25c0,0.1-0.03,0.18-0.09,0.25
				c-0.06,0.07-0.15,0.1-0.25,0.1l-2.69,0.09c-0.1,0-0.19-0.03-0.25-0.09c-0.07-0.06-0.11-0.15-0.11-0.25l-0.16-4.53
				C27.62,2.87,27.65,2.79,27.72,2.72z"/>
		</g>
		<g>
			<path class="st0" d="M33.87,6.97c0.07-0.04,0.15-0.05,0.24-0.03c0.06,0.01,0.13,0.06,0.22,0.14c0.09,0.08,0.18,0.16,0.28,0.25
				c0.1,0.09,0.23,0.19,0.41,0.29c0.18,0.1,0.37,0.18,0.59,0.22c0.3,0.07,0.57,0.06,0.79-0.04c0.22-0.1,0.36-0.26,0.41-0.5
				c0.03-0.13,0.02-0.26-0.02-0.37c-0.04-0.12-0.11-0.22-0.21-0.32c-0.1-0.09-0.21-0.19-0.34-0.28c-0.13-0.09-0.27-0.18-0.42-0.27
				c-0.15-0.09-0.3-0.18-0.44-0.27c-0.15-0.09-0.28-0.19-0.41-0.3c-0.13-0.11-0.23-0.23-0.32-0.35c-0.09-0.13-0.15-0.27-0.18-0.44
				c-0.03-0.17-0.02-0.34,0.02-0.53c0.1-0.41,0.33-0.71,0.72-0.89c0.38-0.18,0.84-0.21,1.37-0.08c0.46,0.11,0.84,0.28,1.14,0.52
				c0.3,0.24,0.42,0.46,0.38,0.66c-0.02,0.08-0.06,0.15-0.13,0.19c-0.07,0.04-0.15,0.05-0.24,0.03c-0.06-0.01-0.14-0.05-0.22-0.12
				c-0.09-0.06-0.17-0.13-0.26-0.21c-0.09-0.07-0.21-0.15-0.37-0.23c-0.16-0.08-0.34-0.15-0.53-0.19c-0.28-0.06-0.52-0.05-0.72,0.03
				c-0.2,0.08-0.32,0.23-0.37,0.43c-0.03,0.12-0.02,0.23,0.02,0.34c0.04,0.11,0.11,0.21,0.21,0.3c0.1,0.09,0.21,0.18,0.34,0.26
				c0.13,0.09,0.27,0.17,0.42,0.26c0.15,0.09,0.29,0.18,0.44,0.27c0.15,0.09,0.28,0.2,0.41,0.31c0.12,0.11,0.23,0.23,0.32,0.36
				c0.09,0.13,0.14,0.28,0.17,0.45c0.03,0.17,0.02,0.35-0.02,0.55c-0.11,0.45-0.35,0.78-0.75,0.97c-0.39,0.2-0.87,0.23-1.42,0.1
				c-0.32-0.07-0.61-0.19-0.88-0.35s-0.47-0.33-0.61-0.51c-0.14-0.18-0.19-0.34-0.16-0.49C33.75,7.08,33.8,7.02,33.87,6.97z"/>
		</g>
		<g>
			<path class="st0" d="M40.25,4.5c0.09-0.03,0.18-0.03,0.27,0.01l2.45,1.09c0.1,0.04,0.16,0.11,0.19,0.19
				c0.03,0.09,0.03,0.18-0.01,0.27c-0.04,0.09-0.1,0.15-0.19,0.19c-0.09,0.03-0.18,0.03-0.27-0.01L40.6,5.31l-0.64,1.44l1.8,0.8
				c0.09,0.04,0.16,0.1,0.19,0.19c0.03,0.09,0.03,0.17-0.01,0.27c-0.04,0.09-0.11,0.15-0.19,0.19c-0.09,0.03-0.18,0.03-0.27-0.01
				l-1.8-0.8l-0.64,1.45l2.09,0.93c0.09,0.04,0.16,0.11,0.19,0.19c0.03,0.09,0.03,0.18-0.01,0.27c-0.04,0.09-0.1,0.15-0.19,0.19
				c-0.09,0.03-0.18,0.03-0.27-0.01L38.4,9.29c-0.09-0.04-0.16-0.11-0.19-0.19s-0.03-0.18,0.01-0.27l1.84-4.14
				C40.1,4.6,40.17,4.53,40.25,4.5z"/>
		</g>
		<g>
			<path class="st0" d="M44.88,6.84c0.1-0.02,0.19,0,0.28,0.06c0.09,0.06,0.14,0.14,0.16,0.24c0.02,0.1,0,0.19-0.07,0.28l-2.34,3.41
				l1.91,1.32c0.08,0.06,0.13,0.13,0.15,0.22c0.02,0.09-0.01,0.18-0.07,0.26c-0.06,0.08-0.13,0.13-0.22,0.15
				c-0.09,0.02-0.17,0-0.26-0.06l-2.24-1.54c-0.08-0.06-0.13-0.13-0.15-0.23c-0.02-0.09,0-0.18,0.06-0.26L44.64,7
				C44.7,6.91,44.78,6.86,44.88,6.84z"/>
		</g>
		<g>
			<path class="st0" d="M48.95,9.88c0.1,0,0.19,0.04,0.26,0.11c0.08,0.08,0.12,0.16,0.12,0.26c0,0.1-0.04,0.19-0.12,0.27l-2.91,2.94
				l1.65,1.63c0.07,0.07,0.11,0.15,0.11,0.24c0,0.09-0.04,0.17-0.11,0.25c-0.07,0.07-0.15,0.11-0.24,0.11
				c-0.09,0-0.17-0.03-0.24-0.11l-1.93-1.91c-0.07-0.07-0.11-0.15-0.11-0.25c0-0.09,0.03-0.18,0.11-0.25L48.68,10
				C48.76,9.93,48.85,9.89,48.95,9.88z"/>
		</g>
		<g>
			<path class="st0" d="M51.9,19.2c-0.36,0.07-0.7,0.07-1.03,0c-0.33-0.06-0.65-0.2-0.95-0.39c-0.3-0.2-0.55-0.45-0.76-0.75
				c-0.2-0.3-0.33-0.63-0.4-0.98s-0.06-0.7,0.01-1.03c0.07-0.33,0.2-0.65,0.4-0.95c0.2-0.3,0.45-0.56,0.76-0.76
				c0.31-0.21,0.64-0.34,1-0.41c0.36-0.07,0.7-0.07,1.04-0.01c0.33,0.06,0.65,0.19,0.96,0.39c0.3,0.19,0.55,0.44,0.76,0.75
				c0.2,0.3,0.33,0.63,0.4,0.99c0.06,0.36,0.06,0.7-0.01,1.03c-0.07,0.33-0.21,0.65-0.41,0.96c-0.2,0.3-0.46,0.56-0.76,0.76
				C52.58,19,52.25,19.13,51.9,19.2z M53.15,17.38c0.16-0.31,0.24-0.64,0.22-0.98c-0.01-0.34-0.12-0.66-0.31-0.95
				c-0.19-0.28-0.44-0.5-0.75-0.64c-0.31-0.14-0.64-0.2-0.99-0.17c-0.35,0.03-0.67,0.14-0.97,0.34c-0.22,0.15-0.41,0.33-0.56,0.55
				c-0.15,0.22-0.25,0.45-0.3,0.69c-0.05,0.24-0.06,0.49-0.02,0.74c0.04,0.25,0.13,0.48,0.28,0.7c0.19,0.29,0.44,0.5,0.75,0.65
				c0.31,0.14,0.64,0.2,0.98,0.18c0.35-0.03,0.67-0.14,0.96-0.34C52.76,17.95,52.99,17.69,53.15,17.38z"/>
		</g>
		<g>
			<path class="st0" d="M51.91,20.48c0.07,0.03,0.13,0.09,0.16,0.18c0.02,0.05,0.02,0.14,0.01,0.26c-0.02,0.12-0.03,0.24-0.06,0.37
				c-0.02,0.13-0.02,0.3-0.01,0.5c0.02,0.2,0.07,0.41,0.14,0.61c0.11,0.29,0.27,0.5,0.48,0.63c0.2,0.13,0.42,0.15,0.65,0.06
				c0.13-0.05,0.23-0.12,0.3-0.22c0.07-0.1,0.12-0.22,0.15-0.35c0.02-0.13,0.04-0.28,0.04-0.44c0-0.16,0-0.32-0.01-0.5
				c-0.01-0.17-0.02-0.35-0.02-0.52c0-0.17,0-0.34,0.02-0.51s0.06-0.32,0.11-0.47c0.05-0.14,0.14-0.27,0.26-0.39
				c0.12-0.12,0.27-0.21,0.45-0.28c0.39-0.15,0.77-0.12,1.14,0.1c0.36,0.22,0.64,0.58,0.84,1.09c0.17,0.44,0.24,0.85,0.21,1.24
				c-0.03,0.38-0.14,0.61-0.34,0.69c-0.08,0.03-0.16,0.03-0.23,0c-0.07-0.03-0.12-0.09-0.16-0.18c-0.02-0.06-0.03-0.14-0.03-0.25
				c0-0.11,0.01-0.22,0.02-0.33c0.01-0.11,0-0.26-0.02-0.44c-0.02-0.18-0.07-0.36-0.14-0.54c-0.1-0.27-0.25-0.46-0.43-0.58
				c-0.18-0.12-0.37-0.14-0.56-0.06c-0.11,0.04-0.2,0.12-0.27,0.21c-0.07,0.1-0.11,0.21-0.13,0.34c-0.02,0.13-0.03,0.27-0.03,0.43
				s0.01,0.32,0.02,0.49c0.01,0.17,0.02,0.34,0.02,0.51c0,0.17-0.01,0.34-0.03,0.51c-0.02,0.17-0.06,0.32-0.12,0.47
				c-0.06,0.14-0.15,0.27-0.27,0.4c-0.12,0.12-0.28,0.22-0.47,0.29c-0.43,0.17-0.84,0.14-1.23-0.07C52,23.5,51.7,23.12,51.5,22.59
				c-0.12-0.3-0.19-0.61-0.21-0.92c-0.02-0.31,0-0.57,0.08-0.79c0.07-0.22,0.18-0.35,0.31-0.4C51.76,20.44,51.84,20.44,51.91,20.48z
				"/>
		</g>
	</g>
	<g>
		<g>
			<path class="st0" d="M53.54,27.27c1.43,10.74-4.44,21.48-14.65,25.5c-9.89,3.9-21.59,0.65-27.86-8
				C7.34,39.7,5.87,33.48,6.7,27.27c0.11-0.83-0.78-1.52-1.53-1.53c-0.92-0.01-1.42,0.71-1.53,1.53
				c-1.62,12.1,5.43,23.89,16.74,28.39c11.11,4.42,24.04,0.55,31.18-8.94c4.15-5.52,5.96-12.62,5.05-19.45
				c-0.11-0.83-0.62-1.52-1.53-1.53C54.33,25.73,53.43,26.45,53.54,27.27L53.54,27.27z"/>
		</g>
	</g>
</g>
</svg>
