<?xml version="1.0" encoding="utf-8"?>
<!-- Generator: Adobe Illustrator 27.0.0, SVG Export Plug-In . SVG Version: 6.00 Build 0)  -->
<svg version="1.1" id="Capa_1" xmlns="http://www.w3.org/2000/svg" xmlns:xlink="http://www.w3.org/1999/xlink" x="0px" y="0px"
	 viewBox="0 0 60 60" style="enable-background:new 0 0 60 60;" xml:space="preserve">
<style type="text/css">
	.st0{fill:#2D3B2B;}
</style>
<g>
	<g>
		<g>
			<path class="st0" d="M5.41,16.67c-0.02-0.09,0-0.18,0.05-0.26l0.93-1.46c0.25-0.39,0.57-0.64,0.96-0.76
				c0.39-0.12,0.76-0.07,1.1,0.15c0.24,0.15,0.39,0.35,0.47,0.58c0.07,0.24,0.09,0.47,0.04,0.69c0.23-0.19,0.48-0.31,0.76-0.35
				s0.56,0.03,0.83,0.2c0.34,0.22,0.54,0.53,0.61,0.94c0.07,0.41-0.03,0.83-0.3,1.25l-1,1.56c-0.05,0.08-0.13,0.14-0.22,0.16
				c-0.09,0.02-0.18,0-0.26-0.05l-3.82-2.44C5.48,16.83,5.43,16.76,5.41,16.67z M7.57,17.29l0.68-1.07c0.14-0.22,0.2-0.45,0.17-0.68
				c-0.03-0.23-0.14-0.41-0.33-0.53c-0.19-0.12-0.4-0.15-0.63-0.08C7.23,15,7.05,15.15,6.9,15.37l-0.68,1.06L7.57,17.29z
				 M9.52,18.54l0.74-1.16c0.15-0.24,0.21-0.48,0.17-0.73c-0.04-0.25-0.15-0.44-0.36-0.57c-0.2-0.13-0.43-0.16-0.66-0.09
				c-0.24,0.07-0.43,0.23-0.59,0.46l-0.74,1.16L9.52,18.54z"/>
		</g>
		<g>
			<path class="st0" d="M15.32,12.4c0.04,0.11,0.01,0.21-0.09,0.32c-0.14,0.16-0.34,0.19-0.58,0.09l-1.01-0.41l-1.78,1.78l0.42,1.01
				c0.05,0.13,0.08,0.23,0.07,0.32c0,0.08-0.05,0.16-0.13,0.23c-0.1,0.09-0.2,0.12-0.31,0.08c-0.11-0.03-0.19-0.13-0.25-0.27
				l-1.72-4.28c-0.08-0.18-0.11-0.33-0.1-0.44c0-0.11,0.06-0.22,0.17-0.32c0.11-0.1,0.21-0.16,0.33-0.17
				c0.11-0.01,0.26,0.03,0.44,0.1l4.26,1.71C15.19,12.2,15.28,12.29,15.32,12.4z M12.99,12.11l-2.38-0.98l0.98,2.38L12.99,12.11z"/>
		</g>
		<g>
			<path class="st0" d="M15.25,11.44c0.02-0.08,0.06-0.15,0.14-0.2c0.05-0.04,0.12-0.05,0.21-0.05c0.08,0,0.16,0.01,0.24,0.03
				c0.08,0.02,0.17,0.02,0.29,0c0.11-0.02,0.23-0.07,0.34-0.14c0.21-0.14,0.32-0.32,0.34-0.53c0.02-0.21-0.06-0.45-0.25-0.73
				l-1.84-2.7c-0.06-0.09-0.08-0.18-0.06-0.28s0.07-0.17,0.16-0.23C14.9,6.54,15,6.52,15.1,6.53c0.1,0.02,0.18,0.07,0.24,0.16
				l1.83,2.69c0.32,0.47,0.44,0.91,0.37,1.32c-0.08,0.4-0.3,0.73-0.67,0.99c-0.28,0.19-0.57,0.29-0.89,0.29
				c-0.31,0-0.53-0.09-0.66-0.28C15.25,11.61,15.23,11.52,15.25,11.44z"/>
		</g>
		<g>
			<path class="st0" d="M22.97,6.79c0,0.36-0.07,0.7-0.2,1.02c-0.13,0.31-0.32,0.6-0.57,0.86c-0.25,0.26-0.55,0.45-0.88,0.59
				c-0.34,0.14-0.68,0.2-1.04,0.19c-0.36-0.01-0.7-0.08-1.01-0.21c-0.31-0.13-0.6-0.33-0.85-0.58c-0.26-0.26-0.46-0.55-0.59-0.89
				c-0.14-0.34-0.21-0.69-0.2-1.06c0-0.36,0.07-0.7,0.2-1.02c0.13-0.32,0.32-0.6,0.57-0.86c0.25-0.26,0.54-0.46,0.88-0.59
				c0.34-0.14,0.69-0.2,1.05-0.19c0.36,0.01,0.7,0.08,1.01,0.22c0.31,0.13,0.6,0.33,0.86,0.59c0.26,0.26,0.46,0.56,0.6,0.9
				C22.91,6.08,22.97,6.43,22.97,6.79z M21.44,5.2c-0.27-0.22-0.58-0.36-0.92-0.41c-0.34-0.05-0.67-0.02-0.99,0.11
				c-0.32,0.13-0.58,0.33-0.78,0.61c-0.2,0.28-0.32,0.59-0.36,0.93c-0.04,0.35,0.01,0.69,0.14,1.02c0.1,0.25,0.25,0.47,0.43,0.66
				c0.19,0.19,0.39,0.33,0.61,0.43c0.23,0.1,0.46,0.15,0.72,0.16c0.25,0.01,0.5-0.03,0.74-0.13c0.32-0.13,0.58-0.33,0.78-0.61
				c0.2-0.27,0.33-0.58,0.37-0.93c0.04-0.34,0-0.68-0.14-1.01C21.92,5.69,21.71,5.42,21.44,5.2z"/>
		</g>
		<g>
			<path class="st0" d="M30.87,7.18c-0.04,0.11-0.14,0.17-0.27,0.18c-0.21,0.03-0.38-0.08-0.5-0.32l-0.48-0.97l-2.51,0.17
				l-0.35,1.04c-0.04,0.13-0.1,0.23-0.15,0.28c-0.06,0.06-0.14,0.09-0.25,0.09c-0.13,0-0.23-0.04-0.29-0.14s-0.06-0.22-0.01-0.37
				l1.52-4.35c0.06-0.19,0.13-0.32,0.21-0.4c0.08-0.08,0.19-0.12,0.34-0.13c0.15-0.01,0.27,0.02,0.36,0.09
				c0.09,0.07,0.18,0.19,0.26,0.37l2.07,4.08C30.9,6.95,30.92,7.08,30.87,7.18z M29.31,5.43l-1.14-2.3l-0.83,2.43L29.31,5.43z"/>
		</g>
		<g>
			<path class="st0" d="M32.61,2.39c0.08-0.06,0.16-0.08,0.26-0.06l1.47,0.22c0.59,0.09,1.05,0.31,1.37,0.66
				c0.32,0.35,0.44,0.78,0.36,1.27c-0.07,0.5-0.32,0.87-0.73,1.11c-0.41,0.25-0.92,0.32-1.52,0.23l-1.06-0.16l-0.23,1.54
				c-0.02,0.11-0.06,0.19-0.14,0.25c-0.08,0.06-0.17,0.08-0.28,0.06c-0.11-0.02-0.19-0.06-0.25-0.14c-0.06-0.08-0.08-0.17-0.06-0.28
				l0.67-4.48C32.49,2.52,32.54,2.44,32.61,2.39z M32.86,5.01L34,5.18c0.35,0.05,0.64,0,0.88-0.15c0.24-0.15,0.38-0.37,0.43-0.67
				c0.04-0.3-0.03-0.55-0.21-0.76c-0.19-0.21-0.45-0.34-0.8-0.39l-1.13-0.17L32.86,5.01z"/>
		</g>
		<g>
			<path class="st0" d="M41.43,8.56c-0.26,0.26-0.54,0.45-0.85,0.59c-0.31,0.14-0.65,0.21-1.01,0.22c-0.36,0.01-0.71-0.05-1.05-0.19
				c-0.34-0.13-0.63-0.33-0.89-0.59c-0.25-0.26-0.45-0.54-0.58-0.85c-0.13-0.31-0.2-0.65-0.21-1.02c-0.01-0.36,0.06-0.72,0.19-1.06
				c0.14-0.34,0.33-0.64,0.59-0.9c0.25-0.26,0.54-0.46,0.85-0.59c0.31-0.14,0.65-0.21,1.01-0.22C39.85,3.93,40.2,4,40.54,4.13
				c0.34,0.13,0.64,0.33,0.89,0.59c0.25,0.26,0.45,0.54,0.58,0.86c0.13,0.31,0.2,0.65,0.21,1.02c0.01,0.36-0.06,0.72-0.2,1.06
				C41.88,8,41.69,8.3,41.43,8.56z M41.43,6.35C41.39,6,41.26,5.69,41.06,5.41c-0.21-0.28-0.47-0.48-0.79-0.61
				c-0.32-0.13-0.65-0.16-0.98-0.1c-0.34,0.06-0.64,0.2-0.91,0.42c-0.27,0.22-0.47,0.5-0.61,0.84c-0.1,0.25-0.15,0.51-0.15,0.77
				c0,0.26,0.05,0.51,0.14,0.74c0.09,0.23,0.23,0.43,0.4,0.62c0.18,0.18,0.39,0.32,0.62,0.42c0.32,0.13,0.65,0.16,0.99,0.11
				c0.34-0.06,0.64-0.19,0.91-0.41c0.27-0.22,0.47-0.49,0.6-0.82C41.43,7.04,41.48,6.69,41.43,6.35z"/>
		</g>
		<g>
			<path class="st0" d="M45.1,12.21c-0.01,0.13-0.04,0.24-0.1,0.33c-0.05,0.07-0.12,0.11-0.2,0.12c-0.08,0.01-0.17-0.01-0.25-0.07
				c-0.07-0.05-0.12-0.11-0.15-0.18c-0.03-0.07-0.03-0.16-0.03-0.28l0.13-2.14l-0.86-0.61l-1,1.4c-0.06,0.09-0.14,0.14-0.24,0.15
				c-0.1,0.01-0.19-0.01-0.28-0.07c-0.09-0.06-0.14-0.14-0.16-0.24c-0.02-0.1,0-0.19,0.07-0.28l2.62-3.7
				c0.06-0.08,0.13-0.13,0.23-0.15c0.09-0.02,0.18,0.01,0.26,0.06l1.21,0.86c0.47,0.33,0.76,0.72,0.88,1.15
				c0.12,0.44,0.04,0.85-0.23,1.24c-0.21,0.3-0.48,0.49-0.8,0.58s-0.67,0.07-1.03-0.06L45.1,12.21z M44.96,9.5
				c0.27,0.19,0.53,0.27,0.79,0.25C46,9.72,46.21,9.6,46.37,9.37c0.16-0.23,0.21-0.46,0.14-0.71c-0.06-0.25-0.23-0.47-0.5-0.66
				l-0.94-0.66l-1.06,1.5L44.96,9.5z"/>
		</g>
		<g>
			<path class="st0" d="M47.16,14.6c-0.08,0.07-0.16,0.11-0.26,0.11c-0.1,0-0.19-0.04-0.26-0.12c-0.07-0.08-0.11-0.16-0.11-0.26
				c0-0.1,0.04-0.18,0.12-0.26l3.03-2.9l-0.91-0.95c-0.07-0.07-0.1-0.15-0.1-0.24c0-0.09,0.04-0.17,0.12-0.25
				c0.07-0.07,0.16-0.1,0.25-0.1c0.09,0,0.17,0.04,0.24,0.11l2.33,2.44c0.07,0.07,0.1,0.16,0.1,0.25c0,0.09-0.04,0.17-0.12,0.25
				c-0.07,0.07-0.15,0.1-0.25,0.1c-0.09,0-0.17-0.04-0.24-0.11l-0.91-0.95L47.16,14.6z"/>
		</g>
		<g>
			<path class="st0" d="M52.77,13.89c0.09,0.02,0.17,0.07,0.22,0.16l1.47,2.25c0.06,0.09,0.08,0.18,0.06,0.26
				c-0.02,0.09-0.07,0.16-0.16,0.22c-0.08,0.05-0.17,0.07-0.26,0.05c-0.09-0.02-0.16-0.07-0.22-0.16l-1.25-1.92l-1.31,0.86
				l1.07,1.64c0.05,0.08,0.07,0.17,0.06,0.26c-0.02,0.09-0.07,0.16-0.15,0.22c-0.08,0.05-0.17,0.07-0.26,0.05
				c-0.09-0.02-0.17-0.07-0.22-0.16l-1.07-1.64l-1.32,0.87l1.25,1.92c0.06,0.09,0.08,0.17,0.06,0.26c-0.02,0.09-0.07,0.16-0.16,0.22
				c-0.08,0.06-0.17,0.07-0.26,0.05c-0.09-0.02-0.16-0.07-0.22-0.16l-1.47-2.25c-0.06-0.08-0.07-0.17-0.05-0.26s0.07-0.17,0.16-0.22
				l3.79-2.48C52.6,13.89,52.68,13.87,52.77,13.89z"/>
		</g>
	</g>
	<g>
		<g>
			<path class="st0" d="M15.58,47.15c0.17-0.02,0.32,0.02,0.47,0.13l1.02,0.76c0.45,0.33,0.79,0.72,1.02,1.17
				c0.23,0.45,0.33,0.91,0.29,1.39c-0.03,0.47-0.2,0.91-0.49,1.31c-0.29,0.4-0.66,0.68-1.1,0.85c-0.44,0.17-0.91,0.21-1.4,0.12
				c-0.5-0.09-0.97-0.3-1.42-0.63l-1.02-0.76c-0.15-0.11-0.23-0.25-0.26-0.41c-0.03-0.17,0.02-0.32,0.13-0.47l2.36-3.2
				C15.28,47.26,15.42,47.17,15.58,47.15z M14.31,50.92l0.4,0.3c0.37,0.27,0.74,0.39,1.11,0.36c0.37-0.03,0.68-0.21,0.92-0.54
				c0.24-0.32,0.32-0.67,0.24-1.04c-0.08-0.37-0.31-0.69-0.68-0.96l-0.39-0.29L14.31,50.92z"/>
		</g>
		<g>
			<path class="st0" d="M19.79,50.05c0.16-0.06,0.32-0.05,0.49,0.03l2.06,0.94c0.17,0.08,0.28,0.19,0.34,0.35
				c0.06,0.16,0.05,0.32-0.03,0.49c-0.08,0.17-0.19,0.28-0.35,0.34c-0.16,0.06-0.32,0.05-0.49-0.03l-1.4-0.64l-0.29,0.62l1.11,0.51
				c0.17,0.08,0.28,0.19,0.34,0.35c0.06,0.16,0.05,0.32-0.03,0.49c-0.08,0.17-0.19,0.28-0.35,0.34c-0.16,0.06-0.32,0.05-0.49-0.03
				l-1.11-0.51l-0.31,0.69l1.4,0.64c0.17,0.08,0.28,0.19,0.34,0.35c0.06,0.16,0.05,0.32-0.03,0.49c-0.08,0.17-0.19,0.28-0.35,0.34
				c-0.16,0.06-0.32,0.05-0.49-0.03l-2.06-0.94c-0.17-0.08-0.28-0.19-0.34-0.35c-0.06-0.16-0.05-0.32,0.03-0.49l1.66-3.61
				C19.52,50.22,19.63,50.11,19.79,50.05z"/>
		</g>
		<g>
			<path class="st0" d="M23.86,55.6c0.12-0.08,0.27-0.11,0.44-0.08c0.12,0.02,0.25,0.07,0.38,0.16c0.14,0.09,0.29,0.17,0.46,0.26
				c0.17,0.09,0.34,0.15,0.52,0.18c0.17,0.03,0.32,0.03,0.44-0.01c0.12-0.04,0.19-0.11,0.21-0.23c0.02-0.09-0.02-0.18-0.1-0.27
				c-0.08-0.09-0.2-0.17-0.34-0.25c-0.14-0.08-0.31-0.16-0.48-0.25c-0.18-0.09-0.35-0.19-0.52-0.31c-0.17-0.12-0.32-0.25-0.46-0.39
				s-0.23-0.32-0.29-0.52c-0.06-0.21-0.07-0.44-0.03-0.68c0.08-0.47,0.34-0.82,0.76-1.05c0.42-0.23,0.95-0.29,1.58-0.17
				c0.33,0.06,0.62,0.15,0.87,0.26c0.25,0.12,0.45,0.27,0.6,0.46c0.15,0.19,0.2,0.39,0.16,0.62c-0.03,0.15-0.1,0.27-0.22,0.36
				s-0.27,0.11-0.43,0.08c-0.12-0.02-0.25-0.07-0.39-0.15c-0.14-0.08-0.29-0.16-0.45-0.24c-0.16-0.08-0.34-0.14-0.54-0.18
				c-0.29-0.05-0.46,0.02-0.49,0.22c-0.02,0.09,0.02,0.18,0.1,0.26c0.08,0.08,0.19,0.17,0.33,0.24s0.3,0.16,0.47,0.25
				c0.17,0.09,0.34,0.19,0.51,0.31c0.17,0.12,0.31,0.25,0.45,0.38c0.13,0.14,0.23,0.31,0.29,0.52c0.06,0.21,0.07,0.43,0.02,0.67
				c-0.09,0.49-0.34,0.86-0.77,1.1c-0.42,0.25-0.95,0.31-1.59,0.2c-0.34-0.06-0.64-0.15-0.91-0.28c-0.27-0.13-0.48-0.29-0.63-0.49
				c-0.15-0.2-0.21-0.41-0.17-0.64C23.66,55.8,23.73,55.68,23.86,55.6z"/>
		</g>
		<g>
			<path class="st0" d="M33.53,55.98c-0.13,0.34-0.32,0.64-0.55,0.89c-0.24,0.25-0.52,0.46-0.85,0.62
				c-0.33,0.16-0.68,0.24-1.05,0.26c-0.49,0.02-0.96-0.09-1.39-0.31c-0.43-0.23-0.78-0.55-1.04-0.96c-0.26-0.41-0.4-0.86-0.42-1.36
				c-0.01-0.37,0.04-0.73,0.18-1.07c0.13-0.34,0.32-0.64,0.55-0.89c0.24-0.25,0.52-0.46,0.85-0.62c0.33-0.16,0.69-0.25,1.06-0.26
				c0.49-0.02,0.96,0.09,1.39,0.31c0.43,0.23,0.78,0.55,1.04,0.96c0.26,0.41,0.4,0.86,0.42,1.36
				C33.72,55.28,33.67,55.63,33.53,55.98z M31.85,53.99c-0.26-0.26-0.57-0.39-0.93-0.37c-0.36,0.01-0.66,0.16-0.9,0.44
				c-0.24,0.28-0.36,0.61-0.34,1c0.01,0.38,0.15,0.71,0.42,0.97c0.26,0.26,0.58,0.39,0.93,0.37c0.36-0.01,0.66-0.16,0.9-0.44
				c0.24-0.28,0.36-0.61,0.34-1C32.25,54.58,32.11,54.25,31.85,53.99z"/>
		</g>
		<g>
			<path class="st0" d="M33.93,52.34c0.08-0.15,0.21-0.25,0.39-0.3l1.22-0.35c0.54-0.16,1.06-0.19,1.55-0.1
				c0.5,0.09,0.92,0.29,1.28,0.61s0.6,0.71,0.74,1.19c0.14,0.48,0.14,0.94,0,1.39c-0.13,0.45-0.39,0.85-0.76,1.19
				s-0.83,0.59-1.37,0.74l-1.22,0.35c-0.18,0.05-0.34,0.04-0.48-0.04s-0.25-0.21-0.3-0.39l-1.1-3.82
				C33.84,52.64,33.85,52.48,33.93,52.34z M36.15,55.64l0.48-0.14c0.44-0.13,0.76-0.35,0.97-0.66c0.2-0.31,0.25-0.67,0.13-1.06
				c-0.11-0.39-0.34-0.66-0.68-0.82s-0.73-0.17-1.18-0.04l-0.47,0.14L36.15,55.64z"/>
		</g>
		<g>
			<path class="st0" d="M38.83,50.66c0.06-0.17,0.18-0.29,0.35-0.38c0.18-0.09,0.35-0.1,0.52-0.04c0.17,0.06,0.3,0.18,0.38,0.36
				l1.72,3.57c0.09,0.18,0.1,0.35,0.04,0.52c-0.06,0.17-0.18,0.29-0.35,0.38c-0.18,0.09-0.35,0.1-0.52,0.04s-0.3-0.18-0.38-0.36
				l-1.72-3.57C38.79,51,38.78,50.83,38.83,50.66z"/>
		</g>
		<g>
			<path class="st0" d="M46.59,49.96c0.08,0.36,0.09,0.71,0.03,1.05c-0.06,0.34-0.18,0.67-0.37,0.98c-0.19,0.31-0.44,0.58-0.74,0.8
				c-0.4,0.29-0.85,0.45-1.33,0.5c-0.49,0.05-0.95-0.03-1.4-0.23c-0.45-0.2-0.81-0.5-1.1-0.9c-0.22-0.3-0.36-0.63-0.44-0.99
				c-0.08-0.36-0.09-0.71-0.03-1.05c0.06-0.34,0.18-0.67,0.37-0.98s0.44-0.58,0.74-0.8c0.4-0.29,0.84-0.45,1.33-0.5
				c0.49-0.05,0.95,0.03,1.39,0.23c0.44,0.2,0.81,0.5,1.1,0.9C46.36,49.27,46.51,49.6,46.59,49.96z M44.08,49.23
				c-0.36-0.08-0.69-0.01-0.98,0.2c-0.29,0.21-0.46,0.5-0.51,0.87c-0.05,0.37,0.04,0.71,0.26,1.02c0.23,0.31,0.52,0.51,0.88,0.58
				s0.69,0.01,0.98-0.2c0.29-0.21,0.46-0.5,0.51-0.86c0.05-0.37-0.04-0.71-0.26-1.02C44.74,49.5,44.45,49.3,44.08,49.23z"/>
		</g>
	</g>
	<g>
		<g>
			<path class="st0" d="M4.65,21.98c-2.53,7.65-1.46,16.15,2.9,22.93c1.06,1.65,3.71,0.12,2.64-1.54
				C6.24,37.22,5.31,29.72,7.6,22.79C8.22,20.92,5.26,20.12,4.65,21.98L4.65,21.98z"/>
		</g>
	</g>
	<g>
		<g>
			<path class="st0" d="M52.4,22.79c2.29,6.93,1.36,14.43-2.59,20.57c-1.07,1.66,1.58,3.2,2.64,1.54c4.36-6.78,5.42-15.27,2.9-22.93
				C54.74,20.12,51.78,20.92,52.4,22.79L52.4,22.79z"/>
		</g>
	</g>
	<g>
		<g>
			<path class="st0" d="M24.96,29.31c1.27-1.92,2.7-3.77,4.3-5.42c1.83-1.88,4.19-3.26,6.42-4.63c-0.31-0.04-0.62-0.08-0.93-0.12
				c2.03,2.43,4.06,4.85,6.09,7.28c0-0.36,0-0.72,0-1.08c-2.59,3.14-6.04,5.5-9.69,7.24c-1.05,0.5-2.12,1-3.24,1.32
				c-1.36,0.39-3.25,1.31-4.28-0.18C22.62,32.24,24.19,30.54,24.96,29.31c0.53-0.84-0.8-1.61-1.32-0.77
				c-0.79,1.26-1.97,2.63-1.88,4.21c0.13,2.38,2.42,3.79,4.64,3.19c3.88-1.05,7.6-2.76,10.83-5.17c1.7-1.27,3.35-2.71,4.71-4.35
				c0.28-0.34,0.29-0.74,0-1.08c-2.03-2.43-4.06-4.85-6.09-7.28c-0.21-0.25-0.66-0.29-0.93-0.12c-2.34,1.44-4.8,2.9-6.73,4.87
				c-1.69,1.73-3.2,3.7-4.54,5.73C23.1,29.36,24.42,30.12,24.96,29.31z"/>
		</g>
	</g>
	<g>
		<g>
			<path class="st0" d="M22.75,28.33c1.75,2.21,3.5,4.42,5.25,6.63c0.24,0.31,0.49,0.62,0.73,0.93c0.26,0.32,0.81,0.27,1.08,0
				c0.32-0.32,0.26-0.76,0-1.08c-1.75-2.21-3.5-4.42-5.25-6.63c-0.24-0.31-0.49-0.62-0.73-0.93c-0.26-0.32-0.81-0.27-1.08,0
				C22.43,27.57,22.49,28.01,22.75,28.33L22.75,28.33z"/>
		</g>
	</g>
	<g>
		<path class="st0" d="M29.04,32.78l-3.27-3.92c0,0,0.56-1.58,1.35-1.89c0.79-0.31,3.29,0.03,4.83,0.48s5.49,0.34,5.49,0.34
			S32.14,32.53,29.04,32.78z"/>
	</g>
	<g>
		<circle class="st0" cx="22.52" cy="36.31" r="0.36"/>
	</g>
	<g>
		<circle class="st0" cx="20.71" cy="34.53" r="0.36"/>
	</g>
	<g>
		<circle class="st0" cx="20.36" cy="38.17" r="0.36"/>
	</g>
	<g>
		<circle class="st0" cx="24.21" cy="38.17" r="0.36"/>
	</g>
	<g>
		<circle class="st0" cx="18.61" cy="43.19" r="0.36"/>
	</g>
	<g>
		<circle class="st0" cx="22.52" cy="38.89" r="0.36"/>
	</g>
	<g>
		<circle class="st0" cx="22.16" cy="40.71" r="0.36"/>
	</g>
	<g>
		<circle class="st0" cx="24.93" cy="32.78" r="0.36"/>
	</g>
</g>
</svg>
