<?xml version="1.0" encoding="utf-8"?>
<!-- Generator: Adobe Illustrator 27.0.0, SVG Export Plug-In . SVG Version: 6.00 Build 0)  -->
<svg version="1.1" id="Capa_1" xmlns="http://www.w3.org/2000/svg" xmlns:xlink="http://www.w3.org/1999/xlink" x="0px" y="0px"
	 viewBox="0 0 60 60" style="enable-background:new 0 0 60 60;" xml:space="preserve">
<style type="text/css">
	.st0{fill:#2D3B2B;}
</style>
<g>
	<g>
		<g>
			<path class="st0" d="M7.55,21.9c-0.03-0.08-0.02-0.16,0.02-0.24c0.02-0.05,0.09-0.11,0.18-0.18c0.1-0.07,0.2-0.14,0.31-0.22
				c0.11-0.07,0.23-0.19,0.37-0.34c0.14-0.15,0.25-0.33,0.35-0.52c0.14-0.28,0.18-0.54,0.13-0.78c-0.05-0.24-0.18-0.41-0.4-0.51
				c-0.12-0.06-0.25-0.08-0.37-0.06s-0.24,0.06-0.35,0.13c-0.11,0.07-0.23,0.16-0.34,0.27c-0.12,0.11-0.23,0.23-0.35,0.35
				c-0.12,0.13-0.24,0.25-0.36,0.37c-0.12,0.12-0.25,0.23-0.39,0.33c-0.14,0.1-0.27,0.18-0.42,0.24c-0.14,0.06-0.3,0.08-0.47,0.08
				c-0.17,0-0.34-0.05-0.51-0.13c-0.38-0.18-0.62-0.48-0.71-0.89c-0.09-0.41-0.02-0.86,0.22-1.36c0.21-0.43,0.46-0.76,0.76-1
				c0.3-0.24,0.55-0.31,0.73-0.22c0.08,0.04,0.13,0.09,0.16,0.17c0.02,0.07,0.02,0.15-0.02,0.24C6.05,17.68,6,17.74,5.92,17.81
				c-0.08,0.07-0.17,0.14-0.26,0.21c-0.09,0.07-0.19,0.17-0.31,0.31c-0.12,0.14-0.22,0.3-0.3,0.48c-0.12,0.26-0.17,0.49-0.13,0.71
				c0.04,0.21,0.15,0.36,0.34,0.45c0.11,0.05,0.22,0.07,0.34,0.05c0.12-0.02,0.23-0.07,0.33-0.14c0.11-0.07,0.22-0.17,0.33-0.28
				c0.11-0.11,0.23-0.23,0.35-0.35c0.12-0.12,0.24-0.25,0.36-0.37c0.12-0.12,0.26-0.23,0.39-0.33c0.14-0.1,0.28-0.17,0.42-0.23
				c0.14-0.06,0.3-0.08,0.48-0.07c0.17,0.01,0.35,0.06,0.53,0.14c0.42,0.2,0.68,0.52,0.79,0.94c0.11,0.43,0.04,0.9-0.21,1.41
				c-0.14,0.29-0.32,0.56-0.53,0.78c-0.21,0.23-0.42,0.39-0.63,0.49c-0.21,0.1-0.37,0.11-0.51,0.05C7.63,22.04,7.58,21.98,7.55,21.9
				z"/>
		</g>
		<g>
			<path class="st0" d="M12.3,13.53c0.17,0.32,0.28,0.64,0.32,0.98c0.04,0.34,0.01,0.68-0.08,1.03c-0.09,0.35-0.26,0.66-0.48,0.95
				c-0.23,0.28-0.5,0.51-0.81,0.68c-0.32,0.17-0.64,0.27-0.98,0.31c-0.34,0.04-0.68,0.01-1.03-0.09c-0.35-0.1-0.67-0.26-0.95-0.49
				c-0.29-0.23-0.52-0.5-0.69-0.82c-0.17-0.32-0.28-0.65-0.32-0.98c-0.04-0.34-0.02-0.68,0.08-1.03c0.09-0.35,0.25-0.66,0.48-0.95
				c0.23-0.28,0.5-0.51,0.82-0.68c0.32-0.17,0.65-0.27,0.99-0.31c0.34-0.04,0.68,0,1.03,0.09c0.35,0.1,0.67,0.26,0.96,0.49
				C11.9,12.94,12.13,13.21,12.3,13.53z M10.19,12.9c-0.35-0.06-0.68-0.03-1,0.09s-0.59,0.31-0.8,0.58
				C8.17,13.83,8.04,14.13,8,14.47c-0.04,0.34,0.01,0.67,0.14,0.99s0.34,0.59,0.62,0.82c0.21,0.17,0.44,0.29,0.69,0.36
				c0.25,0.07,0.5,0.1,0.75,0.08c0.24-0.02,0.48-0.09,0.71-0.21c0.23-0.12,0.42-0.28,0.58-0.48c0.21-0.27,0.34-0.57,0.39-0.91
				s0-0.67-0.13-0.99c-0.13-0.32-0.33-0.59-0.61-0.81C10.85,13.09,10.53,12.95,10.19,12.9z"/>
		</g>
		<g>
			<path class="st0" d="M13.9,7.6c0.11,0.05,0.18,0.16,0.21,0.31l0.5,3.39l0.9,1.1c0.07,0.08,0.1,0.17,0.08,0.27
				c-0.01,0.1-0.06,0.18-0.14,0.25c-0.08,0.07-0.17,0.1-0.27,0.09c-0.1-0.01-0.18-0.06-0.25-0.14l-0.89-1.09l-3.18-1.16
				c-0.16-0.06-0.26-0.15-0.28-0.29c-0.03-0.13,0.02-0.25,0.14-0.34c0.07-0.06,0.14-0.08,0.21-0.08c0.07,0,0.16,0.02,0.26,0.05
				l2.67,0.99l-0.43-2.78c-0.02-0.12-0.02-0.22,0-0.3c0.02-0.08,0.06-0.14,0.13-0.2C13.67,7.57,13.79,7.55,13.9,7.6z"/>
		</g>
		<g>
			<path class="st0" d="M21.19,9.19c0,0.11-0.06,0.21-0.18,0.28c-0.18,0.12-0.38,0.09-0.58-0.08l-0.84-0.69l-2.22,1.19l0.11,1.09
				c0.01,0.14,0.01,0.25-0.02,0.32c-0.03,0.08-0.09,0.14-0.19,0.18c-0.12,0.06-0.23,0.06-0.32-0.01c-0.09-0.06-0.15-0.18-0.16-0.33
				l-0.41-4.6c-0.02-0.2-0.01-0.35,0.03-0.45c0.04-0.1,0.12-0.19,0.25-0.26c0.13-0.07,0.25-0.09,0.36-0.07
				c0.11,0.02,0.24,0.1,0.39,0.23l3.58,2.87C21.12,8.96,21.18,9.07,21.19,9.19z M19.03,8.23L17.04,6.6l0.25,2.56L19.03,8.23z"/>
		</g>
		<g>
			<path class="st0" d="M27.1,2.65c0.08,0.06,0.13,0.14,0.15,0.24l0.78,4.37c0.02,0.14,0.01,0.26-0.04,0.35s-0.14,0.15-0.26,0.17
				c-0.13,0.02-0.24,0.01-0.34-0.03c-0.09-0.04-0.21-0.13-0.34-0.25l-3.27-3.05L24.41,8c0.02,0.1,0,0.2-0.06,0.28
				c-0.06,0.08-0.14,0.13-0.25,0.15c-0.1,0.02-0.2,0-0.28-0.06c-0.08-0.06-0.13-0.14-0.15-0.24L22.9,3.77
				c-0.03-0.15-0.01-0.27,0.05-0.36c0.06-0.1,0.15-0.16,0.29-0.18c0.12-0.02,0.22-0.01,0.31,0.04c0.09,0.05,0.19,0.13,0.3,0.24
				l3.32,3.11l-0.64-3.6c-0.02-0.1,0-0.2,0.06-0.28c0.06-0.08,0.14-0.13,0.24-0.15C26.92,2.58,27.02,2.59,27.1,2.65z"/>
		</g>
		<g>
			<path class="st0" d="M29.76,4.27c0.4-0.38,0.88-0.56,1.44-0.54c0.37,0.01,0.7,0.12,1,0.32s0.53,0.45,0.69,0.77
				c0.16,0.32,0.24,0.67,0.22,1.04s-0.12,0.72-0.31,1.02c-0.19,0.31-0.44,0.55-0.76,0.72s-0.66,0.25-1.03,0.23
				c-0.37-0.02-0.7-0.12-1-0.32c-0.3-0.2-0.53-0.46-0.69-0.78c-0.16-0.32-0.23-0.67-0.22-1.04C29.14,5.13,29.35,4.66,29.76,4.27z
				 M32.07,4.85c-0.23-0.27-0.53-0.42-0.89-0.43c-0.36-0.02-0.67,0.1-0.92,0.36c-0.25,0.25-0.39,0.57-0.4,0.96
				c-0.02,0.38,0.09,0.71,0.32,0.99C30.4,7,30.7,7.15,31.06,7.17c0.36,0.02,0.67-0.11,0.92-0.36c0.25-0.26,0.39-0.58,0.4-0.96
				C32.4,5.45,32.29,5.12,32.07,4.85z"/>
		</g>
		<g>
			<path class="st0" d="M37.67,5.24c0.2,0.35,0.24,0.76,0.12,1.25l-0.49,1.99c-0.02,0.1-0.08,0.18-0.16,0.23
				c-0.08,0.05-0.17,0.06-0.28,0.04c-0.1-0.03-0.18-0.08-0.23-0.16C36.59,8.5,36.58,8.41,36.6,8.3l0.46-1.88
				c0.08-0.32,0.05-0.59-0.07-0.81c-0.13-0.23-0.34-0.38-0.63-0.45c-0.27-0.07-0.51-0.04-0.72,0.07c-0.21,0.11-0.36,0.3-0.45,0.56
				l-0.5,2.04c-0.02,0.1-0.08,0.18-0.16,0.23c-0.08,0.05-0.17,0.06-0.27,0.04c-0.11-0.03-0.18-0.08-0.23-0.16s-0.06-0.17-0.04-0.28
				l0.77-3.13c0.02-0.1,0.08-0.18,0.16-0.23c0.08-0.05,0.17-0.06,0.28-0.03c0.1,0.02,0.18,0.08,0.23,0.16
				c0.05,0.08,0.07,0.17,0.04,0.28l-0.03,0.13c0.16-0.15,0.35-0.25,0.57-0.29c0.22-0.05,0.45-0.05,0.7,0.01
				C37.15,4.66,37.48,4.89,37.67,5.24z"/>
		</g>
		<g>
			<path class="st0" d="M41.47,8.91c-0.01,0.35,0.07,0.67,0.24,0.98c0.17,0.31,0.41,0.55,0.72,0.74c0.36,0.22,0.71,0.34,1.04,0.39
				l0.76-1.28c0.06-0.09,0.13-0.15,0.23-0.18c0.1-0.02,0.19-0.01,0.28,0.04c0.09,0.05,0.15,0.13,0.17,0.23s0.01,0.19-0.05,0.28
				l-0.74,1.24c-0.15,0.25-0.42,0.37-0.81,0.34c-0.39-0.03-0.82-0.18-1.3-0.47c-0.43-0.25-0.76-0.59-0.99-1.01
				c-0.23-0.42-0.34-0.87-0.33-1.34c0.01-0.48,0.14-0.93,0.39-1.35c0.26-0.43,0.59-0.76,0.99-1c0.41-0.24,0.85-0.35,1.34-0.35
				c0.49,0,0.96,0.14,1.42,0.42c0.2,0.12,0.39,0.26,0.56,0.42c0.17,0.16,0.3,0.32,0.39,0.47c0.09,0.15,0.16,0.29,0.19,0.43
				c0.03,0.13,0.02,0.24-0.02,0.32c-0.05,0.09-0.12,0.14-0.2,0.15c-0.08,0.01-0.16,0-0.24-0.05c-0.06-0.03-0.12-0.1-0.18-0.19
				c-0.06-0.09-0.12-0.18-0.18-0.28s-0.15-0.21-0.28-0.34c-0.13-0.13-0.28-0.25-0.45-0.35C44.09,7,43.77,6.91,43.42,6.91
				c-0.34,0-0.66,0.1-0.95,0.28c-0.29,0.18-0.53,0.43-0.72,0.74C41.57,8.23,41.48,8.56,41.47,8.91z"/>
		</g>
		<g>
			<path class="st0" d="M51.86,12.86c0,0.11-0.05,0.21-0.14,0.3l-3.2,3.13c-0.08,0.07-0.16,0.11-0.26,0.11
				c-0.1,0-0.19-0.04-0.26-0.12c-0.07-0.08-0.11-0.16-0.11-0.26c0-0.1,0.04-0.18,0.12-0.26l2.62-2.56l-2.86,0.64
				c-0.19,0.04-0.34,0-0.46-0.12c-0.11-0.12-0.15-0.27-0.1-0.46l0.69-2.83l-2.61,2.55c-0.08,0.07-0.16,0.11-0.26,0.11
				c-0.1,0-0.19-0.04-0.26-0.12c-0.07-0.08-0.11-0.16-0.11-0.26c0-0.1,0.04-0.18,0.11-0.26l3.16-3.09c0.11-0.1,0.22-0.16,0.34-0.15
				c0.12,0,0.24,0.06,0.34,0.17c0.09,0.09,0.15,0.2,0.16,0.3c0.01,0.11,0,0.24-0.05,0.41l-0.77,3.06l3.2-0.73
				c0.12-0.03,0.23-0.03,0.31-0.01c0.09,0.02,0.17,0.07,0.25,0.15C51.82,12.65,51.86,12.75,51.86,12.86z"/>
		</g>
		<g>
			<path class="st0" d="M52.7,21.04c-0.36,0.04-0.7,0.01-1.03-0.08c-0.33-0.09-0.63-0.25-0.92-0.47c-0.28-0.22-0.52-0.49-0.69-0.81
				c-0.18-0.32-0.28-0.66-0.32-1.01c-0.03-0.36,0-0.7,0.09-1.03c0.1-0.33,0.25-0.63,0.48-0.92c0.23-0.28,0.5-0.52,0.82-0.69
				c0.32-0.18,0.66-0.29,1.03-0.33c0.36-0.04,0.71-0.01,1.03,0.08c0.33,0.09,0.64,0.25,0.92,0.47c0.28,0.22,0.52,0.49,0.69,0.81
				c0.18,0.32,0.28,0.66,0.31,1.02c0.03,0.36,0,0.7-0.09,1.03c-0.1,0.33-0.26,0.63-0.48,0.92c-0.23,0.29-0.5,0.52-0.82,0.7
				C53.4,20.89,53.06,21,52.7,21.04z M54.1,19.33c0.19-0.3,0.29-0.62,0.3-0.96c0.02-0.34-0.06-0.67-0.23-0.97
				c-0.17-0.3-0.4-0.53-0.69-0.7c-0.3-0.17-0.62-0.25-0.97-0.25c-0.35,0-0.68,0.09-1,0.26c-0.23,0.13-0.44,0.3-0.6,0.5
				c-0.17,0.21-0.28,0.43-0.36,0.66c-0.07,0.23-0.1,0.48-0.08,0.73c0.02,0.25,0.09,0.49,0.22,0.72c0.17,0.3,0.4,0.54,0.7,0.71
				c0.3,0.17,0.62,0.26,0.96,0.26c0.35,0,0.68-0.08,0.99-0.25C53.66,19.86,53.91,19.63,54.1,19.33z"/>
		</g>
	</g>
	<g>
		<g>
			<path class="st0" d="M53.07,25.47c2.47,11.21-3.55,23-14.3,27.24c-10.13,3.99-22.07,0.47-28.25-8.54
				c-3.75-5.47-5.03-12.23-3.6-18.7c0.42-1.92-2.53-2.74-2.95-0.81C1.15,37.4,7.82,50.5,19.93,55.47
				c11.51,4.73,25.02,0.54,32.08-9.62c4.28-6.16,5.61-13.91,4-21.19C55.59,22.74,52.64,23.55,53.07,25.47L53.07,25.47z"/>
		</g>
	</g>
	<g>
		<g>
			<path class="st0" d="M21.1,28.36c0-2.42,0-4.84,0-7.26c0-1.08,0.02-2.22-1.1-2.8c-1.42-0.73-2.92,0.35-3.01,1.85
				c-0.14,2.51,0,5.06,0,7.57c0,1.08-0.06,2.18,0.2,3.23c0.41,1.68,1.45,2.91,2.68,4.04c1.07,0.98,2.51,1.99,3.27,3.26
				c0.84,1.42,0.56,3.34,0.56,4.93c0,0.41,0.35,0.77,0.76,0.77c1.84,0,3.68,0,5.52,0c0.41,0,0.76-0.35,0.76-0.77
				c0-1.91,0.03-3.82,0-5.73c-0.01-0.65-0.24-1.07-0.54-1.65c-0.45-0.89-0.89-1.79-1.36-2.68c-1.17-2.18-3.32-3.47-5.26-4.91
				c-0.71-0.53-1.39-1.2-2.34-1.12c-1.34,0.12-2.22,1.52-1.7,2.78c0.37,0.9,1.53,1.53,2.25,2.11c0.82,0.65,1.65,1.3,2.47,1.96
				c0.76,0.6,1.85-0.47,1.08-1.08c-1.25-0.99-2.51-1.98-3.76-2.98c-0.12-0.09-0.34-0.21-0.42-0.34c-0.56-0.85,0.19-1,0.74-0.68
				c0.74,0.42,1.43,1.06,2.11,1.57c1.53,1.14,2.83,2.15,3.73,3.9c0.42,0.83,0.85,1.67,1.27,2.5c0.07,0.14,0.13,0.34,0.23,0.45
				c0.19,0.21-0.05-0.05-0.03-0.23c-0.03,0.22,0,0.47,0,0.69c0,1.81,0,3.63,0,5.44c0.25-0.25,0.51-0.51,0.76-0.76
				c-1.84,0-3.68,0-5.52,0c0.26,0.26,0.51,0.51,0.77,0.76c0-2.67,0.16-5.15-1.97-7.15c-2.07-1.94-4.66-3.61-4.74-6.74
				c-0.06-2.11,0-4.24,0-6.35c0-0.81-0.2-1.93,0-2.72c0.17-0.65,0.77-0.96,1.05-0.06c0.08,0.26,0,0.68,0,0.95c0,2.42,0,4.84,0,7.26
				C19.57,29.34,21.1,29.34,21.1,28.36L21.1,28.36z"/>
		</g>
	</g>
	<g>
		<g>
			<path class="st0" d="M40.41,28.36c0-2.14,0-4.28,0-6.42c0-0.37-0.29-2.35,0.52-2.35c0.83,0,0.52,2.02,0.52,2.39
				c0,2.37,0.02,4.74,0,7.11c-0.03,3.03-2.21,4.61-4.23,6.47c-1.22,1.12-2.2,2.33-2.42,4.04c-0.15,1.17-0.06,2.4-0.06,3.58
				c0.26-0.25,0.51-0.51,0.76-0.76c-1.84,0-3.68,0-5.52,0c0.26,0.26,0.51,0.51,0.76,0.76c0-1.6,0-3.2,0-4.8c0-0.35,0.04-0.71,0-1.06
				c-0.01-0.08,0.01-0.16,0-0.24c-0.01-0.04-0.22,0.42-0.05,0.23c0.53-0.6,0.85-1.68,1.22-2.39c0.42-0.83,0.81-1.68,1.44-2.39
				c0.57-0.65,1.28-1.13,1.97-1.64c0.77-0.57,1.54-1.14,2.3-1.71c0.18-0.13,0.37-0.33,0.57-0.42c0.78-0.38,0.91,0.32,0.52,0.86
				c-0.49,0.67-1.54,1.22-2.18,1.73c-0.63,0.5-1.27,1-1.9,1.51c-0.77,0.61,0.32,1.69,1.08,1.08c1.38-1.09,2.89-2.1,4.17-3.3
				c0.93-0.87,0.94-2.35-0.1-3.14c-0.95-0.72-1.95-0.35-2.79,0.27c-1.73,1.29-3.87,2.52-5.18,4.27c-0.65,0.87-1.09,1.89-1.58,2.85
				c-0.34,0.67-0.9,1.43-1,2.19c-0.14,1.01,0,2.14,0,3.16c0,0.98,0,1.97,0,2.95c0,0.41,0.35,0.77,0.76,0.77c1.84,0,3.68,0,5.52,0
				c0.41,0,0.77-0.35,0.77-0.77c0-1.21-0.17-2.56,0.1-3.74c0.37-1.63,1.75-2.63,2.92-3.7c1.08-0.99,2.23-1.92,2.91-3.24
				c0.64-1.25,0.78-2.57,0.78-3.95c0-2.68,0.05-5.36,0-8.04c-0.02-1.23-0.64-2.44-2.05-2.44c-1.37,0-2.03,1.16-2.05,2.37
				c-0.06,2.64,0,5.29,0,7.93C38.88,29.34,40.41,29.34,40.41,28.36L40.41,28.36z"/>
		</g>
	</g>
	<g>
		<circle class="st0" cx="29.68" cy="31" r="1.27"/>
	</g>
	<g>
		<circle class="st0" cx="35.91" cy="25.94" r="1.27"/>
	</g>
	<g>
		<circle class="st0" cx="29.68" cy="27.03" r="1.27"/>
	</g>
	<g>
		<circle class="st0" cx="23.87" cy="25.94" r="1.27"/>
	</g>
	<g>
		<circle class="st0" cx="26.86" cy="24.33" r="1.27"/>
	</g>
	<g>
		<circle class="st0" cx="34.68" cy="23.02" r="1.27"/>
	</g>
	<g>
		<circle class="st0" cx="23.26" cy="21.01" r="1.27"/>
	</g>
	<g>
		<circle class="st0" cx="36.48" cy="18.82" r="1.27"/>
	</g>
	<g>
		<circle class="st0" cx="29.47" cy="21.01" r="1.27"/>
	</g>
	<g>
		<circle class="st0" cx="31.78" cy="24.33" r="1.27"/>
	</g>
	<g>
		<circle class="st0" cx="32.42" cy="28.83" r="1.27"/>
	</g>
	<g>
		<circle class="st0" cx="26.86" cy="28.48" r="1.27"/>
	</g>
</g>
</svg>
